<svg width="364" height="470" viewBox="0 0 364 470" fill="none" xmlns="http://www.w3.org/2000/svg">
<g filter="url(#filter0_d)">
<circle cx="345.899" cy="437.281" r="225" transform="rotate(-15 345.899 437.281)" fill="url(#paint0_radial)"/>
</g>
<g clip-path="url(#clip0)">
<path d="M469.071 85.6461L317.166 44.9434C311.304 43.3726 305.275 46.861 303.701 52.735L229.801 328.535C228.227 334.409 231.703 340.444 237.566 342.015L389.471 382.718C395.333 384.289 401.361 380.8 402.935 374.926L476.836 99.1263C478.41 93.2523 474.933 87.217 469.071 85.6461Z" fill="white"/>
<path d="M360.336 84.4195L313.849 71.9635C311.828 71.4218 309.749 72.6247 309.206 74.6502C308.664 76.6758 309.862 78.7569 311.884 79.2986L358.37 91.7546C360.392 92.2963 362.471 91.0933 363.013 89.0678C363.556 87.0423 362.357 84.9611 360.336 84.4195Z" fill="#EAEAEA"/>
<path d="M450.707 132.22L309.783 94.4595C306.751 93.647 303.633 95.4513 302.818 98.4896L283.95 168.907C283.136 171.945 284.934 175.067 287.967 175.879L428.89 213.64C431.922 214.452 435.041 212.648 435.855 209.609L454.723 139.192C455.537 136.154 453.739 133.032 450.707 132.22Z" fill="#EAEAEA"/>
<path d="M402.16 212.374L284.663 180.89C282.641 180.349 280.562 181.551 280.019 183.577C279.477 185.602 280.676 187.684 282.697 188.225L400.194 219.709C402.216 220.25 404.295 219.047 404.837 217.022C405.38 214.996 404.181 212.915 402.16 212.374Z" fill="#EAEAEA"/>
<path d="M340.521 209.616L281.223 193.727C279.201 193.185 277.123 194.388 276.58 196.414C276.037 198.439 277.236 200.52 279.258 201.062L338.555 216.951C340.577 217.492 342.656 216.29 343.198 214.264C343.741 212.238 342.542 210.157 340.521 209.616Z" fill="#EAEAEA"/>
<path d="M416.115 261.318L275.192 223.557C272.159 222.745 269.041 224.549 268.227 227.588L249.359 298.005C248.545 301.043 250.343 304.165 253.375 304.977L394.299 342.737C397.331 343.55 400.449 341.746 401.263 338.707L420.132 268.29C420.946 265.252 419.147 262.13 416.115 261.318Z" fill="#EAEAEA"/>
<path d="M367.568 341.472L250.071 309.988C248.049 309.447 245.97 310.65 245.428 312.675C244.885 314.701 246.084 316.782 248.105 317.323L365.603 348.807C367.624 349.348 369.703 348.146 370.246 346.12C370.788 344.094 369.59 342.013 367.568 341.472Z" fill="#EAEAEA"/>
<path d="M305.929 338.713L246.631 322.824C244.61 322.282 242.531 323.485 241.988 325.511C241.446 327.536 242.644 329.617 244.666 330.159L303.964 346.048C305.985 346.589 308.064 345.386 308.607 343.361C309.149 341.335 307.951 339.254 305.929 338.713Z" fill="#EAEAEA"/>
<path d="M469.071 85.6461L317.166 44.9434C311.304 43.3726 305.275 46.861 303.701 52.735L229.801 328.535C228.227 334.409 231.703 340.444 237.566 342.015L389.471 382.718C395.333 384.289 401.361 380.8 402.935 374.926L476.836 99.1263C478.41 93.2523 474.933 87.217 469.071 85.6461Z" stroke="#EAEAEA" stroke-width="2"/>
</g>
<path d="M295.578 158.176L143.673 198.879C137.811 200.45 134.334 206.485 135.908 212.359L209.809 488.159C211.383 494.033 217.411 497.522 223.274 495.951L375.178 455.248C381.041 453.677 384.517 447.642 382.943 441.768L309.043 165.968C307.469 160.094 301.441 156.605 295.578 158.176Z" fill="white"/>
<path d="M200.797 211.481L154.311 223.937C152.289 224.479 151.091 226.56 151.633 228.586C152.176 230.611 154.255 231.814 156.276 231.273L202.763 218.817C204.784 218.275 205.983 216.194 205.44 214.168C204.898 212.143 202.819 210.94 200.797 211.481Z" fill="#EAEAEA"/>
<path d="M194.981 236.626L162.038 245.453C159.005 246.265 157.207 249.387 158.021 252.425L163.918 274.43C164.732 277.469 167.85 279.273 170.882 278.461L203.825 269.634C206.858 268.821 208.656 265.699 207.842 262.661L201.945 240.656C201.131 237.617 198.013 235.813 194.981 236.626Z" fill="#EAEAEA"/>
<path d="M179.46 253.118C178.891 252.948 178.358 253.467 178.511 254.041L180.756 262.419C180.91 262.993 181.632 263.176 182.039 262.745L187.71 256.736C188.098 256.325 187.917 255.648 187.375 255.486L179.46 253.118Z" fill="#909090"/>
<path d="M304.791 207.202L209.622 232.703C207.601 233.244 206.402 235.325 206.945 237.351C207.487 239.376 209.566 240.579 211.588 240.038L306.757 214.537C308.778 213.996 309.977 211.914 309.434 209.889C308.892 207.863 306.813 206.66 304.791 207.202Z" fill="#EAEAEA"/>
<path d="M257.958 231.543L212.57 243.705C210.549 244.247 209.35 246.328 209.893 248.353C210.435 250.379 212.514 251.582 214.536 251.04L259.924 238.878C261.945 238.337 263.144 236.256 262.602 234.23C262.059 232.204 259.98 231.002 257.958 231.543Z" fill="#EAEAEA"/>
<path d="M314.483 236.052L215.654 262.533C214.643 262.804 214.043 263.844 214.315 264.857C214.586 265.87 215.626 266.471 216.636 266.201L315.466 239.719C316.477 239.448 317.076 238.408 316.805 237.395C316.533 236.382 315.494 235.781 314.483 236.052Z" fill="#EAEAEA"/>
<path d="M291.789 242.133L215.654 262.533C214.643 262.804 214.043 263.844 214.315 264.857C214.586 265.87 215.626 266.471 216.636 266.201L292.772 245.8C293.782 245.529 294.382 244.489 294.11 243.476C293.839 242.463 292.8 241.862 291.789 242.133Z" fill="#909090"/>
<path d="M209.721 291.639L176.778 300.466C173.746 301.279 171.948 304.4 172.762 307.439L178.658 329.444C179.472 332.482 182.59 334.287 185.623 333.474L218.566 324.647C221.598 323.834 223.396 320.713 222.582 317.674L216.686 295.669C215.872 292.631 212.754 290.826 209.721 291.639Z" fill="#EAEAEA"/>
<path d="M194.2 308.131C193.632 307.961 193.098 308.481 193.252 309.055L195.497 317.432C195.651 318.006 196.373 318.189 196.78 317.758L202.451 311.749C202.838 311.338 202.657 310.662 202.116 310.5L194.2 308.131Z" fill="#909090"/>
<path d="M319.532 262.215L224.363 287.716C222.342 288.257 221.143 290.339 221.685 292.364C222.228 294.39 224.307 295.593 226.329 295.051L321.498 269.55C323.519 269.009 324.718 266.928 324.175 264.902C323.633 262.876 321.554 261.674 319.532 262.215Z" fill="#EAEAEA"/>
<path d="M272.699 286.556L227.311 298.718C225.289 299.26 224.091 301.341 224.633 303.367C225.176 305.392 227.255 306.595 229.276 306.053L274.665 293.892C276.686 293.35 277.885 291.269 277.342 289.243C276.8 287.218 274.721 286.015 272.699 286.556Z" fill="#EAEAEA"/>
<path d="M329.224 291.065L230.395 317.546C229.384 317.817 228.784 318.858 229.056 319.87C229.327 320.883 230.366 321.485 231.377 321.214L330.207 294.733C331.217 294.462 331.817 293.421 331.546 292.408C331.274 291.396 330.235 290.794 329.224 291.065Z" fill="#EAEAEA"/>
<path d="M258.579 309.994L230.395 317.546C229.384 317.817 228.784 318.858 229.056 319.87C229.327 320.883 230.366 321.485 231.377 321.214L259.562 313.662C260.573 313.391 261.172 312.35 260.901 311.338C260.629 310.325 259.59 309.723 258.579 309.994Z" fill="#909090"/>
<path d="M224.462 346.652L191.519 355.479C188.487 356.291 186.689 359.413 187.503 362.451L193.399 384.457C194.213 387.495 197.331 389.299 200.364 388.487L233.307 379.66C236.339 378.847 238.137 375.725 237.323 372.687L231.427 350.682C230.613 347.644 227.495 345.839 224.462 346.652Z" fill="#EAEAEA"/>
<path d="M208.941 363.145C208.373 362.974 207.839 363.494 207.993 364.068L210.238 372.446C210.391 373.019 211.114 373.203 211.521 372.771L217.191 366.762C217.579 366.351 217.398 365.675 216.857 365.513L208.941 363.145Z" fill="#909090"/>
<path d="M334.273 317.228L239.104 342.729C237.082 343.271 235.883 345.352 236.426 347.377C236.969 349.403 239.047 350.606 241.069 350.064L336.238 324.564C338.26 324.022 339.458 321.941 338.916 319.915C338.373 317.89 336.294 316.687 334.273 317.228Z" fill="#EAEAEA"/>
<path d="M287.44 341.571L242.052 353.732C240.03 354.274 238.832 356.355 239.374 358.381C239.917 360.406 241.996 361.609 244.017 361.067L289.406 348.906C291.427 348.364 292.626 346.283 292.083 344.257C291.541 342.232 289.462 341.029 287.44 341.571Z" fill="#EAEAEA"/>
<path d="M343.965 346.079L245.135 372.56C244.125 372.831 243.525 373.872 243.797 374.885C244.068 375.897 245.107 376.499 246.118 376.228L344.948 349.747C345.958 349.476 346.558 348.435 346.286 347.422C346.015 346.41 344.976 345.808 343.965 346.079Z" fill="#EAEAEA"/>
<path d="M298.576 358.241L245.135 372.56C244.125 372.831 243.525 373.872 243.797 374.885C244.068 375.897 245.107 376.499 246.118 376.228L299.559 361.908C300.57 361.638 301.169 360.597 300.898 359.584C300.627 358.571 299.587 357.97 298.576 358.241Z" fill="#909090"/>
<path d="M239.203 401.666L206.26 410.493C203.228 411.306 201.429 414.428 202.244 417.466L208.14 439.471C208.954 442.51 212.072 444.314 215.105 443.501L248.048 434.674C251.08 433.862 252.878 430.74 252.064 427.702L246.168 405.696C245.354 402.658 242.236 400.854 239.203 401.666Z" fill="#EAEAEA"/>
<path d="M223.682 418.158C223.114 417.988 222.58 418.507 222.734 419.081L224.978 427.459C225.132 428.033 225.854 428.216 226.261 427.784L231.932 421.775C232.32 421.364 232.139 420.688 231.597 420.526L223.682 418.158Z" fill="#909090"/>
<path d="M349.014 372.242L253.844 397.742C251.823 398.284 250.624 400.365 251.167 402.39C251.71 404.416 253.788 405.619 255.81 405.077L350.979 379.577C353.001 379.035 354.199 376.954 353.657 374.928C353.114 372.903 351.035 371.7 349.014 372.242Z" fill="#EAEAEA"/>
<path d="M302.181 396.583L256.792 408.744C254.771 409.286 253.572 411.367 254.115 413.393C254.658 415.418 256.736 416.621 258.758 416.079L304.146 403.918C306.168 403.376 307.367 401.295 306.824 399.269C306.281 397.244 304.202 396.041 302.181 396.583Z" fill="#EAEAEA"/>
<path d="M358.705 401.091L259.876 427.572C258.865 427.843 258.266 428.884 258.537 429.897C258.809 430.909 259.848 431.511 260.859 431.24L359.688 404.759C360.699 404.488 361.298 403.447 361.027 402.434C360.756 401.422 359.716 400.82 358.705 401.091Z" fill="#EAEAEA"/>
<path d="M354.313 402.268L259.876 427.572C258.865 427.843 258.266 428.884 258.537 429.897C258.809 430.909 259.848 431.511 260.859 431.24L355.296 405.936C356.307 405.665 356.906 404.624 356.635 403.611C356.363 402.599 355.324 401.997 354.313 402.268Z" fill="#909090"/>
<path d="M361.924 427.745L221.001 465.505C217.968 466.318 216.17 469.44 216.984 472.478L218.95 479.813C219.764 482.851 222.882 484.656 225.914 483.843L366.838 446.083C369.87 445.27 371.668 442.149 370.854 439.11L368.889 431.775C368.074 428.737 364.956 426.933 361.924 427.745Z" fill="#EAEAEA"/>
<path d="M313.377 448.616L273.113 459.404C272.102 459.675 271.503 460.716 271.774 461.729C272.046 462.741 273.085 463.343 274.096 463.072L314.36 452.283C315.37 452.012 315.97 450.972 315.698 449.959C315.427 448.946 314.388 448.345 313.377 448.616Z" fill="#909090"/>
<path d="M295.578 158.176L143.673 198.879C137.811 200.45 134.334 206.485 135.908 212.359L209.809 488.159C211.383 494.033 217.411 497.522 223.274 495.951L375.178 455.248C381.041 453.677 384.517 447.642 382.943 441.768L309.043 165.968C307.469 160.094 301.441 156.605 295.578 158.176Z" stroke="#EAEAEA" stroke-width="2"/>
<defs>
<filter id="filter0_d" x="0.842651" y="92.2251" width="690.112" height="690.112" filterUnits="userSpaceOnUse" color-interpolation-filters="sRGB">
<feFlood flood-opacity="0" result="BackgroundImageFix"/>
<feColorMatrix in="SourceAlpha" type="matrix" values="0 0 0 0 0 0 0 0 0 0 0 0 0 0 0 0 0 0 127 0" result="hardAlpha"/>
<feOffset/>
<feGaussianBlur stdDeviation="60"/>
<feComposite in2="hardAlpha" operator="out"/>
<feColorMatrix type="matrix" values="0 0 0 0 1 0 0 0 0 0.671875 0 0 0 0 0 0 0 0 0.35 0"/>
<feBlend mode="normal" in2="BackgroundImageFix" result="effect1_dropShadow"/>
<feBlend mode="normal" in="SourceGraphic" in2="effect1_dropShadow" result="shape"/>
</filter>
<radialGradient id="paint0_radial" cx="0" cy="0" r="1" gradientUnits="userSpaceOnUse" gradientTransform="translate(345.899 437.281) rotate(90) scale(225)">
<stop stop-color="#FFAB00"/>
<stop offset="1" stop-color="#FFAB00"/>
</radialGradient>
<clipPath id="clip0">
<rect width="180" height="308.311" fill="white" transform="translate(306.283 41.6348) rotate(15)"/>
</clipPath>
</defs>
</svg>
