<svg width="541" height="674" viewBox="0 0 541 674" fill="none" xmlns="http://www.w3.org/2000/svg">
<g filter="url(#filter0_d)">
<circle cx="451.52" cy="574.585" r="330.738" transform="rotate(-15 451.52 574.585)" fill="url(#paint0_radial)"/>
</g>
<g clip-path="url(#clip0)">
<path d="M673.309 130.16L438.932 67.3587C429.886 64.935 420.585 70.3174 418.157 79.3806L304.134 504.919C301.706 513.982 307.07 523.294 316.115 525.717L550.492 588.519C559.537 590.942 568.839 585.56 571.267 576.497L685.29 150.959C687.718 141.896 682.354 132.584 673.309 130.16Z" fill="white"/>
<path d="M505.539 128.267L433.814 109.048C430.695 108.213 427.487 110.069 426.65 113.194C425.812 116.319 427.662 119.53 430.781 120.366L502.506 139.584C505.625 140.42 508.833 138.564 509.67 135.439C510.507 132.314 508.658 129.103 505.539 128.267Z" fill="#EAEAEA"/>
<path d="M644.974 202.018L427.54 143.757C422.861 142.503 418.05 145.287 416.794 149.975L387.682 258.623C386.426 263.311 389.2 268.127 393.879 269.381L611.313 327.642C615.992 328.896 620.803 326.112 622.059 321.424L651.171 212.776C652.427 208.088 649.652 203.272 644.974 202.018Z" fill="#EAEAEA"/>
<path d="M570.07 325.689L388.78 277.112C385.661 276.277 382.454 278.133 381.617 281.258C380.779 284.383 382.629 287.594 385.748 288.43L567.037 337.006C570.156 337.842 573.364 335.986 574.201 332.861C575.038 329.735 573.189 326.524 570.07 325.689Z" fill="#EAEAEA"/>
<path d="M474.966 321.432L383.474 296.917C380.355 296.081 377.147 297.937 376.31 301.063C375.473 304.188 377.322 307.399 380.441 308.235L471.933 332.75C475.052 333.585 478.259 331.729 479.097 328.604C479.934 325.479 478.085 322.268 474.966 321.432Z" fill="#EAEAEA"/>
<path d="M591.602 401.205L374.168 342.944C369.489 341.69 364.678 344.474 363.422 349.162L334.31 457.81C333.054 462.498 335.828 467.315 340.507 468.568L557.941 526.83C562.619 528.083 567.431 525.299 568.687 520.611L597.799 411.963C599.055 407.275 596.28 402.459 591.602 401.205Z" fill="#EAEAEA"/>
<path d="M516.697 524.878L335.408 476.302C332.289 475.466 329.082 477.322 328.245 480.447C327.407 483.572 329.257 486.783 332.376 487.619L513.665 536.195C516.784 537.031 519.991 535.175 520.829 532.05C521.666 528.925 519.817 525.714 516.697 524.878Z" fill="#EAEAEA"/>
<path d="M421.593 520.621L330.102 496.106C326.983 495.271 323.775 497.127 322.938 500.252C322.1 503.377 323.95 506.588 327.069 507.424L418.561 531.939C421.68 532.775 424.887 530.919 425.725 527.793C426.562 524.668 424.713 521.457 421.593 520.621Z" fill="#EAEAEA"/>
<path d="M536.51 502.893C546.179 505.484 556.122 499.73 558.718 490.042C561.314 480.354 555.58 470.399 545.911 467.808C536.242 465.218 526.299 470.971 523.703 480.659C521.107 490.348 526.841 500.302 536.51 502.893Z" fill="#909090"/>
<path d="M532.453 488.665C533.643 488.345 534.896 488.344 536.086 488.663C537.275 488.982 538.36 489.609 539.231 490.481C540.42 490.161 541.674 490.16 542.863 490.479C544.052 490.798 545.137 491.425 546.008 492.297" stroke="#EAEAEA" stroke-width="2.66667" stroke-linecap="round" stroke-linejoin="round"/>
<path d="M535.081 478.856C536.271 478.536 537.524 478.535 538.714 478.854C539.903 479.173 540.988 479.799 541.859 480.672C543.048 480.352 544.302 480.351 545.491 480.67C546.68 480.989 547.765 481.615 548.636 482.488" stroke="#EAEAEA" stroke-width="2.66667" stroke-linecap="round" stroke-linejoin="round"/>
<path d="M535.082 478.857L532.454 488.665" stroke="#EAEAEA" stroke-width="2.66667" stroke-linecap="round" stroke-linejoin="round"/>
<path d="M541.858 480.672L539.23 490.48" stroke="#EAEAEA" stroke-width="2.66667" stroke-linecap="round" stroke-linejoin="round"/>
<path d="M673.309 130.16L438.932 67.3587C429.886 64.935 420.585 70.3174 418.157 79.3806L304.134 504.919C301.706 513.982 307.07 523.294 316.115 525.717L550.492 588.519C559.537 590.942 568.839 585.56 571.267 576.497L685.29 150.959C687.718 141.896 682.354 132.584 673.309 130.16Z" stroke="#EAEAEA" stroke-width="2"/>
</g>
<path d="M367.217 199.04L132.84 261.841C123.795 264.264 118.431 273.576 120.859 282.64L234.882 708.178C237.31 717.241 246.611 722.623 255.657 720.199L490.034 657.398C499.079 654.975 504.443 645.663 502.015 636.599L387.992 211.062C385.564 201.998 376.262 196.616 367.217 199.04Z" fill="white"/>
<path d="M220.977 281.284L149.252 300.503C146.133 301.339 144.283 304.55 145.121 307.675C145.958 310.8 149.166 312.656 152.285 311.821L224.01 292.602C227.129 291.766 228.978 288.555 228.141 285.43C227.304 282.305 224.096 280.449 220.977 281.284Z" fill="#EAEAEA"/>
<path d="M212.001 320.077L161.173 333.696C156.494 334.95 153.719 339.767 154.976 344.454L164.073 378.407C165.329 383.095 170.14 385.879 174.819 384.625L225.648 371.006C230.326 369.752 233.101 364.935 231.845 360.248L222.747 326.295C221.491 321.607 216.68 318.823 212.001 320.077Z" fill="#EAEAEA"/>
<path d="M188.054 345.524C187.177 345.262 186.354 346.063 186.591 346.949L190.054 359.875C190.292 360.76 191.406 361.043 192.034 360.377L200.784 351.106C201.382 350.472 201.102 349.428 200.267 349.179L188.054 345.524Z" fill="#909090"/>
<path d="M381.431 274.68L234.593 314.025C231.474 314.861 229.624 318.072 230.462 321.197C231.299 324.323 234.506 326.179 237.625 325.343L384.464 285.998C387.583 285.162 389.433 281.951 388.595 278.826C387.758 275.7 384.551 273.844 381.431 274.68Z" fill="#EAEAEA"/>
<path d="M309.171 312.236L239.141 331.001C236.022 331.837 234.172 335.048 235.009 338.173C235.847 341.298 239.054 343.154 242.173 342.319L312.204 323.554C315.323 322.718 317.173 319.507 316.335 316.382C315.498 313.257 312.291 311.401 309.171 312.236Z" fill="#EAEAEA"/>
<path d="M396.385 319.195L243.899 360.054C242.339 360.472 241.415 362.077 241.833 363.64C242.252 365.202 243.856 366.13 245.415 365.713L397.901 324.854C399.461 324.436 400.386 322.831 399.967 321.268C399.548 319.705 397.945 318.777 396.385 319.195Z" fill="#EAEAEA"/>
<path d="M361.37 328.578L243.899 360.054C242.339 360.472 241.415 362.077 241.833 363.64C242.252 365.202 243.856 366.13 245.415 365.713L362.886 334.236C364.446 333.818 365.37 332.213 364.952 330.65C364.533 329.088 362.929 328.16 361.37 328.578Z" fill="#909090"/>
<path d="M234.745 404.962L183.917 418.581C179.238 419.835 176.464 424.651 177.72 429.339L186.817 463.292C188.073 467.98 192.884 470.764 197.563 469.51L248.392 455.89C253.07 454.637 255.845 449.82 254.589 445.132L245.491 411.18C244.235 406.492 239.424 403.708 234.745 404.962Z" fill="#EAEAEA"/>
<path d="M210.798 430.407C209.921 430.145 209.098 430.946 209.335 431.832L212.798 444.758C213.036 445.643 214.15 445.926 214.778 445.26L223.528 435.989C224.126 435.355 223.846 434.311 223.011 434.061L210.798 430.407Z" fill="#909090"/>
<path d="M404.175 359.561L257.336 398.907C254.217 399.742 252.367 402.953 253.205 406.079C254.042 409.204 257.25 411.06 260.369 410.224L407.207 370.879C410.326 370.043 412.176 366.832 411.339 363.707C410.501 360.582 407.294 358.726 404.175 359.561Z" fill="#EAEAEA"/>
<path d="M331.916 397.118L261.885 415.882C258.766 416.718 256.916 419.929 257.754 423.054C258.591 426.18 261.798 428.036 264.917 427.2L334.948 408.435C338.067 407.599 339.917 404.388 339.08 401.263C338.242 398.138 335.035 396.282 331.916 397.118Z" fill="#EAEAEA"/>
<path d="M419.128 404.073L266.642 444.932C265.083 445.349 264.158 446.955 264.576 448.518C264.995 450.08 266.599 451.008 268.158 450.59L420.645 409.732C422.204 409.314 423.129 407.708 422.71 406.146C422.292 404.583 420.688 403.655 419.128 404.073Z" fill="#EAEAEA"/>
<path d="M310.129 433.279L266.642 444.932C265.083 445.349 264.158 446.955 264.576 448.518C264.995 450.08 266.599 451.008 268.158 450.59L311.645 438.938C313.205 438.52 314.13 436.915 313.711 435.352C313.292 433.789 311.689 432.861 310.129 433.279Z" fill="#909090"/>
<path d="M257.49 489.843L206.661 503.463C201.982 504.716 199.208 509.533 200.464 514.221L209.561 548.173C210.817 552.861 215.629 555.645 220.307 554.391L271.136 540.772C275.815 539.518 278.589 534.702 277.333 530.014L268.235 496.061C266.979 491.373 262.168 488.589 257.49 489.843Z" fill="#EAEAEA"/>
<path d="M233.541 515.288C232.665 515.026 231.841 515.827 232.078 516.713L235.542 529.639C235.779 530.524 236.893 530.807 237.521 530.141L246.271 520.87C246.869 520.236 246.59 519.192 245.754 518.942L233.541 515.288Z" fill="#909090"/>
<path d="M426.919 444.444L280.08 483.789C276.961 484.625 275.111 487.836 275.949 490.961C276.786 494.087 279.994 495.942 283.113 495.107L429.951 455.761C433.07 454.926 434.92 451.715 434.083 448.589C433.245 445.464 430.038 443.608 426.919 444.444Z" fill="#EAEAEA"/>
<path d="M354.66 482.001L284.629 500.765C281.51 501.601 279.66 504.812 280.498 507.937C281.335 511.063 284.543 512.919 287.662 512.083L357.692 493.318C360.811 492.482 362.661 489.271 361.824 486.146C360.986 483.021 357.779 481.165 354.66 482.001Z" fill="#EAEAEA"/>
<path d="M441.872 488.958L289.386 529.816C287.827 530.234 286.902 531.84 287.321 533.402C287.739 534.965 289.343 535.893 290.903 535.475L443.389 494.616C444.948 494.199 445.873 492.593 445.454 491.03C445.036 489.468 443.432 488.54 441.872 488.958Z" fill="#EAEAEA"/>
<path d="M371.842 507.722L289.386 529.816C287.827 530.234 286.902 531.84 287.321 533.402C287.739 534.965 289.343 535.893 290.903 535.475L373.358 513.381C374.918 512.963 375.842 511.358 375.424 509.795C375.005 508.232 373.401 507.304 371.842 507.722Z" fill="#909090"/>
<path d="M280.234 574.722L229.405 588.342C224.726 589.595 221.952 594.412 223.208 599.1L232.306 633.052C233.562 637.74 238.373 640.524 243.051 639.271L293.88 625.651C298.559 624.397 301.333 619.581 300.077 614.893L290.98 580.94C289.724 576.253 284.912 573.469 280.234 574.722Z" fill="#EAEAEA"/>
<path d="M256.286 600.169C255.409 599.907 254.585 600.709 254.822 601.594L258.286 614.52C258.523 615.406 259.637 615.688 260.265 615.022L269.015 605.751C269.613 605.117 269.334 604.074 268.499 603.824L256.286 600.169Z" fill="#909090"/>
<path d="M449.663 529.322L302.824 568.667C299.705 569.503 297.856 572.714 298.693 575.839C299.53 578.964 302.738 580.82 305.857 579.985L452.695 540.639C455.815 539.804 457.664 536.593 456.827 533.467C455.989 530.342 452.782 528.486 449.663 529.322Z" fill="#EAEAEA"/>
<path d="M377.404 566.88L307.373 585.645C304.254 586.481 302.404 589.692 303.242 592.817C304.079 595.942 307.287 597.798 310.406 596.962L380.436 578.198C383.556 577.362 385.405 574.151 384.568 571.026C383.73 567.9 380.523 566.044 377.404 566.88Z" fill="#EAEAEA"/>
<path d="M464.617 573.839L312.13 614.698C310.571 615.115 309.646 616.721 310.065 618.284C310.483 619.846 312.087 620.774 313.647 620.356L466.133 579.498C467.692 579.08 468.617 577.474 468.199 575.912C467.78 574.349 466.176 573.421 464.617 573.839Z" fill="#EAEAEA"/>
<path d="M457.839 575.655L312.13 614.698C310.571 615.115 309.646 616.721 310.065 618.284C310.483 619.846 312.087 620.774 313.647 620.356L459.356 581.314C460.915 580.896 461.84 579.29 461.421 577.728C461.003 576.165 459.399 575.237 457.839 575.655Z" fill="#909090"/>
<path d="M469.582 614.962L252.148 673.223C247.47 674.477 244.695 679.293 245.951 683.981L248.984 695.298C250.24 699.986 255.051 702.77 259.729 701.517L477.163 643.255C481.842 642.002 484.617 637.185 483.36 632.497L480.328 621.18C479.072 616.492 474.261 613.708 469.582 614.962Z" fill="#EAEAEA"/>
<path d="M394.678 647.164L332.554 663.81C330.995 664.228 330.07 665.834 330.489 667.396C330.907 668.959 332.511 669.887 334.071 669.469L396.195 652.823C397.754 652.405 398.679 650.799 398.26 649.237C397.842 647.674 396.238 646.746 394.678 647.164Z" fill="#909090"/>
<path d="M367.217 199.04L132.84 261.841C123.795 264.264 118.431 273.576 120.859 282.64L234.882 708.178C237.31 717.241 246.611 722.623 255.657 720.199L490.034 657.398C499.079 654.975 504.443 645.663 502.015 636.599L387.992 211.062C385.564 201.998 376.262 196.616 367.217 199.04Z" stroke="#EAEAEA" stroke-width="2"/>
<defs>
<filter id="filter0_d" x="0.700195" y="123.765" width="901.64" height="901.64" filterUnits="userSpaceOnUse" color-interpolation-filters="sRGB">
<feFlood flood-opacity="0" result="BackgroundImageFix"/>
<feColorMatrix in="SourceAlpha" type="matrix" values="0 0 0 0 0 0 0 0 0 0 0 0 0 0 0 0 0 0 127 0" result="hardAlpha"/>
<feOffset/>
<feGaussianBlur stdDeviation="60"/>
<feComposite in2="hardAlpha" operator="out"/>
<feColorMatrix type="matrix" values="0 0 0 0 1 0 0 0 0 0.671875 0 0 0 0 0 0 0 0 0.35 0"/>
<feBlend mode="normal" in2="BackgroundImageFix" result="effect1_dropShadow"/>
<feBlend mode="normal" in="SourceGraphic" in2="effect1_dropShadow" result="shape"/>
</filter>
<radialGradient id="paint0_radial" cx="0" cy="0" r="1" gradientUnits="userSpaceOnUse" gradientTransform="translate(451.52 574.585) rotate(90) scale(330.738)">
<stop stop-color="#FFAB00"/>
<stop offset="1" stop-color="#FFAB00"/>
</radialGradient>
<clipPath id="clip0">
<rect width="277.726" height="475.7" fill="white" transform="translate(422.14 62.2523) rotate(15)"/>
</clipPath>
</defs>
</svg>
