<svg width="20" height="20" viewBox="0 0 20 20" fill="none" xmlns="http://www.w3.org/2000/svg">
<path d="M8.33301 11.6667C8.60457 11.9438 8.92871 12.164 9.28645 12.3143C9.64418 12.4647 10.0283 12.5421 10.4163 12.5421C10.8044 12.5421 11.1885 12.4647 11.5462 12.3143C11.904 12.164 12.2281 11.9438 12.4997 11.6667L15.833 8.33332C16.3855 7.78079 16.696 7.03139 16.696 6.24999C16.696 5.46859 16.3855 4.71919 15.833 4.16666C15.2805 3.61412 14.5311 3.30371 13.7497 3.30371C12.9683 3.30371 12.2189 3.61412 11.6663 4.16666L11.2497 4.58332" stroke="black" stroke-width="1.66667" stroke-linecap="round" stroke-linejoin="round"/>
<path d="M11.6667 8.33331C11.3951 8.05615 11.0709 7.83595 10.7132 7.68563C10.3555 7.53531 9.97135 7.45789 9.58332 7.45789C9.19529 7.45789 8.81116 7.53531 8.45343 7.68563C8.0957 7.83595 7.77155 8.05615 7.49999 8.33331L4.16666 11.6666C3.61412 12.2192 3.30371 12.9686 3.30371 13.75C3.30371 14.5314 3.61412 15.2808 4.16666 15.8333C4.71919 16.3858 5.46859 16.6963 6.24999 16.6963C7.03139 16.6963 7.78079 16.3858 8.33332 15.8333L8.74999 15.4166" stroke="black" stroke-width="1.66667" stroke-linecap="round" stroke-linejoin="round"/>
</svg>
