<svg width="523" height="468" viewBox="0 0 523 468" fill="none" xmlns="http://www.w3.org/2000/svg">
<path d="M195.272 218.232C220.45 174.624 250.695 139.501 279.205 117.955C293.461 107.181 307.243 99.8324 319.706 96.4909C332.164 93.1508 343.229 93.8302 352.17 98.9922C361.111 104.154 367.232 113.397 370.568 125.856C373.906 138.32 374.433 153.93 372.23 171.663C367.826 207.126 352.531 250.881 327.354 294.489C302.177 338.097 271.931 373.22 243.422 394.766C229.165 405.54 215.383 412.889 202.92 416.23C190.462 419.571 179.397 418.891 170.456 413.729C161.516 408.567 155.395 399.324 152.059 386.866C148.721 374.402 148.194 358.792 150.396 341.058C154.801 305.595 170.095 261.84 195.272 218.232Z" stroke="black" stroke-opacity="0.3" stroke-width="2"/>
<path d="M281.099 182.615C329.681 195.615 371.378 215.719 399.523 237.675C413.597 248.654 424.242 260.065 430.679 271.243C437.113 282.416 439.309 293.288 436.63 303.273C433.951 313.258 426.606 321.578 415.44 328.041C404.268 334.507 389.337 339.073 371.651 341.554C336.285 346.515 290.108 343.105 241.526 330.105C192.944 317.105 151.247 297.001 123.102 275.045C109.029 264.066 98.3836 252.654 91.9464 241.477C85.512 230.304 83.3159 219.431 85.9949 209.446C88.674 199.461 96.0193 191.142 107.186 184.679C118.357 178.213 133.289 173.646 150.974 171.166C186.34 166.205 232.517 169.614 281.099 182.615Z" stroke="black" stroke-opacity="0.3" stroke-width="2"/>
</svg>
