<svg width="60" height="60" viewBox="0 0 60 60" fill="none" xmlns="http://www.w3.org/2000/svg">
<g clip-path="url(#clip0)">
<path d="M53.0562 45L51.6395 44.3639L57.6146 30.783H44.6957L51.6395 15L53.0562 15.6361L47.0812 29.217H60.0001L53.0562 45Z" fill="#FFAB00"/>
<path d="M0.996778 19.8993C1.45217 20.3789 2.15948 20.7803 3.05081 20.7803C3.80657 20.7803 4.17469 20.4181 4.17469 20.0462C4.17469 19.5568 3.61278 19.3904 2.86672 19.2142C1.81067 18.9695 0.45425 18.6759 0.45425 17.2175C0.45425 16.1311 1.38434 15.2502 2.90548 15.2502C3.93246 15.2502 4.78511 15.5635 5.42453 16.1605L4.65915 17.1784C4.13593 16.689 3.43838 16.464 2.80859 16.464C2.18848 16.464 1.85911 16.738 1.85911 17.1295C1.85911 17.5699 2.40171 17.7069 3.14771 17.8831C4.21345 18.1278 5.56986 18.4508 5.56986 19.8993C5.56986 21.0934 4.72697 21.9939 2.98299 21.9939C1.74284 21.9939 0.851441 21.573 0.241089 20.9564L0.996778 19.8993Z" fill="black"/>
<path d="M10.0466 16.4737C8.85493 16.4737 8.08948 17.3937 8.08948 18.6172C8.08948 19.8308 8.85493 20.7606 10.0466 20.7606C11.2383 20.7606 12.0135 19.8308 12.0135 18.6172C12.0135 17.3937 11.2383 16.4737 10.0466 16.4737ZM10.0466 15.2405C12.0037 15.2405 13.428 16.6499 13.428 18.6172C13.428 20.5845 12.0037 21.9939 10.0466 21.9939C8.09917 21.9939 6.67493 20.5845 6.67493 18.6172C6.67493 16.6499 8.09917 15.2405 10.0466 15.2405Z" fill="black"/>
<path d="M14.5723 18.6172C14.5723 16.6108 16.074 15.2405 17.9633 15.2405C19.436 15.2405 20.2595 16.0235 20.7149 16.8358L19.5329 17.4231C19.2616 16.8946 18.6803 16.4737 17.9633 16.4737C16.8395 16.4737 15.9868 17.384 15.9868 18.6172C15.9868 19.8504 16.8395 20.7607 17.9633 20.7607C18.6803 20.7607 19.2616 20.3496 19.5329 19.8113L20.7149 20.3887C20.2498 21.2011 19.436 21.9939 17.9633 21.9939C16.074 21.9939 14.5723 20.6236 14.5723 18.6172Z" fill="black"/>
<path d="M22.0226 15.3482H23.3984V21.8765H22.0226V15.3482Z" fill="black"/>
<path d="M26.7603 19.5471H28.9015L27.8357 16.5521L26.7603 19.5471ZM29.2794 20.7509H26.3921L25.9851 21.8765H24.4738L26.9734 15.3482H28.698L31.1881 21.8765H29.6863L29.2794 20.7509Z" fill="black"/>
<path d="M32.2739 15.3481H33.6498V20.653H36.3819V21.8765H32.2739V15.3481Z" fill="black"/>
<path d="M37.8257 15.3481H39.2015V20.653H41.9337V21.8765H37.8257V15.3481Z" fill="black"/>
<path d="M43.9496 19.2045L41.4596 15.3482H43.0292L44.6375 17.9713L46.2264 15.3482H47.7961L45.3254 19.2045V21.8765H43.9496V19.2045Z" fill="black"/>
<path d="M3.23617 32.0722C4.51508 32.0722 5.26114 31.1423 5.26114 30.0364C5.26114 28.8814 4.56352 27.9907 3.23617 27.9907H2.06385V32.0722H3.23617ZM0.687988 26.7673H3.23617C5.26114 26.7673 6.66601 28.069 6.66601 30.0364C6.66601 32.0037 5.26114 33.2957 3.23617 33.2957H0.687988V26.7673Z" fill="black"/>
<path d="M8.12842 26.7673H12.7015V27.9614H9.50421V29.3806H12.6337V30.5747H9.50421V32.0918H12.7015V33.2957H8.12842V26.7673Z" fill="black"/>
<path d="M14.5714 31.3188C15.0267 31.7984 15.734 32.1997 16.6254 32.1997C17.3811 32.1997 17.7493 31.8375 17.7493 31.4656C17.7493 30.9762 17.1873 30.8098 16.4413 30.6336C15.3852 30.389 14.0288 30.0953 14.0288 28.6369C14.0288 27.5505 14.9589 26.6696 16.48 26.6696C17.507 26.6696 18.3597 26.9828 18.9991 27.5798L18.2337 28.5978C17.7105 28.1084 17.0129 27.8833 16.3832 27.8833C15.7631 27.8833 15.4337 28.1573 15.4337 28.5489C15.4337 28.9893 15.9763 29.1263 16.7223 29.3025C17.788 29.5472 19.1444 29.8702 19.1444 31.3188C19.1444 32.5128 18.3015 33.4133 16.5576 33.4133C15.3174 33.4133 14.426 32.9924 13.8157 32.3758L14.5714 31.3188Z" fill="black"/>
<path d="M20.5596 26.7674H21.9354V33.2957H20.5596V26.7674Z" fill="black"/>
<path d="M26.8283 26.6594C28.1654 26.6594 29.0083 27.3152 29.5024 28.0884L28.3592 28.7148C28.0588 28.2548 27.5066 27.8926 26.8283 27.8926C25.656 27.8926 24.8034 28.8029 24.8034 30.0361C24.8034 31.2693 25.656 32.1796 26.8283 32.1796C27.4193 32.1796 27.9426 31.9349 28.2235 31.6804V30.8877H26.4989V29.6936H29.58V32.1894C28.9211 32.9332 28.0007 33.4226 26.8283 33.4226C24.939 33.4226 23.3888 32.0915 23.3888 30.0361C23.3888 27.971 24.939 26.6594 26.8283 26.6594Z" fill="black"/>
<path d="M32.5356 28.9109V33.2957H31.1598V26.7674H32.5744L35.5682 30.9956V26.7674H36.944V33.2957H35.6167L32.5356 28.9109Z" fill="black"/>
<path d="M2.28651 42.3854H4.42775L3.36194 39.3904L2.28651 42.3854ZM4.80563 43.5893H1.91832L1.51138 44.7148H0L2.49967 38.1865H4.22428L6.71426 44.7148H5.21251L4.80563 43.5893Z" fill="black"/>
<path d="M7.15979 41.4548C7.15979 39.4484 8.66154 38.0781 10.5509 38.0781C12.0235 38.0781 12.8471 38.8611 13.3024 39.6735L12.1204 40.2608C11.8491 39.7323 11.2679 39.3113 10.5509 39.3113C9.42698 39.3113 8.57434 40.2216 8.57434 41.4548C8.57434 42.688 9.42698 43.5983 10.5509 43.5983C11.2679 43.5983 11.8491 43.1872 12.1204 42.649L13.3024 43.2264C12.8374 44.0388 12.0235 44.8315 10.5509 44.8315C8.66154 44.8315 7.15979 43.4613 7.15979 41.4548Z" fill="black"/>
<path d="M16.1415 42.3847H18.2827L17.2169 39.3897L16.1415 42.3847ZM18.6606 43.5886H15.7733L15.3664 44.7141H13.855L16.3547 38.1858H18.0793L20.5692 44.7141H19.0675L18.6606 43.5886Z" fill="black"/>
<path d="M24.2025 43.4907C25.4814 43.4907 26.2274 42.5608 26.2274 41.4548C26.2274 40.2999 25.5298 39.4092 24.2025 39.4092H23.0302V43.4907H24.2025ZM21.6543 38.1858H24.2025C26.2274 38.1858 27.6323 39.4875 27.6323 41.4548C27.6323 43.4222 26.2274 44.7141 24.2025 44.7141H21.6543V38.1858Z" fill="black"/>
<path d="M29.0958 38.1858H33.6689V39.3799H30.4716V40.7991H33.6012V41.9932H30.4716V43.5103H33.6689V44.7141H29.0958V38.1858Z" fill="black"/>
<path d="M40.8481 40.0161L39.0266 44.7141H38.4259L36.6045 40.0161V44.7141H35.2286V38.1858H37.1568L38.7263 42.2575L40.2958 38.1858H42.2336V44.7141H40.8481V40.0161Z" fill="black"/>
<path d="M45.7994 42.0421L43.3094 38.1858H44.879L46.4873 40.8089L48.0763 38.1858H49.6459L47.1753 42.0421V44.7141H45.7994V42.0421Z" fill="black"/>
</g>
<defs>
<clipPath id="clip0">
<rect width="60" height="60" fill="white"/>
</clipPath>
</defs>
</svg>
