<svg width="20" height="20" viewBox="0 0 20 20" fill="none" xmlns="http://www.w3.org/2000/svg">
<path d="M8.3335 11.6667C8.60506 11.9438 8.9292 12.164 9.28694 12.3143C9.64467 12.4647 10.0288 12.5421 10.4168 12.5421C10.8049 12.5421 11.189 12.4647 11.5467 12.3143C11.9045 12.164 12.2286 11.9438 12.5002 11.6667L15.8335 8.33332C16.386 7.78079 16.6964 7.03139 16.6964 6.24999C16.6964 5.46859 16.386 4.71919 15.8335 4.16666C15.281 3.61412 14.5316 3.30371 13.7502 3.30371C12.9688 3.30371 12.2194 3.61412 11.6668 4.16666L11.2502 4.58332" stroke="black" stroke-width="1.66667" stroke-linecap="round" stroke-linejoin="round"/>
<path d="M11.6667 8.33331C11.3951 8.05615 11.0709 7.83595 10.7132 7.68563C10.3555 7.53531 9.97135 7.45789 9.58332 7.45789C9.19529 7.45789 8.81116 7.53531 8.45343 7.68563C8.0957 7.83595 7.77155 8.05615 7.49999 8.33331L4.16666 11.6666C3.61412 12.2192 3.30371 12.9686 3.30371 13.75C3.30371 14.5314 3.61412 15.2808 4.16666 15.8333C4.71919 16.3858 5.46859 16.6963 6.24999 16.6963C7.03139 16.6963 7.78079 16.3858 8.33332 15.8333L8.74999 15.4166" stroke="black" stroke-width="1.66667" stroke-linecap="round" stroke-linejoin="round"/>
</svg>
