<svg width="20" height="20" viewBox="0 0 20 20" fill="none" xmlns="http://www.w3.org/2000/svg">
<path d="M13.333 3.33325H6.66634C4.82539 3.33325 3.33301 4.82564 3.33301 6.66659V13.3333C3.33301 15.1742 4.82539 16.6666 6.66634 16.6666H13.333C15.174 16.6666 16.6663 15.1742 16.6663 13.3333V6.66659C16.6663 4.82564 15.174 3.33325 13.333 3.33325Z" stroke="black" stroke-width="1.25" stroke-linecap="round" stroke-linejoin="round"/>
<path d="M10 12.5C11.3807 12.5 12.5 11.3807 12.5 10C12.5 8.61929 11.3807 7.5 10 7.5C8.61929 7.5 7.5 8.61929 7.5 10C7.5 11.3807 8.61929 12.5 10 12.5Z" stroke="black" stroke-width="1.25" stroke-linecap="round" stroke-linejoin="round"/>
<path d="M13.75 6.25V6.251" stroke="black" stroke-width="1.25" stroke-linecap="round" stroke-linejoin="round"/>
</svg>
