<svg width="24" height="24" viewBox="0 0 24 24" fill="none" xmlns="http://www.w3.org/2000/svg">
<path d="M12 15.9998C13.6569 15.9998 15 14.6566 15 12.9998C15 11.3429 13.6569 9.99976 12 9.99976C10.3431 9.99976 9 11.3429 9 12.9998C9 14.6566 10.3431 15.9998 12 15.9998Z" stroke="black" stroke-width="1.66667" stroke-linecap="round" stroke-linejoin="round"/>
<path d="M12 3.99976H10C9.73478 3.99976 9.48043 4.10511 9.29289 4.29265C9.10536 4.48019 9 4.73454 9 4.99976C9 5.53019 8.78929 6.0389 8.41421 6.41397C8.03914 6.78904 7.53043 6.99976 7 6.99976H5C4.46957 6.99976 3.96086 7.21047 3.58579 7.58554C3.21071 7.96061 3 8.46932 3 8.99976V17.9998C3 18.5302 3.21071 19.0389 3.58579 19.414C3.96086 19.789 4.46957 19.9998 5 19.9998H19C19.5304 19.9998 20.0391 19.789 20.4142 19.414C20.7893 19.0389 21 18.5302 21 17.9998V10.9998" stroke="black" stroke-width="1.66667" stroke-linecap="round" stroke-linejoin="round"/>
<path d="M15 6H21" stroke="black" stroke-width="1.66667" stroke-linecap="round" stroke-linejoin="round"/>
<path d="M18 3V9" stroke="black" stroke-width="1.66667" stroke-linecap="round" stroke-linejoin="round"/>
</svg>
