<svg width="99" height="99" viewBox="0 0 99 99" fill="none" xmlns="http://www.w3.org/2000/svg">
<path d="M47.9672 95.0227L43.6943 94.7886L43.9139 90.6748L45.1884 90.7441L45.1277 91.8826L45.3176 91.8927C45.7044 91.1531 46.4376 90.8125 47.5177 90.8718C47.9868 90.8969 48.4115 90.9943 48.7918 91.1632C49.1719 91.337 49.488 91.5571 49.7396 91.8243C49.9875 92.0956 50.1925 92.4092 50.3545 92.7649C50.5166 93.1246 50.6293 93.5024 50.6931 93.8963C50.7531 94.2892 50.772 94.6982 50.7491 95.1222C50.7263 95.5503 50.6644 95.9542 50.563 96.3351C50.4578 96.7189 50.3032 97.0817 50.1003 97.4223C49.8929 97.7619 49.6462 98.0503 49.3599 98.2885C49.0694 98.5306 48.7186 98.7135 48.3069 98.8391C47.891 98.9687 47.4353 99.02 46.9398 98.9929C45.9863 98.9406 45.2447 98.6452 44.7145 98.1046C44.1803 97.564 43.904 96.8897 43.8855 96.0808L45.1367 96.1492C45.1734 96.6234 45.3366 96.9932 45.6271 97.2595C45.9173 97.5288 46.3773 97.6805 47.008 97.7157C47.8382 97.7599 48.4429 97.5871 48.8226 97.1942C49.1983 96.8003 49.4139 96.0869 49.4691 95.0519C49.4971 94.5264 49.4726 94.0822 49.3958 93.7195C49.3185 93.3597 49.1817 93.0673 48.9858 92.8422C48.7895 92.6172 48.5459 92.4493 48.2549 92.3398C47.9636 92.2343 47.6029 92.17 47.172 92.1459C46.5456 92.1117 46.0576 92.2293 45.7075 92.4996C45.354 92.7689 45.1293 93.1487 45.0339 93.6391L48.0322 93.8029L47.9672 95.0227Z" fill="black"/>
<path d="M36.1906 92.1129L33.9109 91.4245L34.8243 88.3276L36.047 88.6964L35.3055 91.2115L38.6036 92.2083L39.345 89.6932L40.5734 90.065L38.2724 97.8656L35.6883 97.0848C35.2126 96.9411 34.8084 96.7723 34.4759 96.5784C34.1386 96.3864 33.8789 96.1845 33.6968 95.9704C33.5136 95.7604 33.3839 95.5263 33.3076 95.2681C33.2313 95.0088 33.2026 94.7526 33.2214 94.4973C33.2354 94.2451 33.2865 93.9698 33.3746 93.6714C33.5034 93.2353 33.6713 92.8976 33.8782 92.6585C34.084 92.4244 34.3716 92.2726 34.741 92.2063C35.1104 92.138 35.5756 92.1691 36.1362 92.2977L36.1906 92.1129ZM38.2385 93.4453L36.8828 93.0353C36.5027 92.9208 36.1922 92.8494 35.9517 92.8213C35.7109 92.7931 35.5035 92.8142 35.3304 92.8846C35.1561 92.9579 35.0196 93.0725 34.9211 93.2302C34.8187 93.386 34.7252 93.6081 34.6404 93.8954C34.5248 94.2873 34.49 94.5958 34.536 94.8219C34.5783 95.046 34.7152 95.2349 34.9467 95.3906C35.1732 95.5484 35.5409 95.7042 36.0502 95.8579L37.4059 96.2679L38.2385 93.4453Z" fill="black"/>
<path d="M26.838 84.1876L26.4228 86.0048L29.224 87.6517L30.5931 86.3947L31.7465 87.073L25.5392 92.8387L23.8115 91.8238L25.6746 83.5037L26.838 84.1876ZM28.2543 88.5621L26.1371 87.3171L25.2815 91.0652L25.4463 91.1626L28.2543 88.5621Z" fill="black"/>
<path d="M15.453 85.3849C15.194 85.1336 14.9748 84.8895 14.795 84.6513C14.6125 84.4102 14.4726 84.1835 14.3751 83.9708C14.2722 83.7586 14.2048 83.5479 14.1729 83.3393C14.1409 83.1302 14.1391 82.9319 14.1675 82.7439C14.1904 82.556 14.246 82.3673 14.3343 82.1778C14.4197 81.9855 14.5258 81.8028 14.6526 81.6289C14.7766 81.458 14.9251 81.2809 15.0979 81.0978C15.3451 80.8356 15.5841 80.6246 15.8146 80.465C16.0423 80.3026 16.2929 80.1837 16.5662 80.1083C16.8366 80.0305 17.1127 80.017 17.3943 80.0685C17.6705 80.1199 17.9756 80.2424 18.3094 80.4355C18.6406 80.6318 18.9872 80.9047 19.3492 81.2546L20.4602 82.3282L22.1191 80.57L23.0463 81.4661L17.4911 87.3533L15.453 85.3849ZM18.4261 82.1483C18.2006 81.9304 18.0034 81.7613 17.8345 81.6412C17.663 81.5187 17.503 81.4313 17.3548 81.3799C17.2012 81.3284 17.054 81.3208 16.9132 81.3572C16.7697 81.3962 16.6297 81.4657 16.4932 81.5654C16.3511 81.6651 16.1937 81.8064 16.0209 81.9895C15.7948 82.2293 15.6349 82.4356 15.5408 82.6083C15.4413 82.7819 15.4018 82.9618 15.4224 83.1486C15.4403 83.3385 15.5182 83.5296 15.656 83.7218C15.7911 83.9118 16.0006 84.1436 16.2846 84.4182L17.4373 85.5316L19.5788 83.2622L18.4261 82.1483Z" fill="black"/>
<path d="M6.91335 74.6825L6.22363 73.6096L12.9658 69.1689L13.6555 70.2418L10.9209 72.0428L13.0406 75.3396L15.7752 73.5386L16.4744 74.6262L9.7323 79.0665L9.03315 77.9793L11.971 76.0442L9.85124 72.7474L6.91335 74.6825Z" fill="black"/>
<path d="M11.5149 65.952L4.10544 69.1211L3.60645 67.9257L11.0159 64.7571L11.5149 65.952Z" fill="black"/>
<path d="M6.97438 62.1963C6.62053 62.3611 6.24077 62.4904 5.8353 62.5834C5.42983 62.6759 5.03418 62.725 4.64837 62.7294C4.25878 62.735 3.87456 62.6851 3.49589 62.5802C3.11335 62.4761 2.76845 62.3192 2.46116 62.1102C2.15378 61.9011 1.88185 61.6118 1.64525 61.2424C1.4041 60.8705 1.22827 60.4372 1.11766 59.9433C0.998623 59.4115 0.972214 58.9139 1.03844 58.4515C1.09999 57.9859 1.23948 57.5861 1.45701 57.253C1.66988 56.9163 1.93804 56.6329 2.2616 56.4031C2.5805 56.1702 2.94428 55.997 3.35302 55.8833L3.63499 57.1429C3.32771 57.2694 3.08208 57.3974 2.89811 57.5274C2.70947 57.6548 2.55598 57.8159 2.43773 58.0107C2.31869 58.2018 2.25336 58.4304 2.24195 58.6969C2.23053 58.963 2.26687 59.2842 2.35106 59.6604C2.53215 60.47 2.86882 61.0042 3.36087 61.2627C3.84924 61.5225 4.57967 61.5409 5.55215 61.3178C6.52075 61.0955 7.17026 60.7612 7.50038 60.314C7.82682 59.8675 7.8994 59.2395 7.7183 58.4304C7.63411 58.0542 7.53205 57.7477 7.41212 57.5116C7.28841 57.2761 7.13402 57.0978 6.94896 56.9765C6.75933 56.8524 6.55411 56.7734 6.3335 56.7403C6.1121 56.7032 5.8358 56.6944 5.50479 56.7143L5.22282 55.4548C5.64011 55.379 6.04409 55.3762 6.43477 55.4464C6.82088 55.5138 7.18347 55.6523 7.52252 55.8621C7.8571 56.0692 8.15118 56.3693 8.40495 56.7627C8.65792 57.152 8.84388 57.6128 8.96302 58.1447C9.07352 58.6391 9.10112 59.1058 9.04562 59.546C8.98933 59.9825 8.86711 60.3623 8.67877 60.685C8.48675 61.0086 8.24222 61.3002 7.94517 61.5604C7.64801 61.8201 7.32445 62.032 6.97438 62.1963Z" fill="black"/>
<path d="M0.427 41.5863C0.531645 40.9245 0.704696 40.3726 0.946153 39.9302C1.18384 39.4873 1.49628 39.1513 1.88339 38.9219C2.26731 38.6882 2.71101 38.5449 3.21447 38.4922C3.71794 38.4396 4.30609 38.4679 4.97893 38.5768C5.648 38.6854 6.21352 38.8437 6.67568 39.0528C7.13775 39.2618 7.51701 39.5384 7.81357 39.8823C8.10685 40.2219 8.30005 40.64 8.39308 41.1363C8.48234 41.6323 8.47469 42.2107 8.37005 42.8726L7.94392 45.5677L0.000976562 44.2814L0.427 41.5863ZM7.10985 42.6684C7.18471 42.1952 7.20526 41.8062 7.1717 41.5005C7.13874 41.1917 7.03261 40.9257 6.8533 40.7034C6.67022 40.4803 6.41536 40.3048 6.08852 40.1772C5.76178 40.049 5.32474 39.9409 4.77729 39.8524C4.21475 39.7609 3.75656 39.7243 3.40291 39.7423C3.04976 39.7558 2.7535 39.8419 2.51403 40.0008C2.27456 40.1592 2.09367 40.3786 1.97145 40.6587C1.84973 40.9348 1.75124 41.3114 1.67578 41.7886L1.4523 43.2026L6.88636 44.0824L7.10985 42.6684Z" fill="black"/>
<path d="M5.56209 28.3682L4.08208 32.106L5.95277 32.8648L7.08916 29.995L8.27371 30.4754L7.13732 33.3454L9.19029 34.178L10.6703 30.4402L11.855 30.9206L9.91307 35.8249L2.44629 32.7963L4.38827 27.8921L5.56209 28.3682Z" fill="black"/>
<path d="M12.4723 27.2995L11.3314 26.5032C11.9513 26.2591 12.5152 25.9427 13.0232 25.5541C13.5332 25.1623 13.9412 24.7418 14.2471 24.2928C14.3805 24.0971 14.4883 23.9286 14.5705 23.7872C14.6528 23.6459 14.7256 23.4979 14.7888 23.3433C14.8511 23.1832 14.8826 23.0442 14.8833 22.9265C14.881 22.8065 14.8486 22.6892 14.7862 22.5748C14.7262 22.4571 14.6296 22.3518 14.4964 22.2589C14.3665 22.1683 14.2354 22.117 14.1032 22.1052C13.9699 22.0879 13.8422 22.1005 13.7197 22.1429C13.5964 22.1799 13.4516 22.2586 13.2853 22.3791C13.1212 22.4966 12.9665 22.6206 12.8213 22.7512C12.6763 22.8818 12.4888 23.054 12.2592 23.2675C12.2473 23.2782 12.238 23.2883 12.2315 23.2979C12.2239 23.3021 12.2158 23.3106 12.2071 23.3235C12.1973 23.3308 12.1876 23.3382 12.1779 23.3457C11.6091 23.8716 11.1132 24.2496 10.6899 24.4796C10.2635 24.7073 9.88125 24.8121 9.543 24.7937C9.20375 24.77 8.85516 24.6332 8.49695 24.3833C7.91694 23.9785 7.6312 23.4645 7.63984 22.8409C7.65056 22.2142 7.91495 21.5209 8.43281 20.7606C8.69949 20.3692 9.03149 19.9951 9.42892 19.6383C9.82536 19.2761 10.2207 18.9841 10.615 18.7622L11.6751 19.5021C10.5791 20.2802 9.81712 20.9835 9.38871 21.6122C9.2511 21.8143 9.14368 21.9926 9.06654 22.147C8.99158 22.2982 8.93856 22.4482 8.90739 22.5968C8.87849 22.7423 8.89031 22.8759 8.94283 22.9978C8.99763 23.1165 9.09473 23.2245 9.23423 23.3218C9.49723 23.5053 9.76926 23.5247 10.0501 23.38C10.3311 23.2353 10.7523 22.9021 11.3134 22.3803C11.6189 22.0967 11.8848 21.8609 12.1109 21.6732C12.3369 21.4855 12.5665 21.3167 12.7994 21.167C13.0324 21.0172 13.2417 20.9125 13.4273 20.8527C13.6152 20.7897 13.8101 20.7577 14.0119 20.7565C14.2128 20.75 14.4113 20.7844 14.6078 20.86C14.801 20.9334 15.0054 21.0452 15.2209 21.1956C15.842 21.6291 16.1497 22.1727 16.1439 22.8265C16.1349 23.478 15.8528 24.2112 15.2978 25.026C14.9678 25.5103 14.5341 25.972 13.9965 26.4109C13.4612 26.8466 12.9532 27.1428 12.4723 27.2995Z" fill="black"/>
<path d="M19.442 19.8637L13.7275 14.1339L14.6297 13.2122L20.3442 18.942L19.442 19.8637Z" fill="black"/>
<path d="M22.6146 11.5963L26.1257 9.12102L28.4527 12.5019L27.4056 13.2402L26.7619 12.3051L26.6055 12.4153C26.7504 13.2392 26.3789 13.9639 25.4913 14.5898C25.1059 14.8615 24.7119 15.0491 24.3092 15.1525C23.9043 15.2527 23.5214 15.2759 23.1604 15.2217C22.8004 15.1621 22.4483 15.0423 22.1039 14.8625C21.7574 14.6795 21.4394 14.4526 21.1498 14.1819C20.8635 13.9089 20.6004 13.5982 20.3605 13.2498C20.1185 12.898 19.9217 12.5406 19.7701 12.1773C19.6196 11.8086 19.5211 11.4269 19.4747 11.0323C19.4314 10.6354 19.4504 10.2541 19.5317 9.88812C19.6139 9.51673 19.779 9.15348 20.0271 8.79807C20.2761 8.43733 20.6044 8.11327 21.0118 7.82599C21.7953 7.27363 22.5601 7.04553 23.3065 7.14139C24.0558 7.23504 24.6836 7.59498 25.1897 8.22109L24.1614 8.94598C23.8447 8.59479 23.491 8.40487 23.1006 8.37614C22.7081 8.34438 22.2528 8.51099 21.7347 8.87625C21.0524 9.35726 20.681 9.87083 20.6204 10.4169C20.5631 10.9606 20.8271 11.6577 21.4124 12.5081C21.7095 12.9397 21.9987 13.2747 22.2802 13.5132C22.5593 13.7485 22.8447 13.8939 23.1363 13.9495C23.428 14.005 23.7218 13.9854 24.0178 13.8907C24.3117 13.7927 24.6355 13.6191 24.9893 13.3696C25.5042 13.0065 25.8176 12.6099 25.9296 12.1796C26.0448 11.7471 25.991 11.3077 25.7684 10.8616L23.3045 12.5987L22.6146 11.5963Z" fill="black"/>
<path d="M33.4067 1.40468L34.603 0.938232L37.4952 8.53501L36.2988 9.00156L30.8319 5.15845L30.6594 5.22568L32.6402 10.4284L31.444 10.8949L28.5518 3.2981L29.748 2.83155L35.213 6.66923L35.3854 6.60201L33.4067 1.40468Z" fill="black"/>
<path d="M65.7666 6.98453C65.463 7.96224 64.979 8.58635 64.3139 8.85695C63.6501 9.12383 62.8005 9.09268 61.7645 8.7636C60.729 8.43441 60.0139 7.96837 59.62 7.36537C59.2309 6.75985 59.188 5.96824 59.4911 4.99053L61.0392 0L62.257 0.386863L60.7262 5.32173C60.5934 5.74918 60.5456 6.09133 60.583 6.34827C60.624 6.60631 60.7636 6.82627 61.0017 7.00815C61.2438 7.19113 61.6254 7.36547 62.147 7.53127C62.6649 7.69586 63.073 7.77243 63.3709 7.76097C63.6725 7.75062 63.9134 7.65144 64.0928 7.46344C64.2721 7.27543 64.4279 6.96765 64.5607 6.54019L66.0915 1.60533L67.3146 1.994L65.7666 6.98453Z" fill="black"/>
<path d="M78.1794 7.8572L73.7773 9.92014L74.0102 14.8195L72.6868 14.0077L72.5406 10.3506L72.4764 10.3112L69.1953 11.8661L67.8818 11.0603L72.2808 9.00232L72.051 4.0979L73.3645 4.90368L73.5178 8.57184L73.5821 8.61123L76.856 7.04529L78.1794 7.8572Z" fill="black"/>
<path d="M85.0926 13.6302L76.0327 19.1292L75.0811 18.2169L84.1282 12.7058L85.0926 13.6302Z" fill="black"/>
<path d="M87.7995 26.0146C86.9655 26.5962 86.204 26.7866 85.515 26.5857C84.8299 26.3826 84.1791 25.8287 83.563 24.9242C82.9467 24.0196 82.6668 23.207 82.7228 22.4862C82.7844 21.7666 83.2317 21.1159 84.0655 20.5342L88.3207 17.5649L89.0445 18.6284L84.8379 21.5644C84.4725 21.8187 84.2272 22.0588 84.1006 22.2846C83.9757 22.5135 83.9519 22.7737 84.0293 23.0654C84.1085 23.3602 84.3032 23.7355 84.6135 24.1909C84.9222 24.6432 85.1973 24.9577 85.4385 25.1344C85.6827 25.3143 85.9329 25.386 86.1881 25.3495C86.4443 25.3129 86.754 25.1675 87.1184 24.9132L91.326 21.9772L92.0537 23.0453L87.7995 26.0146Z" fill="black"/>
<path d="M86.9521 30.8208L94.2753 27.4524L94.8054 28.6336L87.4823 32.002L86.9521 30.8208Z" fill="black"/>
<path d="M98.6943 43.0614C98.7628 43.7281 98.737 44.3065 98.6178 44.7969C98.5017 45.2873 98.2862 45.6938 97.9715 46.0174C97.6608 46.3438 97.2686 46.5987 96.796 46.7823C96.3234 46.9654 95.7486 47.0927 95.0705 47.1645C94.3973 47.2359 93.8106 47.2315 93.3102 47.1509C92.8108 47.0708 92.3729 46.9036 91.9986 46.6494C91.6283 46.3984 91.3344 46.0457 91.117 45.5909C90.9035 45.1356 90.7626 44.5747 90.6931 43.908L90.4131 41.1934L98.4133 40.3467L98.6943 43.0614ZM91.9629 43.7736C92.0125 44.2503 92.092 44.6317 92.2032 44.9178C92.3144 45.2075 92.4851 45.4365 92.7145 45.6041C92.9488 45.7712 93.2397 45.8734 93.5882 45.9109C93.9366 45.9488 94.3864 45.9384 94.9384 45.8797C95.5043 45.8199 95.9561 45.7349 96.2936 45.6248C96.6312 45.5187 96.8953 45.3575 97.0859 45.1413C97.2755 44.9254 97.3947 44.6661 97.4403 44.3632C97.487 44.0648 97.486 43.675 97.4364 43.1946L97.2894 41.7702L91.815 42.3496L91.9629 43.7736Z" fill="black"/>
<path d="M97.1298 57.1776L97.5985 53.1786L95.5979 52.938L95.2375 56.0082L93.9697 55.8558L94.3301 52.7856L92.1339 52.5215L91.6653 56.5201L90.3975 56.3677L91.014 51.1211L99.0013 52.0822L98.3858 57.3284L97.1298 57.1776Z" fill="black"/>
<path d="M90.7324 60.0273L92.0379 60.4961C91.5018 60.8951 91.0382 61.3487 90.648 61.8575C90.2558 62.3701 89.9699 62.8832 89.7902 63.3975C89.7117 63.6213 89.6502 63.8125 89.6075 63.9708C89.5638 64.1288 89.532 64.2908 89.5102 64.4568C89.4913 64.6275 89.4973 64.77 89.5261 64.8841C89.5598 64.9994 89.6204 65.1039 89.7097 65.198C89.7981 65.2958 89.9182 65.3725 90.0711 65.4271C90.2201 65.4806 90.3601 65.4953 90.4901 65.4722C90.6232 65.4539 90.7433 65.4079 90.8505 65.3349C90.9607 65.2667 91.0808 65.1526 91.2099 64.9922C91.338 64.8358 91.4561 64.6754 91.5624 64.511C91.6686 64.3466 91.8056 64.1312 91.9724 63.8647C91.9813 63.8512 91.9883 63.8392 91.9923 63.8279C91.9972 63.822 92.0032 63.8117 92.0091 63.7969C92.0161 63.7872 92.024 63.7777 92.031 63.7678C92.445 63.1102 92.8272 62.6151 93.1767 62.2815C93.5302 61.9496 93.8727 61.7477 94.2033 61.6767C94.5369 61.6105 94.9092 61.6508 95.3192 61.798C95.9835 62.0361 96.3915 62.4574 96.5434 63.062C96.6933 63.6696 96.6159 64.4089 96.3111 65.279C96.1542 65.7271 95.9298 66.1759 95.637 66.6248C95.348 67.0789 95.0413 67.4651 94.7166 67.7827L93.5034 67.3474C94.3622 66.3077 94.9171 65.4278 95.1693 64.7082C95.2507 64.4768 95.3083 64.2764 95.3431 64.1073C95.3768 63.9413 95.3897 63.7825 95.3818 63.6309C95.3719 63.4829 95.3262 63.3568 95.2448 63.2531C95.1604 63.1529 95.0393 63.0739 94.8794 63.0168C94.5786 62.9087 94.3105 62.9614 94.0772 63.1752C93.8429 63.3887 93.5212 63.8212 93.1142 64.4727C92.8918 64.8271 92.6952 65.1247 92.5254 65.3652C92.3556 65.6058 92.1769 65.8293 91.9903 66.0352C91.8036 66.2411 91.6289 66.3974 91.4651 66.5039C91.2993 66.6141 91.1196 66.6963 90.925 66.7505C90.7324 66.8096 90.5318 66.8283 90.3223 66.8072C90.1168 66.7872 89.8914 66.7329 89.6442 66.6444C88.9334 66.3891 88.4965 65.9449 88.3347 65.3122C88.1758 64.6806 88.2602 63.8986 88.5869 62.9658C88.7815 62.4112 89.0813 61.8514 89.4883 61.2861C89.8934 60.7247 90.3074 60.305 90.7324 60.0273Z" fill="black"/>
<path d="M85.9088 69.0396L92.8984 73.0701L92.2629 74.1972L85.2744 70.1671L85.9088 69.0396Z" fill="black"/>
<path d="M84.9681 77.8579L82.2137 81.1718L79.0986 78.519L79.9202 77.5307L80.782 78.2645L80.9046 78.1169C80.5533 77.3595 80.7256 76.5616 81.4221 75.7242C81.7246 75.3603 82.0569 75.0754 82.4192 74.8699C82.7845 74.6665 83.1484 74.5436 83.5107 74.5009C83.8738 74.4638 84.2448 74.4865 84.6236 74.5699C85.0049 74.6557 85.3702 74.791 85.7187 74.9761C86.0662 75.1644 86.3998 75.3954 86.7205 75.6687C87.0451 75.9448 87.3271 76.238 87.5664 76.5492C87.8067 76.8656 87.9993 77.2084 88.1452 77.577C88.2892 77.9489 88.3686 78.3223 88.3845 78.697C88.4004 79.0772 88.3338 79.4714 88.1859 79.88C88.038 80.2937 87.8037 80.6931 87.484 81.0776C86.8694 81.817 86.1893 82.2383 85.4447 82.342C84.6961 82.4485 83.998 82.2663 83.3486 81.7947L84.1552 80.8243C84.5512 81.08 84.9413 81.1706 85.3256 81.0956C85.7128 81.023 86.1099 80.7425 86.517 80.2534C87.0521 79.6095 87.2795 79.0157 87.1971 78.4727C87.1127 77.9325 86.6788 77.3289 85.8955 76.6614C85.4983 76.323 85.133 76.0752 84.7994 75.9193C84.4697 75.7652 84.1564 75.7002 83.8607 75.7229C83.5647 75.7461 83.286 75.8422 83.0247 76.0114C82.7661 76.1834 82.498 76.4364 82.2205 76.7703C81.8164 77.2562 81.6154 77.7219 81.6176 78.1667C81.6176 78.6148 81.7825 79.0249 82.1117 79.3971L84.0452 77.0715L84.9681 77.8579Z" fill="black"/>
<path d="M77.1622 90.5387L76.1269 91.3044L71.3838 84.7287L72.419 83.9634L78.685 86.237L78.834 86.1264L75.5857 81.6234L76.6213 80.8582L81.3645 87.4337L80.3289 88.1984L74.0664 85.9305L73.9174 86.04L77.1622 90.5387Z" fill="black"/>
<path d="M48.3107 3.2432C48.855 3.2432 49.2963 2.79655 49.2963 2.24569C49.2963 1.69484 48.855 1.24829 48.3107 1.24829C47.7664 1.24829 47.3252 1.69484 47.3252 2.24569C47.3252 2.79655 47.7664 3.2432 48.3107 3.2432Z" fill="black"/>
<path d="M62.8966 94.6135C63.441 94.6135 63.8822 94.1664 63.8822 93.6157C63.8822 93.0651 63.441 92.6179 62.8966 92.6179C62.3523 92.6179 61.9111 93.0651 61.9111 93.6157C61.9111 94.1664 62.3523 94.6135 62.8966 94.6135Z" fill="black"/>
</svg>
