<svg width="46" height="46" viewBox="0 0 46 46" fill="none" xmlns="http://www.w3.org/2000/svg">
<path d="M5.51134 8.31094L6.07598 8.7717C10.7491 12.5863 17.4897 7.86661 15.5035 2.17038L15.2638 1.48217L15.5222 2.1636C17.6626 7.80368 25.8595 7.08651 26.9878 1.16042L27.1242 0.444508L27.0072 1.16391C26.0406 7.11851 33.4981 10.5959 37.4381 6.02795L37.9143 5.4761L37.4535 6.04066C33.639 10.7139 38.3588 17.4544 44.0551 15.4683L44.7432 15.2286L44.0619 15.4869C38.4218 17.6274 39.1388 25.8244 45.0649 26.9527L45.7808 27.089L45.0612 26.9721C39.1068 26.0054 35.6292 33.4631 40.1971 37.4031L40.7493 37.8791L40.1846 37.4184C35.5111 33.604 28.7709 38.3237 30.7567 44.0201L30.9967 44.708L30.738 44.0268C28.598 38.3866 20.4006 39.1037 19.2728 45.0296L19.1364 45.7456L19.2529 45.0261C20.2197 39.0717 12.7619 35.5942 8.82193 40.1621L8.34633 40.7141L8.8071 40.1494C12.6215 35.4759 7.90179 28.7357 2.20541 30.7214L1.51734 30.9616L2.19864 30.7028C7.83886 28.5628 7.12173 20.3654 1.19575 19.2374L0.479868 19.1011L1.19889 19.218C7.1533 20.1846 10.631 12.7271 6.06296 8.78709L5.51134 8.31094Z" fill="#FAA40C"/>
</svg>
