<svg width="79" height="80" viewBox="0 0 79 80" fill="none" xmlns="http://www.w3.org/2000/svg">
<path d="M27.1718 78.3777C26.922 78.2971 26.7001 78.2075 26.5061 78.1092C26.3096 78.0101 26.1452 77.9066 26.0134 77.7988C25.8781 77.6927 25.7665 77.5765 25.679 77.4502C25.5914 77.3242 25.5267 77.195 25.4853 77.0629C25.4402 76.9329 25.4166 76.7916 25.4139 76.6395C25.4085 76.4864 25.4197 76.3329 25.4472 76.1786C25.4741 76.0271 25.5148 75.8638 25.5697 75.6887C25.6481 75.4384 25.7374 75.2239 25.8376 75.0456C25.935 74.8667 26.0613 74.7086 26.2165 74.5719C26.3691 74.4343 26.546 74.3375 26.7469 74.2809C26.9446 74.226 27.1836 74.2083 27.4645 74.228C27.7443 74.2502 28.059 74.3179 28.4082 74.4306L29.4796 74.7768L30.0059 73.0962L30.9004 73.3852L29.1376 79.0132L27.1718 78.3777ZM28.0882 75.3103C27.8706 75.2401 27.6874 75.1927 27.5382 75.1681C27.3865 75.143 27.2535 75.1372 27.14 75.1508C27.0226 75.1664 26.9238 75.2083 26.8431 75.2774C26.7616 75.3488 26.692 75.439 26.6342 75.5479C26.5729 75.6586 26.5148 75.8014 26.4599 75.9765C26.3882 76.2054 26.3492 76.3916 26.3429 76.5349C26.3327 76.68 26.3645 76.8103 26.4376 76.926C26.5099 77.0442 26.622 77.1442 26.7741 77.226C26.9232 77.3069 27.1348 77.3916 27.4087 77.48L28.5206 77.8393L29.2001 75.6699L28.0882 75.3103Z" fill="black"/>
<path d="M21.9062 72.1927L20.3686 71.3693L21.4469 69.2913L22.2718 69.7329L21.3961 71.4202L23.6206 72.6115L24.4961 70.9242L25.3247 71.3678L22.6082 76.6025L20.8654 75.6693C20.5443 75.4973 20.2781 75.3178 20.0669 75.1311C19.8515 74.9453 19.6935 74.7629 19.5923 74.584C19.49 74.4075 19.4293 74.2213 19.4099 74.0254C19.3909 73.8294 19.4056 73.6421 19.4539 73.4629C19.4984 73.2852 19.5726 73.0962 19.6767 72.8956C19.8287 72.6025 19.9952 72.3861 20.1761 72.2459C20.3556 72.1083 20.5822 72.0424 20.8559 72.0482C21.1296 72.0537 21.4582 72.1433 21.842 72.317L21.9062 72.1927ZM23.1897 73.4418L22.2752 72.9522C22.0189 72.815 21.8065 72.719 21.638 72.6638C21.4695 72.6089 21.3183 72.5936 21.1848 72.6181C21.0498 72.645 20.9365 72.7074 20.8443 72.8054C20.7498 72.902 20.6524 73.0468 20.5521 73.2398C20.4157 73.5028 20.3484 73.7181 20.3507 73.8858C20.3501 74.052 20.4221 74.2072 20.5666 74.352C20.707 74.4976 20.949 74.6624 21.2923 74.8462L22.2067 75.3361L23.1897 73.4418Z" fill="black"/>
<path d="M16.6541 66.0554C17.1582 66.1259 17.6385 66.3459 18.0949 66.7155C18.551 67.0849 18.8692 67.5112 19.0495 67.9947C19.2278 68.4806 19.2692 68.9678 19.1729 69.4563C19.0747 69.947 18.855 70.41 18.5137 70.8453C18.2593 71.1696 17.97 71.4308 17.6458 71.6294C17.3212 71.8279 16.9839 71.9563 16.6339 72.0141C16.2796 72.0722 15.914 72.0467 15.5371 71.9375C15.1576 71.8265 14.7969 71.6326 14.4547 71.3554C14.1125 71.0785 13.8469 70.7655 13.6582 70.4164C13.4672 70.0655 13.3611 69.7095 13.34 69.3473C13.3151 68.986 13.3617 68.6225 13.4799 68.2569C13.5981 67.8915 13.7842 67.5464 14.0385 67.2225C14.3799 66.7872 14.7752 66.4661 15.2241 66.2597C15.6715 66.0551 16.1481 65.9872 16.6541 66.0554ZM17.5172 67.4516C16.5059 66.6329 15.5865 66.7508 14.7591 67.8057C13.9264 68.8673 14.0157 69.8074 15.027 70.6259C16.0319 71.4395 16.9504 71.3152 17.783 70.254C18.0114 69.9629 18.1712 69.6837 18.2625 69.4164C18.3515 69.1473 18.3741 68.897 18.3302 68.6652C18.2842 68.4355 18.1952 68.2219 18.0634 68.0242C17.9276 67.8271 17.7455 67.6363 17.5172 67.4516Z" fill="black"/>
<path d="M8.96297 64.4033L10.8439 66.5937L12.2031 65.3891L10.6531 63.5842L11.3534 62.9634L12.9034 64.7686L14.5638 63.2975L15.1679 64.0007L10.754 67.9122L8.26904 65.018L8.96297 64.4033Z" fill="black"/>
<path d="M5.53922 59.0865L7.05726 61.5772L8.30812 60.7905L7.14252 58.8781L7.93442 58.3798L9.10003 60.2922L10.4726 59.429L8.95466 56.9382L9.74656 56.4399L11.7382 59.7081L6.74627 62.848L4.75439 59.5798L5.53922 59.0865Z" fill="black"/>
<path d="M8.35042 55.3172L7.4091 55.7002C7.51488 55.2216 7.55447 54.7485 7.52788 54.2808C7.50042 53.8106 7.41401 53.3918 7.26921 53.0242C7.2062 52.8638 7.14898 52.7303 7.09753 52.6233C7.04638 52.5161 6.98713 52.412 6.92008 52.3115C6.84956 52.2092 6.77904 52.1343 6.70881 52.0866C6.63568 52.0401 6.55245 52.0132 6.45823 52.0057C6.36337 51.9956 6.26097 52.0129 6.15115 52.0574C6.04395 52.1011 5.95993 52.1612 5.8991 52.2378C5.83462 52.3126 5.79019 52.3961 5.76586 52.4883C5.73785 52.5791 5.72618 52.6996 5.73086 52.8499C5.73453 52.9979 5.746 53.1424 5.76534 53.2837C5.78467 53.4253 5.8117 53.6092 5.84638 53.8357C5.84791 53.8473 5.85022 53.8571 5.85331 53.8649C5.85279 53.8713 5.85459 53.8797 5.85872 53.8904C5.85921 53.8993 5.8597 53.908 5.86019 53.917C5.94433 54.4771 5.96933 54.9329 5.93516 55.2852C5.8984 55.6381 5.80577 55.9149 5.6573 56.1155C5.50516 56.3146 5.28138 56.4742 4.98594 56.5944C4.50751 56.7889 4.08311 56.7589 3.7128 56.5042C3.34144 56.247 3.03314 55.8071 2.78788 55.1849C2.66161 54.8646 2.5723 54.5109 2.5199 54.1239C2.46386 53.7355 2.4495 53.3756 2.47678 53.0447L3.35132 52.6889C3.37233 53.6736 3.48424 54.4233 3.68707 54.9381C3.75227 55.1034 3.81548 55.2407 3.8767 55.3499C3.9369 55.4566 4.00522 55.549 4.0817 55.6277C4.15713 55.7037 4.24207 55.7496 4.33652 55.7661C4.42993 55.78 4.53415 55.7635 4.64918 55.7167C4.86618 55.6285 4.98843 55.469 5.01586 55.2386C5.04331 55.008 5.0147 54.6158 4.93002 54.0623C4.88409 53.7612 4.85083 53.5034 4.83019 53.2895C4.80956 53.0753 4.80167 52.867 4.80658 52.6638C4.81149 52.4606 4.83378 52.2901 4.87343 52.1522C4.91204 52.0115 4.97204 51.8791 5.05343 51.7545C5.13115 51.6285 5.23256 51.5201 5.35768 51.4297C5.48017 51.3401 5.63031 51.2594 5.80811 51.1869C6.32054 50.9785 6.77152 51.0068 7.16112 51.2719C7.54811 51.5381 7.87297 52.0045 8.13597 52.6716C8.29204 53.0681 8.39262 53.5193 8.43742 54.0251C8.48106 54.5285 8.45187 54.9592 8.35042 55.3172Z" fill="black"/>
<path d="M6.20203 49.3274L5.20614 49.5291C5.3968 49.0785 5.52143 48.6216 5.58001 48.1574C5.63804 47.6907 5.62906 47.2635 5.55302 46.8759C5.51989 46.7069 5.48775 46.565 5.45666 46.4505C5.42553 46.3358 5.38614 46.2228 5.33842 46.1115C5.28741 45.9979 5.2316 45.9115 5.17099 45.8517C5.10761 45.7924 5.03036 45.7505 4.93923 45.7256C4.84755 45.6982 4.74362 45.6962 4.62741 45.7199C4.514 45.7427 4.42041 45.7861 4.34666 45.8499C4.26958 45.9118 4.21073 45.9855 4.17007 46.0716C4.12608 46.1551 4.09279 46.2713 4.07016 46.4199C4.04698 46.5658 4.03209 46.71 4.0255 46.8522C4.01891 46.9947 4.01218 47.1806 4.0053 47.4092C4.00469 47.421 4.00521 47.4308 4.00683 47.4392C4.00516 47.4453 4.00542 47.454 4.00758 47.465C4.00646 47.4739 4.0053 47.4829 4.00417 47.4915C3.98559 48.0569 3.92761 48.5092 3.83021 48.8485C3.73004 49.1884 3.58871 49.443 3.40622 49.6123C3.22041 49.7797 2.97122 49.895 2.65862 49.958C2.15238 50.0606 1.74004 49.9525 1.4216 49.634C1.10261 49.3126 0.878767 48.8239 0.750039 48.1676C0.683796 47.8294 0.659922 47.4658 0.67842 47.0762C0.693622 46.6843 0.744634 46.3285 0.831455 46.0086L1.7568 45.8213C1.59914 46.7918 1.57354 47.5488 1.67998 48.0915C1.7142 48.2661 1.75154 48.4126 1.79203 48.5311C1.832 48.6467 1.8825 48.7502 1.94354 48.8415C2.00406 48.9303 2.07929 48.9913 2.16929 49.0248C2.25877 49.0557 2.36435 49.0589 2.48605 49.034C2.71567 48.9878 2.86486 48.854 2.93365 48.6326C3.00244 48.4115 3.04527 48.021 3.06218 47.4621C3.07154 47.1577 3.08544 46.8985 3.10388 46.6846C3.12232 46.4707 3.15235 46.2644 3.19397 46.0661C3.23559 45.8676 3.28842 45.7043 3.35244 45.5762C3.41594 45.4453 3.499 45.3262 3.60166 45.219C3.70102 45.1098 3.82047 45.0222 3.96004 44.9563C4.0968 44.8913 4.25926 44.8398 4.44738 44.8017C4.98958 44.6918 5.42845 44.8031 5.76397 45.1355C6.09674 45.4684 6.33212 45.9866 6.47016 46.6901C6.55195 47.1083 6.56929 47.5702 6.5216 48.0751C6.47333 48.5771 6.36683 48.9947 6.20203 49.3274Z" fill="black"/>
<path d="M5.9847 42.8315L0.0976191 43.1815L0.043457 42.2431L5.93057 41.8931L5.9847 42.8315Z" fill="black"/>
<path d="M5.79879 35.5741C6.02266 36.036 6.10957 36.5591 6.05945 37.1441C6.00934 37.7291 5.83477 38.2293 5.53569 38.6449C5.23384 39.0603 4.85396 39.3611 4.3961 39.5475C3.93543 39.7334 3.42954 39.8022 2.8785 39.7536C2.468 39.7172 2.08991 39.6175 1.74416 39.4536C1.39844 39.29 1.10364 39.077 0.859855 38.8146C0.613468 38.5493 0.429912 38.2285 0.309161 37.8525C0.18867 37.4733 0.147196 37.0646 0.184797 36.6259C0.22237 36.1871 0.332602 35.7932 0.515521 35.4438C0.698642 35.0915 0.934018 34.8077 1.22159 34.5923C1.50659 34.3738 1.83327 34.214 2.20168 34.1134C2.57006 34.0129 2.95948 33.9805 3.36997 34.0169C3.92101 34.0655 4.4076 34.2215 4.82974 34.4857C5.24908 34.7493 5.57208 35.112 5.79879 35.5741ZM5.12743 37.062C5.2385 35.7655 4.6263 35.0585 3.29081 34.9406C1.94691 34.8221 1.21942 35.4108 1.10838 36.7074C0.998035 37.9952 1.61483 38.6984 2.95873 38.8172C3.32702 38.8496 3.64731 38.8311 3.91954 38.7617C4.19199 38.6895 4.41173 38.5712 4.57873 38.4077C4.74292 38.2435 4.8698 38.0522 4.95936 37.8334C5.04636 37.6114 5.10237 37.3545 5.12743 37.062Z" fill="black"/>
<path d="M1.97547 27.8407L2.22963 26.936L7.89396 28.5779L7.63963 29.4829L3.01974 30.9953L2.98309 31.1259L6.86217 32.2505L6.60812 33.1551L0.943848 31.5132L1.19801 30.6083L5.81393 29.0947L5.85055 28.9641L1.97547 27.8407Z" fill="black"/>
<path d="M10.2542 23.5543L8.92787 23.324L7.87469 25.4529L8.84261 26.4081L8.40879 27.2847L3.97119 22.9561L4.62073 21.6431L10.6917 22.6702L10.2542 23.5543ZM7.17469 24.7769L7.97064 23.1679L5.23469 22.6934L5.17275 22.8185L7.17469 24.7769Z" fill="black"/>
<path d="M11.3306 20.1552L12.7214 18.2405L13.4702 18.8017L11.5269 21.4769L6.80811 17.9396L7.36042 17.1792L11.3306 20.1552Z" fill="black"/>
<path d="M17.2242 7.32617L17.4387 10.9113L20.7988 12.0167L19.9135 12.713L17.0953 11.7737L16.4832 12.2552L17.9869 14.2283L17.2482 14.8095L13.6733 10.1188L14.4121 9.53773L15.9158 11.511L16.5283 11.0295L16.3389 8.02236L17.2242 7.32617Z" fill="black"/>
<path d="M25.2502 7.17458C25.5875 7.83579 25.652 8.4094 25.4439 8.89544C25.2341 9.37894 24.7774 9.80608 24.0731 10.177C23.3687 10.5478 22.7618 10.6808 22.252 10.5758C21.7436 10.4672 21.3208 10.0823 20.9832 9.42111L19.2612 6.04588L20.0893 5.60998L21.7919 8.94749C21.9396 9.23663 22.0878 9.43755 22.2372 9.55027C22.3893 9.66166 22.5731 9.70206 22.7887 9.67142C23.0069 9.63949 23.2933 9.53018 23.6479 9.34345C24 9.15804 24.2505 8.98466 24.3994 8.8233C24.5508 8.66064 24.6257 8.48417 24.6237 8.29385C24.6216 8.10356 24.5468 7.86385 24.3994 7.57472L22.6965 4.23721L23.5283 3.79932L25.2502 7.17458Z" fill="black"/>
<path d="M29.4308 5.50859L31.0961 4.98986L31.7724 7.23119L30.8793 7.50946L30.3299 5.68963L27.921 6.44004L28.4701 8.25986L27.5727 8.5394L25.8687 2.89348L27.7565 2.30547C28.1039 2.1972 28.4178 2.13342 28.6981 2.11414C28.9799 2.09134 29.2192 2.107 29.4155 2.16119C29.6108 2.21267 29.7831 2.30082 29.9328 2.42564C30.0825 2.55044 30.2025 2.69345 30.2924 2.85463C30.3843 3.01226 30.4626 3.19917 30.5279 3.41533C30.6233 3.73148 30.6554 4.00379 30.6241 4.23226C30.5921 4.45807 30.4767 4.66692 30.2782 4.85882C30.0796 5.05076 29.7837 5.22275 29.3903 5.37484L29.4308 5.50859ZM27.6504 5.54431L28.6409 5.23585C28.9184 5.1494 29.1363 5.06527 29.2944 4.9835C29.4525 4.90174 29.5704 4.80437 29.6484 4.69142C29.7256 4.57576 29.7629 4.45033 29.7603 4.31512C29.7606 4.17908 29.7293 4.00703 29.6663 3.79897C29.5808 3.51527 29.4791 3.31489 29.3611 3.1979C29.2461 3.08007 29.0869 3.02171 28.884 3.0229C28.6828 3.02053 28.3961 3.07726 28.0241 3.1931L27.034 3.50157L27.6504 5.54431Z" fill="black"/>
<path d="M33.1044 6.18722L32.988 5.17786C33.4201 5.40202 33.8646 5.56075 34.3215 5.65407C34.781 5.74705 35.2071 5.77011 35.5995 5.72332C35.7703 5.70294 35.9143 5.6815 36.031 5.65904C36.1478 5.63661 36.2634 5.60575 36.3781 5.56647C36.4955 5.52404 36.5865 5.47482 36.651 5.41881C36.7151 5.35999 36.7634 5.28601 36.7958 5.19687C36.831 5.10742 36.8417 5.00381 36.8281 4.88606C36.8149 4.77109 36.7796 4.67442 36.7221 4.59598C36.6672 4.51442 36.5987 4.45011 36.5166 4.40306C36.4368 4.35285 36.3241 4.31089 36.1781 4.27713C36.0351 4.24306 35.8929 4.21736 35.7516 4.20011C35.6102 4.18286 35.4261 4.16219 35.199 4.13812C35.1874 4.13667 35.1773 4.13644 35.1689 4.13742C35.1631 4.13531 35.1544 4.13491 35.1432 4.13624C35.1345 4.13445 35.1258 4.13262 35.1172 4.13083C34.5559 4.06985 34.1105 3.978 33.781 3.85531C33.4513 3.72979 33.2096 3.56959 33.0565 3.37468C32.9056 3.17664 32.812 2.91921 32.7753 2.60236C32.716 2.0893 32.8585 1.68575 33.2024 1.39176C33.549 1.09742 34.0544 0.910631 34.7186 0.831411C35.0605 0.790631 35.4247 0.794098 35.8108 0.841815C36.1995 0.88641 36.5495 0.96404 36.8605 1.07473L36.9689 2.0126C36.0163 1.78234 35.2651 1.69996 34.7157 1.76548C34.5391 1.78653 34.3903 1.81283 34.2689 1.84436C34.1504 1.87557 34.0432 1.9182 33.9469 1.97231C33.8539 2.02606 33.7865 2.09661 33.7455 2.18392C33.7073 2.27092 33.6955 2.37609 33.7097 2.49947C33.7365 2.73219 33.8571 2.89118 34.0715 2.97644C34.286 3.06173 34.6709 3.13378 35.2258 3.19262C35.5281 3.22482 35.7848 3.25815 35.9961 3.29262C36.2076 3.3271 36.4102 3.37257 36.6042 3.42901C36.7984 3.48546 36.9565 3.55043 37.0784 3.62398C37.2036 3.69719 37.3151 3.78907 37.4131 3.89959C37.5134 4.00699 37.5906 4.13283 37.644 4.27707C37.6975 4.41852 37.7351 4.58456 37.757 4.77523C37.8206 5.32476 37.6729 5.75456 37.3137 6.06456C36.9544 6.37179 36.4186 6.56786 35.7068 6.65277C35.2836 6.70326 34.8229 6.68575 34.3241 6.60025C33.8284 6.51442 33.4218 6.37676 33.1044 6.18722Z" fill="black"/>
<path d="M40.4308 5.54781L42.7946 5.66524L42.7481 6.59972L39.4458 6.43564L39.7377 0.54541L40.6764 0.592058L40.4308 5.54781Z" fill="black"/>
<path d="M48.3472 7.70984L48.2363 6.36065L45.9198 5.83544L45.2423 7.00582L44.2886 6.78955L47.3461 1.43579L48.7747 1.75969L49.3091 7.92799L48.3472 7.70984ZM46.3955 4.99261L48.1461 5.38955L47.9166 2.60701L47.7802 2.57611L46.3955 4.99261Z" fill="black"/>
<path d="M53.9136 7.35212L55.5136 8.04663L54.6058 10.2046L53.7477 9.8322L54.4844 8.07995L52.1699 7.0753L51.4329 8.82755L50.5708 8.45333L52.8572 3.01709L54.6708 3.80429C55.0049 3.94926 55.2847 4.10616 55.5107 4.27501C55.7404 4.44238 55.9127 4.61105 56.028 4.78108C56.1445 4.94848 56.2202 5.129 56.2549 5.32261C56.2899 5.51619 56.2905 5.70411 56.2566 5.88637C56.2266 6.06712 56.1679 6.26157 56.0803 6.46972C55.9523 6.77411 55.8037 7.00348 55.6347 7.15778C55.4668 7.30952 55.2462 7.39371 54.9728 7.41041C54.6994 7.42712 54.3644 7.36478 53.9676 7.22333L53.9136 7.35212ZM52.5326 6.21284L53.4841 6.62582C53.7509 6.74157 53.9705 6.81998 54.1431 6.86102C54.3156 6.90209 54.4673 6.90495 54.5985 6.8696C54.7309 6.83166 54.839 6.76012 54.9231 6.65506C55.0095 6.55111 55.0951 6.39897 55.1792 6.19865C55.2942 5.92547 55.3439 5.7055 55.3283 5.53877C55.3153 5.37313 55.2309 5.22423 55.0751 5.09203C54.9234 4.95839 54.6685 4.81403 54.3113 4.65894L53.3598 4.24596L52.5326 6.21284Z" fill="black"/>
<path d="M69.3275 24.8992C68.883 24.6503 68.5151 24.2708 68.2238 23.7613C67.9328 23.2515 67.7908 22.7388 67.7986 22.2232C67.8088 21.7061 67.9472 21.2376 68.2145 20.818C68.4842 20.3969 68.8573 20.0457 69.3339 19.7648C69.6888 19.5555 70.0536 19.4174 70.4281 19.3506C70.8027 19.2836 71.1637 19.287 71.5114 19.3604C71.8628 19.435 72.1943 19.5917 72.5064 19.8304C72.8197 20.0717 73.0856 20.3833 73.3038 20.7656C73.5223 21.148 73.6562 21.5359 73.7056 21.9292C73.7565 22.3255 73.7258 22.6957 73.6137 23.0402C73.5056 23.3856 73.3301 23.707 73.0871 24.0044C72.8443 24.3015 72.5452 24.5547 72.1903 24.7642C71.7137 25.0451 71.2287 25.2 70.7351 25.2292C70.2437 25.2567 69.7747 25.1469 69.3275 24.8992ZM69.0299 23.2859C69.6752 24.4156 70.5755 24.6399 71.7304 23.959C72.8926 23.2737 73.1507 22.3662 72.5053 21.2364C71.864 20.1142 70.9622 19.8957 69.8001 20.581C69.4816 20.7688 69.2313 20.9703 69.0489 21.1862C68.868 21.4041 68.7559 21.6289 68.7128 21.8607C68.6724 22.0914 68.6776 22.3223 68.7287 22.5544C68.7839 22.787 68.8842 23.031 69.0299 23.2859Z" fill="black"/>
<path d="M75.5843 25.0891L75.9302 25.9585L75.0609 26.3154L73.9401 26.3732L73.7349 25.8579L74.8198 25.7096L74.7149 25.446L75.5843 25.0891Z" fill="black"/>
<path d="M77.8269 33.1178L77.2286 33.2728L72.2095 31.1178L73.0237 34.3621L72.1179 34.5965L70.9575 29.9728L71.5598 29.8167L76.5853 31.9788L75.7691 28.7265L76.6665 28.4941L77.8269 33.1178Z" fill="black"/>
<path d="M75.5629 38.7537C75.5522 39.0008 75.512 39.213 75.443 39.3907C75.3736 39.5684 75.2773 39.7086 75.1545 39.8112C75.0317 39.9135 74.8958 39.9901 74.7464 40.0407C74.6002 40.0913 74.4299 40.1237 74.2357 40.1378C74.0583 40.1511 73.8909 40.1436 73.7331 40.1156C73.5759 40.0904 73.4218 40.0367 73.2718 39.9543C73.1216 39.8722 72.9892 39.763 72.8747 39.6271C72.7635 39.4939 72.669 39.3182 72.5909 39.1005C72.5161 38.8823 72.4684 38.6326 72.4482 38.3511L72.2915 36.1595L78.173 35.7251L78.3297 37.9167C78.347 38.1589 78.3346 38.3806 78.2924 38.5817C78.2502 38.7832 78.1872 38.952 78.1036 39.0881C78.0201 39.2274 77.9184 39.3468 77.7982 39.4462C77.6779 39.5456 77.5505 39.6202 77.4152 39.6696C77.2828 39.719 77.1421 39.7494 76.9929 39.7604C76.2753 39.8132 75.845 39.4742 75.7022 38.7433L75.5629 38.7537ZM77.3152 36.7309L75.9389 36.8326L76.0276 38.0739C76.0496 38.378 76.1166 38.5869 76.2297 38.7002C76.3427 38.8164 76.523 38.8653 76.7707 38.8471C77.0213 38.8286 77.1941 38.7534 77.2892 38.6219C77.3878 38.493 77.4259 38.2765 77.4042 37.9725L77.3152 36.7309ZM73.3982 38.2809C73.4247 38.6497 73.5034 38.9014 73.6349 39.0361C73.7661 39.1708 73.9935 39.2263 74.3172 39.2023C74.6438 39.178 74.8612 39.0898 74.969 38.9375C75.0799 38.7878 75.1221 38.5271 75.0955 38.1557L75.0057 36.9014L73.3086 37.0268L73.3982 38.2809Z" fill="black"/>
<path d="M77.1152 46.197L77.3845 43.2924L75.9137 43.1516L75.7071 45.3817L74.7756 45.2924L74.9825 43.0626L73.3683 42.908L73.099 45.8126L72.1675 45.7233L72.521 41.9126L78.3915 42.4744L78.0383 46.2851L77.1152 46.197Z" fill="black"/>
<path d="M76.3916 53.2999L74.0609 50.5835L70.7046 51.7387L70.9942 50.6502L73.8164 49.691L74.0167 48.9381L71.6242 48.2814L71.8659 47.373L77.5529 48.9343L77.3112 49.8427L74.919 49.1858L74.7188 49.9387L76.6812 52.2115L76.3916 53.2999Z" fill="black"/>
<path d="M71.2645 63.5065L70.4798 63.0129L71.405 61.4944L67.1978 58.8482L67.6847 58.0493L71.892 60.6956L72.8174 59.1771L73.6024 59.6707L71.2645 63.5065Z" fill="black"/>
<path d="M65.2154 61.6582L69.7386 65.4426L69.1467 66.1727L64.6235 62.3883L65.2154 61.6582Z" fill="black"/>
<path d="M63.2228 65.3229L61.5225 66.9692L60.8823 66.2868L63.2578 63.9868L67.293 68.2877L66.6179 68.9414L63.2228 65.3229Z" fill="black"/>
<path d="M59.4993 67.3735L62.9904 72.127L62.2412 72.6946L58.7505 67.9415L59.4993 67.3735Z" fill="black"/>
<path d="M58.1792 75.321C57.7552 75.5577 57.3636 75.7057 57.0038 75.7643C56.6454 75.8256 56.3148 75.7956 56.0113 75.6739C55.707 75.5562 55.4275 75.3632 55.1732 75.0947C54.9188 74.8265 54.6726 74.4724 54.4347 74.0331C54.1983 73.5964 54.0365 73.197 53.9498 72.8349C53.8628 72.473 53.8512 72.1285 53.9151 71.8019C53.9778 71.4791 54.1301 71.1791 54.3714 70.9019C54.6142 70.6273 54.9474 70.3716 55.3714 70.1349L57.0974 69.1704L59.9052 74.3565L58.1792 75.321ZM55.8168 70.9577C55.5136 71.1271 55.2827 71.2901 55.1237 71.4467C54.9622 71.6048 54.8581 71.786 54.8113 71.9898C54.7656 72.1964 54.7792 72.423 54.8521 72.6701C54.9249 72.9172 55.0581 73.2195 55.2515 73.5768C55.4503 73.9441 55.6339 74.2265 55.8015 74.4236C55.9668 74.6224 56.148 74.7554 56.3451 74.823C56.5422 74.8909 56.7477 74.8973 56.9619 74.8421C57.1737 74.7886 57.4321 74.6765 57.7376 74.5057L58.6431 73.9999L56.7223 70.4516L55.8168 70.9577Z" fill="black"/>
<path d="M47.7601 73.3186L48.5327 74.423L50.7873 73.6764L50.7827 72.3178L51.711 72.0103L51.7685 78.2033L50.3781 78.664L46.8237 73.6287L47.7601 73.3186ZM50.8012 74.6484L49.0971 75.2126L50.6905 77.49L50.8232 77.4461L50.8012 74.6484Z" fill="black"/>
<path d="M63.8728 12.8712C64.2214 12.8712 64.504 12.5842 64.504 12.23C64.504 11.8759 64.2214 11.5889 63.8728 11.5889C63.5243 11.5889 63.2417 11.8759 63.2417 12.23C63.2417 12.5842 63.5243 12.8712 63.8728 12.8712Z" fill="black"/>
<path d="M39.3992 78.9955C39.7478 78.9955 40.0304 78.7084 40.0304 78.3543C40.0304 78.0002 39.7478 77.7131 39.3992 77.7131C39.0506 77.7131 38.7681 78.0002 38.7681 78.3543C38.7681 78.7084 39.0506 78.9955 39.3992 78.9955Z" fill="black"/>
</svg>
