<svg width="349" height="472" viewBox="0 0 349 472" fill="none" xmlns="http://www.w3.org/2000/svg">
<g clip-path="url(#clip0)">
<path d="M333.183 60.7476L124.736 4.89445C116.691 2.73888 108.423 7.50924 106.269 15.5493L5.11809 393.05C2.96375 401.09 7.7388 409.356 15.7835 411.511L224.23 467.364C232.275 469.52 240.543 464.749 242.697 456.709L343.848 79.2085C346.003 71.1684 341.228 62.9032 333.183 60.7476Z" fill="white"/>
<path d="M183.998 58.9746L120.208 41.8822C117.434 41.1389 114.583 42.7839 113.84 45.5563C113.098 48.3288 114.744 51.1789 117.518 51.9222L181.308 69.0146C184.082 69.7579 186.933 68.1129 187.676 65.3405C188.419 62.568 186.772 59.7179 183.998 58.9746Z" fill="#EAEAEA"/>
<path d="M159.855 84.7875L114.649 72.6748C110.488 71.5598 106.212 74.0273 105.098 78.1859L97.027 108.306C95.9127 112.464 98.3826 116.739 102.544 117.854L147.749 129.967C151.91 131.082 156.186 128.615 157.301 124.456L165.371 94.3363C166.486 90.1776 164.016 85.9025 159.855 84.7875Z" fill="#EAEAEA"/>
<path d="M130.105 93.6985C129.546 93.1075 128.555 93.3575 128.345 94.1432L125.272 105.61C125.062 106.395 125.795 107.107 126.574 106.875L137.432 103.639C138.175 103.418 138.423 102.492 137.89 101.93L130.105 93.6985Z" fill="#909090"/>
<path d="M310.539 125.163L179.946 90.1711C177.172 89.4278 174.321 91.0727 173.578 93.8452C172.835 96.6176 174.481 99.4677 177.255 100.211L307.849 135.203C310.623 135.947 313.474 134.302 314.217 131.529C314.959 128.757 313.313 125.907 310.539 125.163Z" fill="#EAEAEA"/>
<path d="M238.193 121.92L175.911 105.231C173.136 104.488 170.285 106.133 169.543 108.905C168.8 111.677 170.446 114.527 173.22 115.271L235.503 131.959C238.277 132.703 241.128 131.058 241.871 128.285C242.614 125.513 240.967 122.663 238.193 121.92Z" fill="#EAEAEA"/>
<path d="M302.29 165.996L166.674 129.658C165.287 129.286 163.861 130.109 163.49 131.495C163.118 132.881 163.941 134.306 165.328 134.678L300.944 171.016C302.331 171.388 303.757 170.565 304.128 169.179C304.5 167.793 303.677 166.368 302.29 165.996Z" fill="#EAEAEA"/>
<path d="M271.148 157.652L166.674 129.658C165.287 129.286 163.861 130.109 163.49 131.495C163.118 132.881 163.941 134.306 165.328 134.678L269.803 162.672C271.19 163.043 272.615 162.221 272.987 160.835C273.358 159.448 272.535 158.023 271.148 157.652Z" fill="#909090"/>
<path d="M139.678 160.087L94.4727 147.974C90.3117 146.859 86.0351 149.327 84.9208 153.485L76.8503 183.605C75.736 187.764 78.2058 192.039 82.3669 193.154L127.572 205.266C131.733 206.381 136.01 203.914 137.124 199.755L145.195 169.636C146.309 165.477 143.839 161.202 139.678 160.087Z" fill="#EAEAEA"/>
<path d="M109.928 168.998C109.369 168.407 108.379 168.657 108.168 169.442L105.096 180.909C104.885 181.695 105.618 182.407 106.398 182.174L117.256 178.939C117.998 178.717 118.246 177.792 117.714 177.229L109.928 168.998Z" fill="#909090"/>
<path d="M290.362 200.463L159.769 165.47C156.995 164.727 154.144 166.372 153.401 169.144C152.658 171.917 154.305 174.767 157.079 175.51L287.672 210.503C290.446 211.246 293.297 209.601 294.04 206.829C294.783 204.056 293.136 201.206 290.362 200.463Z" fill="#EAEAEA"/>
<path d="M218.017 197.219L155.734 180.53C152.96 179.787 150.109 181.432 149.366 184.204C148.623 186.977 150.27 189.827 153.044 190.57L215.326 207.259C218.1 208.002 220.951 206.357 221.694 203.585C222.437 200.812 220.791 197.962 218.017 197.219Z" fill="#EAEAEA"/>
<path d="M282.113 241.295L146.497 204.957C145.11 204.585 143.684 205.408 143.313 206.794C142.941 208.18 143.765 209.605 145.152 209.977L280.768 246.315C282.155 246.687 283.58 245.864 283.952 244.478C284.323 243.092 283.5 241.667 282.113 241.295Z" fill="#EAEAEA"/>
<path d="M185.172 215.32L146.497 204.957C145.11 204.585 143.684 205.408 143.313 206.794C142.941 208.18 143.765 209.605 145.152 209.977L183.827 220.34C185.214 220.712 186.64 219.889 187.011 218.503C187.383 217.117 186.559 215.692 185.172 215.32Z" fill="#909090"/>
<path d="M119.501 235.386L74.2959 223.274C70.1349 222.159 65.8584 224.626 64.7441 228.785L56.6735 258.905C55.5592 263.063 58.0291 267.338 62.1901 268.453L107.395 280.566C111.556 281.681 115.833 279.214 116.947 275.055L125.018 244.935C126.132 240.776 123.662 236.501 119.501 235.386Z" fill="#EAEAEA"/>
<path d="M89.7515 244.297C89.1925 243.706 88.2018 243.956 87.9913 244.742L84.9189 256.208C84.7084 256.994 85.4413 257.706 86.2209 257.473L97.0788 254.238C97.8213 254.017 98.0693 253.091 97.537 252.528L89.7515 244.297Z" fill="#909090"/>
<path d="M270.186 275.762L139.593 240.77C136.819 240.026 133.968 241.671 133.225 244.444C132.482 247.216 134.129 250.066 136.903 250.81L267.496 285.802C270.27 286.545 273.121 284.9 273.864 282.128C274.607 279.355 272.96 276.505 270.186 275.762Z" fill="#EAEAEA"/>
<path d="M197.841 272.518L135.558 255.83C132.784 255.086 129.933 256.731 129.19 259.504C128.447 262.276 130.094 265.126 132.868 265.87L195.151 282.558C197.925 283.302 200.776 281.657 201.519 278.884C202.261 276.112 200.615 273.262 197.841 272.518Z" fill="#EAEAEA"/>
<path d="M261.937 316.595L126.321 280.256C124.934 279.885 123.508 280.707 123.137 282.093C122.766 283.48 123.589 284.905 124.976 285.276L260.592 321.615C261.979 321.986 263.404 321.164 263.776 319.778C264.147 318.391 263.324 316.966 261.937 316.595Z" fill="#EAEAEA"/>
<path d="M199.654 299.906L126.321 280.256C124.934 279.885 123.508 280.707 123.137 282.093C122.766 283.48 123.589 284.905 124.976 285.276L198.309 304.926C199.696 305.298 201.121 304.475 201.493 303.089C201.864 301.703 201.041 300.278 199.654 299.906Z" fill="#909090"/>
<path d="M99.3255 310.686L54.1202 298.573C49.9591 297.458 45.6826 299.925 44.5683 304.084L36.4977 334.204C35.3834 338.363 37.8533 342.638 42.0143 343.753L87.2196 355.865C91.3807 356.98 95.6572 354.513 96.7715 350.354L104.842 320.234C105.956 316.076 103.487 311.801 99.3255 310.686Z" fill="#EAEAEA"/>
<path d="M69.5757 319.597C69.0167 319.006 68.0261 319.256 67.8155 320.041L64.7431 331.508C64.5326 332.294 65.2655 333.005 66.0451 332.773L76.903 329.538C77.6455 329.316 77.8935 328.391 77.3612 327.828L69.5757 319.597Z" fill="#909090"/>
<path d="M250.01 351.062L119.416 316.069C116.642 315.326 113.791 316.971 113.048 319.743C112.306 322.516 113.952 325.366 116.726 326.109L247.319 361.101C250.093 361.845 252.944 360.2 253.687 357.427C254.43 354.655 252.784 351.805 250.01 351.062Z" fill="#EAEAEA"/>
<path d="M177.664 347.818L115.381 331.129C112.607 330.386 109.756 332.031 109.013 334.803C108.27 337.576 109.917 340.426 112.691 341.169L174.974 357.858C177.748 358.601 180.599 356.956 181.342 354.184C182.085 351.411 180.438 348.561 177.664 347.818Z" fill="#EAEAEA"/>
<path d="M241.76 391.894L106.144 355.556C104.757 355.184 103.332 356.007 102.96 357.393C102.589 358.779 103.412 360.204 104.799 360.576L240.415 396.914C241.802 397.286 243.228 396.463 243.599 395.077C243.97 393.691 243.147 392.266 241.76 391.894Z" fill="#EAEAEA"/>
<path d="M235.733 390.279L106.144 355.556C104.757 355.184 103.332 356.007 102.96 357.393C102.589 358.779 103.412 360.204 104.799 360.576L234.388 395.299C235.775 395.671 237.2 394.848 237.572 393.462C237.943 392.076 237.12 390.651 235.733 390.279Z" fill="#909090"/>
<path d="M227.322 425.688L33.9434 373.872C29.7824 372.757 25.5059 375.225 24.3915 379.383L21.7013 389.423C20.587 393.582 23.0569 397.857 27.2179 398.972L220.596 450.788C224.757 451.903 229.034 449.435 230.148 445.277L232.838 435.237C233.953 431.078 231.483 426.803 227.322 425.688Z" fill="#EAEAEA"/>
<path d="M155.317 417.155L100.066 402.35C98.6791 401.979 97.2536 402.801 96.8821 404.187C96.5107 405.574 97.334 406.999 98.721 407.37L153.972 422.175C155.359 422.546 156.784 421.724 157.156 420.338C157.527 418.952 156.704 417.527 155.317 417.155Z" fill="#909090"/>
<path d="M333.183 60.7476L124.736 4.89445C116.691 2.73888 108.423 7.50924 106.269 15.5493L5.11809 393.05C2.96375 401.09 7.7388 409.356 15.7835 411.511L224.23 467.364C232.275 469.52 240.543 464.749 242.697 456.709L343.848 79.2085C346.003 71.1684 341.228 62.9032 333.183 60.7476Z" stroke="#EAEAEA" stroke-width="2"/>
</g>
<defs>
<clipPath id="clip0">
<rect width="247" height="422" fill="white" transform="translate(109.802 0.35498) rotate(15)"/>
</clipPath>
</defs>
</svg>
