<svg width="1366" height="32" viewBox="0 0 1366 32" fill="none" xmlns="http://www.w3.org/2000/svg">
<rect x="-323" width="2011" height="32" fill="#E0E0E0"/>
<path d="M-307.878 20.169C-309.135 20.169 -310.192 19.753 -311.05 18.921C-311.908 18.0803 -312.337 16.997 -312.337 15.671C-312.337 14.345 -311.908 13.266 -311.05 12.434C-310.192 11.602 -309.135 11.186 -307.878 11.186C-306.509 11.186 -305.386 11.7277 -304.511 12.811L-305.369 13.344C-305.646 12.98 -306.01 12.6897 -306.461 12.473C-306.903 12.2563 -307.375 12.148 -307.878 12.148C-308.831 12.148 -309.629 12.4817 -310.27 13.149C-310.903 13.8077 -311.219 14.6483 -311.219 15.671C-311.219 16.6937 -310.903 17.5387 -310.27 18.206C-309.629 18.8733 -308.831 19.207 -307.878 19.207C-307.401 19.207 -306.959 19.116 -306.552 18.934C-306.136 18.7433 -305.802 18.5223 -305.551 18.271V16.503H-308.528V15.541H-304.472V18.674C-305.365 19.6707 -306.5 20.169 -307.878 20.169ZM-296.426 20H-297.7L-299.91 16.555H-301.639V20H-302.718V11.329H-299.234C-298.428 11.329 -297.774 11.5673 -297.271 12.044C-296.769 12.5207 -296.517 13.1533 -296.517 13.942C-296.517 14.6873 -296.734 15.281 -297.167 15.723C-297.601 16.165 -298.134 16.412 -298.766 16.464L-296.426 20ZM-299.364 15.606C-298.853 15.606 -298.437 15.45 -298.116 15.138C-297.796 14.826 -297.635 14.4273 -297.635 13.942C-297.635 13.4567 -297.796 13.0623 -298.116 12.759C-298.437 12.447 -298.853 12.291 -299.364 12.291H-301.639V15.606H-299.364ZM-287.386 20H-288.621L-289.388 18.076H-293.704L-294.471 20H-295.706L-292.222 11.329H-290.883L-287.386 20ZM-289.713 17.114L-291.546 12.447L-293.392 17.114H-289.713ZM-285.174 20H-286.253V11.329H-282.769C-281.928 11.329 -281.265 11.5803 -280.78 12.083C-280.294 12.5857 -280.052 13.2053 -280.052 13.942C-280.052 14.6787 -280.299 15.2983 -280.793 15.801C-281.278 16.3037 -281.937 16.555 -282.769 16.555H-285.174V20ZM-282.899 15.593C-282.387 15.593 -281.971 15.4413 -281.651 15.138C-281.33 14.826 -281.17 14.4273 -281.17 13.942C-281.17 13.4567 -281.33 13.0623 -281.651 12.759C-281.971 12.447 -282.387 12.291 -282.899 12.291H-285.174V15.593H-282.899ZM-271.395 20H-272.474V16.022H-277.544V20H-278.623V11.329H-277.544V15.06H-272.474V11.329H-271.395V20ZM-268.289 20H-269.368V11.329H-268.289V20ZM-262.149 20.156C-263.415 20.156 -264.476 19.74 -265.334 18.908C-266.184 18.0673 -266.608 16.9883 -266.608 15.671C-266.608 14.3537 -266.184 13.279 -265.334 12.447C-264.476 11.6063 -263.415 11.186 -262.149 11.186C-260.763 11.186 -259.666 11.758 -258.86 12.902L-259.77 13.409C-260.022 13.0363 -260.36 12.733 -260.784 12.499C-261.209 12.265 -261.664 12.148 -262.149 12.148C-263.103 12.148 -263.9 12.4817 -264.541 13.149C-265.174 13.8077 -265.49 14.6483 -265.49 15.671C-265.49 16.6937 -265.174 17.5387 -264.541 18.206C-263.9 18.8647 -263.103 19.194 -262.149 19.194C-261.664 19.194 -261.209 19.0813 -260.784 18.856C-260.36 18.622 -260.022 18.3143 -259.77 17.933L-258.847 18.44C-259.688 19.584 -260.789 20.156 -262.149 20.156ZM-251.157 20H-254.121V11.329H-251.157C-249.831 11.329 -248.76 11.7407 -247.946 12.564C-247.122 13.3873 -246.711 14.423 -246.711 15.671C-246.711 16.9277 -247.122 17.9633 -247.946 18.778C-248.76 19.5927 -249.831 20 -251.157 20ZM-251.157 19.038C-250.134 19.038 -249.324 18.7173 -248.726 18.076C-248.128 17.4347 -247.829 16.633 -247.829 15.671C-247.829 14.7003 -248.123 13.8943 -248.713 13.253C-249.302 12.6117 -250.117 12.291 -251.157 12.291H-253.042V19.038H-251.157ZM-239.337 20H-245.018V11.329H-239.337V12.291H-243.939V15.086H-239.428V16.048H-243.939V19.038H-239.337V20ZM-234.809 20.156C-236.213 20.156 -237.322 19.6967 -238.137 18.778L-237.5 17.959C-236.763 18.7823 -235.853 19.194 -234.77 19.194C-234.068 19.194 -233.552 19.0467 -233.223 18.752C-232.894 18.4487 -232.729 18.0977 -232.729 17.699C-232.729 17.3957 -232.824 17.14 -233.015 16.932C-233.206 16.724 -233.453 16.5637 -233.756 16.451C-234.051 16.3297 -234.384 16.2213 -234.757 16.126C-235.121 16.0307 -235.485 15.9267 -235.849 15.814C-236.213 15.6927 -236.547 15.5497 -236.85 15.385C-237.145 15.2203 -237.387 14.9863 -237.578 14.683C-237.769 14.3797 -237.864 14.02 -237.864 13.604C-237.864 12.8933 -237.582 12.317 -237.019 11.875C-236.456 11.4243 -235.745 11.199 -234.887 11.199C-233.596 11.199 -232.569 11.602 -231.806 12.408L-232.456 13.201C-233.089 12.5077 -233.925 12.161 -234.965 12.161C-235.485 12.161 -235.914 12.291 -236.252 12.551C-236.581 12.8023 -236.746 13.1317 -236.746 13.539C-236.746 13.8423 -236.62 14.0937 -236.369 14.293C-236.109 14.4923 -235.793 14.6397 -235.42 14.735C-235.039 14.8303 -234.627 14.9517 -234.185 15.099C-233.734 15.2377 -233.323 15.3893 -232.95 15.554C-232.569 15.71 -232.252 15.9657 -232.001 16.321C-231.741 16.6763 -231.611 17.1053 -231.611 17.608C-231.611 18.3187 -231.875 18.921 -232.404 19.415C-232.924 19.909 -233.726 20.156 -234.809 20.156ZM-228.921 20H-230V11.329H-228.921V20ZM-222.781 20.169C-224.038 20.169 -225.095 19.753 -225.953 18.921C-226.811 18.0803 -227.24 16.997 -227.24 15.671C-227.24 14.345 -226.811 13.266 -225.953 12.434C-225.095 11.602 -224.038 11.186 -222.781 11.186C-221.412 11.186 -220.29 11.7277 -219.414 12.811L-220.272 13.344C-220.55 12.98 -220.914 12.6897 -221.364 12.473C-221.806 12.2563 -222.279 12.148 -222.781 12.148C-223.735 12.148 -224.532 12.4817 -225.173 13.149C-225.806 13.8077 -226.122 14.6483 -226.122 15.671C-226.122 16.6937 -225.806 17.5387 -225.173 18.206C-224.532 18.8733 -223.735 19.207 -222.781 19.207C-222.305 19.207 -221.863 19.116 -221.455 18.934C-221.039 18.7433 -220.706 18.5223 -220.454 18.271V16.503H-223.431V15.541H-219.375V18.674C-220.268 19.6707 -221.403 20.169 -222.781 20.169ZM-210.446 20H-211.486L-216.543 13.084V20H-217.622V11.329H-216.517L-211.525 18.102V11.329H-210.446V20ZM-199.401 15.866C-199.123 16.1433 -198.985 16.4727 -198.985 16.854C-198.985 17.2353 -199.123 17.5647 -199.401 17.842C-199.678 18.1107 -200.007 18.245 -200.389 18.245C-200.77 18.245 -201.099 18.1107 -201.377 17.842C-201.654 17.5647 -201.793 17.2353 -201.793 16.854C-201.793 16.4727 -201.654 16.1433 -201.377 15.866C-201.099 15.5887 -200.77 15.45 -200.389 15.45C-200.007 15.45 -199.678 15.5887 -199.401 15.866ZM-184.19 19.22C-184.788 19.844 -185.664 20.156 -186.816 20.156C-187.969 20.156 -188.849 19.844 -189.455 19.22C-190.053 18.5873 -190.352 17.725 -190.352 16.633V11.329H-189.273V16.607C-189.273 17.413 -189.061 18.0457 -188.636 18.505C-188.212 18.9643 -187.605 19.194 -186.816 19.194C-186.028 19.194 -185.421 18.9643 -184.996 18.505C-184.572 18.0457 -184.359 17.413 -184.359 16.607V11.329H-183.28V16.62C-183.28 17.7207 -183.584 18.5873 -184.19 19.22ZM-173.957 20H-175.257L-178.026 16.308L-180.795 20H-182.108L-178.728 15.554L-181.913 11.329H-180.6L-178.026 14.8L-175.465 11.329H-174.152L-177.324 15.541L-173.957 20ZM-173.016 20.26H-173.783L-170.702 11.069H-169.935L-173.016 20.26ZM-162.761 19.22C-163.359 19.844 -164.234 20.156 -165.387 20.156C-166.539 20.156 -167.419 19.844 -168.026 19.22C-168.624 18.5873 -168.923 17.725 -168.923 16.633V11.329H-167.844V16.607C-167.844 17.413 -167.631 18.0457 -167.207 18.505C-166.782 18.9643 -166.175 19.194 -165.387 19.194C-164.598 19.194 -163.991 18.9643 -163.567 18.505C-163.142 18.0457 -162.93 17.413 -162.93 16.607V11.329H-161.851V16.62C-161.851 17.7207 -162.154 18.5873 -162.761 19.22ZM-158.741 20H-159.82V11.329H-158.741V20ZM-150.394 20H-153.358V11.329H-150.394C-149.068 11.329 -147.998 11.7407 -147.183 12.564C-146.36 13.3873 -145.948 14.423 -145.948 15.671C-145.948 16.9277 -146.36 17.9633 -147.183 18.778C-147.998 19.5927 -149.068 20 -150.394 20ZM-150.394 19.038C-149.371 19.038 -148.561 18.7173 -147.963 18.076C-147.365 17.4347 -147.066 16.633 -147.066 15.671C-147.066 14.7003 -147.361 13.8943 -147.95 13.253C-148.539 12.6117 -149.354 12.291 -150.394 12.291H-152.279V19.038H-150.394ZM-138.575 20H-144.256V11.329H-138.575V12.291H-143.177V15.086H-138.666V16.048H-143.177V19.038H-138.575V20ZM-134.046 20.156C-135.45 20.156 -136.559 19.6967 -137.374 18.778L-136.737 17.959C-136 18.7823 -135.09 19.194 -134.007 19.194C-133.305 19.194 -132.789 19.0467 -132.46 18.752C-132.131 18.4487 -131.966 18.0977 -131.966 17.699C-131.966 17.3957 -132.061 17.14 -132.252 16.932C-132.443 16.724 -132.69 16.5637 -132.993 16.451C-133.288 16.3297 -133.621 16.2213 -133.994 16.126C-134.358 16.0307 -134.722 15.9267 -135.086 15.814C-135.45 15.6927 -135.784 15.5497 -136.087 15.385C-136.382 15.2203 -136.624 14.9863 -136.815 14.683C-137.006 14.3797 -137.101 14.02 -137.101 13.604C-137.101 12.8933 -136.819 12.317 -136.256 11.875C-135.693 11.4243 -134.982 11.199 -134.124 11.199C-132.833 11.199 -131.806 11.602 -131.043 12.408L-131.693 13.201C-132.326 12.5077 -133.162 12.161 -134.202 12.161C-134.722 12.161 -135.151 12.291 -135.489 12.551C-135.818 12.8023 -135.983 13.1317 -135.983 13.539C-135.983 13.8423 -135.857 14.0937 -135.606 14.293C-135.346 14.4923 -135.03 14.6397 -134.657 14.735C-134.276 14.8303 -133.864 14.9517 -133.422 15.099C-132.971 15.2377 -132.56 15.3893 -132.187 15.554C-131.806 15.71 -131.489 15.9657 -131.238 16.321C-130.978 16.6763 -130.848 17.1053 -130.848 17.608C-130.848 18.3187 -131.112 18.921 -131.641 19.415C-132.161 19.909 -132.963 20.156 -134.046 20.156ZM-128.158 20H-129.237V11.329H-128.158V20ZM-122.019 20.169C-123.275 20.169 -124.333 19.753 -125.191 18.921C-126.049 18.0803 -126.478 16.997 -126.478 15.671C-126.478 14.345 -126.049 13.266 -125.191 12.434C-124.333 11.602 -123.275 11.186 -122.019 11.186C-120.649 11.186 -119.527 11.7277 -118.652 12.811L-119.51 13.344C-119.787 12.98 -120.151 12.6897 -120.602 12.473C-121.044 12.2563 -121.516 12.148 -122.019 12.148C-122.972 12.148 -123.769 12.4817 -124.411 13.149C-125.043 13.8077 -125.36 14.6483 -125.36 15.671C-125.36 16.6937 -125.043 17.5387 -124.411 18.206C-123.769 18.8733 -122.972 19.207 -122.019 19.207C-121.542 19.207 -121.1 19.116 -120.693 18.934C-120.277 18.7433 -119.943 18.5223 -119.692 18.271V16.503H-122.669V15.541H-118.613V18.674C-119.505 19.6707 -120.641 20.169 -122.019 20.169ZM-109.683 20H-110.723L-115.78 13.084V20H-116.859V11.329H-115.754L-110.762 18.102V11.329H-109.683V20ZM-98.6378 15.866C-98.3605 16.1433 -98.2218 16.4727 -98.2218 16.854C-98.2218 17.2353 -98.3605 17.5647 -98.6378 17.842C-98.9152 18.1107 -99.2445 18.245 -99.6258 18.245C-100.007 18.245 -100.336 18.1107 -100.614 17.842C-100.891 17.5647 -101.03 17.2353 -101.03 16.854C-101.03 16.4727 -100.891 16.1433 -100.614 15.866C-100.336 15.5887 -100.007 15.45 -99.6258 15.45C-99.2445 15.45 -98.9152 15.5887 -98.6378 15.866ZM-85.4815 20.169C-86.7382 20.169 -87.7955 19.753 -88.6535 18.921C-89.5115 18.0803 -89.9405 16.997 -89.9405 15.671C-89.9405 14.345 -89.5115 13.266 -88.6535 12.434C-87.7955 11.602 -86.7382 11.186 -85.4815 11.186C-84.1122 11.186 -82.9898 11.7277 -82.1145 12.811L-82.9725 13.344C-83.2498 12.98 -83.6138 12.6897 -84.0645 12.473C-84.5065 12.2563 -84.9788 12.148 -85.4815 12.148C-86.4348 12.148 -87.2322 12.4817 -87.8735 13.149C-88.5062 13.8077 -88.8225 14.6483 -88.8225 15.671C-88.8225 16.6937 -88.5062 17.5387 -87.8735 18.206C-87.2322 18.8733 -86.4348 19.207 -85.4815 19.207C-85.0048 19.207 -84.5628 19.116 -84.1555 18.934C-83.7395 18.7433 -83.4058 18.5223 -83.1545 18.271V16.503H-86.1315V15.541H-82.0755V18.674C-82.9682 19.6707 -84.1035 20.169 -85.4815 20.169ZM-74.0299 20H-75.3039L-77.5139 16.555H-79.2429V20H-80.3219V11.329H-76.8379C-76.0319 11.329 -75.3776 11.5673 -74.8749 12.044C-74.3723 12.5207 -74.1209 13.1533 -74.1209 13.942C-74.1209 14.6873 -74.3376 15.281 -74.7709 15.723C-75.2043 16.165 -75.7373 16.412 -76.3699 16.464L-74.0299 20ZM-76.9679 15.606C-76.4566 15.606 -76.0406 15.45 -75.7199 15.138C-75.3993 14.826 -75.2389 14.4273 -75.2389 13.942C-75.2389 13.4567 -75.3993 13.0623 -75.7199 12.759C-76.0406 12.447 -76.4566 12.291 -76.9679 12.291H-79.2429V15.606H-76.9679ZM-64.9898 20H-66.2248L-66.9918 18.076H-71.3078L-72.0748 20H-73.3098L-69.8258 11.329H-68.4868L-64.9898 20ZM-67.3168 17.114L-69.1498 12.447L-70.9958 17.114H-67.3168ZM-62.7771 20H-63.8561V11.329H-60.3721C-59.5315 11.329 -58.8685 11.5803 -58.3831 12.083C-57.8978 12.5857 -57.6551 13.2053 -57.6551 13.942C-57.6551 14.6787 -57.9021 15.2983 -58.3961 15.801C-58.8815 16.3037 -59.5401 16.555 -60.3721 16.555H-62.7771V20ZM-60.5021 15.593C-59.9908 15.593 -59.5748 15.4413 -59.2541 15.138C-58.9335 14.826 -58.7731 14.4273 -58.7731 13.942C-58.7731 13.4567 -58.9335 13.0623 -59.2541 12.759C-59.5748 12.447 -59.9908 12.291 -60.5021 12.291H-62.7771V15.593H-60.5021ZM-48.9982 20H-50.0772V16.022H-55.1472V20H-56.2262V11.329H-55.1472V15.06H-50.0772V11.329H-48.9982V20ZM-45.8924 20H-46.9714V11.329H-45.8924V20ZM-39.753 20.156C-41.0183 20.156 -42.08 19.74 -42.938 18.908C-43.7873 18.0673 -44.212 16.9883 -44.212 15.671C-44.212 14.3537 -43.7873 13.279 -42.938 12.447C-42.08 11.6063 -41.0183 11.186 -39.753 11.186C-38.3663 11.186 -37.27 11.758 -36.464 12.902L-37.374 13.409C-37.6253 13.0363 -37.9633 12.733 -38.388 12.499C-38.8127 12.265 -39.2677 12.148 -39.753 12.148C-40.7063 12.148 -41.5037 12.4817 -42.145 13.149C-42.7777 13.8077 -43.094 14.6483 -43.094 15.671C-43.094 16.6937 -42.7777 17.5387 -42.145 18.206C-41.5037 18.8647 -40.7063 19.194 -39.753 19.194C-39.2677 19.194 -38.8127 19.0813 -38.388 18.856C-37.9633 18.622 -37.6253 18.3143 -37.374 17.933L-36.451 18.44C-37.2917 19.584 -38.3923 20.156 -39.753 20.156ZM-28.7603 20H-31.7243V11.329H-28.7603C-27.4343 11.329 -26.3639 11.7407 -25.5493 12.564C-24.7259 13.3873 -24.3143 14.423 -24.3143 15.671C-24.3143 16.9277 -24.7259 17.9633 -25.5493 18.778C-26.3639 19.5927 -27.4343 20 -28.7603 20ZM-28.7603 19.038C-27.7376 19.038 -26.9273 18.7173 -26.3293 18.076C-25.7313 17.4347 -25.4323 16.633 -25.4323 15.671C-25.4323 14.7003 -25.7269 13.8943 -26.3163 13.253C-26.9056 12.6117 -27.7203 12.291 -28.7603 12.291H-30.6453V19.038H-28.7603ZM-16.9407 20H-22.6217V11.329H-16.9407V12.291H-21.5427V15.086H-17.0317V16.048H-21.5427V19.038H-16.9407V20ZM-12.4124 20.156C-13.8164 20.156 -14.9257 19.6967 -15.7404 18.778L-15.1034 17.959C-14.3667 18.7823 -13.4567 19.194 -12.3734 19.194C-11.6714 19.194 -11.1557 19.0467 -10.8264 18.752C-10.497 18.4487 -10.3324 18.0977 -10.3324 17.699C-10.3324 17.3957 -10.4277 17.14 -10.6184 16.932C-10.809 16.724 -11.056 16.5637 -11.3594 16.451C-11.654 16.3297 -11.9877 16.2213 -12.3604 16.126C-12.7244 16.0307 -13.0884 15.9267 -13.4524 15.814C-13.8164 15.6927 -14.15 15.5497 -14.4534 15.385C-14.748 15.2203 -14.9907 14.9863 -15.1814 14.683C-15.372 14.3797 -15.4674 14.02 -15.4674 13.604C-15.4674 12.8933 -15.1857 12.317 -14.6224 11.875C-14.059 11.4243 -13.3484 11.199 -12.4904 11.199C-11.199 11.199 -10.172 11.602 -9.40937 12.408L-10.0594 13.201C-10.692 12.5077 -11.5284 12.161 -12.5684 12.161C-13.0884 12.161 -13.5174 12.291 -13.8554 12.551C-14.1847 12.8023 -14.3494 13.1317 -14.3494 13.539C-14.3494 13.8423 -14.2237 14.0937 -13.9724 14.293C-13.7124 14.4923 -13.396 14.6397 -13.0234 14.735C-12.642 14.8303 -12.2304 14.9517 -11.7884 15.099C-11.3377 15.2377 -10.926 15.3893 -10.5534 15.554C-10.172 15.71 -9.85571 15.9657 -9.60437 16.321C-9.34437 16.6763 -9.21437 17.1053 -9.21437 17.608C-9.21437 18.3187 -9.47871 18.921 -10.0074 19.415C-10.5274 19.909 -11.329 20.156 -12.4124 20.156ZM-6.52419 20H-7.60319V11.329H-6.52419V20ZM-0.384836 20.169C-1.6415 20.169 -2.69884 19.753 -3.55684 18.921C-4.41484 18.0803 -4.84384 16.997 -4.84384 15.671C-4.84384 14.345 -4.41484 13.266 -3.55684 12.434C-2.69884 11.602 -1.6415 11.186 -0.384836 11.186C0.984498 11.186 2.10683 11.7277 2.98216 12.811L2.12416 13.344C1.84683 12.98 1.48283 12.6897 1.03216 12.473C0.590164 12.2563 0.117831 12.148 -0.384836 12.148C-1.33817 12.148 -2.1355 12.4817 -2.77684 13.149C-3.4095 13.8077 -3.72584 14.6483 -3.72584 15.671C-3.72584 16.6937 -3.4095 17.5387 -2.77684 18.206C-2.1355 18.8733 -1.33817 19.207 -0.384836 19.207C0.0918311 19.207 0.533831 19.116 0.941164 18.934C1.35716 18.7433 1.69083 18.5223 1.94216 18.271V16.503H-1.03484V15.541H3.02116V18.674C2.1285 19.6707 0.993164 20.169 -0.384836 20.169ZM11.9507 20H10.9107L5.85374 13.084V20H4.77474V11.329H5.87974L10.8717 18.102V11.329H11.9507V20ZM22.996 15.866C23.2733 16.1433 23.412 16.4727 23.412 16.854C23.412 17.2353 23.2733 17.5647 22.996 17.842C22.7186 18.1107 22.3893 18.245 22.008 18.245C21.6266 18.245 21.2973 18.1107 21.02 17.842C20.7426 17.5647 20.604 17.2353 20.604 16.854C20.604 16.4727 20.7426 16.1433 21.02 15.866C21.2973 15.5887 21.6266 15.45 22.008 15.45C22.3893 15.45 22.7186 15.5887 22.996 15.866ZM38.2063 19.22C37.6083 19.844 36.7329 20.156 35.5803 20.156C34.4276 20.156 33.5479 19.844 32.9413 19.22C32.3433 18.5873 32.0443 17.725 32.0443 16.633V11.329H33.1233V16.607C33.1233 17.413 33.3356 18.0457 33.7603 18.505C34.1849 18.9643 34.7916 19.194 35.5803 19.194C36.3689 19.194 36.9756 18.9643 37.4003 18.505C37.8249 18.0457 38.0373 17.413 38.0373 16.607V11.329H39.1163V16.62C39.1163 17.7207 38.8129 18.5873 38.2063 19.22ZM48.4398 20H47.1398L44.3708 16.308L41.6018 20H40.2888L43.6688 15.554L40.4838 11.329H41.7968L44.3708 14.8L46.9318 11.329H48.2448L45.0728 15.541L48.4398 20ZM49.3803 20.26H48.6133L51.6943 11.069H52.4613L49.3803 20.26ZM59.636 19.22C59.038 19.844 58.1626 20.156 57.01 20.156C55.8573 20.156 54.9776 19.844 54.371 19.22C53.773 18.5873 53.474 17.725 53.474 16.633V11.329H54.553V16.607C54.553 17.413 54.7653 18.0457 55.19 18.505C55.6146 18.9643 56.2213 19.194 57.01 19.194C57.7986 19.194 58.4053 18.9643 58.83 18.505C59.2546 18.0457 59.467 17.413 59.467 16.607V11.329H60.546V16.62C60.546 17.7207 60.2426 18.5873 59.636 19.22ZM63.6555 20H62.5765V11.329H63.6555V20ZM72.0024 20H69.0384V11.329H72.0024C73.3284 11.329 74.3987 11.7407 75.2134 12.564C76.0367 13.3873 76.4484 14.423 76.4484 15.671C76.4484 16.9277 76.0367 17.9633 75.2134 18.778C74.3987 19.5927 73.3284 20 72.0024 20ZM72.0024 19.038C73.0251 19.038 73.8354 18.7173 74.4334 18.076C75.0314 17.4347 75.3304 16.633 75.3304 15.671C75.3304 14.7003 75.0357 13.8943 74.4464 13.253C73.8571 12.6117 73.0424 12.291 72.0024 12.291H70.1174V19.038H72.0024ZM83.822 20H78.141V11.329H83.822V12.291H79.22V15.086H83.731V16.048H79.22V19.038H83.822V20ZM88.3503 20.156C86.9463 20.156 85.837 19.6967 85.0223 18.778L85.6593 17.959C86.396 18.7823 87.306 19.194 88.3893 19.194C89.0913 19.194 89.607 19.0467 89.9363 18.752C90.2657 18.4487 90.4303 18.0977 90.4303 17.699C90.4303 17.3957 90.335 17.14 90.1443 16.932C89.9537 16.724 89.7067 16.5637 89.4033 16.451C89.1087 16.3297 88.775 16.2213 88.4023 16.126C88.0383 16.0307 87.6743 15.9267 87.3103 15.814C86.9463 15.6927 86.6127 15.5497 86.3093 15.385C86.0147 15.2203 85.772 14.9863 85.5813 14.683C85.3907 14.3797 85.2953 14.02 85.2953 13.604C85.2953 12.8933 85.577 12.317 86.1403 11.875C86.7037 11.4243 87.4143 11.199 88.2723 11.199C89.5637 11.199 90.5907 11.602 91.3533 12.408L90.7033 13.201C90.0707 12.5077 89.2343 12.161 88.1943 12.161C87.6743 12.161 87.2453 12.291 86.9073 12.551C86.578 12.8023 86.4133 13.1317 86.4133 13.539C86.4133 13.8423 86.539 14.0937 86.7903 14.293C87.0503 14.4923 87.3667 14.6397 87.7393 14.735C88.1207 14.8303 88.5323 14.9517 88.9743 15.099C89.425 15.2377 89.8367 15.3893 90.2093 15.554C90.5907 15.71 90.907 15.9657 91.1583 16.321C91.4183 16.6763 91.5483 17.1053 91.5483 17.608C91.5483 18.3187 91.284 18.921 90.7553 19.415C90.2353 19.909 89.4337 20.156 88.3503 20.156ZM94.2385 20H93.1595V11.329H94.2385V20ZM100.378 20.169C99.1212 20.169 98.0639 19.753 97.2059 18.921C96.3479 18.0803 95.9189 16.997 95.9189 15.671C95.9189 14.345 96.3479 13.266 97.2059 12.434C98.0639 11.602 99.1212 11.186 100.378 11.186C101.747 11.186 102.87 11.7277 103.745 12.811L102.887 13.344C102.61 12.98 102.246 12.6897 101.795 12.473C101.353 12.2563 100.881 12.148 100.378 12.148C99.4245 12.148 98.6272 12.4817 97.9859 13.149C97.3532 13.8077 97.0369 14.6483 97.0369 15.671C97.0369 16.6937 97.3532 17.5387 97.9859 18.206C98.6272 18.8733 99.4245 19.207 100.378 19.207C100.855 19.207 101.297 19.116 101.704 18.934C102.12 18.7433 102.454 18.5223 102.705 18.271V16.503H99.7279V15.541H103.784V18.674C102.891 19.6707 101.756 20.169 100.378 20.169ZM112.713 20H111.673L106.616 13.084V20H105.537V11.329H106.642L111.634 18.102V11.329H112.713V20ZM123.759 15.866C124.036 16.1433 124.175 16.4727 124.175 16.854C124.175 17.2353 124.036 17.5647 123.759 17.842C123.481 18.1107 123.152 18.245 122.771 18.245C122.389 18.245 122.06 18.1107 121.783 17.842C121.505 17.5647 121.367 17.2353 121.367 16.854C121.367 16.4727 121.505 16.1433 121.783 15.866C122.06 15.5887 122.389 15.45 122.771 15.45C123.152 15.45 123.481 15.5887 123.759 15.866ZM136.915 20.169C135.658 20.169 134.601 19.753 133.743 18.921C132.885 18.0803 132.456 16.997 132.456 15.671C132.456 14.345 132.885 13.266 133.743 12.434C134.601 11.602 135.658 11.186 136.915 11.186C138.284 11.186 139.407 11.7277 140.282 12.811L139.424 13.344C139.147 12.98 138.783 12.6897 138.332 12.473C137.89 12.2563 137.418 12.148 136.915 12.148C135.962 12.148 135.164 12.4817 134.523 13.149C133.89 13.8077 133.574 14.6483 133.574 15.671C133.574 16.6937 133.89 17.5387 134.523 18.206C135.164 18.8733 135.962 19.207 136.915 19.207C137.392 19.207 137.834 19.116 138.241 18.934C138.657 18.7433 138.991 18.5223 139.242 18.271V16.503H136.265V15.541H140.321V18.674C139.428 19.6707 138.293 20.169 136.915 20.169ZM148.367 20H147.093L144.883 16.555H143.154V20H142.075V11.329H145.559C146.365 11.329 147.019 11.5673 147.522 12.044C148.024 12.5207 148.276 13.1533 148.276 13.942C148.276 14.6873 148.059 15.281 147.626 15.723C147.192 16.165 146.659 16.412 146.027 16.464L148.367 20ZM145.429 15.606C145.94 15.606 146.356 15.45 146.677 15.138C146.997 14.826 147.158 14.4273 147.158 13.942C147.158 13.4567 146.997 13.0623 146.677 12.759C146.356 12.447 145.94 12.291 145.429 12.291H143.154V15.606H145.429ZM157.407 20H156.172L155.405 18.076H151.089L150.322 20H149.087L152.571 11.329H153.91L157.407 20ZM155.08 17.114L153.247 12.447L151.401 17.114H155.08ZM159.619 20H158.54V11.329H162.024C162.865 11.329 163.528 11.5803 164.013 12.083C164.499 12.5857 164.741 13.2053 164.741 13.942C164.741 14.6787 164.494 15.2983 164 15.801C163.515 16.3037 162.856 16.555 162.024 16.555H159.619V20ZM161.894 15.593C162.406 15.593 162.822 15.4413 163.142 15.138C163.463 14.826 163.623 14.4273 163.623 13.942C163.623 13.4567 163.463 13.0623 163.142 12.759C162.822 12.447 162.406 12.291 161.894 12.291H159.619V15.593H161.894ZM173.398 20H172.319V16.022H167.249V20H166.17V11.329H167.249V15.06H172.319V11.329H173.398V20ZM176.504 20H175.425V11.329H176.504V20ZM182.643 20.156C181.378 20.156 180.316 19.74 179.458 18.908C178.609 18.0673 178.184 16.9883 178.184 15.671C178.184 14.3537 178.609 13.279 179.458 12.447C180.316 11.6063 181.378 11.186 182.643 11.186C184.03 11.186 185.126 11.758 185.932 12.902L185.022 13.409C184.771 13.0363 184.433 12.733 184.008 12.499C183.584 12.265 183.129 12.148 182.643 12.148C181.69 12.148 180.893 12.4817 180.251 13.149C179.619 13.8077 179.302 14.6483 179.302 15.671C179.302 16.6937 179.619 17.5387 180.251 18.206C180.893 18.8647 181.69 19.194 182.643 19.194C183.129 19.194 183.584 19.0813 184.008 18.856C184.433 18.622 184.771 18.3143 185.022 17.933L185.945 18.44C185.105 19.584 184.004 20.156 182.643 20.156ZM193.636 20H190.672V11.329H193.636C194.962 11.329 196.033 11.7407 196.847 12.564C197.671 13.3873 198.082 14.423 198.082 15.671C198.082 16.9277 197.671 17.9633 196.847 18.778C196.033 19.5927 194.962 20 193.636 20ZM193.636 19.038C194.659 19.038 195.469 18.7173 196.067 18.076C196.665 17.4347 196.964 16.633 196.964 15.671C196.964 14.7003 196.67 13.8943 196.08 13.253C195.491 12.6117 194.676 12.291 193.636 12.291H191.751V19.038H193.636ZM205.456 20H199.775V11.329H205.456V12.291H200.854V15.086H205.365V16.048H200.854V19.038H205.456V20ZM209.984 20.156C208.58 20.156 207.471 19.6967 206.656 18.778L207.293 17.959C208.03 18.7823 208.94 19.194 210.023 19.194C210.725 19.194 211.241 19.0467 211.57 18.752C211.899 18.4487 212.064 18.0977 212.064 17.699C212.064 17.3957 211.969 17.14 211.778 16.932C211.587 16.724 211.34 16.5637 211.037 16.451C210.742 16.3297 210.409 16.2213 210.036 16.126C209.672 16.0307 209.308 15.9267 208.944 15.814C208.58 15.6927 208.246 15.5497 207.943 15.385C207.648 15.2203 207.406 14.9863 207.215 14.683C207.024 14.3797 206.929 14.02 206.929 13.604C206.929 12.8933 207.211 12.317 207.774 11.875C208.337 11.4243 209.048 11.199 209.906 11.199C211.197 11.199 212.224 11.602 212.987 12.408L212.337 13.201C211.704 12.5077 210.868 12.161 209.828 12.161C209.308 12.161 208.879 12.291 208.541 12.551C208.212 12.8023 208.047 13.1317 208.047 13.539C208.047 13.8423 208.173 14.0937 208.424 14.293C208.684 14.4923 209 14.6397 209.373 14.735C209.754 14.8303 210.166 14.9517 210.608 15.099C211.059 15.2377 211.47 15.3893 211.843 15.554C212.224 15.71 212.541 15.9657 212.792 16.321C213.052 16.6763 213.182 17.1053 213.182 17.608C213.182 18.3187 212.918 18.921 212.389 19.415C211.869 19.909 211.067 20.156 209.984 20.156ZM215.872 20H214.793V11.329H215.872V20ZM222.012 20.169C220.755 20.169 219.698 19.753 218.84 18.921C217.982 18.0803 217.553 16.997 217.553 15.671C217.553 14.345 217.982 13.266 218.84 12.434C219.698 11.602 220.755 11.186 222.012 11.186C223.381 11.186 224.503 11.7277 225.379 12.811L224.521 13.344C224.243 12.98 223.879 12.6897 223.429 12.473C222.987 12.2563 222.514 12.148 222.012 12.148C221.058 12.148 220.261 12.4817 219.62 13.149C218.987 13.8077 218.671 14.6483 218.671 15.671C218.671 16.6937 218.987 17.5387 219.62 18.206C220.261 18.8733 221.058 19.207 222.012 19.207C222.488 19.207 222.93 19.116 223.338 18.934C223.754 18.7433 224.087 18.5223 224.339 18.271V16.503H221.362V15.541H225.418V18.674C224.525 19.6707 223.39 20.169 222.012 20.169ZM234.347 20H233.307L228.25 13.084V20H227.171V11.329H228.276L233.268 18.102V11.329H234.347V20ZM245.392 15.866C245.67 16.1433 245.808 16.4727 245.808 16.854C245.808 17.2353 245.67 17.5647 245.392 17.842C245.115 18.1107 244.786 18.245 244.404 18.245C244.023 18.245 243.694 18.1107 243.416 17.842C243.139 17.5647 243 17.2353 243 16.854C243 16.4727 243.139 16.1433 243.416 15.866C243.694 15.5887 244.023 15.45 244.404 15.45C244.786 15.45 245.115 15.5887 245.392 15.866ZM260.603 19.22C260.005 19.844 259.129 20.156 257.977 20.156C256.824 20.156 255.944 19.844 255.338 19.22C254.74 18.5873 254.441 17.725 254.441 16.633V11.329H255.52V16.607C255.52 17.413 255.732 18.0457 256.157 18.505C256.581 18.9643 257.188 19.194 257.977 19.194C258.765 19.194 259.372 18.9643 259.797 18.505C260.221 18.0457 260.434 17.413 260.434 16.607V11.329H261.513V16.62C261.513 17.7207 261.209 18.5873 260.603 19.22ZM270.836 20H269.536L266.767 16.308L263.998 20H262.685L266.065 15.554L262.88 11.329H264.193L266.767 14.8L269.328 11.329H270.641L267.469 15.541L270.836 20ZM271.777 20.26H271.01L274.091 11.069H274.858L271.777 20.26ZM282.032 19.22C281.434 19.844 280.559 20.156 279.406 20.156C278.254 20.156 277.374 19.844 276.767 19.22C276.169 18.5873 275.87 17.725 275.87 16.633V11.329H276.949V16.607C276.949 17.413 277.162 18.0457 277.586 18.505C278.011 18.9643 278.618 19.194 279.406 19.194C280.195 19.194 280.802 18.9643 281.226 18.505C281.651 18.0457 281.863 17.413 281.863 16.607V11.329H282.942V16.62C282.942 17.7207 282.639 18.5873 282.032 19.22ZM286.052 20H284.973V11.329H286.052V20ZM294.399 20H291.435V11.329H294.399C295.725 11.329 296.795 11.7407 297.61 12.564C298.433 13.3873 298.845 14.423 298.845 15.671C298.845 16.9277 298.433 17.9633 297.61 18.778C296.795 19.5927 295.725 20 294.399 20ZM294.399 19.038C295.422 19.038 296.232 18.7173 296.83 18.076C297.428 17.4347 297.727 16.633 297.727 15.671C297.727 14.7003 297.432 13.8943 296.843 13.253C296.254 12.6117 295.439 12.291 294.399 12.291H292.514V19.038H294.399ZM306.218 20H300.537V11.329H306.218V12.291H301.616V15.086H306.127V16.048H301.616V19.038H306.218V20ZM310.747 20.156C309.343 20.156 308.233 19.6967 307.419 18.778L308.056 17.959C308.792 18.7823 309.702 19.194 310.786 19.194C311.488 19.194 312.003 19.0467 312.333 18.752C312.662 18.4487 312.827 18.0977 312.827 17.699C312.827 17.3957 312.731 17.14 312.541 16.932C312.35 16.724 312.103 16.5637 311.8 16.451C311.505 16.3297 311.171 16.2213 310.799 16.126C310.435 16.0307 310.071 15.9267 309.707 15.814C309.343 15.6927 309.009 15.5497 308.706 15.385C308.411 15.2203 308.168 14.9863 307.978 14.683C307.787 14.3797 307.692 14.02 307.692 13.604C307.692 12.8933 307.973 12.317 308.537 11.875C309.1 11.4243 309.811 11.199 310.669 11.199C311.96 11.199 312.987 11.602 313.75 12.408L313.1 13.201C312.467 12.5077 311.631 12.161 310.591 12.161C310.071 12.161 309.642 12.291 309.304 12.551C308.974 12.8023 308.81 13.1317 308.81 13.539C308.81 13.8423 308.935 14.0937 309.187 14.293C309.447 14.4923 309.763 14.6397 310.136 14.735C310.517 14.8303 310.929 14.9517 311.371 15.099C311.821 15.2377 312.233 15.3893 312.606 15.554C312.987 15.71 313.303 15.9657 313.555 16.321C313.815 16.6763 313.945 17.1053 313.945 17.608C313.945 18.3187 313.68 18.921 313.152 19.415C312.632 19.909 311.83 20.156 310.747 20.156ZM316.635 20H315.556V11.329H316.635V20ZM322.774 20.169C321.518 20.169 320.46 19.753 319.602 18.921C318.744 18.0803 318.315 16.997 318.315 15.671C318.315 14.345 318.744 13.266 319.602 12.434C320.46 11.602 321.518 11.186 322.774 11.186C324.144 11.186 325.266 11.7277 326.141 12.811L325.283 13.344C325.006 12.98 324.642 12.6897 324.191 12.473C323.749 12.2563 323.277 12.148 322.774 12.148C321.821 12.148 321.024 12.4817 320.382 13.149C319.75 13.8077 319.433 14.6483 319.433 15.671C319.433 16.6937 319.75 17.5387 320.382 18.206C321.024 18.8733 321.821 19.207 322.774 19.207C323.251 19.207 323.693 19.116 324.1 18.934C324.516 18.7433 324.85 18.5223 325.101 18.271V16.503H322.124V15.541H326.18V18.674C325.288 19.6707 324.152 20.169 322.774 20.169ZM335.11 20H334.07L329.013 13.084V20H327.934V11.329H329.039L334.031 18.102V11.329H335.11V20ZM346.155 15.866C346.432 16.1433 346.571 16.4727 346.571 16.854C346.571 17.2353 346.432 17.5647 346.155 17.842C345.878 18.1107 345.548 18.245 345.167 18.245C344.786 18.245 344.456 18.1107 344.179 17.842C343.902 17.5647 343.763 17.2353 343.763 16.854C343.763 16.4727 343.902 16.1433 344.179 15.866C344.456 15.5887 344.786 15.45 345.167 15.45C345.548 15.45 345.878 15.5887 346.155 15.866ZM359.311 20.169C358.055 20.169 356.997 19.753 356.139 18.921C355.281 18.0803 354.852 16.997 354.852 15.671C354.852 14.345 355.281 13.266 356.139 12.434C356.997 11.602 358.055 11.186 359.311 11.186C360.681 11.186 361.803 11.7277 362.678 12.811L361.82 13.344C361.543 12.98 361.179 12.6897 360.728 12.473C360.286 12.2563 359.814 12.148 359.311 12.148C358.358 12.148 357.561 12.4817 356.919 13.149C356.287 13.8077 355.97 14.6483 355.97 15.671C355.97 16.6937 356.287 17.5387 356.919 18.206C357.561 18.8733 358.358 19.207 359.311 19.207C359.788 19.207 360.23 19.116 360.637 18.934C361.053 18.7433 361.387 18.5223 361.638 18.271V16.503H358.661V15.541H362.717V18.674C361.825 19.6707 360.689 20.169 359.311 20.169ZM370.763 20H369.489L367.279 16.555H365.55V20H364.471V11.329H367.955C368.761 11.329 369.415 11.5673 369.918 12.044C370.421 12.5207 370.672 13.1533 370.672 13.942C370.672 14.6873 370.455 15.281 370.022 15.723C369.589 16.165 369.056 16.412 368.423 16.464L370.763 20ZM367.825 15.606C368.336 15.606 368.752 15.45 369.073 15.138C369.394 14.826 369.554 14.4273 369.554 13.942C369.554 13.4567 369.394 13.0623 369.073 12.759C368.752 12.447 368.336 12.291 367.825 12.291H365.55V15.606H367.825ZM379.803 20H378.568L377.801 18.076H373.485L372.718 20H371.483L374.967 11.329H376.306L379.803 20ZM377.476 17.114L375.643 12.447L373.797 17.114H377.476ZM382.016 20H380.937V11.329H384.421C385.262 11.329 385.925 11.5803 386.41 12.083C386.895 12.5857 387.138 13.2053 387.138 13.942C387.138 14.6787 386.891 15.2983 386.397 15.801C385.912 16.3037 385.253 16.555 384.421 16.555H382.016V20ZM384.291 15.593C384.802 15.593 385.218 15.4413 385.539 15.138C385.86 14.826 386.02 14.4273 386.02 13.942C386.02 13.4567 385.86 13.0623 385.539 12.759C385.218 12.447 384.802 12.291 384.291 12.291H382.016V15.593H384.291ZM395.795 20H394.716V16.022H389.646V20H388.567V11.329H389.646V15.06H394.716V11.329H395.795V20ZM398.901 20H397.822V11.329H398.901V20ZM405.04 20.156C403.775 20.156 402.713 19.74 401.855 18.908C401.006 18.0673 400.581 16.9883 400.581 15.671C400.581 14.3537 401.006 13.279 401.855 12.447C402.713 11.6063 403.775 11.186 405.04 11.186C406.427 11.186 407.523 11.758 408.329 12.902L407.419 13.409C407.168 13.0363 406.83 12.733 406.405 12.499C405.98 12.265 405.525 12.148 405.04 12.148C404.087 12.148 403.289 12.4817 402.648 13.149C402.015 13.8077 401.699 14.6483 401.699 15.671C401.699 16.6937 402.015 17.5387 402.648 18.206C403.289 18.8647 404.087 19.194 405.04 19.194C405.525 19.194 405.98 19.0813 406.405 18.856C406.83 18.622 407.168 18.3143 407.419 17.933L408.342 18.44C407.501 19.584 406.401 20.156 405.04 20.156ZM416.033 20H413.069V11.329H416.033C417.359 11.329 418.429 11.7407 419.244 12.564C420.067 13.3873 420.479 14.423 420.479 15.671C420.479 16.9277 420.067 17.9633 419.244 18.778C418.429 19.5927 417.359 20 416.033 20ZM416.033 19.038C417.055 19.038 417.866 18.7173 418.464 18.076C419.062 17.4347 419.361 16.633 419.361 15.671C419.361 14.7003 419.066 13.8943 418.477 13.253C417.887 12.6117 417.073 12.291 416.033 12.291H414.148V19.038H416.033ZM427.852 20H422.171V11.329H427.852V12.291H423.25V15.086H427.761V16.048H423.25V19.038H427.852V20ZM432.381 20.156C430.977 20.156 429.867 19.6967 429.053 18.778L429.69 17.959C430.426 18.7823 431.336 19.194 432.42 19.194C433.122 19.194 433.637 19.0467 433.967 18.752C434.296 18.4487 434.461 18.0977 434.461 17.699C434.461 17.3957 434.365 17.14 434.175 16.932C433.984 16.724 433.737 16.5637 433.434 16.451C433.139 16.3297 432.805 16.2213 432.433 16.126C432.069 16.0307 431.705 15.9267 431.341 15.814C430.977 15.6927 430.643 15.5497 430.34 15.385C430.045 15.2203 429.802 14.9863 429.612 14.683C429.421 14.3797 429.326 14.02 429.326 13.604C429.326 12.8933 429.607 12.317 430.171 11.875C430.734 11.4243 431.445 11.199 432.303 11.199C433.594 11.199 434.621 11.602 435.384 12.408L434.734 13.201C434.101 12.5077 433.265 12.161 432.225 12.161C431.705 12.161 431.276 12.291 430.938 12.551C430.608 12.8023 430.444 13.1317 430.444 13.539C430.444 13.8423 430.569 14.0937 430.821 14.293C431.081 14.4923 431.397 14.6397 431.77 14.735C432.151 14.8303 432.563 14.9517 433.005 15.099C433.455 15.2377 433.867 15.3893 434.24 15.554C434.621 15.71 434.937 15.9657 435.189 16.321C435.449 16.6763 435.579 17.1053 435.579 17.608C435.579 18.3187 435.314 18.921 434.786 19.415C434.266 19.909 433.464 20.156 432.381 20.156ZM438.269 20H437.19V11.329H438.269V20ZM444.408 20.169C443.151 20.169 442.094 19.753 441.236 18.921C440.378 18.0803 439.949 16.997 439.949 15.671C439.949 14.345 440.378 13.266 441.236 12.434C442.094 11.602 443.151 11.186 444.408 11.186C445.777 11.186 446.9 11.7277 447.775 12.811L446.917 13.344C446.64 12.98 446.276 12.6897 445.825 12.473C445.383 12.2563 444.911 12.148 444.408 12.148C443.455 12.148 442.657 12.4817 442.016 13.149C441.383 13.8077 441.067 14.6483 441.067 15.671C441.067 16.6937 441.383 17.5387 442.016 18.206C442.657 18.8733 443.455 19.207 444.408 19.207C444.885 19.207 445.327 19.116 445.734 18.934C446.15 18.7433 446.484 18.5223 446.735 18.271V16.503H443.758V15.541H447.814V18.674C446.921 19.6707 445.786 20.169 444.408 20.169ZM456.744 20H455.704L450.647 13.084V20H449.568V11.329H450.673L455.665 18.102V11.329H456.744V20ZM467.789 15.866C468.066 16.1433 468.205 16.4727 468.205 16.854C468.205 17.2353 468.066 17.5647 467.789 17.842C467.512 18.1107 467.182 18.245 466.801 18.245C466.42 18.245 466.09 18.1107 465.813 17.842C465.536 17.5647 465.397 17.2353 465.397 16.854C465.397 16.4727 465.536 16.1433 465.813 15.866C466.09 15.5887 466.42 15.45 466.801 15.45C467.182 15.45 467.512 15.5887 467.789 15.866ZM482.999 19.22C482.401 19.844 481.526 20.156 480.373 20.156C479.221 20.156 478.341 19.844 477.734 19.22C477.136 18.5873 476.837 17.725 476.837 16.633V11.329H477.916V16.607C477.916 17.413 478.129 18.0457 478.553 18.505C478.978 18.9643 479.585 19.194 480.373 19.194C481.162 19.194 481.769 18.9643 482.193 18.505C482.618 18.0457 482.83 17.413 482.83 16.607V11.329H483.909V16.62C483.909 17.7207 483.606 18.5873 482.999 19.22ZM493.233 20H491.933L489.164 16.308L486.395 20H485.082L488.462 15.554L485.277 11.329H486.59L489.164 14.8L491.725 11.329H493.038L489.866 15.541L493.233 20ZM494.173 20.26H493.406L496.487 11.069H497.254L494.173 20.26ZM504.429 19.22C503.831 19.844 502.956 20.156 501.803 20.156C500.65 20.156 499.771 19.844 499.164 19.22C498.566 18.5873 498.267 17.725 498.267 16.633V11.329H499.346V16.607C499.346 17.413 499.558 18.0457 499.983 18.505C500.408 18.9643 501.014 19.194 501.803 19.194C502.592 19.194 503.198 18.9643 503.623 18.505C504.048 18.0457 504.26 17.413 504.26 16.607V11.329H505.339V16.62C505.339 17.7207 505.036 18.5873 504.429 19.22ZM508.448 20H507.369V11.329H508.448V20ZM516.795 20H513.831V11.329H516.795C518.121 11.329 519.192 11.7407 520.006 12.564C520.83 13.3873 521.241 14.423 521.241 15.671C521.241 16.9277 520.83 17.9633 520.006 18.778C519.192 19.5927 518.121 20 516.795 20ZM516.795 19.038C517.818 19.038 518.628 18.7173 519.226 18.076C519.824 17.4347 520.123 16.633 520.123 15.671C520.123 14.7003 519.829 13.8943 519.239 13.253C518.65 12.6117 517.835 12.291 516.795 12.291H514.91V19.038H516.795ZM528.615 20H522.934V11.329H528.615V12.291H524.013V15.086H528.524V16.048H524.013V19.038H528.615V20ZM533.143 20.156C531.739 20.156 530.63 19.6967 529.815 18.778L530.452 17.959C531.189 18.7823 532.099 19.194 533.182 19.194C533.884 19.194 534.4 19.0467 534.729 18.752C535.059 18.4487 535.223 18.0977 535.223 17.699C535.223 17.3957 535.128 17.14 534.937 16.932C534.747 16.724 534.5 16.5637 534.196 16.451C533.902 16.3297 533.568 16.2213 533.195 16.126C532.831 16.0307 532.467 15.9267 532.103 15.814C531.739 15.6927 531.406 15.5497 531.102 15.385C530.808 15.2203 530.565 14.9863 530.374 14.683C530.184 14.3797 530.088 14.02 530.088 13.604C530.088 12.8933 530.37 12.317 530.933 11.875C531.497 11.4243 532.207 11.199 533.065 11.199C534.357 11.199 535.384 11.602 536.146 12.408L535.496 13.201C534.864 12.5077 534.027 12.161 532.987 12.161C532.467 12.161 532.038 12.291 531.7 12.551C531.371 12.8023 531.206 13.1317 531.206 13.539C531.206 13.8423 531.332 14.0937 531.583 14.293C531.843 14.4923 532.16 14.6397 532.532 14.735C532.914 14.8303 533.325 14.9517 533.767 15.099C534.218 15.2377 534.63 15.3893 535.002 15.554C535.384 15.71 535.7 15.9657 535.951 16.321C536.211 16.6763 536.341 17.1053 536.341 17.608C536.341 18.3187 536.077 18.921 535.548 19.415C535.028 19.909 534.227 20.156 533.143 20.156ZM539.031 20H537.952V11.329H539.031V20ZM545.171 20.169C543.914 20.169 542.857 19.753 541.999 18.921C541.141 18.0803 540.712 16.997 540.712 15.671C540.712 14.345 541.141 13.266 541.999 12.434C542.857 11.602 543.914 11.186 545.171 11.186C546.54 11.186 547.662 11.7277 548.538 12.811L547.68 13.344C547.402 12.98 547.038 12.6897 546.588 12.473C546.146 12.2563 545.673 12.148 545.171 12.148C544.217 12.148 543.42 12.4817 542.779 13.149C542.146 13.8077 541.83 14.6483 541.83 15.671C541.83 16.6937 542.146 17.5387 542.779 18.206C543.42 18.8733 544.217 19.207 545.171 19.207C545.647 19.207 546.089 19.116 546.497 18.934C546.913 18.7433 547.246 18.5223 547.498 18.271V16.503H544.521V15.541H548.577V18.674C547.684 19.6707 546.549 20.169 545.171 20.169ZM557.506 20H556.466L551.409 13.084V20H550.33V11.329H551.435L556.427 18.102V11.329H557.506V20ZM568.552 15.866C568.829 16.1433 568.968 16.4727 568.968 16.854C568.968 17.2353 568.829 17.5647 568.552 17.842C568.274 18.1107 567.945 18.245 567.564 18.245C567.182 18.245 566.853 18.1107 566.576 17.842C566.298 17.5647 566.16 17.2353 566.16 16.854C566.16 16.4727 566.298 16.1433 566.576 15.866C566.853 15.5887 567.182 15.45 567.564 15.45C567.945 15.45 568.274 15.5887 568.552 15.866ZM588.411 20.169C587.154 20.169 586.097 19.753 585.239 18.921C584.381 18.0803 583.952 16.997 583.952 15.671C583.952 14.345 584.381 13.266 585.239 12.434C586.097 11.602 587.154 11.186 588.411 11.186C589.78 11.186 590.903 11.7277 591.778 12.811L590.92 13.344C590.643 12.98 590.279 12.6897 589.828 12.473C589.386 12.2563 588.914 12.148 588.411 12.148C587.458 12.148 586.66 12.4817 586.019 13.149C585.386 13.8077 585.07 14.6483 585.07 15.671C585.07 16.6937 585.386 17.5387 586.019 18.206C586.66 18.8733 587.458 19.207 588.411 19.207C588.888 19.207 589.33 19.116 589.737 18.934C590.153 18.7433 590.487 18.5223 590.738 18.271V16.503H587.761V15.541H591.817V18.674C590.924 19.6707 589.789 20.169 588.411 20.169ZM599.863 20H598.589L596.379 16.555H594.65V20H593.571V11.329H597.055C597.861 11.329 598.515 11.5673 599.018 12.044C599.52 12.5207 599.772 13.1533 599.772 13.942C599.772 14.6873 599.555 15.281 599.122 15.723C598.688 16.165 598.155 16.412 597.523 16.464L599.863 20ZM596.925 15.606C597.436 15.606 597.852 15.45 598.173 15.138C598.493 14.826 598.654 14.4273 598.654 13.942C598.654 13.4567 598.493 13.0623 598.173 12.759C597.852 12.447 597.436 12.291 596.925 12.291H594.65V15.606H596.925ZM608.903 20H607.668L606.901 18.076H602.585L601.818 20H600.583L604.067 11.329H605.406L608.903 20ZM606.576 17.114L604.743 12.447L602.897 17.114H606.576ZM611.115 20H610.036V11.329H613.52C614.361 11.329 615.024 11.5803 615.509 12.083C615.995 12.5857 616.237 13.2053 616.237 13.942C616.237 14.6787 615.99 15.2983 615.496 15.801C615.011 16.3037 614.352 16.555 613.52 16.555H611.115V20ZM613.39 15.593C613.902 15.593 614.318 15.4413 614.638 15.138C614.959 14.826 615.119 14.4273 615.119 13.942C615.119 13.4567 614.959 13.0623 614.638 12.759C614.318 12.447 613.902 12.291 613.39 12.291H611.115V15.593H613.39ZM624.894 20H623.815V16.022H618.745V20H617.666V11.329H618.745V15.06H623.815V11.329H624.894V20ZM628 20H626.921V11.329H628V20ZM634.14 20.156C632.874 20.156 631.813 19.74 630.955 18.908C630.105 18.0673 629.681 16.9883 629.681 15.671C629.681 14.3537 630.105 13.279 630.955 12.447C631.813 11.6063 632.874 11.186 634.14 11.186C635.526 11.186 636.623 11.758 637.429 12.902L636.519 13.409C636.267 13.0363 635.929 12.733 635.505 12.499C635.08 12.265 634.625 12.148 634.14 12.148C633.186 12.148 632.389 12.4817 631.748 13.149C631.115 13.8077 630.799 14.6483 630.799 15.671C630.799 16.6937 631.115 17.5387 631.748 18.206C632.389 18.8647 633.186 19.194 634.14 19.194C634.625 19.194 635.08 19.0813 635.505 18.856C635.929 18.622 636.267 18.3143 636.519 17.933L637.442 18.44C636.601 19.584 635.5 20.156 634.14 20.156ZM645.132 20H642.168V11.329H645.132C646.458 11.329 647.529 11.7407 648.343 12.564C649.167 13.3873 649.578 14.423 649.578 15.671C649.578 16.9277 649.167 17.9633 648.343 18.778C647.529 19.5927 646.458 20 645.132 20ZM645.132 19.038C646.155 19.038 646.965 18.7173 647.563 18.076C648.161 17.4347 648.46 16.633 648.46 15.671C648.46 14.7003 648.166 13.8943 647.576 13.253C646.987 12.6117 646.172 12.291 645.132 12.291H643.247V19.038H645.132ZM656.952 20H651.271V11.329H656.952V12.291H652.35V15.086H656.861V16.048H652.35V19.038H656.952V20ZM661.48 20.156C660.076 20.156 658.967 19.6967 658.152 18.778L658.789 17.959C659.526 18.7823 660.436 19.194 661.519 19.194C662.221 19.194 662.737 19.0467 663.066 18.752C663.396 18.4487 663.56 18.0977 663.56 17.699C663.56 17.3957 663.465 17.14 663.274 16.932C663.084 16.724 662.837 16.5637 662.533 16.451C662.239 16.3297 661.905 16.2213 661.532 16.126C661.168 16.0307 660.804 15.9267 660.44 15.814C660.076 15.6927 659.743 15.5497 659.439 15.385C659.145 15.2203 658.902 14.9863 658.711 14.683C658.521 14.3797 658.425 14.02 658.425 13.604C658.425 12.8933 658.707 12.317 659.27 11.875C659.834 11.4243 660.544 11.199 661.402 11.199C662.694 11.199 663.721 11.602 664.483 12.408L663.833 13.201C663.201 12.5077 662.364 12.161 661.324 12.161C660.804 12.161 660.375 12.291 660.037 12.551C659.708 12.8023 659.543 13.1317 659.543 13.539C659.543 13.8423 659.669 14.0937 659.92 14.293C660.18 14.4923 660.497 14.6397 660.869 14.735C661.251 14.8303 661.662 14.9517 662.104 15.099C662.555 15.2377 662.967 15.3893 663.339 15.554C663.721 15.71 664.037 15.9657 664.288 16.321C664.548 16.6763 664.678 17.1053 664.678 17.608C664.678 18.3187 664.414 18.921 663.885 19.415C663.365 19.909 662.564 20.156 661.48 20.156ZM667.368 20H666.289V11.329H667.368V20ZM673.508 20.169C672.251 20.169 671.194 19.753 670.336 18.921C669.478 18.0803 669.049 16.997 669.049 15.671C669.049 14.345 669.478 13.266 670.336 12.434C671.194 11.602 672.251 11.186 673.508 11.186C674.877 11.186 675.999 11.7277 676.875 12.811L676.017 13.344C675.739 12.98 675.375 12.6897 674.925 12.473C674.483 12.2563 674.01 12.148 673.508 12.148C672.554 12.148 671.757 12.4817 671.116 13.149C670.483 13.8077 670.167 14.6483 670.167 15.671C670.167 16.6937 670.483 17.5387 671.116 18.206C671.757 18.8733 672.554 19.207 673.508 19.207C673.984 19.207 674.426 19.116 674.834 18.934C675.25 18.7433 675.583 18.5223 675.835 18.271V16.503H672.858V15.541H676.914V18.674C676.021 19.6707 674.886 20.169 673.508 20.169ZM685.843 20H684.803L679.746 13.084V20H678.667V11.329H679.772L684.764 18.102V11.329H685.843V20ZM696.889 15.866C697.166 16.1433 697.305 16.4727 697.305 16.854C697.305 17.2353 697.166 17.5647 696.889 17.842C696.611 18.1107 696.282 18.245 695.901 18.245C695.519 18.245 695.19 18.1107 694.913 17.842C694.635 17.5647 694.497 17.2353 694.497 16.854C694.497 16.4727 694.635 16.1433 694.913 15.866C695.19 15.5887 695.519 15.45 695.901 15.45C696.282 15.45 696.611 15.5887 696.889 15.866ZM712.099 19.22C711.501 19.844 710.626 20.156 709.473 20.156C708.32 20.156 707.441 19.844 706.834 19.22C706.236 18.5873 705.937 17.725 705.937 16.633V11.329H707.016V16.607C707.016 17.413 707.228 18.0457 707.653 18.505C708.078 18.9643 708.684 19.194 709.473 19.194C710.262 19.194 710.868 18.9643 711.293 18.505C711.718 18.0457 711.93 17.413 711.93 16.607V11.329H713.009V16.62C713.009 17.7207 712.706 18.5873 712.099 19.22ZM722.332 20H721.032L718.263 16.308L715.494 20H714.181L717.561 15.554L714.376 11.329H715.689L718.263 14.8L720.824 11.329H722.137L718.965 15.541L722.332 20ZM723.273 20.26H722.506L725.587 11.069H726.354L723.273 20.26ZM733.529 19.22C732.931 19.844 732.055 20.156 730.903 20.156C729.75 20.156 728.87 19.844 728.264 19.22C727.666 18.5873 727.367 17.725 727.367 16.633V11.329H728.446V16.607C728.446 17.413 728.658 18.0457 729.083 18.505C729.507 18.9643 730.114 19.194 730.903 19.194C731.691 19.194 732.298 18.9643 732.723 18.505C733.147 18.0457 733.36 17.413 733.36 16.607V11.329H734.439V16.62C734.439 17.7207 734.135 18.5873 733.529 19.22ZM737.548 20H736.469V11.329H737.548V20ZM745.895 20H742.931V11.329H745.895C747.221 11.329 748.291 11.7407 749.106 12.564C749.929 13.3873 750.341 14.423 750.341 15.671C750.341 16.9277 749.929 17.9633 749.106 18.778C748.291 19.5927 747.221 20 745.895 20ZM745.895 19.038C746.918 19.038 747.728 18.7173 748.326 18.076C748.924 17.4347 749.223 16.633 749.223 15.671C749.223 14.7003 748.928 13.8943 748.339 13.253C747.75 12.6117 746.935 12.291 745.895 12.291H744.01V19.038H745.895ZM757.715 20H752.034V11.329H757.715V12.291H753.113V15.086H757.624V16.048H753.113V19.038H757.715V20ZM762.243 20.156C760.839 20.156 759.73 19.6967 758.915 18.778L759.552 17.959C760.289 18.7823 761.199 19.194 762.282 19.194C762.984 19.194 763.5 19.0467 763.829 18.752C764.158 18.4487 764.323 18.0977 764.323 17.699C764.323 17.3957 764.228 17.14 764.037 16.932C763.846 16.724 763.599 16.5637 763.296 16.451C763.001 16.3297 762.668 16.2213 762.295 16.126C761.931 16.0307 761.567 15.9267 761.203 15.814C760.839 15.6927 760.505 15.5497 760.202 15.385C759.907 15.2203 759.665 14.9863 759.474 14.683C759.283 14.3797 759.188 14.02 759.188 13.604C759.188 12.8933 759.47 12.317 760.033 11.875C760.596 11.4243 761.307 11.199 762.165 11.199C763.456 11.199 764.483 11.602 765.246 12.408L764.596 13.201C763.963 12.5077 763.127 12.161 762.087 12.161C761.567 12.161 761.138 12.291 760.8 12.551C760.471 12.8023 760.306 13.1317 760.306 13.539C760.306 13.8423 760.432 14.0937 760.683 14.293C760.943 14.4923 761.259 14.6397 761.632 14.735C762.013 14.8303 762.425 14.9517 762.867 15.099C763.318 15.2377 763.729 15.3893 764.102 15.554C764.483 15.71 764.8 15.9657 765.051 16.321C765.311 16.6763 765.441 17.1053 765.441 17.608C765.441 18.3187 765.177 18.921 764.648 19.415C764.128 19.909 763.326 20.156 762.243 20.156ZM768.131 20H767.052V11.329H768.131V20ZM774.27 20.169C773.014 20.169 771.956 19.753 771.098 18.921C770.24 18.0803 769.811 16.997 769.811 15.671C769.811 14.345 770.24 13.266 771.098 12.434C771.956 11.602 773.014 11.186 774.27 11.186C775.64 11.186 776.762 11.7277 777.637 12.811L776.779 13.344C776.502 12.98 776.138 12.6897 775.687 12.473C775.245 12.2563 774.773 12.148 774.27 12.148C773.317 12.148 772.52 12.4817 771.878 13.149C771.246 13.8077 770.929 14.6483 770.929 15.671C770.929 16.6937 771.246 17.5387 771.878 18.206C772.52 18.8733 773.317 19.207 774.27 19.207C774.747 19.207 775.189 19.116 775.596 18.934C776.012 18.7433 776.346 18.5223 776.597 18.271V16.503H773.62V15.541H777.676V18.674C776.784 19.6707 775.648 20.169 774.27 20.169ZM786.606 20H785.566L780.509 13.084V20H779.43V11.329H780.535L785.527 18.102V11.329H786.606V20ZM797.651 15.866C797.929 16.1433 798.067 16.4727 798.067 16.854C798.067 17.2353 797.929 17.5647 797.651 17.842C797.374 18.1107 797.045 18.245 796.663 18.245C796.282 18.245 795.953 18.1107 795.675 17.842C795.398 17.5647 795.259 17.2353 795.259 16.854C795.259 16.4727 795.398 16.1433 795.675 15.866C795.953 15.5887 796.282 15.45 796.663 15.45C797.045 15.45 797.374 15.5887 797.651 15.866ZM810.808 20.169C809.551 20.169 808.494 19.753 807.636 18.921C806.778 18.0803 806.349 16.997 806.349 15.671C806.349 14.345 806.778 13.266 807.636 12.434C808.494 11.602 809.551 11.186 810.808 11.186C812.177 11.186 813.299 11.7277 814.175 12.811L813.317 13.344C813.039 12.98 812.675 12.6897 812.225 12.473C811.783 12.2563 811.31 12.148 810.808 12.148C809.854 12.148 809.057 12.4817 808.416 13.149C807.783 13.8077 807.467 14.6483 807.467 15.671C807.467 16.6937 807.783 17.5387 808.416 18.206C809.057 18.8733 809.854 19.207 810.808 19.207C811.284 19.207 811.726 19.116 812.134 18.934C812.55 18.7433 812.883 18.5223 813.135 18.271V16.503H810.158V15.541H814.214V18.674C813.321 19.6707 812.186 20.169 810.808 20.169ZM822.259 20H820.985L818.775 16.555H817.046V20H815.967V11.329H819.451C820.257 11.329 820.911 11.5673 821.414 12.044C821.917 12.5207 822.168 13.1533 822.168 13.942C822.168 14.6873 821.951 15.281 821.518 15.723C821.085 16.165 820.552 16.412 819.919 16.464L822.259 20ZM819.321 15.606C819.832 15.606 820.248 15.45 820.569 15.138C820.89 14.826 821.05 14.4273 821.05 13.942C821.05 13.4567 820.89 13.0623 820.569 12.759C820.248 12.447 819.832 12.291 819.321 12.291H817.046V15.606H819.321ZM831.299 20H830.064L829.297 18.076H824.981L824.214 20H822.979L826.463 11.329H827.802L831.299 20ZM828.972 17.114L827.139 12.447L825.293 17.114H828.972ZM833.512 20H832.433V11.329H835.917C836.758 11.329 837.421 11.5803 837.906 12.083C838.391 12.5857 838.634 13.2053 838.634 13.942C838.634 14.6787 838.387 15.2983 837.893 15.801C837.408 16.3037 836.749 16.555 835.917 16.555H833.512V20ZM835.787 15.593C836.298 15.593 836.714 15.4413 837.035 15.138C837.356 14.826 837.516 14.4273 837.516 13.942C837.516 13.4567 837.356 13.0623 837.035 12.759C836.714 12.447 836.298 12.291 835.787 12.291H833.512V15.593H835.787ZM847.291 20H846.212V16.022H841.142V20H840.063V11.329H841.142V15.06H846.212V11.329H847.291V20ZM850.397 20H849.318V11.329H850.397V20ZM856.536 20.156C855.271 20.156 854.209 19.74 853.351 18.908C852.502 18.0673 852.077 16.9883 852.077 15.671C852.077 14.3537 852.502 13.279 853.351 12.447C854.209 11.6063 855.271 11.186 856.536 11.186C857.923 11.186 859.019 11.758 859.825 12.902L858.915 13.409C858.664 13.0363 858.326 12.733 857.901 12.499C857.476 12.265 857.021 12.148 856.536 12.148C855.583 12.148 854.785 12.4817 854.144 13.149C853.511 13.8077 853.195 14.6483 853.195 15.671C853.195 16.6937 853.511 17.5387 854.144 18.206C854.785 18.8647 855.583 19.194 856.536 19.194C857.021 19.194 857.476 19.0813 857.901 18.856C858.326 18.622 858.664 18.3143 858.915 17.933L859.838 18.44C858.997 19.584 857.897 20.156 856.536 20.156ZM867.529 20H864.565V11.329H867.529C868.855 11.329 869.925 11.7407 870.74 12.564C871.563 13.3873 871.975 14.423 871.975 15.671C871.975 16.9277 871.563 17.9633 870.74 18.778C869.925 19.5927 868.855 20 867.529 20ZM867.529 19.038C868.551 19.038 869.362 18.7173 869.96 18.076C870.558 17.4347 870.857 16.633 870.857 15.671C870.857 14.7003 870.562 13.8943 869.973 13.253C869.383 12.6117 868.569 12.291 867.529 12.291H865.644V19.038H867.529ZM879.348 20H873.667V11.329H879.348V12.291H874.746V15.086H879.257V16.048H874.746V19.038H879.348V20ZM883.877 20.156C882.473 20.156 881.363 19.6967 880.549 18.778L881.186 17.959C881.922 18.7823 882.832 19.194 883.916 19.194C884.618 19.194 885.133 19.0467 885.463 18.752C885.792 18.4487 885.957 18.0977 885.957 17.699C885.957 17.3957 885.861 17.14 885.671 16.932C885.48 16.724 885.233 16.5637 884.93 16.451C884.635 16.3297 884.301 16.2213 883.929 16.126C883.565 16.0307 883.201 15.9267 882.837 15.814C882.473 15.6927 882.139 15.5497 881.836 15.385C881.541 15.2203 881.298 14.9863 881.108 14.683C880.917 14.3797 880.822 14.02 880.822 13.604C880.822 12.8933 881.103 12.317 881.667 11.875C882.23 11.4243 882.941 11.199 883.799 11.199C885.09 11.199 886.117 11.602 886.88 12.408L886.23 13.201C885.597 12.5077 884.761 12.161 883.721 12.161C883.201 12.161 882.772 12.291 882.434 12.551C882.104 12.8023 881.94 13.1317 881.94 13.539C881.94 13.8423 882.065 14.0937 882.317 14.293C882.577 14.4923 882.893 14.6397 883.266 14.735C883.647 14.8303 884.059 14.9517 884.501 15.099C884.951 15.2377 885.363 15.3893 885.736 15.554C886.117 15.71 886.433 15.9657 886.685 16.321C886.945 16.6763 887.075 17.1053 887.075 17.608C887.075 18.3187 886.81 18.921 886.282 19.415C885.762 19.909 884.96 20.156 883.877 20.156ZM889.765 20H888.686V11.329H889.765V20ZM895.904 20.169C894.648 20.169 893.59 19.753 892.732 18.921C891.874 18.0803 891.445 16.997 891.445 15.671C891.445 14.345 891.874 13.266 892.732 12.434C893.59 11.602 894.648 11.186 895.904 11.186C897.274 11.186 898.396 11.7277 899.271 12.811L898.413 13.344C898.136 12.98 897.772 12.6897 897.321 12.473C896.879 12.2563 896.407 12.148 895.904 12.148C894.951 12.148 894.154 12.4817 893.512 13.149C892.88 13.8077 892.563 14.6483 892.563 15.671C892.563 16.6937 892.88 17.5387 893.512 18.206C894.154 18.8733 894.951 19.207 895.904 19.207C896.381 19.207 896.823 19.116 897.23 18.934C897.646 18.7433 897.98 18.5223 898.231 18.271V16.503H895.254V15.541H899.31V18.674C898.418 19.6707 897.282 20.169 895.904 20.169ZM908.24 20H907.2L902.143 13.084V20H901.064V11.329H902.169L907.161 18.102V11.329H908.24V20ZM919.285 15.866C919.562 16.1433 919.701 16.4727 919.701 16.854C919.701 17.2353 919.562 17.5647 919.285 17.842C919.008 18.1107 918.678 18.245 918.297 18.245C917.916 18.245 917.586 18.1107 917.309 17.842C917.032 17.5647 916.893 17.2353 916.893 16.854C916.893 16.4727 917.032 16.1433 917.309 15.866C917.586 15.5887 917.916 15.45 918.297 15.45C918.678 15.45 919.008 15.5887 919.285 15.866ZM934.495 19.22C933.897 19.844 933.022 20.156 931.869 20.156C930.717 20.156 929.837 19.844 929.23 19.22C928.632 18.5873 928.333 17.725 928.333 16.633V11.329H929.412V16.607C929.412 17.413 929.625 18.0457 930.049 18.505C930.474 18.9643 931.081 19.194 931.869 19.194C932.658 19.194 933.265 18.9643 933.689 18.505C934.114 18.0457 934.326 17.413 934.326 16.607V11.329H935.405V16.62C935.405 17.7207 935.102 18.5873 934.495 19.22ZM944.729 20H943.429L940.66 16.308L937.891 20H936.578L939.958 15.554L936.773 11.329H938.086L940.66 14.8L943.221 11.329H944.534L941.362 15.541L944.729 20ZM945.669 20.26H944.902L947.983 11.069H948.75L945.669 20.26ZM955.925 19.22C955.327 19.844 954.452 20.156 953.299 20.156C952.146 20.156 951.267 19.844 950.66 19.22C950.062 18.5873 949.763 17.725 949.763 16.633V11.329H950.842V16.607C950.842 17.413 951.054 18.0457 951.479 18.505C951.904 18.9643 952.51 19.194 953.299 19.194C954.088 19.194 954.694 18.9643 955.119 18.505C955.544 18.0457 955.756 17.413 955.756 16.607V11.329H956.835V16.62C956.835 17.7207 956.532 18.5873 955.925 19.22ZM959.945 20H958.866V11.329H959.945V20ZM968.291 20H965.327V11.329H968.291C969.617 11.329 970.688 11.7407 971.502 12.564C972.326 13.3873 972.737 14.423 972.737 15.671C972.737 16.9277 972.326 17.9633 971.502 18.778C970.688 19.5927 969.617 20 968.291 20ZM968.291 19.038C969.314 19.038 970.124 18.7173 970.722 18.076C971.32 17.4347 971.619 16.633 971.619 15.671C971.619 14.7003 971.325 13.8943 970.735 13.253C970.146 12.6117 969.331 12.291 968.291 12.291H966.406V19.038H968.291ZM980.111 20H974.43V11.329H980.111V12.291H975.509V15.086H980.02V16.048H975.509V19.038H980.111V20ZM984.639 20.156C983.235 20.156 982.126 19.6967 981.311 18.778L981.948 17.959C982.685 18.7823 983.595 19.194 984.678 19.194C985.38 19.194 985.896 19.0467 986.225 18.752C986.555 18.4487 986.719 18.0977 986.719 17.699C986.719 17.3957 986.624 17.14 986.433 16.932C986.243 16.724 985.996 16.5637 985.692 16.451C985.398 16.3297 985.064 16.2213 984.691 16.126C984.327 16.0307 983.963 15.9267 983.599 15.814C983.235 15.6927 982.902 15.5497 982.598 15.385C982.304 15.2203 982.061 14.9863 981.87 14.683C981.68 14.3797 981.584 14.02 981.584 13.604C981.584 12.8933 981.866 12.317 982.429 11.875C982.993 11.4243 983.703 11.199 984.561 11.199C985.853 11.199 986.88 11.602 987.642 12.408L986.992 13.201C986.36 12.5077 985.523 12.161 984.483 12.161C983.963 12.161 983.534 12.291 983.196 12.551C982.867 12.8023 982.702 13.1317 982.702 13.539C982.702 13.8423 982.828 14.0937 983.079 14.293C983.339 14.4923 983.656 14.6397 984.028 14.735C984.41 14.8303 984.821 14.9517 985.263 15.099C985.714 15.2377 986.126 15.3893 986.498 15.554C986.88 15.71 987.196 15.9657 987.447 16.321C987.707 16.6763 987.837 17.1053 987.837 17.608C987.837 18.3187 987.573 18.921 987.044 19.415C986.524 19.909 985.723 20.156 984.639 20.156ZM990.528 20H989.449V11.329H990.528V20ZM996.667 20.169C995.41 20.169 994.353 19.753 993.495 18.921C992.637 18.0803 992.208 16.997 992.208 15.671C992.208 14.345 992.637 13.266 993.495 12.434C994.353 11.602 995.41 11.186 996.667 11.186C998.036 11.186 999.159 11.7277 1000.03 12.811L999.176 13.344C998.899 12.98 998.535 12.6897 998.084 12.473C997.642 12.2563 997.17 12.148 996.667 12.148C995.714 12.148 994.916 12.4817 994.275 13.149C993.642 13.8077 993.326 14.6483 993.326 15.671C993.326 16.6937 993.642 17.5387 994.275 18.206C994.916 18.8733 995.714 19.207 996.667 19.207C997.144 19.207 997.586 19.116 997.993 18.934C998.409 18.7433 998.743 18.5223 998.994 18.271V16.503H996.017V15.541H1000.07V18.674C999.18 19.6707 998.045 20.169 996.667 20.169ZM1009 20H1007.96L1002.91 13.084V20H1001.83V11.329H1002.93L1007.92 18.102V11.329H1009V20ZM1020.05 15.866C1020.33 16.1433 1020.46 16.4727 1020.46 16.854C1020.46 17.2353 1020.33 17.5647 1020.05 17.842C1019.77 18.1107 1019.44 18.245 1019.06 18.245C1018.68 18.245 1018.35 18.1107 1018.07 17.842C1017.79 17.5647 1017.66 17.2353 1017.66 16.854C1017.66 16.4727 1017.79 16.1433 1018.07 15.866C1018.35 15.5887 1018.68 15.45 1019.06 15.45C1019.44 15.45 1019.77 15.5887 1020.05 15.866ZM1033.2 20.169C1031.95 20.169 1030.89 19.753 1030.03 18.921C1029.17 18.0803 1028.75 16.997 1028.75 15.671C1028.75 14.345 1029.17 13.266 1030.03 12.434C1030.89 11.602 1031.95 11.186 1033.2 11.186C1034.57 11.186 1035.7 11.7277 1036.57 12.811L1035.71 13.344C1035.44 12.98 1035.07 12.6897 1034.62 12.473C1034.18 12.2563 1033.71 12.148 1033.2 12.148C1032.25 12.148 1031.45 12.4817 1030.81 13.149C1030.18 13.8077 1029.86 14.6483 1029.86 15.671C1029.86 16.6937 1030.18 17.5387 1030.81 18.206C1031.45 18.8733 1032.25 19.207 1033.2 19.207C1033.68 19.207 1034.12 19.116 1034.53 18.934C1034.95 18.7433 1035.28 18.5223 1035.53 18.271V16.503H1032.55V15.541H1036.61V18.674C1035.72 19.6707 1034.58 20.169 1033.2 20.169ZM1044.66 20H1043.38L1041.17 16.555H1039.44V20H1038.36V11.329H1041.85C1042.65 11.329 1043.31 11.5673 1043.81 12.044C1044.31 12.5207 1044.56 13.1533 1044.56 13.942C1044.56 14.6873 1044.35 15.281 1043.91 15.723C1043.48 16.165 1042.95 16.412 1042.32 16.464L1044.66 20ZM1041.72 15.606C1042.23 15.606 1042.64 15.45 1042.97 15.138C1043.29 14.826 1043.45 14.4273 1043.45 13.942C1043.45 13.4567 1043.29 13.0623 1042.97 12.759C1042.64 12.447 1042.23 12.291 1041.72 12.291H1039.44V15.606H1041.72ZM1053.7 20H1052.46L1051.69 18.076H1047.38L1046.61 20H1045.38L1048.86 11.329H1050.2L1053.7 20ZM1051.37 17.114L1049.54 12.447L1047.69 17.114H1051.37ZM1055.91 20H1054.83V11.329H1058.31C1059.15 11.329 1059.82 11.5803 1060.3 12.083C1060.79 12.5857 1061.03 13.2053 1061.03 13.942C1061.03 14.6787 1060.78 15.2983 1060.29 15.801C1059.8 16.3037 1059.15 16.555 1058.31 16.555H1055.91V20ZM1058.18 15.593C1058.69 15.593 1059.11 15.4413 1059.43 15.138C1059.75 14.826 1059.91 14.4273 1059.91 13.942C1059.91 13.4567 1059.75 13.0623 1059.43 12.759C1059.11 12.447 1058.69 12.291 1058.18 12.291H1055.91V15.593H1058.18ZM1069.69 20H1068.61V16.022H1063.54V20H1062.46V11.329H1063.54V15.06H1068.61V11.329H1069.69V20ZM1072.79 20H1071.71V11.329H1072.79V20ZM1078.93 20.156C1077.67 20.156 1076.61 19.74 1075.75 18.908C1074.9 18.0673 1074.47 16.9883 1074.47 15.671C1074.47 14.3537 1074.9 13.279 1075.75 12.447C1076.61 11.6063 1077.67 11.186 1078.93 11.186C1080.32 11.186 1081.42 11.758 1082.22 12.902L1081.31 13.409C1081.06 13.0363 1080.72 12.733 1080.3 12.499C1079.87 12.265 1079.42 12.148 1078.93 12.148C1077.98 12.148 1077.18 12.4817 1076.54 13.149C1075.91 13.8077 1075.59 14.6483 1075.59 15.671C1075.59 16.6937 1075.91 17.5387 1076.54 18.206C1077.18 18.8647 1077.98 19.194 1078.93 19.194C1079.42 19.194 1079.87 19.0813 1080.3 18.856C1080.72 18.622 1081.06 18.3143 1081.31 17.933L1082.23 18.44C1081.39 19.584 1080.29 20.156 1078.93 20.156ZM1089.93 20H1086.96V11.329H1089.93C1091.25 11.329 1092.32 11.7407 1093.14 12.564C1093.96 13.3873 1094.37 14.423 1094.37 15.671C1094.37 16.9277 1093.96 17.9633 1093.14 18.778C1092.32 19.5927 1091.25 20 1089.93 20ZM1089.93 19.038C1090.95 19.038 1091.76 18.7173 1092.36 18.076C1092.95 17.4347 1093.25 16.633 1093.25 15.671C1093.25 14.7003 1092.96 13.8943 1092.37 13.253C1091.78 12.6117 1090.97 12.291 1089.93 12.291H1088.04V19.038H1089.93ZM1101.74 20H1096.06V11.329H1101.74V12.291H1097.14V15.086H1101.65V16.048H1097.14V19.038H1101.74V20ZM1106.27 20.156C1104.87 20.156 1103.76 19.6967 1102.95 18.778L1103.58 17.959C1104.32 18.7823 1105.23 19.194 1106.31 19.194C1107.01 19.194 1107.53 19.0467 1107.86 18.752C1108.19 18.4487 1108.35 18.0977 1108.35 17.699C1108.35 17.3957 1108.26 17.14 1108.07 16.932C1107.88 16.724 1107.63 16.5637 1107.33 16.451C1107.03 16.3297 1106.7 16.2213 1106.33 16.126C1105.96 16.0307 1105.6 15.9267 1105.23 15.814C1104.87 15.6927 1104.54 15.5497 1104.23 15.385C1103.94 15.2203 1103.69 14.9863 1103.5 14.683C1103.31 14.3797 1103.22 14.02 1103.22 13.604C1103.22 12.8933 1103.5 12.317 1104.06 11.875C1104.63 11.4243 1105.34 11.199 1106.2 11.199C1107.49 11.199 1108.51 11.602 1109.28 12.408L1108.63 13.201C1107.99 12.5077 1107.16 12.161 1106.12 12.161C1105.6 12.161 1105.17 12.291 1104.83 12.551C1104.5 12.8023 1104.34 13.1317 1104.34 13.539C1104.34 13.8423 1104.46 14.0937 1104.71 14.293C1104.97 14.4923 1105.29 14.6397 1105.66 14.735C1106.04 14.8303 1106.46 14.9517 1106.9 15.099C1107.35 15.2377 1107.76 15.3893 1108.13 15.554C1108.51 15.71 1108.83 15.9657 1109.08 16.321C1109.34 16.6763 1109.47 17.1053 1109.47 17.608C1109.47 18.3187 1109.21 18.921 1108.68 19.415C1108.16 19.909 1107.36 20.156 1106.27 20.156ZM1112.16 20H1111.08V11.329H1112.16V20ZM1118.3 20.169C1117.04 20.169 1115.99 19.753 1115.13 18.921C1114.27 18.0803 1113.84 16.997 1113.84 15.671C1113.84 14.345 1114.27 13.266 1115.13 12.434C1115.99 11.602 1117.04 11.186 1118.3 11.186C1119.67 11.186 1120.79 11.7277 1121.67 12.811L1120.81 13.344C1120.53 12.98 1120.17 12.6897 1119.72 12.473C1119.28 12.2563 1118.8 12.148 1118.3 12.148C1117.35 12.148 1116.55 12.4817 1115.91 13.149C1115.28 13.8077 1114.96 14.6483 1114.96 15.671C1114.96 16.6937 1115.28 17.5387 1115.91 18.206C1116.55 18.8733 1117.35 19.207 1118.3 19.207C1118.78 19.207 1119.22 19.116 1119.63 18.934C1120.04 18.7433 1120.38 18.5223 1120.63 18.271V16.503H1117.65V15.541H1121.71V18.674C1120.81 19.6707 1119.68 20.169 1118.3 20.169ZM1130.64 20H1129.6L1124.54 13.084V20H1123.46V11.329H1124.57L1129.56 18.102V11.329H1130.64V20ZM1141.68 15.866C1141.96 16.1433 1142.1 16.4727 1142.1 16.854C1142.1 17.2353 1141.96 17.5647 1141.68 17.842C1141.4 18.1107 1141.07 18.245 1140.69 18.245C1140.31 18.245 1139.98 18.1107 1139.71 17.842C1139.43 17.5647 1139.29 17.2353 1139.29 16.854C1139.29 16.4727 1139.43 16.1433 1139.71 15.866C1139.98 15.5887 1140.31 15.45 1140.69 15.45C1141.07 15.45 1141.4 15.5887 1141.68 15.866ZM1156.89 19.22C1156.29 19.844 1155.42 20.156 1154.27 20.156C1153.11 20.156 1152.23 19.844 1151.63 19.22C1151.03 18.5873 1150.73 17.725 1150.73 16.633V11.329H1151.81V16.607C1151.81 17.413 1152.02 18.0457 1152.45 18.505C1152.87 18.9643 1153.48 19.194 1154.27 19.194C1155.05 19.194 1155.66 18.9643 1156.09 18.505C1156.51 18.0457 1156.72 17.413 1156.72 16.607V11.329H1157.8V16.62C1157.8 17.7207 1157.5 18.5873 1156.89 19.22ZM1167.13 20H1165.83L1163.06 16.308L1160.29 20H1158.97L1162.35 15.554L1159.17 11.329H1160.48L1163.06 14.8L1165.62 11.329H1166.93L1163.76 15.541L1167.13 20ZM1168.07 20.26H1167.3L1170.38 11.069H1171.15L1168.07 20.26ZM1178.32 19.22C1177.72 19.844 1176.85 20.156 1175.7 20.156C1174.54 20.156 1173.66 19.844 1173.06 19.22C1172.46 18.5873 1172.16 17.725 1172.16 16.633V11.329H1173.24V16.607C1173.24 17.413 1173.45 18.0457 1173.88 18.505C1174.3 18.9643 1174.91 19.194 1175.7 19.194C1176.48 19.194 1177.09 18.9643 1177.52 18.505C1177.94 18.0457 1178.15 17.413 1178.15 16.607V11.329H1179.23V16.62C1179.23 17.7207 1178.93 18.5873 1178.32 19.22ZM1182.34 20H1181.26V11.329H1182.34V20ZM1190.69 20H1187.72V11.329H1190.69C1192.01 11.329 1193.08 11.7407 1193.9 12.564C1194.72 13.3873 1195.13 14.423 1195.13 15.671C1195.13 16.9277 1194.72 17.9633 1193.9 18.778C1193.08 19.5927 1192.01 20 1190.69 20ZM1190.69 19.038C1191.71 19.038 1192.52 18.7173 1193.12 18.076C1193.72 17.4347 1194.02 16.633 1194.02 15.671C1194.02 14.7003 1193.72 13.8943 1193.13 13.253C1192.54 12.6117 1191.73 12.291 1190.69 12.291H1188.8V19.038H1190.69ZM1202.51 20H1196.83V11.329H1202.51V12.291H1197.91V15.086H1202.42V16.048H1197.91V19.038H1202.51V20ZM1207.04 20.156C1205.63 20.156 1204.52 19.6967 1203.71 18.778L1204.34 17.959C1205.08 18.7823 1205.99 19.194 1207.07 19.194C1207.78 19.194 1208.29 19.0467 1208.62 18.752C1208.95 18.4487 1209.12 18.0977 1209.12 17.699C1209.12 17.3957 1209.02 17.14 1208.83 16.932C1208.64 16.724 1208.39 16.5637 1208.09 16.451C1207.79 16.3297 1207.46 16.2213 1207.09 16.126C1206.72 16.0307 1206.36 15.9267 1206 15.814C1205.63 15.6927 1205.3 15.5497 1204.99 15.385C1204.7 15.2203 1204.46 14.9863 1204.27 14.683C1204.08 14.3797 1203.98 14.02 1203.98 13.604C1203.98 12.8933 1204.26 12.317 1204.83 11.875C1205.39 11.4243 1206.1 11.199 1206.96 11.199C1208.25 11.199 1209.28 11.602 1210.04 12.408L1209.39 13.201C1208.76 12.5077 1207.92 12.161 1206.88 12.161C1206.36 12.161 1205.93 12.291 1205.59 12.551C1205.26 12.8023 1205.1 13.1317 1205.1 13.539C1205.1 13.8423 1205.22 14.0937 1205.48 14.293C1205.74 14.4923 1206.05 14.6397 1206.42 14.735C1206.81 14.8303 1207.22 14.9517 1207.66 15.099C1208.11 15.2377 1208.52 15.3893 1208.89 15.554C1209.28 15.71 1209.59 15.9657 1209.84 16.321C1210.1 16.6763 1210.23 17.1053 1210.23 17.608C1210.23 18.3187 1209.97 18.921 1209.44 19.415C1208.92 19.909 1208.12 20.156 1207.04 20.156ZM1212.92 20H1211.85V11.329H1212.92V20ZM1219.06 20.169C1217.81 20.169 1216.75 19.753 1215.89 18.921C1215.03 18.0803 1214.6 16.997 1214.6 15.671C1214.6 14.345 1215.03 13.266 1215.89 12.434C1216.75 11.602 1217.81 11.186 1219.06 11.186C1220.43 11.186 1221.56 11.7277 1222.43 12.811L1221.57 13.344C1221.3 12.98 1220.93 12.6897 1220.48 12.473C1220.04 12.2563 1219.57 12.148 1219.06 12.148C1218.11 12.148 1217.31 12.4817 1216.67 13.149C1216.04 13.8077 1215.72 14.6483 1215.72 15.671C1215.72 16.6937 1216.04 17.5387 1216.67 18.206C1217.31 18.8733 1218.11 19.207 1219.06 19.207C1219.54 19.207 1219.98 19.116 1220.39 18.934C1220.81 18.7433 1221.14 18.5223 1221.39 18.271V16.503H1218.41V15.541H1222.47V18.674C1221.58 19.6707 1220.44 20.169 1219.06 20.169ZM1231.4 20H1230.36L1225.3 13.084V20H1224.22V11.329H1225.33L1230.32 18.102V11.329H1231.4V20ZM1242.44 15.866C1242.72 16.1433 1242.86 16.4727 1242.86 16.854C1242.86 17.2353 1242.72 17.5647 1242.44 17.842C1242.17 18.1107 1241.84 18.245 1241.46 18.245C1241.07 18.245 1240.75 18.1107 1240.47 17.842C1240.19 17.5647 1240.05 17.2353 1240.05 16.854C1240.05 16.4727 1240.19 16.1433 1240.47 15.866C1240.75 15.5887 1241.07 15.45 1241.46 15.45C1241.84 15.45 1242.17 15.5887 1242.44 15.866ZM1255.6 20.169C1254.34 20.169 1253.29 19.753 1252.43 18.921C1251.57 18.0803 1251.14 16.997 1251.14 15.671C1251.14 14.345 1251.57 13.266 1252.43 12.434C1253.29 11.602 1254.34 11.186 1255.6 11.186C1256.97 11.186 1258.09 11.7277 1258.97 12.811L1258.11 13.344C1257.83 12.98 1257.47 12.6897 1257.02 12.473C1256.58 12.2563 1256.1 12.148 1255.6 12.148C1254.65 12.148 1253.85 12.4817 1253.21 13.149C1252.58 13.8077 1252.26 14.6483 1252.26 15.671C1252.26 16.6937 1252.58 17.5387 1253.21 18.206C1253.85 18.8733 1254.65 19.207 1255.6 19.207C1256.08 19.207 1256.52 19.116 1256.93 18.934C1257.34 18.7433 1257.68 18.5223 1257.93 18.271V16.503H1254.95V15.541H1259.01V18.674C1258.11 19.6707 1256.98 20.169 1255.6 20.169ZM1267.05 20H1265.78L1263.57 16.555H1261.84V20H1260.76V11.329H1264.24C1265.05 11.329 1265.7 11.5673 1266.21 12.044C1266.71 12.5207 1266.96 13.1533 1266.96 13.942C1266.96 14.6873 1266.74 15.281 1266.31 15.723C1265.88 16.165 1265.34 16.412 1264.71 16.464L1267.05 20ZM1264.11 15.606C1264.63 15.606 1265.04 15.45 1265.36 15.138C1265.68 14.826 1265.84 14.4273 1265.84 13.942C1265.84 13.4567 1265.68 13.0623 1265.36 12.759C1265.04 12.447 1264.63 12.291 1264.11 12.291H1261.84V15.606H1264.11ZM1276.09 20H1274.86L1274.09 18.076H1269.77L1269.01 20H1267.77L1271.26 11.329H1272.6L1276.09 20ZM1273.77 17.114L1271.93 12.447L1270.09 17.114H1273.77ZM1278.3 20H1277.23V11.329H1280.71C1281.55 11.329 1282.21 11.5803 1282.7 12.083C1283.18 12.5857 1283.43 13.2053 1283.43 13.942C1283.43 14.6787 1283.18 15.2983 1282.69 15.801C1282.2 16.3037 1281.54 16.555 1280.71 16.555H1278.3V20ZM1280.58 15.593C1281.09 15.593 1281.51 15.4413 1281.83 15.138C1282.15 14.826 1282.31 14.4273 1282.31 13.942C1282.31 13.4567 1282.15 13.0623 1281.83 12.759C1281.51 12.447 1281.09 12.291 1280.58 12.291H1278.3V15.593H1280.58ZM1292.08 20H1291V16.022H1285.93V20H1284.86V11.329H1285.93V15.06H1291V11.329H1292.08V20ZM1295.19 20H1294.11V11.329H1295.19V20ZM1301.33 20.156C1300.06 20.156 1299 19.74 1298.14 18.908C1297.29 18.0673 1296.87 16.9883 1296.87 15.671C1296.87 14.3537 1297.29 13.279 1298.14 12.447C1299 11.6063 1300.06 11.186 1301.33 11.186C1302.72 11.186 1303.81 11.758 1304.62 12.902L1303.71 13.409C1303.46 13.0363 1303.12 12.733 1302.69 12.499C1302.27 12.265 1301.81 12.148 1301.33 12.148C1300.38 12.148 1299.58 12.4817 1298.94 13.149C1298.3 13.8077 1297.99 14.6483 1297.99 15.671C1297.99 16.6937 1298.3 17.5387 1298.94 18.206C1299.58 18.8647 1300.38 19.194 1301.33 19.194C1301.81 19.194 1302.27 19.0813 1302.69 18.856C1303.12 18.622 1303.46 18.3143 1303.71 17.933L1304.63 18.44C1303.79 19.584 1302.69 20.156 1301.33 20.156ZM1312.32 20H1309.36V11.329H1312.32C1313.65 11.329 1314.72 11.7407 1315.53 12.564C1316.36 13.3873 1316.77 14.423 1316.77 15.671C1316.77 16.9277 1316.36 17.9633 1315.53 18.778C1314.72 19.5927 1313.65 20 1312.32 20ZM1312.32 19.038C1313.34 19.038 1314.15 18.7173 1314.75 18.076C1315.35 17.4347 1315.65 16.633 1315.65 15.671C1315.65 14.7003 1315.36 13.8943 1314.77 13.253C1314.18 12.6117 1313.36 12.291 1312.32 12.291H1310.44V19.038H1312.32ZM1324.14 20H1318.46V11.329H1324.14V12.291H1319.54V15.086H1324.05V16.048H1319.54V19.038H1324.14V20ZM1328.67 20.156C1327.27 20.156 1326.16 19.6967 1325.34 18.778L1325.98 17.959C1326.72 18.7823 1327.63 19.194 1328.71 19.194C1329.41 19.194 1329.93 19.0467 1330.26 18.752C1330.58 18.4487 1330.75 18.0977 1330.75 17.699C1330.75 17.3957 1330.65 17.14 1330.46 16.932C1330.27 16.724 1330.03 16.5637 1329.72 16.451C1329.43 16.3297 1329.09 16.2213 1328.72 16.126C1328.36 16.0307 1327.99 15.9267 1327.63 15.814C1327.27 15.6927 1326.93 15.5497 1326.63 15.385C1326.33 15.2203 1326.09 14.9863 1325.9 14.683C1325.71 14.3797 1325.61 14.02 1325.61 13.604C1325.61 12.8933 1325.9 12.317 1326.46 11.875C1327.02 11.4243 1327.73 11.199 1328.59 11.199C1329.88 11.199 1330.91 11.602 1331.67 12.408L1331.02 13.201C1330.39 12.5077 1329.55 12.161 1328.51 12.161C1327.99 12.161 1327.56 12.291 1327.23 12.551C1326.9 12.8023 1326.73 13.1317 1326.73 13.539C1326.73 13.8423 1326.86 14.0937 1327.11 14.293C1327.37 14.4923 1327.69 14.6397 1328.06 14.735C1328.44 14.8303 1328.85 14.9517 1329.29 15.099C1329.74 15.2377 1330.16 15.3893 1330.53 15.554C1330.91 15.71 1331.23 15.9657 1331.48 16.321C1331.74 16.6763 1331.87 17.1053 1331.87 17.608C1331.87 18.3187 1331.6 18.921 1331.07 19.415C1330.55 19.909 1329.75 20.156 1328.67 20.156ZM1334.56 20H1333.48V11.329H1334.56V20ZM1340.7 20.169C1339.44 20.169 1338.38 19.753 1337.53 18.921C1336.67 18.0803 1336.24 16.997 1336.24 15.671C1336.24 14.345 1336.67 13.266 1337.53 12.434C1338.38 11.602 1339.44 11.186 1340.7 11.186C1342.07 11.186 1343.19 11.7277 1344.06 12.811L1343.21 13.344C1342.93 12.98 1342.56 12.6897 1342.11 12.473C1341.67 12.2563 1341.2 12.148 1340.7 12.148C1339.74 12.148 1338.95 12.4817 1338.31 13.149C1337.67 13.8077 1337.36 14.6483 1337.36 15.671C1337.36 16.6937 1337.67 17.5387 1338.31 18.206C1338.95 18.8733 1339.74 19.207 1340.7 19.207C1341.17 19.207 1341.62 19.116 1342.02 18.934C1342.44 18.7433 1342.77 18.5223 1343.02 18.271V16.503H1340.05V15.541H1344.1V18.674C1343.21 19.6707 1342.08 20.169 1340.7 20.169ZM1353.03 20H1351.99L1346.94 13.084V20H1345.86V11.329H1346.96L1351.95 18.102V11.329H1353.03V20ZM1364.08 15.866C1364.36 16.1433 1364.49 16.4727 1364.49 16.854C1364.49 17.2353 1364.36 17.5647 1364.08 17.842C1363.8 18.1107 1363.47 18.245 1363.09 18.245C1362.71 18.245 1362.38 18.1107 1362.1 17.842C1361.82 17.5647 1361.69 17.2353 1361.69 16.854C1361.69 16.4727 1361.82 16.1433 1362.1 15.866C1362.38 15.5887 1362.71 15.45 1363.09 15.45C1363.47 15.45 1363.8 15.5887 1364.08 15.866ZM1379.29 19.22C1378.69 19.844 1377.81 20.156 1376.66 20.156C1375.51 20.156 1374.63 19.844 1374.02 19.22C1373.43 18.5873 1373.13 17.725 1373.13 16.633V11.329H1374.21V16.607C1374.21 17.413 1374.42 18.0457 1374.84 18.505C1375.27 18.9643 1375.87 19.194 1376.66 19.194C1377.45 19.194 1378.06 18.9643 1378.48 18.505C1378.91 18.0457 1379.12 17.413 1379.12 16.607V11.329H1380.2V16.62C1380.2 17.7207 1379.89 18.5873 1379.29 19.22ZM1389.52 20H1388.22L1385.45 16.308L1382.68 20H1381.37L1384.75 15.554L1381.57 11.329H1382.88L1385.45 14.8L1388.01 11.329H1389.33L1386.15 15.541L1389.52 20ZM1390.46 20.26H1389.7L1392.78 11.069H1393.54L1390.46 20.26ZM1400.72 19.22C1400.12 19.844 1399.24 20.156 1398.09 20.156C1396.94 20.156 1396.06 19.844 1395.45 19.22C1394.85 18.5873 1394.56 17.725 1394.56 16.633V11.329H1395.63V16.607C1395.63 17.413 1395.85 18.0457 1396.27 18.505C1396.7 18.9643 1397.3 19.194 1398.09 19.194C1398.88 19.194 1399.49 18.9643 1399.91 18.505C1400.34 18.0457 1400.55 17.413 1400.55 16.607V11.329H1401.63V16.62C1401.63 17.7207 1401.32 18.5873 1400.72 19.22ZM1404.74 20H1403.66V11.329H1404.74V20ZM1413.08 20H1410.12V11.329H1413.08C1414.41 11.329 1415.48 11.7407 1416.3 12.564C1417.12 13.3873 1417.53 14.423 1417.53 15.671C1417.53 16.9277 1417.12 17.9633 1416.3 18.778C1415.48 19.5927 1414.41 20 1413.08 20ZM1413.08 19.038C1414.11 19.038 1414.92 18.7173 1415.52 18.076C1416.11 17.4347 1416.41 16.633 1416.41 15.671C1416.41 14.7003 1416.12 13.8943 1415.53 13.253C1414.94 12.6117 1414.12 12.291 1413.08 12.291H1411.2V19.038H1413.08ZM1424.9 20H1419.22V11.329H1424.9V12.291H1420.3V15.086H1424.81V16.048H1420.3V19.038H1424.9V20ZM1429.43 20.156C1428.03 20.156 1426.92 19.6967 1426.1 18.778L1426.74 17.959C1427.48 18.7823 1428.39 19.194 1429.47 19.194C1430.17 19.194 1430.69 19.0467 1431.02 18.752C1431.35 18.4487 1431.51 18.0977 1431.51 17.699C1431.51 17.3957 1431.42 17.14 1431.23 16.932C1431.04 16.724 1430.79 16.5637 1430.49 16.451C1430.19 16.3297 1429.86 16.2213 1429.48 16.126C1429.12 16.0307 1428.76 15.9267 1428.39 15.814C1428.03 15.6927 1427.69 15.5497 1427.39 15.385C1427.1 15.2203 1426.85 14.9863 1426.66 14.683C1426.47 14.3797 1426.38 14.02 1426.38 13.604C1426.38 12.8933 1426.66 12.317 1427.22 11.875C1427.79 11.4243 1428.5 11.199 1429.35 11.199C1430.65 11.199 1431.67 11.602 1432.44 12.408L1431.79 13.201C1431.15 12.5077 1430.32 12.161 1429.28 12.161C1428.76 12.161 1428.33 12.291 1427.99 12.551C1427.66 12.8023 1427.5 13.1317 1427.5 13.539C1427.5 13.8423 1427.62 14.0937 1427.87 14.293C1428.13 14.4923 1428.45 14.6397 1428.82 14.735C1429.2 14.8303 1429.61 14.9517 1430.06 15.099C1430.51 15.2377 1430.92 15.3893 1431.29 15.554C1431.67 15.71 1431.99 15.9657 1432.24 16.321C1432.5 16.6763 1432.63 17.1053 1432.63 17.608C1432.63 18.3187 1432.37 18.921 1431.84 19.415C1431.32 19.909 1430.52 20.156 1429.43 20.156ZM1435.32 20H1434.24V11.329H1435.32V20ZM1441.46 20.169C1440.2 20.169 1439.15 19.753 1438.29 18.921C1437.43 18.0803 1437 16.997 1437 15.671C1437 14.345 1437.43 13.266 1438.29 12.434C1439.15 11.602 1440.2 11.186 1441.46 11.186C1442.83 11.186 1443.95 11.7277 1444.83 12.811L1443.97 13.344C1443.69 12.98 1443.33 12.6897 1442.88 12.473C1442.43 12.2563 1441.96 12.148 1441.46 12.148C1440.51 12.148 1439.71 12.4817 1439.07 13.149C1438.44 13.8077 1438.12 14.6483 1438.12 15.671C1438.12 16.6937 1438.44 17.5387 1439.07 18.206C1439.71 18.8733 1440.51 19.207 1441.46 19.207C1441.94 19.207 1442.38 19.116 1442.79 18.934C1443.2 18.7433 1443.54 18.5223 1443.79 18.271V16.503H1440.81V15.541H1444.87V18.674C1443.97 19.6707 1442.84 20.169 1441.46 20.169ZM1453.8 20H1452.76L1447.7 13.084V20H1446.62V11.329H1447.72L1452.72 18.102V11.329H1453.8V20ZM1464.84 15.866C1465.12 16.1433 1465.26 16.4727 1465.26 16.854C1465.26 17.2353 1465.12 17.5647 1464.84 17.842C1464.56 18.1107 1464.23 18.245 1463.85 18.245C1463.47 18.245 1463.14 18.1107 1462.86 17.842C1462.59 17.5647 1462.45 17.2353 1462.45 16.854C1462.45 16.4727 1462.59 16.1433 1462.86 15.866C1463.14 15.5887 1463.47 15.45 1463.85 15.45C1464.23 15.45 1464.56 15.5887 1464.84 15.866ZM1478 20.169C1476.74 20.169 1475.68 19.753 1474.83 18.921C1473.97 18.0803 1473.54 16.997 1473.54 15.671C1473.54 14.345 1473.97 13.266 1474.83 12.434C1475.68 11.602 1476.74 11.186 1478 11.186C1479.37 11.186 1480.49 11.7277 1481.36 12.811L1480.51 13.344C1480.23 12.98 1479.86 12.6897 1479.41 12.473C1478.97 12.2563 1478.5 12.148 1478 12.148C1477.04 12.148 1476.25 12.4817 1475.61 13.149C1474.97 13.8077 1474.66 14.6483 1474.66 15.671C1474.66 16.6937 1474.97 17.5387 1475.61 18.206C1476.25 18.8733 1477.04 19.207 1478 19.207C1478.47 19.207 1478.92 19.116 1479.32 18.934C1479.74 18.7433 1480.07 18.5223 1480.32 18.271V16.503H1477.35V15.541H1481.4V18.674C1480.51 19.6707 1479.38 20.169 1478 20.169ZM1489.45 20H1488.17L1485.96 16.555H1484.24V20H1483.16V11.329H1486.64C1487.45 11.329 1488.1 11.5673 1488.6 12.044C1489.11 12.5207 1489.36 13.1533 1489.36 13.942C1489.36 14.6873 1489.14 15.281 1488.71 15.723C1488.27 16.165 1487.74 16.412 1487.11 16.464L1489.45 20ZM1486.51 15.606C1487.02 15.606 1487.44 15.45 1487.76 15.138C1488.08 14.826 1488.24 14.4273 1488.24 13.942C1488.24 13.4567 1488.08 13.0623 1487.76 12.759C1487.44 12.447 1487.02 12.291 1486.51 12.291H1484.24V15.606H1486.51ZM1498.49 20H1497.25L1496.49 18.076H1492.17L1491.4 20H1490.17L1493.65 11.329H1494.99L1498.49 20ZM1496.16 17.114L1494.33 12.447L1492.48 17.114H1496.16ZM1500.7 20H1499.62V11.329H1503.11C1503.95 11.329 1504.61 11.5803 1505.1 12.083C1505.58 12.5857 1505.82 13.2053 1505.82 13.942C1505.82 14.6787 1505.58 15.2983 1505.08 15.801C1504.6 16.3037 1503.94 16.555 1503.11 16.555H1500.7V20ZM1502.98 15.593C1503.49 15.593 1503.9 15.4413 1504.22 15.138C1504.55 14.826 1504.71 14.4273 1504.71 13.942C1504.71 13.4567 1504.55 13.0623 1504.22 12.759C1503.9 12.447 1503.49 12.291 1502.98 12.291H1500.7V15.593H1502.98ZM1514.48 20H1513.4V16.022H1508.33V20H1507.25V11.329H1508.33V15.06H1513.4V11.329H1514.48V20ZM1517.59 20H1516.51V11.329H1517.59V20ZM1523.73 20.156C1522.46 20.156 1521.4 19.74 1520.54 18.908C1519.69 18.0673 1519.27 16.9883 1519.27 15.671C1519.27 14.3537 1519.69 13.279 1520.54 12.447C1521.4 11.6063 1522.46 11.186 1523.73 11.186C1525.11 11.186 1526.21 11.758 1527.01 12.902L1526.1 13.409C1525.85 13.0363 1525.52 12.733 1525.09 12.499C1524.67 12.265 1524.21 12.148 1523.73 12.148C1522.77 12.148 1521.97 12.4817 1521.33 13.149C1520.7 13.8077 1520.38 14.6483 1520.38 15.671C1520.38 16.6937 1520.7 17.5387 1521.33 18.206C1521.97 18.8647 1522.77 19.194 1523.73 19.194C1524.21 19.194 1524.67 19.0813 1525.09 18.856C1525.52 18.622 1525.85 18.3143 1526.1 17.933L1527.03 18.44C1526.19 19.584 1525.09 20.156 1523.73 20.156ZM1534.72 20H1531.75V11.329H1534.72C1536.04 11.329 1537.11 11.7407 1537.93 12.564C1538.75 13.3873 1539.16 14.423 1539.16 15.671C1539.16 16.9277 1538.75 17.9633 1537.93 18.778C1537.11 19.5927 1536.04 20 1534.72 20ZM1534.72 19.038C1535.74 19.038 1536.55 18.7173 1537.15 18.076C1537.75 17.4347 1538.05 16.633 1538.05 15.671C1538.05 14.7003 1537.75 13.8943 1537.16 13.253C1536.57 12.6117 1535.76 12.291 1534.72 12.291H1532.83V19.038H1534.72ZM1546.54 20H1540.86V11.329H1546.54V12.291H1541.94V15.086H1546.45V16.048H1541.94V19.038H1546.54V20ZM1551.07 20.156C1549.66 20.156 1548.55 19.6967 1547.74 18.778L1548.38 17.959C1549.11 18.7823 1550.02 19.194 1551.11 19.194C1551.81 19.194 1552.32 19.0467 1552.65 18.752C1552.98 18.4487 1553.15 18.0977 1553.15 17.699C1553.15 17.3957 1553.05 17.14 1552.86 16.932C1552.67 16.724 1552.42 16.5637 1552.12 16.451C1551.82 16.3297 1551.49 16.2213 1551.12 16.126C1550.75 16.0307 1550.39 15.9267 1550.03 15.814C1549.66 15.6927 1549.33 15.5497 1549.03 15.385C1548.73 15.2203 1548.49 14.9863 1548.3 14.683C1548.11 14.3797 1548.01 14.02 1548.01 13.604C1548.01 12.8933 1548.29 12.317 1548.86 11.875C1549.42 11.4243 1550.13 11.199 1550.99 11.199C1552.28 11.199 1553.31 11.602 1554.07 12.408L1553.42 13.201C1552.79 12.5077 1551.95 12.161 1550.91 12.161C1550.39 12.161 1549.96 12.291 1549.62 12.551C1549.29 12.8023 1549.13 13.1317 1549.13 13.539C1549.13 13.8423 1549.25 14.0937 1549.51 14.293C1549.77 14.4923 1550.08 14.6397 1550.46 14.735C1550.84 14.8303 1551.25 14.9517 1551.69 15.099C1552.14 15.2377 1552.55 15.3893 1552.93 15.554C1553.31 15.71 1553.62 15.9657 1553.87 16.321C1554.13 16.6763 1554.26 17.1053 1554.26 17.608C1554.26 18.3187 1554 18.921 1553.47 19.415C1552.95 19.909 1552.15 20.156 1551.07 20.156ZM1556.95 20H1555.88V11.329H1556.95V20ZM1563.09 20.169C1561.84 20.169 1560.78 19.753 1559.92 18.921C1559.06 18.0803 1558.63 16.997 1558.63 15.671C1558.63 14.345 1559.06 13.266 1559.92 12.434C1560.78 11.602 1561.84 11.186 1563.09 11.186C1564.46 11.186 1565.59 11.7277 1566.46 12.811L1565.6 13.344C1565.33 12.98 1564.96 12.6897 1564.51 12.473C1564.07 12.2563 1563.6 12.148 1563.09 12.148C1562.14 12.148 1561.34 12.4817 1560.7 13.149C1560.07 13.8077 1559.75 14.6483 1559.75 15.671C1559.75 16.6937 1560.07 17.5387 1560.7 18.206C1561.34 18.8733 1562.14 19.207 1563.09 19.207C1563.57 19.207 1564.01 19.116 1564.42 18.934C1564.84 18.7433 1565.17 18.5223 1565.42 18.271V16.503H1562.44V15.541H1566.5V18.674C1565.61 19.6707 1564.47 20.169 1563.09 20.169ZM1575.43 20H1574.39L1569.33 13.084V20H1568.25V11.329H1569.36L1574.35 18.102V11.329H1575.43V20ZM1586.47 15.866C1586.75 16.1433 1586.89 16.4727 1586.89 16.854C1586.89 17.2353 1586.75 17.5647 1586.47 17.842C1586.2 18.1107 1585.87 18.245 1585.49 18.245C1585.11 18.245 1584.78 18.1107 1584.5 17.842C1584.22 17.5647 1584.08 17.2353 1584.08 16.854C1584.08 16.4727 1584.22 16.1433 1584.5 15.866C1584.78 15.5887 1585.11 15.45 1585.49 15.45C1585.87 15.45 1586.2 15.5887 1586.47 15.866ZM1601.68 19.22C1601.09 19.844 1600.21 20.156 1599.06 20.156C1597.91 20.156 1597.03 19.844 1596.42 19.22C1595.82 18.5873 1595.52 17.725 1595.52 16.633V11.329H1596.6V16.607C1596.6 17.413 1596.81 18.0457 1597.24 18.505C1597.66 18.9643 1598.27 19.194 1599.06 19.194C1599.85 19.194 1600.45 18.9643 1600.88 18.505C1601.3 18.0457 1601.52 17.413 1601.52 16.607V11.329H1602.59V16.62C1602.59 17.7207 1602.29 18.5873 1601.68 19.22ZM1611.92 20H1610.62L1607.85 16.308L1605.08 20H1603.77L1607.15 15.554L1603.96 11.329H1605.28L1607.85 14.8L1610.41 11.329H1611.72L1608.55 15.541L1611.92 20ZM1612.86 20.26H1612.09L1615.17 11.069H1615.94L1612.86 20.26ZM1623.11 19.22C1622.52 19.844 1621.64 20.156 1620.49 20.156C1619.34 20.156 1618.46 19.844 1617.85 19.22C1617.25 18.5873 1616.95 17.725 1616.95 16.633V11.329H1618.03V16.607C1618.03 17.413 1618.24 18.0457 1618.67 18.505C1619.09 18.9643 1619.7 19.194 1620.49 19.194C1621.28 19.194 1621.88 18.9643 1622.31 18.505C1622.73 18.0457 1622.95 17.413 1622.95 16.607V11.329H1624.02V16.62C1624.02 17.7207 1623.72 18.5873 1623.11 19.22ZM1627.13 20H1626.06V11.329H1627.13V20ZM1635.48 20H1632.52V11.329H1635.48C1636.81 11.329 1637.88 11.7407 1638.69 12.564C1639.52 13.3873 1639.93 14.423 1639.93 15.671C1639.93 16.9277 1639.52 17.9633 1638.69 18.778C1637.88 19.5927 1636.81 20 1635.48 20ZM1635.48 19.038C1636.5 19.038 1637.31 18.7173 1637.91 18.076C1638.51 17.4347 1638.81 16.633 1638.81 15.671C1638.81 14.7003 1638.51 13.8943 1637.92 13.253C1637.34 12.6117 1636.52 12.291 1635.48 12.291H1633.6V19.038H1635.48ZM1647.3 20H1641.62V11.329H1647.3V12.291H1642.7V15.086H1647.21V16.048H1642.7V19.038H1647.3V20ZM1651.83 20.156C1650.42 20.156 1649.32 19.6967 1648.5 18.778L1649.14 17.959C1649.87 18.7823 1650.78 19.194 1651.87 19.194C1652.57 19.194 1653.09 19.0467 1653.41 18.752C1653.74 18.4487 1653.91 18.0977 1653.91 17.699C1653.91 17.3957 1653.81 17.14 1653.62 16.932C1653.43 16.724 1653.19 16.5637 1652.88 16.451C1652.59 16.3297 1652.25 16.2213 1651.88 16.126C1651.52 16.0307 1651.15 15.9267 1650.79 15.814C1650.42 15.6927 1650.09 15.5497 1649.79 15.385C1649.49 15.2203 1649.25 14.9863 1649.06 14.683C1648.87 14.3797 1648.77 14.02 1648.77 13.604C1648.77 12.8933 1649.06 12.317 1649.62 11.875C1650.18 11.4243 1650.89 11.199 1651.75 11.199C1653.04 11.199 1654.07 11.602 1654.83 12.408L1654.18 13.201C1653.55 12.5077 1652.71 12.161 1651.67 12.161C1651.15 12.161 1650.72 12.291 1650.39 12.551C1650.06 12.8023 1649.89 13.1317 1649.89 13.539C1649.89 13.8423 1650.02 14.0937 1650.27 14.293C1650.53 14.4923 1650.85 14.6397 1651.22 14.735C1651.6 14.8303 1652.01 14.9517 1652.45 15.099C1652.9 15.2377 1653.32 15.3893 1653.69 15.554C1654.07 15.71 1654.39 15.9657 1654.64 16.321C1654.9 16.6763 1655.03 17.1053 1655.03 17.608C1655.03 18.3187 1654.76 18.921 1654.23 19.415C1653.71 19.909 1652.91 20.156 1651.83 20.156ZM1657.72 20H1656.64V11.329H1657.72V20ZM1663.86 20.169C1662.6 20.169 1661.54 19.753 1660.68 18.921C1659.83 18.0803 1659.4 16.997 1659.4 15.671C1659.4 14.345 1659.83 13.266 1660.68 12.434C1661.54 11.602 1662.6 11.186 1663.86 11.186C1665.23 11.186 1666.35 11.7277 1667.22 12.811L1666.37 13.344C1666.09 12.98 1665.72 12.6897 1665.27 12.473C1664.83 12.2563 1664.36 12.148 1663.86 12.148C1662.9 12.148 1662.11 12.4817 1661.46 13.149C1660.83 13.8077 1660.52 14.6483 1660.52 15.671C1660.52 16.6937 1660.83 17.5387 1661.46 18.206C1662.11 18.8733 1662.9 19.207 1663.86 19.207C1664.33 19.207 1664.78 19.116 1665.18 18.934C1665.6 18.7433 1665.93 18.5223 1666.18 18.271V16.503H1663.21V15.541H1667.26V18.674C1666.37 19.6707 1665.23 20.169 1663.86 20.169ZM1676.19 20H1675.15L1670.09 13.084V20H1669.02V11.329H1670.12L1675.11 18.102V11.329H1676.19V20Z" fill="black"/>
</svg>
