<svg width="834" height="588" viewBox="0 0 834 588" fill="none" xmlns="http://www.w3.org/2000/svg">
<rect x="834" y="338" width="2.00006" height="834" transform="rotate(90 834 338)" fill="#EFEFEF"/>
<rect x="837" y="276" width="2.00004" height="837" transform="rotate(90 837 276)" fill="#EFEFEF"/>
<rect x="834" y="214" width="2.00006" height="834" transform="rotate(90 834 214)" fill="#EFEFEF"/>
<rect x="834" y="462" width="2.00006" height="834" transform="rotate(90 834 462)" fill="#EFEFEF"/>
<rect x="834" y="152" width="2.00006" height="834" transform="rotate(90 834 152)" fill="#EFEFEF"/>
<rect x="834" y="400" width="2.00004" height="834" transform="rotate(90 834 400)" fill="#EFEFEF"/>
<rect x="834" y="586" width="2.00006" height="834" transform="rotate(90 834 586)" fill="#EFEFEF"/>
<rect x="834" y="524" width="2.00006" height="834" transform="rotate(90 834 524)" fill="#EFEFEF"/>
<rect x="478" y="338" width="2" height="250" fill="#EFEFEF"/>
<rect x="726" y="90" width="2" height="498" fill="#EFEFEF"/>
<rect x="106" y="524" width="2" height="64" fill="#EFEFEF"/>
<rect x="106" y="338" width="2" height="126" fill="#EFEFEF"/>
<rect x="230" y="338" width="2" height="126" fill="#EFEFEF"/>
<rect x="168" y="338" width="2" height="126" fill="#EFEFEF"/>
<rect x="230" y="524" width="2" height="64" fill="#EFEFEF"/>
<rect x="168" y="524" width="2" height="64" fill="#EFEFEF"/>
<rect x="106" y="90" width="2" height="126" fill="#EFEFEF"/>
<rect x="602" y="90" width="2" height="498" fill="#EFEFEF"/>
<rect x="354" y="338" width="2" height="250" fill="#EFEFEF"/>
<rect x="44" width="2" height="588" fill="#EFEFEF"/>
<rect x="292" y="338" width="2" height="250" fill="#EFEFEF"/>
<rect x="788" width="2" height="588" fill="#EFEFEF"/>
<rect x="478" y="90" width="2" height="188" fill="#EFEFEF"/>
<rect x="230" y="90" width="2" height="126" fill="#EFEFEF"/>
<rect x="354" y="90" width="2" height="126" fill="#EFEFEF"/>
<rect x="540" y="90" width="2" height="498" fill="#EFEFEF"/>
<rect x="292" y="90" width="2" height="126" fill="#EFEFEF"/>
<rect x="168" y="90" width="2" height="126" fill="#EFEFEF"/>
<rect x="416" y="90" width="2" height="126" fill="#EFEFEF"/>
<rect x="664" y="90" width="2" height="498" fill="#EFEFEF"/>
<rect x="416" y="338" width="2" height="250" fill="#EFEFEF"/>
<rect x="834" y="90" width="2.00006" height="834" transform="rotate(90 834 90)" fill="#EFEFEF"/>
<rect x="46" y="28" width="2" height="46" transform="rotate(90 46 28)" fill="#EFEFEF"/>
<rect x="834" y="28" width="2" height="46" transform="rotate(90 834 28)" fill="#EFEFEF"/>
<path fill-rule="evenodd" clip-rule="evenodd" d="M667 151V142H663V151H654V155H663V164H667V155H676V151H667Z" fill="#FFAB00"/>
</svg>
