<svg width="1366" height="768" viewBox="0 0 1366 768" fill="none" xmlns="http://www.w3.org/2000/svg">
<rect x="31" width="2" height="768" fill="#EAEAEA"/>
<rect x="1366" y="338" width="2.00006" height="1366" transform="rotate(90 1366 338)" fill="#EAEAEA"/>
<rect x="1366" y="276" width="2.00003" height="653" transform="rotate(90 1366 276)" fill="#EAEAEA"/>
<rect x="1366" y="214" width="2.00006" height="1366" transform="rotate(90 1366 214)" fill="#EAEAEA"/>
<rect x="1366" y="462" width="2.00006" height="1366" transform="rotate(90 1366 462)" fill="#EAEAEA"/>
<rect x="1366" y="648" width="2" height="1366" transform="rotate(90 1366 648)" fill="#EAEAEA"/>
<rect x="1366" y="152" width="2" height="1366" transform="rotate(90 1366 152)" fill="#EAEAEA"/>
<rect x="1366" y="400" width="2.00006" height="1366" transform="rotate(90 1366 400)" fill="#EAEAEA"/>
<rect x="1366" y="586" width="2" height="1366" transform="rotate(90 1366 586)" fill="#EAEAEA"/>
<rect x="157" y="276" width="2.00001" height="157" transform="rotate(90 157 276)" fill="#EAEAEA"/>
<rect x="1366" y="524" width="2" height="1366" transform="rotate(90 1366 524)" fill="#EAEAEA"/>
<rect x="1366" y="710" width="2" height="1366" transform="rotate(90 1366 710)" fill="#EAEAEA"/>
<rect x="527" y="338" width="2" height="430" fill="#EAEAEA"/>
<rect x="279" y="710" width="2" height="58" fill="#EAEAEA"/>
<rect x="279" y="400" width="2" height="250" fill="#EAEAEA"/>
<rect x="775" y="90" width="2" height="678" fill="#EAEAEA"/>
<rect x="155" y="90" width="2" height="678" fill="#EAEAEA"/>
<rect x="651" y="338" width="2" height="430" fill="#EAEAEA"/>
<rect x="403" y="400" width="2" height="368" fill="#EAEAEA"/>
<rect x="1023" y="90" width="2" height="678" fill="#EAEAEA"/>
<rect x="899" y="90" width="2" height="678" fill="#EAEAEA"/>
<rect x="1147" y="90" width="2" height="678" fill="#EAEAEA"/>
<rect x="1085" y="90" width="2" height="678" fill="#EAEAEA"/>
<rect x="961" y="90" width="2" height="678" fill="#EAEAEA"/>
<rect x="1271" width="2" height="768" fill="#EAEAEA"/>
<rect x="93" width="2" height="768" fill="#EAEAEA"/>
<rect x="341" y="400" width="2" height="368" fill="#EAEAEA"/>
<rect x="837" y="90" width="2" height="678" fill="#EAEAEA"/>
<rect x="217" y="710" width="2" height="58" fill="#EAEAEA"/>
<rect x="217" y="400" width="2" height="250" fill="#EAEAEA"/>
<rect x="527" y="90" width="2" height="126" fill="#EAEAEA"/>
<rect x="279" y="90" width="2" height="126" fill="#EAEAEA"/>
<rect x="403" y="90" width="2" height="126" fill="#EAEAEA"/>
<rect x="589" y="338" width="2" height="430" fill="#EAEAEA"/>
<rect x="589" y="90" width="2" height="126" fill="#EAEAEA"/>
<rect x="341" y="90" width="2" height="126" fill="#EAEAEA"/>
<rect x="217" y="90" width="2" height="126" fill="#EAEAEA"/>
<rect x="465" y="90" width="2" height="126" fill="#EAEAEA"/>
<rect x="651" y="90" width="2" height="126" fill="#EAEAEA"/>
<rect x="713" y="90" width="2" height="678" fill="#EAEAEA"/>
<rect x="465" y="400" width="2" height="368" fill="#EAEAEA"/>
<rect x="1209" y="90" width="2" height="678" fill="#EAEAEA"/>
<rect x="1333" width="2" height="768" fill="#EAEAEA"/>
<rect x="1366" y="90" width="2" height="1366" transform="rotate(90 1366 90)" fill="#EAEAEA"/>
<rect x="1366" y="28" width="2" height="95" transform="rotate(90 1366 28)" fill="#EAEAEA"/>
<rect x="95" y="28" width="2" height="95" transform="rotate(90 95 28)" fill="#EAEAEA"/>
<path fill-rule="evenodd" clip-rule="evenodd" d="M96 275V266H92V275H83V279H92V288H96V279H105V275H96Z" fill="#FFAB00"/>
<path fill-rule="evenodd" clip-rule="evenodd" d="M530 461V452H526V461H517V465H526V474H530V465H539V461H530Z" fill="#FFAB00"/>
<path fill-rule="evenodd" clip-rule="evenodd" d="M964 151V142H960V151H951V155H960V164H964V155H973V151H964Z" fill="#FFAB00"/>
</svg>
