<svg width="1366" height="768" viewBox="0 0 1366 768" fill="none" xmlns="http://www.w3.org/2000/svg">
<rect x="31" width="2" height="768" fill="#EFEFEF"/>
<rect x="157" y="338" width="2.00001" height="157" transform="rotate(90 157 338)" fill="#EFEFEF"/>
<rect x="1366" y="338" width="2.00003" height="901" transform="rotate(90 1366 338)" fill="#EFEFEF"/>
<rect x="1366" y="276" width="2.00004" height="901" transform="rotate(90 1366 276)" fill="#EFEFEF"/>
<rect x="1366" y="214" width="2.00006" height="1366" transform="rotate(90 1366 214)" fill="#EFEFEF"/>
<rect x="1366" y="462" width="2.00003" height="591" transform="rotate(90 1366 462)" fill="#EFEFEF"/>
<rect x="157" y="462" width="2.00001" height="157" transform="rotate(90 157 462)" fill="#EFEFEF"/>
<rect x="1366" y="648" width="2" height="1366" transform="rotate(90 1366 648)" fill="#EFEFEF"/>
<rect x="1366" y="152" width="2" height="1366" transform="rotate(90 1366 152)" fill="#EFEFEF"/>
<rect x="1366" y="400" width="2.00006" height="1366" transform="rotate(90 1366 400)" fill="#EFEFEF"/>
<rect x="1366" y="586" width="2" height="1366" transform="rotate(90 1366 586)" fill="#EFEFEF"/>
<rect x="157" y="276" width="2.00001" height="157" transform="rotate(90 157 276)" fill="#EFEFEF"/>
<rect x="1366" y="524" width="2" height="1366" transform="rotate(90 1366 524)" fill="#EFEFEF"/>
<rect x="1366" y="710" width="2" height="1366" transform="rotate(90 1366 710)" fill="#EFEFEF"/>
<rect x="527" y="524" width="2" height="244" fill="#EFEFEF"/>
<rect x="279" y="710" width="2" height="58" fill="#EFEFEF"/>
<rect x="279" y="524" width="2" height="126" fill="#EFEFEF"/>
<rect x="775" y="90" width="2" height="678" fill="#EFEFEF"/>
<rect x="155" y="90" width="2" height="678" fill="#EFEFEF"/>
<rect x="651" y="524" width="2" height="244" fill="#EFEFEF"/>
<rect x="403" y="524" width="2" height="244" fill="#EFEFEF"/>
<rect x="1023" y="90" width="2" height="678" fill="#EFEFEF"/>
<rect x="899" y="90" width="2" height="678" fill="#EFEFEF"/>
<rect x="1147" y="90" width="2" height="678" fill="#EFEFEF"/>
<rect x="1085" y="90" width="2" height="678" fill="#EFEFEF"/>
<rect x="961" y="90" width="2" height="678" fill="#EFEFEF"/>
<rect x="1271" width="2" height="768" fill="#EFEFEF"/>
<rect x="93" width="2" height="768" fill="#EFEFEF"/>
<rect x="341" y="524" width="2" height="244" fill="#EFEFEF"/>
<rect x="837" y="90" width="2" height="678" fill="#EFEFEF"/>
<rect x="217" y="710" width="2" height="58" fill="#EFEFEF"/>
<rect x="217" y="524" width="2" height="126" fill="#EFEFEF"/>
<rect x="527" y="90" width="2" height="312" fill="#EFEFEF"/>
<rect x="279" y="90" width="2" height="126" fill="#EFEFEF"/>
<rect x="403" y="90" width="2" height="126" fill="#EFEFEF"/>
<rect x="589" y="524" width="2" height="244" fill="#EFEFEF"/>
<rect x="589" y="90" width="2" height="312" fill="#EFEFEF"/>
<rect x="341" y="90" width="2" height="126" fill="#EFEFEF"/>
<rect x="217" y="90" width="2" height="126" fill="#EFEFEF"/>
<rect x="465" y="90" width="2" height="312" fill="#EFEFEF"/>
<rect x="651" y="90" width="2" height="312" fill="#EFEFEF"/>
<rect x="713" y="90" width="2" height="312" fill="#EFEFEF"/>
<rect x="713" y="524" width="2" height="244" fill="#EFEFEF"/>
<rect x="465" y="524" width="2" height="244" fill="#EFEFEF"/>
<rect x="1209" y="90" width="2" height="678" fill="#EFEFEF"/>
<rect x="1333" width="2" height="768" fill="#EFEFEF"/>
<rect x="1366" y="90" width="2" height="1366" transform="rotate(90 1366 90)" fill="#EFEFEF"/>
<rect x="1366" y="28" width="2" height="95" transform="rotate(90 1366 28)" fill="#EFEFEF"/>
<path fill-rule="evenodd" clip-rule="evenodd" d="M716 151V142H712V151H703V155H712V164H716V155H725V151H716Z" fill="#FFAB00"/>
<path fill-rule="evenodd" clip-rule="evenodd" d="M468 585V576H464V585H455V589H464V598H468V589H477V585H468Z" fill="#FFAB00"/>
</svg>
