<svg width="473" height="264" viewBox="0 0 473 264" fill="none" xmlns="http://www.w3.org/2000/svg">
<rect x="10.7344" width="0.692533" height="264" fill="#EFEFEF"/>
<rect x="473" y="116.187" width="0.68752" height="473" transform="rotate(90 473 116.187)" fill="#EFEFEF"/>
<rect x="473" y="94.875" width="0.687511" height="247.58" transform="rotate(90 473 94.875)" fill="#EFEFEF"/>
<rect x="473" y="73.5627" width="0.68752" height="473" transform="rotate(90 473 73.5627)" fill="#EFEFEF"/>
<rect x="473" y="158.812" width="0.68752" height="473" transform="rotate(90 473 158.812)" fill="#EFEFEF"/>
<rect x="473" y="222.75" width="0.6875" height="473" transform="rotate(90 473 222.75)" fill="#EFEFEF"/>
<rect x="473" y="52.2498" width="0.6875" height="473" transform="rotate(90 473 52.2498)" fill="#EFEFEF"/>
<rect x="473" y="137.5" width="0.68751" height="226.112" transform="rotate(90 473 137.5)" fill="#EFEFEF"/>
<rect x="54.3647" y="137.5" width="0.687502" height="54.3638" transform="rotate(90 54.3647 137.5)" fill="#EFEFEF"/>
<rect x="473" y="201.437" width="0.6875" height="473" transform="rotate(90 473 201.437)" fill="#EFEFEF"/>
<rect x="54.3647" y="94.875" width="0.687502" height="54.3638" transform="rotate(90 54.3647 94.875)" fill="#EFEFEF"/>
<rect x="473" y="180.125" width="0.6875" height="473" transform="rotate(90 473 180.125)" fill="#EFEFEF"/>
<rect x="473" y="244.062" width="0.6875" height="473" transform="rotate(90 473 244.062)" fill="#EFEFEF"/>
<rect x="182.482" y="158.812" width="0.692533" height="105.187" fill="#EFEFEF"/>
<rect x="96.6089" y="244.062" width="0.692533" height="19.9375" fill="#EFEFEF"/>
<rect x="96.6089" y="158.812" width="0.692533" height="64.625" fill="#EFEFEF"/>
<rect x="268.357" y="30.9375" width="0.692533" height="233.062" fill="#EFEFEF"/>
<rect x="53.6719" y="30.9375" width="0.692533" height="233.062" fill="#EFEFEF"/>
<rect x="225.419" y="158.812" width="0.692533" height="105.187" fill="#EFEFEF"/>
<rect x="139.545" y="158.812" width="0.692533" height="105.187" fill="#EFEFEF"/>
<rect x="354.23" y="30.9375" width="0.692533" height="233.062" fill="#EFEFEF"/>
<rect x="311.293" y="30.9375" width="0.692533" height="233.062" fill="#EFEFEF"/>
<rect x="397.167" y="30.9375" width="0.692533" height="233.062" fill="#EFEFEF"/>
<rect x="375.699" y="30.9375" width="0.692533" height="233.062" fill="#EFEFEF"/>
<rect x="332.762" y="30.9375" width="0.692533" height="233.062" fill="#EFEFEF"/>
<rect x="440.104" width="0.692533" height="264" fill="#EFEFEF"/>
<rect x="32.2031" width="0.692533" height="264" fill="#EFEFEF"/>
<rect x="118.077" y="158.812" width="0.692533" height="105.187" fill="#EFEFEF"/>
<rect x="289.825" y="30.9375" width="0.692533" height="233.062" fill="#EFEFEF"/>
<rect x="75.1406" y="244.062" width="0.692533" height="19.9375" fill="#EFEFEF"/>
<rect x="75.1406" y="158.812" width="0.692533" height="64.625" fill="#EFEFEF"/>
<rect x="182.482" y="30.9375" width="0.692533" height="43.3125" fill="#EFEFEF"/>
<rect x="96.6089" y="30.9375" width="0.692533" height="43.3125" fill="#EFEFEF"/>
<rect x="139.545" y="30.9375" width="0.692533" height="43.3125" fill="#EFEFEF"/>
<rect x="203.951" y="158.812" width="0.692533" height="105.187" fill="#EFEFEF"/>
<rect x="203.951" y="30.9375" width="0.692533" height="43.3125" fill="#EFEFEF"/>
<rect x="118.077" y="30.9375" width="0.692533" height="43.3125" fill="#EFEFEF"/>
<rect x="75.1406" y="30.9375" width="0.692533" height="43.3125" fill="#EFEFEF"/>
<rect x="161.014" y="30.9375" width="0.692533" height="43.3125" fill="#EFEFEF"/>
<rect x="225.419" y="30.9375" width="0.692533" height="85.9375" fill="#EFEFEF"/>
<rect x="246.888" y="30.9375" width="0.692533" height="233.062" fill="#EFEFEF"/>
<rect x="161.014" y="158.812" width="0.692533" height="105.187" fill="#EFEFEF"/>
<rect x="418.636" y="30.9375" width="0.692533" height="233.062" fill="#EFEFEF"/>
<rect x="461.573" width="0.692533" height="264" fill="#EFEFEF"/>
<rect x="473" y="30.9375" width="0.6875" height="473" transform="rotate(90 473 30.9375)" fill="#EFEFEF"/>
<rect x="473" y="9.62524" width="0.687501" height="32.8953" transform="rotate(90 473 9.62524)" fill="#EFEFEF"/>
<rect x="32.8955" y="9.62524" width="0.687501" height="32.8953" transform="rotate(90 32.8955 9.62524)" fill="#EFEFEF"/>
<path fill-rule="evenodd" clip-rule="evenodd" d="M247.928 51.9065V48.812L246.542 48.812L246.542 51.9065H243.425V53.2815H246.542L246.542 56.3745H247.928V53.2815H251.043V51.9065H247.928Z" fill="#FFAB00"/>
<path fill-rule="evenodd" clip-rule="evenodd" d="M162.053 201.094V198H160.668V201.094H157.551V202.469H160.668V205.563H162.053V202.469H165.169V201.094H162.053Z" fill="#FFAB00"/>
</svg>
