<svg width="834" height="312" viewBox="0 0 834 312" fill="none" xmlns="http://www.w3.org/2000/svg">
<rect x="1100" y="62" width="2" height="1366" transform="rotate(90 1100 62)" fill="#EFEFEF"/>
<rect x="1100" y="248" width="2" height="1366" transform="rotate(90 1100 248)" fill="#EFEFEF"/>
<rect x="1100" width="2" height="1366" transform="rotate(90 1100 0)" fill="#EFEFEF"/>
<rect x="1100" y="186" width="2.00002" height="343" transform="rotate(90 1100 186)" fill="#EFEFEF"/>
<rect x="1100" y="124" width="2.00002" height="343" transform="rotate(90 1100 124)" fill="#EFEFEF"/>
<rect x="77" y="186" width="2.00006" height="343" transform="rotate(90 77 186)" fill="#EFEFEF"/>
<rect x="77" y="124" width="2.00006" height="343" transform="rotate(90 77 124)" fill="#EFEFEF"/>
<rect x="1100" y="310" width="2" height="1366" transform="rotate(90 1100 310)" fill="#EFEFEF"/>
<rect x="261" width="2" height="64" fill="#EFEFEF"/>
<rect x="13" width="2" height="312" fill="#EFEFEF"/>
<rect x="509" width="2" height="64" fill="#EFEFEF"/>
<rect x="757" width="2" height="312" fill="#EFEFEF"/>
<rect x="385" width="2" height="64" fill="#EFEFEF"/>
<rect x="137" width="2" height="64" fill="#EFEFEF"/>
<rect x="137" y="248" width="2" height="64" fill="#EFEFEF"/>
<rect x="695" y="248" width="2" height="64" fill="#EFEFEF"/>
<rect x="633" width="2" height="64" fill="#EFEFEF"/>
<rect x="261" y="248" width="2" height="64" fill="#EFEFEF"/>
<rect x="509" y="248" width="2" height="64" fill="#EFEFEF"/>
<rect x="385" y="248" width="2" height="64" fill="#EFEFEF"/>
<rect x="633" y="248" width="2" height="64" fill="#EFEFEF"/>
<rect x="323" y="248" width="2" height="64" fill="#EFEFEF"/>
<rect x="571" y="248" width="2" height="64" fill="#EFEFEF"/>
<rect x="447" y="248" width="2" height="64" fill="#EFEFEF"/>
<rect x="199" y="248" width="2" height="64" fill="#EFEFEF"/>
<rect x="323" width="2" height="64" fill="#EFEFEF"/>
<rect x="75" width="2" height="312" fill="#EFEFEF"/>
<rect x="571" width="2" height="64" fill="#EFEFEF"/>
<rect x="819" width="2" height="312" fill="#EFEFEF"/>
<rect x="447" width="2" height="64" fill="#EFEFEF"/>
<rect x="199" width="2" height="64" fill="#EFEFEF"/>
<rect x="695" width="2" height="64" fill="#EFEFEF"/>
</svg>
