<svg width="206" height="193" viewBox="0 0 206 193" fill="none" xmlns="http://www.w3.org/2000/svg">
<rect x="17.0294" width="1.09867" height="193" fill="#EFEFEF"/>
<rect x="206" y="27.4448" width="0.885321" height="206" transform="rotate(90 206 27.4448)" fill="#EFEFEF"/>
<rect x="206" width="0.885321" height="206" transform="rotate(90 206 0)" fill="#EFEFEF"/>
<rect x="206" y="82.3347" width="0.88535" height="206" transform="rotate(90 206 82.3347)" fill="#EFEFEF"/>
<rect x="18.1281" y="109.78" width="0.885324" height="18.128" transform="rotate(90 18.1281 109.78)" fill="#EFEFEF"/>
<rect x="18.1281" y="137.225" width="0.885324" height="18.128" transform="rotate(90 18.1281 137.225)" fill="#EFEFEF"/>
<rect x="206" y="109.78" width="0.885324" height="18.6773" transform="rotate(90 206 109.78)" fill="#EFEFEF"/>
<rect x="206" y="137.225" width="0.885324" height="18.6773" transform="rotate(90 206 137.225)" fill="#EFEFEF"/>
<rect x="206" y="164.67" width="0.88535" height="206" transform="rotate(90 206 164.67)" fill="#EFEFEF"/>
<rect x="206" y="192.115" width="0.88535" height="206" transform="rotate(90 206 192.115)" fill="#EFEFEF"/>
<rect x="206" y="54.8899" width="0.885324" height="18.6773" transform="rotate(90 206 54.8899)" fill="#EFEFEF"/>
<rect x="18.1281" y="54.8899" width="0.885324" height="18.128" transform="rotate(90 18.1281 54.8899)" fill="#EFEFEF"/>
<rect x="153.264" width="1.09867" height="28.3303" fill="#EFEFEF"/>
<rect x="153.264" y="164.67" width="1.09867" height="28.3303" fill="#EFEFEF"/>
<rect x="85.1466" width="1.09867" height="28.3303" fill="#EFEFEF"/>
<rect x="85.1466" y="164.67" width="1.09867" height="28.3303" fill="#EFEFEF"/>
<rect x="51.088" width="1.09867" height="28.3303" fill="#EFEFEF"/>
<rect x="51.088" y="164.67" width="1.09867" height="28.3303" fill="#EFEFEF"/>
<rect x="187.323" width="1.09867" height="193" fill="#EFEFEF"/>
<rect x="119.205" width="1.09867" height="28.3303" fill="#EFEFEF"/>
<rect x="119.205" y="164.67" width="1.09867" height="28.3303" fill="#EFEFEF"/>
</svg>
