<svg width="375" height="768" viewBox="0 0 375 768" fill="none" xmlns="http://www.w3.org/2000/svg">
<rect x="375" y="142" width="2.00002" height="375" transform="rotate(90 375 142)" fill="#EAEAEA"/>
<rect x="375" y="7.99976" width="2.00002" height="375" transform="rotate(90 375 7.99976)" fill="#EAEAEA"/>
<rect x="375" y="418" width="2.00002" height="375" transform="rotate(90 375 418)" fill="#EAEAEA"/>
<rect x="375" y="542" width="2.00002" height="375" transform="rotate(90 375 542)" fill="#EAEAEA"/>
<rect x="375" y="666" width="2.00002" height="375" transform="rotate(90 375 666)" fill="#EAEAEA"/>
<rect x="375" y="356" width="2.00002" height="375" transform="rotate(90 375 356)" fill="#EAEAEA"/>
<rect x="375" y="480" width="2.00002" height="375" transform="rotate(90 375 480)" fill="#EAEAEA"/>
<rect x="375" y="604" width="2.00002" height="375" transform="rotate(90 375 604)" fill="#EAEAEA"/>
<rect x="375" y="728" width="2.00002" height="375" transform="rotate(90 375 728)" fill="#EAEAEA"/>
<rect x="31" y="79.9998" width="2" height="126" fill="#EAEAEA"/>
<rect x="31" y="-0.000244141" width="2" height="10" fill="#EAEAEA"/>
<rect x="31" y="356" width="2" height="312" fill="#EAEAEA"/>
<rect x="31" y="728" width="2" height="40" fill="#EAEAEA"/>
<rect x="279" y="79.9998" width="2" height="126" fill="#EAEAEA"/>
<rect x="279" y="-0.000244141" width="2" height="10" fill="#EAEAEA"/>
<rect x="279" y="356" width="2" height="412" fill="#EAEAEA"/>
<rect x="155" y="79.9998" width="2" height="126" fill="#EAEAEA"/>
<rect x="155" y="-0.000244141" width="2" height="10" fill="#EAEAEA"/>
<rect x="155" y="356" width="2" height="312" fill="#EAEAEA"/>
<rect x="155" y="728" width="2" height="40" fill="#EAEAEA"/>
<rect x="93" y="79.9998" width="2" height="126" fill="#EAEAEA"/>
<rect x="93" y="-0.000244141" width="2" height="10" fill="#EAEAEA"/>
<rect x="93" y="356" width="2" height="312" fill="#EAEAEA"/>
<rect x="93" y="728" width="2" height="40" fill="#EAEAEA"/>
<rect x="341" y="79.9998" width="2" height="126" fill="#EAEAEA"/>
<rect x="341" y="-0.000244141" width="2" height="10" fill="#EAEAEA"/>
<rect x="341" y="356" width="2" height="412" fill="#EAEAEA"/>
<rect x="217" y="79.9998" width="2" height="126" fill="#EAEAEA"/>
<rect x="217" y="-0.000244141" width="2" height="10" fill="#EAEAEA"/>
<rect x="217" y="356" width="2" height="412" fill="#EAEAEA"/>
<rect x="375" y="204" width="2.00002" height="375" transform="rotate(90 375 204)" fill="#EAEAEA"/>
<rect x="375" y="80" width="2.00002" height="375" transform="rotate(90 375 80)" fill="#EAEAEA"/>
<path fill-rule="evenodd" clip-rule="evenodd" d="M220 141V132H216V141H207V145H216V154H220V145H229V141H220Z" fill="#FFAB00"/>
<path fill-rule="evenodd" clip-rule="evenodd" d="M34 479V470H30V479H21V483H30V492H34V483H43V479H34Z" fill="#FFAB00"/>
</svg>
