<svg width="375" height="756" viewBox="0 0 375 756" fill="none" xmlns="http://www.w3.org/2000/svg">
<rect x="377.095" y="139.633" width="1.96668" height="377.095" transform="rotate(90 377.095 139.633)" fill="#EAEAEA"/>
<rect x="377.095" y="7.86646" width="1.96668" height="377.095" transform="rotate(90 377.095 7.86646)" fill="#EAEAEA"/>
<rect x="377.095" y="411.033" width="1.96668" height="377.095" transform="rotate(90 377.095 411.033)" fill="#EAEAEA"/>
<rect x="377.095" y="532.966" width="1.96668" height="377.095" transform="rotate(90 377.095 532.966)" fill="#EAEAEA"/>
<rect x="377.095" y="654.899" width="1.96668" height="377.095" transform="rotate(90 377.095 654.899)" fill="#EAEAEA"/>
<rect x="377.095" y="350.067" width="1.96668" height="377.095" transform="rotate(90 377.095 350.067)" fill="#EAEAEA"/>
<rect x="377.095" y="472" width="1.96668" height="377.095" transform="rotate(90 377.095 472)" fill="#EAEAEA"/>
<rect x="377.095" y="593.933" width="1.96668" height="377.095" transform="rotate(90 377.095 593.933)" fill="#EAEAEA"/>
<rect x="377.095" y="715.866" width="1.96668" height="377.095" transform="rotate(90 377.095 715.866)" fill="#EAEAEA"/>
<rect x="31.1732" y="78.6663" width="2.01117" height="123.9" fill="#EAEAEA"/>
<rect x="31.1732" y="-0.000244141" width="2.01117" height="9.83332" fill="#EAEAEA"/>
<rect x="31.1732" y="350.067" width="2.01117" height="306.8" fill="#EAEAEA"/>
<rect x="31.1732" y="715.866" width="2.01117" height="39.3333" fill="#EAEAEA"/>
<rect x="280.559" y="78.6663" width="2.01117" height="123.9" fill="#EAEAEA"/>
<rect x="280.559" y="-0.000244141" width="2.01117" height="9.83332" fill="#EAEAEA"/>
<rect x="280.559" y="350.067" width="2.01117" height="405.133" fill="#EAEAEA"/>
<rect x="155.866" y="78.6663" width="2.01117" height="123.9" fill="#EAEAEA"/>
<rect x="155.866" y="-0.000244141" width="2.01117" height="9.83332" fill="#EAEAEA"/>
<rect x="155.866" y="350.067" width="2.01117" height="306.8" fill="#EAEAEA"/>
<rect x="155.866" y="715.866" width="2.01117" height="39.3333" fill="#EAEAEA"/>
<rect x="93.5197" y="78.6663" width="2.01117" height="123.9" fill="#EAEAEA"/>
<rect x="93.5197" y="-0.000244141" width="2.01117" height="9.83332" fill="#EAEAEA"/>
<rect x="93.5197" y="350.067" width="2.01117" height="306.8" fill="#EAEAEA"/>
<rect x="93.5197" y="715.866" width="2.01117" height="39.3333" fill="#EAEAEA"/>
<rect x="342.905" y="78.6663" width="2.01117" height="123.9" fill="#EAEAEA"/>
<rect x="342.905" y="-0.000244141" width="2.01117" height="9.83332" fill="#EAEAEA"/>
<rect x="342.905" y="350.067" width="2.01117" height="405.133" fill="#EAEAEA"/>
<rect x="218.212" y="78.6663" width="2.01117" height="123.9" fill="#EAEAEA"/>
<rect x="218.212" y="-0.000244141" width="2.01117" height="9.83332" fill="#EAEAEA"/>
<rect x="218.212" y="350.067" width="2.01117" height="405.133" fill="#EAEAEA"/>
<rect x="377.095" y="200.6" width="1.96668" height="377.095" transform="rotate(90 377.095 200.6)" fill="#EAEAEA"/>
<rect x="377.095" y="78.6665" width="1.96668" height="377.095" transform="rotate(90 377.095 78.6665)" fill="#EAEAEA"/>
<path fill-rule="evenodd" clip-rule="evenodd" d="M34.19 138.65V129.8L30.1676 129.8V138.65H21.1173V142.583H30.1676V151.433H34.19V142.583H43.2402V138.65H34.19Z" fill="#FFAB00"/>
<path fill-rule="evenodd" clip-rule="evenodd" d="M96.5364 592.949V584.099L92.5141 584.099L92.5141 592.949H83.4637V596.882H92.5141L92.514 605.732L96.5364 605.732V596.882H105.587V592.949H96.5364Z" fill="#FFAB00"/>
</svg>
