<svg width="1366" height="464" viewBox="0 0 1366 464" fill="none" xmlns="http://www.w3.org/2000/svg">
<rect x="31" width="2" height="464" fill="#EAEAEA"/>
<rect x="1366" y="338" width="2.00006" height="1366" transform="rotate(90 1366 338)" fill="#EAEAEA"/>
<rect x="1366" y="276" width="2.00006" height="1366" transform="rotate(90 1366 276)" fill="#EAEAEA"/>
<rect x="1366" y="214" width="2.00006" height="1366" transform="rotate(90 1366 214)" fill="#EAEAEA"/>
<rect x="1366" y="152" width="2" height="1366" transform="rotate(90 1366 152)" fill="#EAEAEA"/>
<rect x="1366" y="400" width="2.00006" height="1366" transform="rotate(90 1366 400)" fill="#EAEAEA"/>
<rect x="527" y="338" width="2" height="126" fill="#EAEAEA"/>
<rect x="279" y="338" width="2" height="126" fill="#EAEAEA"/>
<rect x="775" y="90" width="2" height="374" fill="#EAEAEA"/>
<rect x="155" y="90" width="2" height="374" fill="#EAEAEA"/>
<rect x="403" y="338" width="2" height="126" fill="#EAEAEA"/>
<rect x="1023" y="90" width="2" height="374" fill="#EAEAEA"/>
<rect x="899" y="90" width="2" height="374" fill="#EAEAEA"/>
<rect x="1147" y="90" width="2" height="374" fill="#EAEAEA"/>
<rect x="1085" y="90" width="2" height="374" fill="#EAEAEA"/>
<rect x="961" y="90" width="2" height="374" fill="#EAEAEA"/>
<rect x="1271" width="2" height="464" fill="#EAEAEA"/>
<rect x="93" width="2" height="464" fill="#EAEAEA"/>
<rect x="341" y="338" width="2" height="126" fill="#EAEAEA"/>
<rect x="837" y="90" width="2" height="374" fill="#EAEAEA"/>
<rect x="217" y="338" width="2" height="126" fill="#EAEAEA"/>
<rect x="527" y="90" width="2" height="188" fill="#EAEAEA"/>
<rect x="279" y="90" width="2" height="126" fill="#EAEAEA"/>
<rect x="403" y="90" width="2" height="126" fill="#EAEAEA"/>
<rect x="589" y="338" width="2" height="126" fill="#EAEAEA"/>
<rect x="589" y="90" width="2" height="188" fill="#EAEAEA"/>
<rect x="341" y="90" width="2" height="126" fill="#EAEAEA"/>
<rect x="217" y="90" width="2" height="126" fill="#EAEAEA"/>
<rect x="465" y="90" width="2" height="126" fill="#EAEAEA"/>
<rect x="651" y="90" width="2" height="372" fill="#EAEAEA"/>
<rect x="713" y="90" width="2" height="374" fill="#EAEAEA"/>
<rect x="465" y="338" width="2" height="126" fill="#EAEAEA"/>
<rect x="1209" y="90" width="2" height="374" fill="#EAEAEA"/>
<rect x="1333" width="2" height="464" fill="#EAEAEA"/>
<rect x="1366" y="90" width="2" height="1366" transform="rotate(90 1366 90)" fill="#EAEAEA"/>
<rect x="1366" y="28" width="2" height="95" transform="rotate(90 1366 28)" fill="#EAEAEA"/>
<rect x="95" y="28" width="2" height="95" transform="rotate(90 95 28)" fill="#EAEAEA"/>
<path fill-rule="evenodd" clip-rule="evenodd" d="M96 399V390H92V399H83V403H92V412H96V403H105V399H96Z" fill="#FFAB00"/>
<path fill-rule="evenodd" clip-rule="evenodd" d="M654 213V204H650V213H641V217H650V226H654V217H663V213H654Z" fill="#FFAB00"/>
<rect x="1366" y="462" width="2.00006" height="1366" transform="rotate(90 1366 462)" fill="#EAEAEA"/>
</svg>
