<svg width="275" height="232" viewBox="0 0 275 232" fill="none" xmlns="http://www.w3.org/2000/svg">
<rect x="22.7334" width="1.46667" height="232" fill="#EFEFEF"/>
<rect x="275" y="32.9907" width="1.06422" height="275" transform="rotate(90 275 32.9907)" fill="#EFEFEF"/>
<rect x="275" width="1.06422" height="275" transform="rotate(90 275 0)" fill="#EFEFEF"/>
<rect x="275" y="98.9724" width="1.06425" height="275" transform="rotate(90 275 98.9724)" fill="#EFEFEF"/>
<rect x="24.2" y="131.963" width="1.06422" height="24.2" transform="rotate(90 24.2 131.963)" fill="#EFEFEF"/>
<rect x="24.2" y="164.954" width="1.06422" height="24.2" transform="rotate(90 24.2 164.954)" fill="#EFEFEF"/>
<rect x="275" y="131.963" width="1.06422" height="24.9333" transform="rotate(90 275 131.963)" fill="#EFEFEF"/>
<rect x="275" y="164.954" width="1.06422" height="24.9333" transform="rotate(90 275 164.954)" fill="#EFEFEF"/>
<rect x="275" y="197.945" width="1.06425" height="275" transform="rotate(90 275 197.945)" fill="#EFEFEF"/>
<rect x="275" y="230.936" width="1.06425" height="275" transform="rotate(90 275 230.936)" fill="#EFEFEF"/>
<rect x="275" y="65.9817" width="1.06422" height="24.9333" transform="rotate(90 275 65.9817)" fill="#EFEFEF"/>
<rect x="24.2" y="65.9817" width="1.06422" height="24.2" transform="rotate(90 24.2 65.9817)" fill="#EFEFEF"/>
<rect x="204.6" width="1.46667" height="34.055" fill="#EFEFEF"/>
<rect x="204.6" y="197.945" width="1.46667" height="34.055" fill="#EFEFEF"/>
<rect x="113.667" width="1.46667" height="34.055" fill="#EFEFEF"/>
<rect x="113.667" y="197.945" width="1.46667" height="34.055" fill="#EFEFEF"/>
<rect x="68.2" width="1.46667" height="34.055" fill="#EFEFEF"/>
<rect x="68.2" y="197.945" width="1.46667" height="34.055" fill="#EFEFEF"/>
<rect x="250.067" width="1.46667" height="232" fill="#EFEFEF"/>
<rect x="159.133" width="1.46667" height="34.055" fill="#EFEFEF"/>
<rect x="159.133" y="197.945" width="1.46667" height="34.055" fill="#EFEFEF"/>
</svg>
