<svg width="375" height="436" viewBox="0 0 375 436" fill="none" xmlns="http://www.w3.org/2000/svg">
<rect x="31" width="2" height="436" fill="#EFEFEF"/>
<rect x="375" y="62" width="2" height="375" transform="rotate(90 375 62)" fill="#EFEFEF"/>
<rect x="375" width="2" height="375" transform="rotate(90 375 0)" fill="#EFEFEF"/>
<rect x="375" y="186" width="2.00007" height="375" transform="rotate(90 375 186)" fill="#EFEFEF"/>
<rect x="33" y="248" width="2.00001" height="33" transform="rotate(90 33 248)" fill="#EFEFEF"/>
<rect x="33" y="310" width="2.00001" height="33" transform="rotate(90 33 310)" fill="#EFEFEF"/>
<rect x="375" y="248" width="2.00001" height="34" transform="rotate(90 375 248)" fill="#EFEFEF"/>
<rect x="375" y="310" width="2.00001" height="34" transform="rotate(90 375 310)" fill="#EFEFEF"/>
<rect x="375" y="372" width="2.00007" height="375" transform="rotate(90 375 372)" fill="#EFEFEF"/>
<rect x="375" y="434" width="2.00007" height="375" transform="rotate(90 375 434)" fill="#EFEFEF"/>
<rect x="375" y="124" width="2.00001" height="34" transform="rotate(90 375 124)" fill="#EFEFEF"/>
<rect x="33" y="124" width="2.00001" height="33" transform="rotate(90 33 124)" fill="#EFEFEF"/>
<rect x="279" width="2" height="64" fill="#EFEFEF"/>
<rect x="279" y="372" width="2" height="64" fill="#EFEFEF"/>
<rect x="155" width="2" height="64" fill="#EFEFEF"/>
<rect x="155" y="372" width="2" height="64" fill="#EFEFEF"/>
<rect x="93" width="2" height="64" fill="#EFEFEF"/>
<rect x="93" y="372" width="2" height="64" fill="#EFEFEF"/>
<rect x="341" width="2" height="436" fill="#EFEFEF"/>
<rect x="217" width="2" height="64" fill="#EFEFEF"/>
<rect x="217" y="372" width="2" height="64" fill="#EFEFEF"/>
</svg>
