<svg width="600" height="580" viewBox="0 0 613 600" fill="none" xmlns="http://www.w3.org/2000/svg">
<g clip-path="url(#clip0)">
<path d="M624.651 72.5533L374.231 5.45332C364.566 2.8637 354.632 8.59909 352.042 18.2637L230.454 472.038C227.864 481.702 233.6 491.636 243.264 494.226L493.685 561.326C503.349 563.915 513.283 558.18 515.873 548.515L637.461 94.7415C640.051 85.0769 634.316 75.1429 624.651 72.5533Z" fill="white"/>
<path d="M445.42 70.4477L368.785 49.9135C365.452 49.0205 362.027 50.9982 361.134 54.3309C360.241 57.6635 362.219 61.089 365.551 61.982L442.186 82.5162C445.519 83.4091 448.944 81.4314 449.837 78.0988C450.73 74.7662 448.752 71.3407 445.42 70.4477Z" fill="#EAEAEA"/>
<path d="M594.419 149.176L362.101 86.9268C357.102 85.5873 351.964 88.5539 350.624 93.5528L319.58 209.41C318.241 214.409 321.208 219.547 326.207 220.887L558.524 283.136C563.523 284.475 568.662 281.509 570.001 276.51L601.045 160.653C602.384 155.654 599.418 150.516 594.419 149.176Z" fill="#EAEAEA"/>
<path d="M514.463 281.032L320.764 229.131C317.432 228.238 314.006 230.215 313.113 233.548C312.22 236.88 314.198 240.306 317.53 241.199L511.229 293.1C514.562 293.993 517.987 292.016 518.88 288.683C519.773 285.35 517.795 281.925 514.463 281.032Z" fill="#EAEAEA"/>
<path d="M412.86 276.443L315.105 250.25C311.772 249.357 308.347 251.334 307.454 254.667C306.561 258 308.539 261.425 311.871 262.318L409.626 288.511C412.958 289.404 416.384 287.427 417.277 284.094C418.17 280.761 416.192 277.336 412.86 276.443Z" fill="#EAEAEA"/>
<path d="M535.618 257.596C545.949 260.364 556.568 254.233 559.336 243.902C562.104 233.571 555.973 222.952 545.642 220.184C535.311 217.415 524.692 223.546 521.924 233.877C519.155 244.209 525.286 254.828 535.618 257.596Z" fill="#909090"/>
<path d="M531.276 242.419C532.547 242.079 533.886 242.079 535.157 242.42C536.427 242.76 537.587 243.429 538.517 244.359C539.788 244.019 541.127 244.019 542.398 244.36C543.669 244.7 544.828 245.369 545.758 246.3" stroke="#EAEAEA" stroke-width="2.66667" stroke-linecap="round" stroke-linejoin="round"/>
<path d="M534.079 231.96C535.35 231.619 536.688 231.62 537.959 231.96C539.23 232.301 540.389 232.97 541.32 233.9C542.591 233.56 543.929 233.56 545.2 233.901C546.471 234.241 547.631 234.91 548.561 235.84" stroke="#EAEAEA" stroke-width="2.66667" stroke-linecap="round" stroke-linejoin="round"/>
<path d="M534.079 231.961L531.276 242.42" stroke="#EAEAEA" stroke-width="2.66667" stroke-linecap="round" stroke-linejoin="round"/>
<path d="M541.32 233.901L538.517 244.36" stroke="#EAEAEA" stroke-width="2.66667" stroke-linecap="round" stroke-linejoin="round"/>
<path d="M548.561 235.841L545.758 246.3" stroke="#EAEAEA" stroke-width="2.66667" stroke-linecap="round" stroke-linejoin="round"/>
<path d="M537.505 361.582L305.187 299.332C300.188 297.993 295.05 300.959 293.711 305.958L262.667 421.816C261.327 426.814 264.294 431.953 269.293 433.292L501.611 495.542C506.61 496.881 511.748 493.914 513.087 488.916L544.131 373.058C545.471 368.059 542.504 362.921 537.505 361.582Z" fill="#EAEAEA"/>
<path d="M457.549 493.436L263.85 441.535C260.518 440.642 257.092 442.619 256.199 445.952C255.306 449.285 257.284 452.71 260.617 453.603L454.315 505.504C457.648 506.397 461.074 504.42 461.966 501.087C462.859 497.754 460.882 494.329 457.549 493.436Z" fill="#EAEAEA"/>
<path d="M355.946 488.847L258.191 462.654C254.859 461.761 251.433 463.739 250.54 467.071C249.647 470.404 251.625 473.829 254.958 474.722L352.712 500.916C356.045 501.809 359.47 499.831 360.363 496.498C361.256 493.166 359.278 489.74 355.946 488.847Z" fill="#EAEAEA"/>
<path d="M478.704 470C489.035 472.768 499.654 466.637 502.422 456.306C505.19 445.975 499.059 435.356 488.728 432.588C478.397 429.82 467.778 435.951 465.01 446.282C462.242 456.613 468.373 467.232 478.704 470Z" fill="#909090"/>
<path d="M474.363 454.825C475.633 454.484 476.972 454.485 478.243 454.825C479.514 455.166 480.673 455.835 481.604 456.765C482.875 456.425 484.213 456.425 485.484 456.766C486.755 457.106 487.914 457.775 488.845 458.705" stroke="#EAEAEA" stroke-width="2.66667" stroke-linecap="round" stroke-linejoin="round"/>
<path d="M477.165 444.366C478.436 444.025 479.775 444.026 481.045 444.366C482.316 444.707 483.476 445.376 484.406 446.306C485.677 445.965 487.016 445.966 488.286 446.306C489.557 446.647 490.717 447.316 491.647 448.246" stroke="#EAEAEA" stroke-width="2.66667" stroke-linecap="round" stroke-linejoin="round"/>
<path d="M477.165 444.365L474.363 454.824" stroke="#EAEAEA" stroke-width="2.66667" stroke-linecap="round" stroke-linejoin="round"/>
<path d="M484.406 446.305L481.604 456.764" stroke="#EAEAEA" stroke-width="2.66667" stroke-linecap="round" stroke-linejoin="round"/>
<path d="M491.647 448.245L488.845 458.705" stroke="#EAEAEA" stroke-width="2.66667" stroke-linecap="round" stroke-linejoin="round"/>
<path d="M624.651 72.5533L374.231 5.45332C364.566 2.8637 354.632 8.59909 352.042 18.2637L230.454 472.038C227.864 481.702 233.6 491.636 243.264 494.226L493.685 561.326C503.349 563.915 513.283 558.18 515.873 548.515L637.461 94.7415C640.051 85.0769 634.316 75.1429 624.651 72.5533Z" stroke="#EAEAEA" stroke-width="2"/>
</g>
<path d="M268.685 89.4535L18.2644 156.554C8.59982 159.143 2.86443 169.077 5.45405 178.742L127.042 632.516C129.632 642.18 139.566 647.916 149.231 645.326L399.651 578.226C409.316 575.636 415.051 565.703 412.461 556.038L290.873 102.264C288.283 92.5993 278.35 86.8639 268.685 89.4535Z" fill="white"/>
<path d="M112.413 177.246L35.7784 197.78C32.4458 198.673 30.468 202.099 31.361 205.431C32.254 208.764 35.6795 210.742 39.0121 209.849L115.647 189.314C118.979 188.421 120.957 184.996 120.064 181.663C119.171 178.331 115.746 176.353 112.413 177.246Z" fill="#EAEAEA"/>
<path d="M102.805 218.625L48.4967 233.177C43.4977 234.516 40.5312 239.654 41.8706 244.653L51.5718 280.859C52.9113 285.857 58.0495 288.824 63.0485 287.485L117.357 272.933C122.355 271.593 125.322 266.455 123.983 261.456L114.281 225.251C112.942 220.252 107.804 217.285 102.805 218.625Z" fill="#EAEAEA"/>
<path d="M77.2077 245.776C76.2711 245.496 75.3907 246.352 75.6437 247.296L79.337 261.079C79.59 262.024 80.7802 262.324 81.4517 261.614L90.8039 251.722C91.4433 251.045 91.1452 249.933 90.2532 249.667L77.2077 245.776Z" fill="#909090"/>
<path d="M283.832 170.119L126.942 212.158C123.609 213.051 121.631 216.476 122.524 219.809C123.417 223.141 126.843 225.119 130.175 224.226L287.065 182.187C290.398 181.295 292.376 177.869 291.483 174.536C290.59 171.204 287.164 169.226 283.832 170.119Z" fill="#EAEAEA"/>
<path d="M206.617 210.211L131.792 230.261C128.46 231.154 126.482 234.579 127.375 237.912C128.268 241.244 131.693 243.222 135.026 242.329L209.85 222.28C213.183 221.387 215.161 217.961 214.268 214.629C213.375 211.296 209.949 209.318 206.617 210.211Z" fill="#EAEAEA"/>
<path d="M299.784 217.585L136.859 261.24C135.193 261.686 134.204 263.399 134.651 265.065C135.097 266.732 136.81 267.721 138.476 267.274L301.4 223.619C303.067 223.172 304.056 221.459 303.609 219.793C303.163 218.127 301.45 217.138 299.784 217.585Z" fill="#EAEAEA"/>
<path d="M262.371 227.609L136.859 261.24C135.193 261.686 134.204 263.399 134.651 265.065C135.097 266.732 136.81 267.721 138.476 267.274L263.988 233.643C265.655 233.197 266.643 231.484 266.197 229.818C265.75 228.151 264.038 227.163 262.371 227.609Z" fill="#909090"/>
<path d="M127.058 309.139L72.7496 323.691C67.7507 325.03 64.7841 330.168 66.1236 335.167L75.8248 371.373C77.1643 376.372 82.3025 379.338 87.3014 377.999L141.61 363.447C146.608 362.107 149.575 356.969 148.236 351.97L138.534 315.765C137.195 310.766 132.057 307.799 127.058 309.139Z" fill="#EAEAEA"/>
<path d="M101.461 336.29C100.524 336.011 99.6437 336.866 99.8968 337.81L103.59 351.594C103.843 352.538 105.033 352.839 105.705 352.129L115.057 342.236C115.696 341.56 115.398 340.447 114.506 340.181L101.461 336.29Z" fill="#909090"/>
<path d="M308.085 260.632L151.195 302.67C147.862 303.563 145.884 306.989 146.777 310.321C147.67 313.654 151.096 315.632 154.428 314.739L311.318 272.7C314.651 271.807 316.629 268.382 315.736 265.049C314.843 261.716 311.417 259.739 308.085 260.632Z" fill="#EAEAEA"/>
<path d="M230.87 300.724L156.045 320.774C152.713 321.666 150.735 325.092 151.628 328.425C152.521 331.757 155.946 333.735 159.279 332.842L234.103 312.793C237.436 311.9 239.414 308.474 238.521 305.142C237.628 301.809 234.202 299.831 230.87 300.724Z" fill="#EAEAEA"/>
<path d="M324.037 308.097L161.112 351.753C159.446 352.199 158.457 353.912 158.904 355.578C159.35 357.245 161.063 358.234 162.729 357.787L325.654 314.132C327.32 313.685 328.309 311.972 327.862 310.306C327.416 308.64 325.703 307.651 324.037 308.097Z" fill="#EAEAEA"/>
<path d="M207.576 339.303L161.112 351.753C159.446 352.199 158.457 353.912 158.904 355.578C159.35 357.245 161.063 358.234 162.729 357.787L209.193 345.337C210.859 344.891 211.848 343.178 211.402 341.512C210.955 339.845 209.242 338.856 207.576 339.303Z" fill="#909090"/>
<path d="M151.311 399.652L97.0027 414.204C92.0038 415.543 89.0372 420.681 90.3767 425.68L100.078 461.886C101.417 466.885 106.556 469.851 111.555 468.512L165.863 453.96C170.861 452.62 173.828 447.482 172.489 442.483L162.787 406.278C161.448 401.279 156.31 398.312 151.311 399.652Z" fill="#EAEAEA"/>
<path d="M125.714 426.803C124.777 426.523 123.897 427.379 124.15 428.323L127.843 442.106C128.096 443.051 129.286 443.352 129.958 442.641L139.31 432.749C139.949 432.072 139.651 430.96 138.759 430.694L125.714 426.803Z" fill="#909090"/>
<path d="M332.338 351.146L175.448 393.185C172.115 394.078 170.137 397.503 171.03 400.836C171.923 404.168 175.349 406.146 178.681 405.253L335.571 363.215C338.904 362.322 340.882 358.896 339.989 355.563C339.096 352.231 335.67 350.253 332.338 351.146Z" fill="#EAEAEA"/>
<path d="M255.123 391.239L180.298 411.288C176.966 412.181 174.988 415.606 175.881 418.939C176.774 422.271 180.199 424.249 183.532 423.356L258.356 403.307C261.689 402.414 263.667 398.989 262.774 395.656C261.881 392.323 258.455 390.346 255.123 391.239Z" fill="#EAEAEA"/>
<path d="M348.29 398.612L185.365 442.267C183.699 442.713 182.71 444.426 183.157 446.093C183.603 447.759 185.316 448.748 186.982 448.301L349.906 404.646C351.573 404.199 352.562 402.487 352.115 400.82C351.669 399.154 349.956 398.165 348.29 398.612Z" fill="#EAEAEA"/>
<path d="M273.465 418.661L185.365 442.267C183.699 442.713 182.71 444.426 183.157 446.093C183.603 447.759 185.316 448.748 186.982 448.301L275.082 424.695C276.748 424.249 277.737 422.536 277.291 420.869C276.844 419.203 275.131 418.214 273.465 418.661Z" fill="#909090"/>
<path d="M175.564 490.166L121.256 504.718C116.257 506.057 113.29 511.195 114.63 516.194L124.331 552.4C125.67 557.399 130.809 560.365 135.808 559.026L190.116 544.474C195.114 543.135 198.081 537.996 196.742 532.997L187.04 496.792C185.701 491.793 180.563 488.827 175.564 490.166Z" fill="#EAEAEA"/>
<path d="M149.967 517.317C149.03 517.037 148.15 517.893 148.403 518.837L152.096 532.621C152.349 533.565 153.539 533.866 154.211 533.155L163.563 523.263C164.202 522.587 163.904 521.474 163.012 521.208L149.967 517.317Z" fill="#909090"/>
<path d="M356.591 441.659L199.701 483.697C196.368 484.59 194.39 488.016 195.283 491.348C196.176 494.681 199.602 496.659 202.934 495.766L359.824 453.727C363.157 452.834 365.135 449.409 364.242 446.076C363.349 442.744 359.923 440.766 356.591 441.659Z" fill="#EAEAEA"/>
<path d="M279.376 481.751L204.551 501.8C201.219 502.693 199.241 506.119 200.134 509.451C201.027 512.784 204.452 514.762 207.785 513.869L282.609 493.82C285.942 492.927 287.92 489.501 287.027 486.169C286.134 482.836 282.708 480.858 279.376 481.751Z" fill="#EAEAEA"/>
<path d="M372.543 489.125L209.618 532.78C207.952 533.226 206.963 534.939 207.41 536.605C207.856 538.272 209.569 539.261 211.235 538.814L374.16 495.159C375.826 494.712 376.815 493 376.368 491.333C375.922 489.667 374.209 488.678 372.543 489.125Z" fill="#EAEAEA"/>
<path d="M365.302 491.065L209.618 532.78C207.952 533.226 206.963 534.939 207.41 536.605C207.856 538.272 209.569 539.261 211.235 538.814L366.918 497.099C368.585 496.653 369.574 494.94 369.127 493.273C368.681 491.607 366.968 490.618 365.302 491.065Z" fill="#909090"/>
<path d="M377.826 532.981L145.509 595.23C140.51 596.57 137.543 601.708 138.883 606.707L142.116 618.776C143.456 623.774 148.594 626.741 153.593 625.402L385.911 563.152C390.91 561.813 393.876 556.674 392.537 551.676L389.303 539.607C387.964 534.608 382.825 531.642 377.826 532.981Z" fill="#EAEAEA"/>
<path d="M297.788 567.362L231.411 585.147C229.745 585.594 228.756 587.307 229.203 588.973C229.649 590.639 231.362 591.628 233.028 591.182L299.405 573.396C301.071 572.95 302.06 571.237 301.613 569.571C301.167 567.904 299.454 566.915 297.788 567.362Z" fill="#909090"/>
<path d="M268.685 89.4535L18.2644 156.554C8.59982 159.143 2.86443 169.077 5.45405 178.742L127.042 632.516C129.632 642.18 139.566 647.916 149.231 645.326L399.651 578.226C409.316 575.636 415.051 565.703 412.461 556.038L290.873 102.264C288.283 92.5993 278.35 86.8639 268.685 89.4535Z" stroke="#EAEAEA" stroke-width="2"/>
<defs>
<clipPath id="clip0">
<rect width="296.737" height="507.264" fill="white" transform="translate(356.29) rotate(15)"/>
</clipPath>
</defs>
</svg>
