<svg width="703" height="686" viewBox="0 0 703 686" fill="none" xmlns="http://www.w3.org/2000/svg">
<g filter="url(#filter0_d)">
<circle cx="479.442" cy="613.315" r="352.5" transform="rotate(-15 479.442 613.315)" fill="url(#paint0_radial)"/>
</g>
<g clip-path="url(#clip0)">
<path d="M715.823 139.651L466.024 72.7176C456.384 70.1344 446.47 75.8709 443.882 85.5304L322.357 539.068C319.769 548.728 325.486 558.653 335.126 561.236L584.925 628.169C594.565 630.752 604.479 625.016 607.067 615.356L728.592 161.818C731.18 152.159 725.463 142.234 715.823 139.651Z" fill="white"/>
<path d="M537.014 137.634L460.57 117.151C457.246 116.26 453.827 118.238 452.935 121.569C452.042 124.9 454.014 128.322 457.338 129.213L533.782 149.696C537.107 150.587 540.525 148.609 541.418 145.278C542.31 141.947 540.339 138.525 537.014 137.634Z" fill="#EAEAEA"/>
<path d="M685.624 216.238L453.883 154.143C448.897 152.807 443.769 155.774 442.43 160.771L411.403 276.568C410.064 281.564 413.021 286.697 418.008 288.034L649.748 350.128C654.735 351.464 659.863 348.497 661.201 343.501L692.229 227.704C693.568 222.708 690.611 217.574 685.624 216.238Z" fill="#EAEAEA"/>
<path d="M605.792 348.047L412.574 296.275C409.25 295.384 405.831 297.362 404.939 300.693C404.046 304.024 406.018 307.446 409.342 308.337L602.56 360.109C605.884 361 609.302 359.022 610.195 355.691C611.087 352.36 609.116 348.938 605.792 348.047Z" fill="#EAEAEA"/>
<path d="M504.429 343.511L406.918 317.383C403.593 316.492 400.175 318.47 399.282 321.801C398.39 325.132 400.361 328.555 403.686 329.445L501.197 355.573C504.522 356.464 507.94 354.486 508.833 351.155C509.725 347.824 507.754 344.402 504.429 343.511Z" fill="#EAEAEA"/>
<path d="M626.908 324.616C637.213 327.378 647.81 321.245 650.577 310.92C653.344 300.594 647.233 289.985 636.927 287.223C626.622 284.462 616.025 290.594 613.258 300.92C610.491 311.246 616.602 321.855 626.908 324.616Z" fill="#909090"/>
<path d="M622.584 309.452C623.852 309.111 625.188 309.11 626.455 309.45C627.723 309.79 628.879 310.458 629.807 311.388C631.075 311.046 632.411 311.046 633.678 311.386C634.946 311.725 636.102 312.393 637.03 313.323" stroke="#EAEAEA" stroke-width="2.66667" stroke-linecap="round" stroke-linejoin="round"/>
<path d="M625.386 298.998C626.654 298.657 627.989 298.657 629.257 298.996C630.525 299.336 631.681 300.004 632.609 300.934C633.877 300.592 635.213 300.592 636.48 300.932C637.748 301.271 638.904 301.94 639.832 302.869" stroke="#EAEAEA" stroke-width="2.66667" stroke-linecap="round" stroke-linejoin="round"/>
<path d="M625.386 298.999L622.585 309.452" stroke="#EAEAEA" stroke-width="2.66667" stroke-linecap="round" stroke-linejoin="round"/>
<path d="M632.608 300.934L629.807 311.388" stroke="#EAEAEA" stroke-width="2.66667" stroke-linecap="round" stroke-linejoin="round"/>
<path d="M639.831 302.869L637.03 313.323" stroke="#EAEAEA" stroke-width="2.66667" stroke-linecap="round" stroke-linejoin="round"/>
<path d="M628.74 428.533L397 366.439C392.013 365.102 386.885 368.07 385.547 373.066L354.519 488.863C353.18 493.859 356.137 498.993 361.124 500.329L592.865 562.424C597.851 563.76 602.979 560.792 604.318 555.796L635.345 439.999C636.684 435.003 633.727 429.869 628.74 428.533Z" fill="#EAEAEA"/>
<path d="M548.908 560.341L355.69 508.568C352.366 507.678 348.947 509.656 348.055 512.987C347.162 516.317 349.134 519.74 352.458 520.631L545.676 572.403C549 573.294 552.419 571.316 553.311 567.985C554.204 564.654 552.232 561.232 548.908 560.341Z" fill="#EAEAEA"/>
<path d="M447.546 555.805L350.034 529.677C346.71 528.786 343.291 530.764 342.399 534.095C341.506 537.426 343.478 540.848 346.802 541.739L444.314 567.867C447.638 568.758 451.056 566.78 451.949 563.449C452.841 560.118 450.87 556.696 447.546 555.805Z" fill="#EAEAEA"/>
<path d="M570.024 536.91C580.33 539.671 590.927 533.539 593.693 523.213C596.46 512.888 590.349 502.279 580.043 499.517C569.738 496.756 559.141 502.888 556.374 513.214C553.607 523.539 559.719 534.149 570.024 536.91Z" fill="#909090"/>
<path d="M565.7 521.747C566.968 521.406 568.304 521.406 569.572 521.745C570.839 522.085 571.996 522.753 572.923 523.683C574.191 523.341 575.527 523.341 576.795 523.681C578.062 524.02 579.219 524.689 580.146 525.618" stroke="#EAEAEA" stroke-width="2.66667" stroke-linecap="round" stroke-linejoin="round"/>
<path d="M568.501 511.293C569.769 510.952 571.105 510.952 572.372 511.291C573.64 511.631 574.796 512.299 575.724 513.229C576.992 512.888 578.328 512.887 579.595 513.227C580.863 513.567 582.019 514.235 582.947 515.164" stroke="#EAEAEA" stroke-width="2.66667" stroke-linecap="round" stroke-linejoin="round"/>
<path d="M568.501 511.292L565.7 521.746" stroke="#EAEAEA" stroke-width="2.66667" stroke-linecap="round" stroke-linejoin="round"/>
<path d="M575.725 513.228L572.924 523.681" stroke="#EAEAEA" stroke-width="2.66667" stroke-linecap="round" stroke-linejoin="round"/>
<path d="M582.947 515.163L580.146 525.617" stroke="#EAEAEA" stroke-width="2.66667" stroke-linecap="round" stroke-linejoin="round"/>
<path d="M715.823 139.651L466.024 72.7176C456.384 70.1344 446.47 75.8709 443.882 85.5304L322.357 539.068C319.769 548.728 325.486 558.653 335.126 561.236L584.925 628.169C594.565 630.752 604.479 625.016 607.067 615.356L728.592 161.818C731.18 152.159 725.463 142.234 715.823 139.651Z" stroke="#EAEAEA" stroke-width="2"/>
</g>
<path d="M389.591 213.056L139.793 279.99C130.152 282.573 124.435 292.498 127.023 302.157L248.548 755.695C251.137 765.355 261.05 771.091 270.691 768.508L520.489 701.575C530.13 698.991 535.847 689.067 533.259 679.407L411.734 225.869C409.145 216.21 399.232 210.473 389.591 213.056Z" fill="white"/>
<path d="M233.73 300.714L157.286 321.198C153.962 322.088 151.99 325.511 152.883 328.842C153.775 332.173 157.194 334.151 160.518 333.26L236.962 312.777C240.287 311.886 242.258 308.464 241.365 305.133C240.473 301.802 237.055 299.824 233.73 300.714Z" fill="#EAEAEA"/>
<path d="M224.165 342.061L169.992 356.577C165.005 357.913 162.048 363.047 163.387 368.043L173.083 404.23C174.422 409.226 179.549 412.193 184.536 410.857L238.709 396.341C243.696 395.005 246.653 389.872 245.314 384.875L235.618 348.689C234.279 343.692 229.151 340.725 224.165 342.061Z" fill="#EAEAEA"/>
<path d="M198.641 369.182C197.706 368.903 196.829 369.757 197.081 370.701L200.773 384.477C201.026 385.421 202.213 385.722 202.883 385.013L212.208 375.131C212.846 374.456 212.548 373.343 211.658 373.077L198.641 369.182Z" fill="#909090"/>
<path d="M404.742 293.676L248.242 335.61C244.918 336.501 242.946 339.923 243.839 343.254C244.731 346.585 248.15 348.563 251.474 347.672L407.974 305.738C411.299 304.848 413.27 301.425 412.377 298.094C411.485 294.764 408.067 292.785 404.742 293.676Z" fill="#EAEAEA"/>
<path d="M327.728 333.705L253.09 353.704C249.765 354.595 247.794 358.017 248.686 361.348C249.579 364.679 252.997 366.657 256.322 365.766L330.96 345.767C334.285 344.876 336.256 341.454 335.363 338.123C334.471 334.792 331.053 332.814 327.728 333.705Z" fill="#EAEAEA"/>
<path d="M420.68 341.119L258.16 384.666C256.498 385.111 255.512 386.822 255.958 388.488C256.405 390.153 258.114 391.142 259.776 390.697L422.296 347.15C423.958 346.704 424.943 344.993 424.497 343.328C424.051 341.662 422.342 340.673 420.68 341.119Z" fill="#EAEAEA"/>
<path d="M383.36 351.118L258.16 384.666C256.498 385.111 255.512 386.822 255.958 388.488C256.405 390.153 258.114 391.142 259.776 390.697L384.976 357.149C386.638 356.704 387.624 354.993 387.178 353.328C386.732 351.662 385.022 350.673 383.36 351.118Z" fill="#909090"/>
<path d="M248.405 432.529L194.232 447.044C189.245 448.38 186.288 453.514 187.627 458.51L197.323 494.697C198.662 499.693 203.79 502.66 208.776 501.324L262.949 486.808C267.936 485.472 270.893 480.339 269.554 475.343L259.858 439.156C258.519 434.16 253.392 431.193 248.405 432.529Z" fill="#EAEAEA"/>
<path d="M222.881 459.649C221.947 459.37 221.069 460.224 221.322 461.168L225.013 474.944C225.266 475.888 226.453 476.189 227.123 475.48L236.448 465.598C237.086 464.923 236.788 463.811 235.898 463.544L222.881 459.649Z" fill="#909090"/>
<path d="M428.982 384.142L272.482 426.076C269.158 426.967 267.186 430.389 268.079 433.72C268.971 437.051 272.39 439.029 275.714 438.138L432.214 396.204C435.539 395.313 437.51 391.891 436.618 388.56C435.725 385.229 432.307 383.251 428.982 384.142Z" fill="#EAEAEA"/>
<path d="M351.968 424.171L277.33 444.17C274.005 445.061 272.034 448.483 272.927 451.814C273.819 455.145 277.238 457.123 280.562 456.232L355.2 436.233C358.525 435.342 360.496 431.92 359.604 428.589C358.711 425.258 355.293 423.28 351.968 424.171Z" fill="#EAEAEA"/>
<path d="M444.92 431.584L282.4 475.131C280.738 475.577 279.752 477.288 280.199 478.953C280.645 480.619 282.354 481.608 284.016 481.162L446.536 437.615C448.198 437.17 449.184 435.459 448.737 433.793C448.291 432.128 446.582 431.139 444.92 431.584Z" fill="#EAEAEA"/>
<path d="M328.748 462.712L282.4 475.131C280.738 475.577 279.752 477.288 280.199 478.953C280.645 480.619 282.354 481.608 284.016 481.162L330.364 468.743C332.027 468.298 333.012 466.587 332.566 464.921C332.12 463.256 330.411 462.267 328.748 462.712Z" fill="#909090"/>
<path d="M272.645 522.994L218.472 537.51C213.486 538.846 210.529 543.98 211.867 548.976L221.564 585.162C222.902 590.159 228.03 593.126 233.016 591.79L287.19 577.274C292.176 575.938 295.133 570.804 293.794 565.808L284.098 529.622C282.76 524.625 277.632 521.658 272.645 522.994Z" fill="#EAEAEA"/>
<path d="M247.122 550.115C246.187 549.835 245.309 550.69 245.562 551.634L249.253 565.41C249.506 566.354 250.694 566.655 251.363 565.945L260.689 556.064C261.326 555.388 261.028 554.276 260.138 554.01L247.122 550.115Z" fill="#909090"/>
<path d="M453.223 474.609L296.722 516.543C293.398 517.434 291.427 520.856 292.319 524.187C293.212 527.518 296.63 529.496 299.954 528.605L456.455 486.671C459.779 485.78 461.75 482.358 460.858 479.027C459.965 475.696 456.547 473.718 453.223 474.609Z" fill="#EAEAEA"/>
<path d="M376.209 514.638L301.57 534.637C298.246 535.528 296.274 538.95 297.167 542.281C298.059 545.612 301.478 547.59 304.802 546.699L379.441 526.7C382.765 525.809 384.736 522.387 383.844 519.056C382.951 515.725 379.533 513.747 376.209 514.638Z" fill="#EAEAEA"/>
<path d="M469.16 522.052L306.64 565.599C304.978 566.044 303.993 567.755 304.439 569.421C304.885 571.086 306.594 572.075 308.257 571.63L470.776 528.083C472.438 527.637 473.424 525.926 472.978 524.261C472.531 522.595 470.822 521.606 469.16 522.052Z" fill="#EAEAEA"/>
<path d="M394.521 542.051L306.64 565.599C304.978 566.044 303.993 567.755 304.439 569.421C304.885 571.086 306.594 572.075 308.257 571.63L396.137 548.082C397.8 547.637 398.785 545.926 398.339 544.26C397.893 542.595 396.184 541.606 394.521 542.051Z" fill="#909090"/>
<path d="M296.886 613.462L242.712 627.977C237.726 629.313 234.769 634.447 236.108 639.443L245.804 675.63C247.143 680.626 252.27 683.593 257.257 682.257L311.43 667.741C316.416 666.405 319.373 661.272 318.035 656.275L308.339 620.089C307 615.093 301.872 612.125 296.886 613.462Z" fill="#EAEAEA"/>
<path d="M271.362 640.582C270.427 640.302 269.549 641.157 269.802 642.101L273.494 655.877C273.746 656.821 274.934 657.122 275.604 656.413L284.929 646.531C285.566 645.855 285.268 644.743 284.378 644.477L271.362 640.582Z" fill="#909090"/>
<path d="M477.463 565.075L320.963 607.009C317.638 607.9 315.667 611.322 316.559 614.653C317.452 617.984 320.87 619.962 324.195 619.071L480.695 577.137C484.019 576.246 485.991 572.824 485.098 569.493C484.206 566.162 480.787 564.184 477.463 565.075Z" fill="#EAEAEA"/>
<path d="M400.45 605.103L325.811 625.103C322.487 625.993 320.516 629.416 321.408 632.747C322.301 636.078 325.719 638.056 329.043 637.165L403.682 617.166C407.006 616.275 408.978 612.852 408.085 609.522C407.193 606.191 403.774 604.213 400.45 605.103Z" fill="#EAEAEA"/>
<path d="M493.401 612.517L330.882 656.064C329.22 656.51 328.234 658.221 328.68 659.886C329.126 661.552 330.836 662.541 332.498 662.095L495.017 618.548C496.679 618.103 497.665 616.392 497.219 614.726C496.773 613.061 495.063 612.072 493.401 612.517Z" fill="#EAEAEA"/>
<path d="M486.178 614.453L330.882 656.064C329.22 656.51 328.234 658.221 328.68 659.886C329.126 661.552 330.836 662.541 332.498 662.095L487.794 620.484C489.456 620.038 490.442 618.327 489.996 616.662C489.55 614.996 487.84 614.007 486.178 614.453Z" fill="#909090"/>
<path d="M498.694 656.348L266.953 718.443C261.966 719.779 259.009 724.912 260.348 729.909L263.58 741.971C264.919 746.967 270.046 749.934 275.033 748.598L506.774 686.503C511.76 685.167 514.717 680.034 513.378 675.038L510.146 662.975C508.808 657.979 503.68 655.012 498.694 656.348Z" fill="#EAEAEA"/>
<path d="M389.591 213.056L139.793 279.99C130.152 282.573 124.435 292.498 127.023 302.157L248.548 755.695C251.137 765.355 261.05 771.091 270.691 768.508L520.489 701.575C530.13 698.991 535.847 689.067 533.259 679.407L411.734 225.869C409.145 216.21 399.232 210.473 389.591 213.056Z" stroke="#EAEAEA" stroke-width="2"/>
<defs>
<filter id="filter0_d" x="6.85449" y="140.728" width="945.175" height="945.175" filterUnits="userSpaceOnUse" color-interpolation-filters="sRGB">
<feFlood flood-opacity="0" result="BackgroundImageFix"/>
<feColorMatrix in="SourceAlpha" type="matrix" values="0 0 0 0 0 0 0 0 0 0 0 0 0 0 0 0 0 0 127 0" result="hardAlpha"/>
<feOffset/>
<feGaussianBlur stdDeviation="60"/>
<feComposite in2="hardAlpha" operator="out"/>
<feColorMatrix type="matrix" values="0 0 0 0 1 0 0 0 0 0.671875 0 0 0 0 0 0 0 0 0.35 0"/>
<feBlend mode="normal" in2="BackgroundImageFix" result="effect1_dropShadow"/>
<feBlend mode="normal" in="SourceGraphic" in2="effect1_dropShadow" result="shape"/>
</filter>
<radialGradient id="paint0_radial" cx="0" cy="0" r="1" gradientUnits="userSpaceOnUse" gradientTransform="translate(479.442 613.315) rotate(90) scale(352.5)">
<stop stop-color="#FFAB00"/>
<stop offset="1" stop-color="#FFAB00"/>
</radialGradient>
<clipPath id="clip0">
<rect width="296" height="507" fill="white" transform="translate(448.128 67.2764) rotate(15)"/>
</clipPath>
</defs>
</svg>
