<svg width="105" height="103" viewBox="0 0 105 103" fill="none" xmlns="http://www.w3.org/2000/svg">
<path d="M47.8208 102.771C47.2874 102.722 46.8398 102.626 46.478 102.482C46.113 102.338 45.8353 102.148 45.645 101.912C45.4513 101.675 45.3215 101.414 45.2555 101.127C45.1892 100.844 45.1736 100.516 45.2086 100.143C45.2437 99.7712 45.3204 99.45 45.4388 99.18C45.5572 98.91 45.7336 98.6763 45.9681 98.4789C46.1989 98.2844 46.5074 98.1476 46.8935 98.0684C47.2759 97.9922 47.7339 97.9784 48.2673 98.0269L49.4676 98.1361L49.6577 96.1161L50.9766 96.2361L50.3399 103L47.8208 102.771ZM47.9136 99.2974C47.4131 99.2519 47.0666 99.2987 46.8742 99.4379C46.6781 99.58 46.5609 99.8551 46.5225 100.263C46.4832 100.681 46.5455 100.972 46.7093 101.137C46.8698 101.302 47.2036 101.407 47.7107 101.453L49.1431 101.584L49.346 99.4277L47.9136 99.2974Z" fill="black"/>
<path d="M38.5163 96.8504L36.5239 96.2859L37.2836 93.6947L38.5515 94.0539L37.9663 96.05L40.5926 96.7941L41.1778 94.7981L42.4505 95.1586L40.5368 101.686L38.2013 101.024C37.6897 100.879 37.2678 100.704 36.9358 100.498C36.6029 100.295 36.3631 100.068 36.2165 99.8172C36.069 99.569 35.986 99.3121 35.9676 99.0463C35.9491 98.7806 35.9852 98.4931 36.0759 98.1838C36.2352 97.6403 36.5064 97.2672 36.8893 97.0644C37.2714 96.8648 37.7986 96.845 38.471 97.005L38.5163 96.8504ZM40.2272 98.0405L39.1643 97.7394C38.5923 97.5773 38.186 97.5367 37.9456 97.6174C37.701 97.7003 37.5191 97.9449 37.4001 98.3509C37.2792 98.7633 37.2985 99.0614 37.458 99.2453C37.6165 99.4323 37.9865 99.6082 38.568 99.773L39.631 100.074L40.2272 98.0405Z" fill="black"/>
<path d="M29.6591 90.7087C30.2588 90.6762 30.8634 90.8167 31.4727 91.1304C32.0821 91.4441 32.5439 91.8525 32.8583 92.3556C33.1711 92.8616 33.325 93.3995 33.3201 93.9695C33.3136 94.5423 33.16 95.1109 32.8593 95.6754C32.6353 96.0958 32.3571 96.4535 32.0245 96.7484C31.692 97.0433 31.3291 97.2619 30.9359 97.4045C30.5382 97.5484 30.109 97.6008 29.6482 97.5618C29.1845 97.5212 28.7241 97.3833 28.2671 97.1481C27.8101 96.9128 27.434 96.6201 27.139 96.2701C26.841 95.9185 26.6403 95.5418 26.537 95.14C26.4293 94.7396 26.404 94.3211 26.4612 93.8844C26.5183 93.4478 26.6589 93.0193 26.8828 92.5988C27.1835 92.0343 27.5715 91.5863 28.0467 91.2548C28.5204 90.9262 29.0579 90.7442 29.6591 90.7087ZM30.8606 92.2795C29.6477 91.6551 28.7114 91.9621 28.0518 93.2005C27.3921 94.4389 27.6687 95.3703 28.8815 95.9946C30.0915 96.6175 31.0263 96.3097 31.686 95.0714C32.3457 93.833 32.0705 92.9024 30.8606 92.2795Z" fill="black"/>
<path d="M18.7442 89.2441L21.2688 91.2315L22.3788 89.8688L20.3228 88.2503L21.1476 87.2378L23.2036 88.8563L24.7601 86.9455L25.7901 87.7563L21.4708 93.0586L17.9163 90.2604L18.7442 89.2441Z" fill="black"/>
<path d="M12.6594 83.0287L14.8704 85.4811L15.9321 84.5561L14.1916 82.6255L15.1828 81.762L16.9233 83.6925L18.063 82.6996L15.8521 80.2472L16.8396 79.3868L19.8599 82.737L14.6885 87.2424L11.6682 83.8922L12.6594 83.0287Z" fill="black"/>
<path d="M14.1734 77.4148L12.9618 78.1309C12.9925 77.5817 12.9398 77.0287 12.8038 76.4718C12.666 75.9122 12.4753 75.4331 12.2316 75.0347C12.1294 74.8675 12.0414 74.7299 11.9675 74.6218C11.8892 74.5126 11.8063 74.4118 11.7189 74.3193C11.6297 74.224 11.5466 74.1575 11.4694 74.1196C11.3905 74.079 11.306 74.0607 11.2158 74.0647C11.1257 74.0686 11.0324 74.0991 10.936 74.1561C10.7348 74.275 10.6377 74.4538 10.6447 74.6924C10.6523 74.8814 10.7462 75.2431 10.9265 75.7776C10.935 75.8105 10.9515 75.8596 10.9759 75.9248C11.0175 76.0558 11.0507 76.1575 11.0757 76.23C11.3732 77.1201 11.4895 77.8024 11.4247 78.2769C11.3554 78.7503 11.0812 79.1285 10.6022 79.4116C10.0552 79.7349 9.52781 79.7811 9.02 79.5502C8.5122 79.3192 8.04785 78.8597 7.62697 78.1715C7.41568 77.826 7.23326 77.4236 7.07971 76.9644C6.92446 76.5023 6.83135 76.0851 6.80039 75.7127L7.94825 75.0343C8.04683 75.5488 8.17602 76.0376 8.33581 76.5008C8.4956 76.964 8.66069 77.3349 8.83109 77.6135C8.90777 77.7389 8.97535 77.8431 9.03384 77.9261C9.09234 78.0091 9.15876 78.0893 9.23313 78.1668C9.30466 78.2459 9.37362 78.3018 9.44001 78.3347C9.50356 78.3692 9.5739 78.3864 9.65104 78.3863C9.72817 78.3863 9.80641 78.3628 9.88577 78.3159C9.95379 78.2757 10.0079 78.2285 10.0481 78.1744C10.0855 78.122 10.1093 78.0567 10.1194 77.9786C10.1296 77.9006 10.1306 77.8203 10.1226 77.7378C10.1146 77.6553 10.0944 77.5496 10.0619 77.4209C10.0266 77.2938 9.99022 77.1712 9.95268 77.053C9.91514 76.9349 9.86538 76.7841 9.8034 76.6007C9.80112 76.5907 9.79828 76.5829 9.79487 76.5773C9.70786 76.3215 9.63705 76.1016 9.58244 75.9176C9.52612 75.7309 9.47462 75.5395 9.42794 75.3433C9.37955 75.1443 9.34962 74.9723 9.33814 74.8273C9.32213 74.6813 9.31718 74.5344 9.32328 74.3866C9.32485 74.2378 9.34713 74.107 9.39013 73.9943C9.43143 73.8789 9.48776 73.7659 9.55912 73.6555C9.62878 73.5423 9.71914 73.4376 9.83022 73.3416C9.93846 73.2473 10.0677 73.1558 10.2179 73.067C10.6119 72.8342 11.002 72.7402 11.3882 72.785C11.7717 72.8315 12.1254 72.9903 12.4495 73.2616C12.7719 73.53 13.0762 73.8983 13.3625 74.3664C13.6249 74.7954 13.8389 75.3062 14.0045 75.8987C14.1672 76.4929 14.2235 76.9983 14.1734 77.4148Z" fill="black"/>
<path d="M9.71482 69.5196L8.3839 69.9883C8.52352 69.4557 8.58214 68.9033 8.55977 68.331C8.53629 67.7557 8.4448 67.2492 8.28531 66.8115C8.21839 66.6279 8.15951 66.476 8.10867 66.3557C8.05361 66.2336 7.99243 66.1187 7.92514 66.0112C7.85674 65.9006 7.78847 65.8193 7.72035 65.7673C7.65111 65.7123 7.57188 65.678 7.48267 65.6645C7.39345 65.6511 7.29592 65.663 7.19006 65.7003C6.96902 65.7781 6.83815 65.9347 6.79746 66.17C6.76716 66.3568 6.78711 66.7296 6.8573 67.2885C6.85911 67.3224 6.8655 67.3737 6.87647 67.4423C6.89106 67.5788 6.9034 67.685 6.91349 67.7608C7.02765 68.691 7.00564 69.3825 6.84748 69.8353C6.6851 70.2862 6.34083 70.6042 5.81469 70.7895C5.21383 71.0011 4.68745 70.9448 4.23554 70.6205C3.78364 70.2962 3.41994 69.756 3.14446 69.0001C3.00616 68.6206 2.90752 68.1909 2.84854 67.7109C2.78844 67.2279 2.78034 66.8009 2.82424 66.4297L4.08511 65.9857C4.07918 66.5092 4.10838 67.0134 4.17271 67.4984C4.23703 67.9834 4.32496 68.3789 4.43649 68.6849C4.48668 68.8227 4.53218 68.9379 4.57298 69.0306C4.61378 69.1232 4.66292 69.2147 4.72041 69.305C4.77478 69.3963 4.83124 69.4645 4.88979 69.5095C4.94522 69.5556 5.01077 69.586 5.08641 69.6008C5.16206 69.6156 5.24347 69.6077 5.33065 69.577C5.40536 69.5507 5.46784 69.5148 5.51807 69.4695C5.56518 69.4253 5.6015 69.3659 5.627 69.2913C5.65251 69.2167 5.66956 69.1382 5.67816 69.0557C5.68675 68.9733 5.68798 68.8658 5.68184 68.7333C5.67259 68.6019 5.66134 68.4746 5.64809 68.3515C5.63484 68.2284 5.61611 68.071 5.5919 67.8792C5.59166 67.8689 5.59043 67.8607 5.5882 67.8546C5.5539 67.587 5.52831 67.3577 5.51144 67.1668C5.49345 66.9729 5.48113 66.7752 5.47448 66.5738C5.46671 66.3693 5.47165 66.1949 5.48931 66.0506C5.50273 65.9043 5.52717 65.7593 5.56262 65.6155C5.59384 65.4699 5.64177 65.3459 5.7064 65.2438C5.76992 65.1385 5.84767 65.0386 5.93968 64.9441C6.03056 64.8464 6.14004 64.7613 6.2681 64.6885C6.39305 64.6169 6.53802 64.552 6.70302 64.4939C7.13577 64.3415 7.53706 64.3245 7.9069 64.4429C8.27362 64.5624 8.58884 64.7864 8.85255 65.1148C9.11515 65.4401 9.34013 65.8599 9.5275 66.3741C9.69926 66.8454 9.80725 67.3875 9.85146 68.0004C9.89255 68.6144 9.84701 69.1208 9.71482 69.5196Z" fill="black"/>
<path d="M7.86521 60.6114L1.08156 61.9045L0.829428 60.6263L7.61307 59.3332L7.86521 60.6114Z" fill="black"/>
<path d="M6.39341 51.0558C6.71635 51.5536 6.88817 52.1404 6.90887 52.8163C6.92958 53.4922 6.79398 54.0882 6.5021 54.6042C6.20691 55.1203 5.80546 55.516 5.29776 55.7912C4.78676 56.0665 4.20731 56.2138 3.55943 56.2329C3.07683 56.2472 2.62329 56.1842 2.19881 56.0439C1.77433 55.9036 1.4025 55.7 1.08332 55.4329C0.760738 55.1628 0.503777 54.8208 0.31244 54.4069C0.121004 53.9897 0.0175221 53.5277 0.00199576 53.0208C-0.0135306 52.5139 0.0615357 52.0482 0.227195 51.6237C0.392754 51.196 0.628316 50.8394 0.93388 50.5539C1.23604 50.2652 1.59468 50.0383 2.0098 49.8732C2.42493 49.708 2.87379 49.6183 3.3564 49.604C4.00428 49.5849 4.59168 49.6976 5.11861 49.9422C5.64223 50.1869 6.06717 50.5581 6.39341 51.0558ZM5.58997 52.8554C5.54877 51.5101 4.81748 50.8585 3.39611 50.9006C1.97474 50.9426 1.28465 51.6363 1.32586 52.9816C1.36696 54.3236 2.0982 54.9736 3.51957 54.9315C4.94094 54.8894 5.63108 54.1974 5.58997 52.8554Z" fill="black"/>
<path d="M1.07475 40.7223L1.31273 39.4415L8.11028 40.662L7.8723 41.9428L3.05615 44.0622L3.02763 44.2157L7.30721 44.9842L7.06923 46.265L0.271679 45.0444L0.509659 43.7636L5.3258 41.6442L5.35433 41.4907L1.07475 40.7223Z" fill="black"/>
<path d="M10.8826 32.891L9.51087 32.7628L8.50941 35.1788L9.58348 36.025L9.04999 37.312L3.44828 32.8249L4.21949 30.9644L11.4104 31.6175L10.8826 32.891ZM7.43722 34.328L8.13918 32.6346L5.20794 32.3661L5.14617 32.5151L7.43722 34.328Z" fill="black"/>
<path d="M12.6196 26.9829L14.0348 24.8163L15.1451 25.5172L13.0143 28.7793L7.19976 25.1091L7.91537 24.0136L12.6196 26.9829Z" fill="black"/>
<path d="M20.979 9.92635L21.4065 14.0014L25.4044 15.1433L24.1891 16.1395L20.9643 15.2084L20.3014 15.7518L22.09 17.8603L21.0728 18.6942L16.6473 13.4772L17.6645 12.6434L19.4563 14.7556L20.1192 14.2122L19.7637 10.9226L20.979 9.92635Z" fill="black"/>
<path d="M32.0508 8.36448C32.4661 9.11572 32.5472 9.79017 32.2942 10.3878C32.0396 10.9826 31.5026 11.4988 30.6832 11.9366C29.8638 12.3743 29.131 12.5363 28.4848 12.4227C27.837 12.3062 27.3055 11.8724 26.8902 11.1211L24.8037 7.34635L25.963 6.72703L27.9525 10.3262C28.1294 10.6461 28.3044 10.8708 28.4776 11.0003C28.6492 11.1269 28.8588 11.1759 29.1064 11.1472C29.354 11.1185 29.6696 11.0017 30.0532 10.7968C30.4367 10.592 30.7066 10.396 30.8629 10.2089C31.0221 10.0203 31.0944 9.82072 31.0797 9.61028C31.0634 9.39698 30.9668 9.13038 30.79 8.81045L28.8005 5.21133L29.9642 4.58968L32.0508 8.36448Z" fill="black"/>
<path d="M38.5896 5.78154L40.5674 5.16957L41.391 7.74181L40.1324 8.13125L39.4979 6.14974L36.8908 6.95642L37.5252 8.93793L36.2619 9.32883L34.1873 2.84938L36.5058 2.132C37.0137 1.97486 37.4638 1.89183 37.8562 1.88289C38.2475 1.87086 38.575 1.92973 38.8384 2.05953C39.1008 2.18622 39.3145 2.35529 39.4792 2.56673C39.644 2.77818 39.7755 3.0374 39.8738 3.34439C40.0466 3.88396 40.0304 4.34226 39.8252 4.71929C39.619 5.09323 39.1908 5.39614 38.5404 5.62804L38.5896 5.78154ZM36.4946 5.71914L37.5498 5.39266C38.1176 5.21697 38.479 5.03017 38.6341 4.83223C38.7913 4.63023 38.8053 4.32766 38.6763 3.92454C38.5452 3.51521 38.3615 3.27723 38.1253 3.21061C37.888 3.14088 37.4807 3.19532 36.9034 3.37394L35.8483 3.70042L36.4946 5.71914Z" fill="black"/>
<path d="M44.3403 6.19748L44.1821 4.81643C44.6774 5.07241 45.2108 5.25546 45.7825 5.36558C46.3575 5.47533 46.88 5.50421 47.3499 5.4522C47.5471 5.43038 47.711 5.40896 47.8417 5.38795C47.9754 5.36335 48.1031 5.33122 48.225 5.29155C48.3503 5.25152 48.4464 5.2049 48.5135 5.15167C48.5839 5.09807 48.6361 5.03015 48.6699 4.94789C48.7037 4.86563 48.7144 4.76958 48.7018 4.65974C48.6755 4.43037 48.5506 4.26918 48.3269 4.17616C48.149 4.10425 47.7753 4.03765 47.2058 3.97635C47.1719 3.9703 47.1196 3.96463 47.0492 3.95934C46.9107 3.94195 46.8028 3.92936 46.7253 3.92157C45.7782 3.81701 45.0987 3.63704 44.6867 3.38166C44.2777 3.12268 44.0419 2.72022 43.9794 2.17426C43.908 1.55077 44.0847 1.06011 44.5097 0.702297C44.9346 0.34448 45.5529 0.120656 46.3646 0.0308246C46.7721 -0.0142731 47.2202 -0.00988592 47.7089 0.0439861C48.201 0.0974944 48.6256 0.187897 48.983 0.315193L49.1328 1.62355C48.6159 1.49756 48.1099 1.40961 47.615 1.3597C47.1201 1.30978 46.7083 1.30301 46.3797 1.33938C46.2318 1.35574 46.1073 1.3728 46.0062 1.39053C45.9051 1.40827 45.8032 1.43426 45.7006 1.46851C45.5977 1.49953 45.5172 1.53788 45.4592 1.58356C45.4008 1.626 45.3556 1.68171 45.3236 1.75069C45.2916 1.81966 45.2807 1.89938 45.2911 1.98983C45.3 2.06737 45.3211 2.13537 45.3544 2.19384C45.3873 2.24908 45.4378 2.29747 45.5058 2.33902C45.5738 2.38057 45.6476 2.41493 45.7273 2.4421C45.8069 2.46927 45.913 2.49514 46.0456 2.51973C46.1779 2.54108 46.3065 2.55956 46.4314 2.57518C46.5563 2.5908 46.7165 2.60906 46.9119 2.62996C46.9221 2.6321 46.9305 2.63281 46.9371 2.63208C47.2099 2.66077 47.4428 2.68898 47.6357 2.71671C47.8318 2.74407 48.0303 2.77771 48.2313 2.81764C48.4355 2.85719 48.607 2.90201 48.7458 2.95207C48.8876 2.99854 49.0256 3.05524 49.1597 3.12218C49.2967 3.18553 49.4084 3.25987 49.4947 3.34519C49.5843 3.43014 49.6653 3.5275 49.7378 3.63725C49.8136 3.74664 49.8727 3.87095 49.9153 4.01018C49.9575 4.14619 49.9884 4.2998 50.008 4.47102C50.0594 4.92006 49.9841 5.30789 49.7818 5.63452C49.5793 5.95791 49.2851 6.20802 48.8994 6.38484C48.5169 6.5613 48.0496 6.68008 47.4975 6.74118C46.9914 6.79718 46.4299 6.77591 45.8129 6.67734C45.1956 6.57555 44.7047 6.41559 44.3403 6.19748Z" fill="black"/>
<path d="M79.7808 14.7566C79.1812 14.7219 78.5969 14.5147 78.0278 14.1349C77.4587 13.7551 77.0471 13.2977 76.793 12.7627C76.5408 12.225 76.4501 11.6733 76.521 11.1076C76.5937 10.5393 76.8121 9.99151 77.1762 9.46434C77.4474 9.07164 77.7652 8.74741 78.1297 8.49165C78.4942 8.23588 78.88 8.05918 79.2872 7.96156C79.699 7.86308 80.1315 7.85899 80.5847 7.9493C81.0407 8.04143 81.4821 8.22992 81.909 8.51478C82.3358 8.79963 82.6755 9.13245 82.9282 9.51325C83.1836 9.89586 83.3393 10.2925 83.3954 10.7033C83.4561 11.1131 83.4328 11.5318 83.3255 11.9592C83.2182 12.3866 83.029 12.7966 82.7578 13.1893C82.3937 13.7165 81.9564 14.1182 81.4459 14.3944C80.9373 14.6679 80.3822 14.7887 79.7808 14.7566ZM78.7689 13.0617C79.9016 13.8176 80.8674 13.6173 81.6661 12.4608C82.4648 11.3042 82.2978 10.3479 81.165 9.59199C80.035 8.83786 79.0707 9.03908 78.272 10.1956C77.4732 11.3522 77.6389 12.3075 78.7689 13.0617Z" fill="black"/>
<path d="M87.2704 15.8468L86.3079 14.9595L87.2106 14.0133L88.5147 13.4306L89.0429 13.9177L87.8763 14.6271L88.173 14.9007L87.2704 15.8468Z" fill="black"/>
<path d="M95.4239 21.3956L94.6732 21.9796L88.7129 21.9151L91.0401 24.806L90.0054 25.6109L86.4438 21.1867L87.1946 20.6026L93.151 20.6702L90.8238 17.7793L91.8624 16.9713L95.4239 21.3956Z" fill="black"/>
<path d="M96.6089 29.7664C97.0414 30.7143 96.8047 31.4207 95.8989 31.8856C95.7054 31.9849 95.5166 32.0579 95.3325 32.1047C95.1485 32.1515 94.9527 32.1658 94.7453 32.1475C94.5424 32.1306 94.3484 32.0743 94.1632 31.9786C93.9781 31.8829 93.7898 31.732 93.5983 31.5259C93.4083 31.3227 93.2314 31.0669 93.0677 30.7586L91.8258 28.4199L97.9514 25.2765L99.1933 27.6151C99.3662 27.9408 99.4759 28.2457 99.5224 28.5299C99.5733 28.8155 99.5644 29.0657 99.4958 29.2807C99.43 29.4941 99.3276 29.6805 99.1884 29.8399C99.0522 29.9979 98.8829 30.1287 98.6807 30.2325C98.5165 30.3168 98.3511 30.3741 98.1845 30.4046C98.0208 30.4336 97.8529 30.4336 97.6808 30.4046C97.5132 30.3769 97.3484 30.3019 97.1865 30.1797C97.0261 30.0603 96.882 29.8977 96.7541 29.692L96.6089 29.7664ZM97.3902 27.0332L96.2645 27.6109L96.8705 28.7521C97.0143 29.023 97.1571 29.1936 97.2989 29.2638C97.4436 29.3326 97.6215 29.3128 97.8326 29.2045C98.0407 29.0977 98.156 28.967 98.1784 28.8125C98.2008 28.658 98.1401 28.4453 97.9962 28.1744L97.3902 27.0332ZM94.3297 30.1109C94.5011 30.4337 94.6697 30.6351 94.8353 30.7151C95.0024 30.7981 95.2223 30.7696 95.4949 30.6297C95.7646 30.4913 95.9127 30.3309 95.939 30.1487C95.9654 29.9665 95.8936 29.7155 95.7237 29.3956L95.0947 28.2111L93.7008 28.9265L94.3297 30.1109Z" fill="black"/>
<path d="M102.043 38.3048L101.038 35.1803L99.6856 35.6007L100.477 38.0603L99.2138 38.4528L98.4228 35.9932L96.9707 36.4445L97.9756 39.569L96.7175 39.96L95.3447 35.6917L101.933 33.644L103.306 37.9123L102.043 38.3048Z" fill="black"/>
<path d="M105 47.7067L101.284 45.8516L98.1417 48.5358L97.9485 46.9919L100.492 44.8321L100.387 43.9899L97.6149 44.3251L97.4532 43.0328L104.312 42.2037L104.473 43.4959L101.696 43.8316L101.802 44.6738L104.807 46.1627L105 47.7067Z" fill="black"/>
<path d="M103.566 63.7843L102.267 63.5307L102.652 61.6271L97.1731 60.5577L97.4301 59.2854L102.909 60.3548L103.292 58.456L104.591 58.7096L103.566 63.7843Z" fill="black"/>
<path d="M95.7339 65.7406L102.239 68.0315L101.792 69.2572L95.2873 66.9663L95.7339 65.7406Z" fill="black"/>
<path d="M94.5229 71.9537L93.3168 74.2392L92.1456 73.6419L93.9615 70.2007L100.095 73.3286L99.4854 74.4843L94.5229 71.9537Z" fill="black"/>
<path d="M90.2811 76.5158L95.9327 80.4242L95.1707 81.4891L89.519 77.5807L90.2811 76.5158Z" fill="black"/>
<path d="M90.7161 86.7918C89.9324 87.5934 89.1556 87.9822 88.3856 87.9582C87.6157 87.9387 86.8111 87.5325 85.9718 86.7396C85.1349 85.9489 84.69 85.1747 84.6373 84.417C84.5869 83.6616 84.9524 82.8842 85.7338 82.0849L87.4181 80.3621L92.4003 85.0689L90.7161 86.7918ZM86.6852 82.9837C86.4057 83.2697 86.2049 83.5219 86.0831 83.7404C85.9612 83.9589 85.9118 84.1783 85.935 84.3986C85.9605 84.6211 86.0491 84.8378 86.2007 85.0487C86.35 85.2619 86.5785 85.5138 86.8861 85.8044C87.1388 86.0431 87.3589 86.2285 87.5464 86.3605C87.7338 86.4925 87.9182 86.5878 88.0994 86.6463C88.2808 86.7094 88.4564 86.7175 88.6262 86.6705C88.7984 86.6257 88.9744 86.5418 89.1544 86.4188C89.3343 86.2957 89.5366 86.1193 89.7611 85.8896L90.5276 85.1055L87.4517 82.1996L86.6852 82.9837Z" fill="black"/>
<path d="M77.0475 89.1853L78.1231 90.0319L80.3082 88.5514L79.882 87.2647L81.046 86.476L83.2276 93.2479L81.5449 94.3881L75.8957 89.9657L77.0475 89.1853ZM80.7302 89.8408L79.1986 90.8785L81.5001 92.6831L81.6349 92.5918L80.7302 89.8408Z" fill="black"/>
<ellipse cx="64" cy="3.92382" rx="2" ry="1.9619" fill="black"/>
<ellipse cx="65" cy="98.0952" rx="2" ry="1.9619" fill="black"/>
</svg>
