<svg width="105" height="105" viewBox="0 0 105 105" fill="none" xmlns="http://www.w3.org/2000/svg">
<g filter="url(#filter0_i)">
<path d="M47.8208 104.766C47.2874 104.717 46.8398 104.619 46.478 104.472C46.113 104.325 45.8353 104.131 45.645 103.891C45.4513 103.65 45.3215 103.383 45.2555 103.091C45.1892 102.802 45.1736 102.467 45.2086 102.088C45.2437 101.708 45.3204 101.381 45.4388 101.106C45.5572 100.831 45.7336 100.592 45.9681 100.391C46.1989 100.193 46.5074 100.053 46.8935 99.9727C47.2759 99.895 47.7339 99.8809 48.2673 99.9303L49.4676 100.042L49.6577 97.9825L50.9766 98.1047L50.3399 105L47.8208 104.766ZM47.9136 101.225C47.4131 101.179 47.0666 101.227 46.8742 101.369C46.6781 101.514 46.5609 101.794 46.5225 102.21C46.4832 102.635 46.5455 102.932 46.7093 103.101C46.8698 103.269 47.2036 103.376 47.7107 103.423L49.1431 103.556L49.346 101.358L47.9136 101.225Z" fill="black"/>
<path d="M38.5163 98.731L36.5239 98.1555L37.2836 95.514L38.5515 95.8802L37.9663 97.9151L40.5926 98.6736L41.1778 96.6388L42.4505 97.0064L40.5368 103.66L38.2013 102.986C37.6897 102.838 37.2678 102.659 36.9358 102.449C36.6029 102.243 36.3631 102.012 36.2165 101.755C36.069 101.502 35.986 101.24 35.9676 100.97C35.9491 100.699 35.9852 100.406 36.0759 100.09C36.2352 99.5362 36.5064 99.1558 36.8893 98.9491C37.2714 98.7456 37.7986 98.7255 38.471 98.8886L38.5163 98.731ZM40.2272 99.9442L39.1643 99.6372C38.5923 99.472 38.186 99.4306 37.9456 99.5129C37.701 99.5974 37.5191 99.8467 37.4001 100.261C37.2792 100.681 37.2985 100.985 37.458 101.172C37.6165 101.363 37.9865 101.542 38.568 101.71L39.631 102.017L40.2272 99.9442Z" fill="black"/>
<path d="M29.6591 92.4701C30.2588 92.4369 30.8634 92.5801 31.4727 92.8999C32.0821 93.2197 32.5439 93.636 32.8583 94.1489C33.1711 94.6647 33.325 95.2131 33.3201 95.7941C33.3136 96.378 33.16 96.9577 32.8593 97.5331C32.6353 97.9618 32.3571 98.3264 32.0245 98.627C31.692 98.9276 31.3291 99.1505 30.9359 99.2958C30.5382 99.4425 30.109 99.496 29.6482 99.4562C29.1845 99.4148 28.7241 99.2743 28.2671 99.0344C27.8101 98.7946 27.434 98.4962 27.139 98.1394C26.841 97.781 26.6403 97.397 26.537 96.9874C26.4293 96.5792 26.404 96.1526 26.4612 95.7074C26.5183 95.2623 26.6589 94.8255 26.8828 94.3968C27.1835 93.8214 27.5715 93.3647 28.0467 93.0268C28.5204 92.6918 29.0579 92.5062 29.6591 92.4701ZM30.8606 94.0713C29.6477 93.4349 28.7114 93.7478 28.0518 95.0102C27.3921 96.2727 27.6687 97.2221 28.8815 97.8586C30.0915 98.4936 31.0263 98.1798 31.686 96.9174C32.3457 95.655 32.0705 94.7063 30.8606 94.0713Z" fill="black"/>
<path d="M18.7442 90.977L21.2688 93.003L22.3788 91.6138L20.3228 89.9639L21.1476 88.9317L23.2036 90.5817L24.7601 88.6338L25.7901 89.4604L21.4708 94.8655L17.9163 92.0131L18.7442 90.977Z" fill="black"/>
<path d="M12.6594 84.6409L14.8704 87.1409L15.9321 86.198L14.1916 84.2299L15.1828 83.3496L16.9233 85.3176L18.063 84.3054L15.8521 81.8054L16.8396 80.9283L19.8599 84.3436L14.6885 88.9365L11.6682 85.5212L12.6594 84.6409Z" fill="black"/>
<path d="M14.1734 78.918L12.9618 79.648C12.9925 79.0881 12.9398 78.5244 12.8038 77.9567C12.666 77.3862 12.4753 76.8979 12.2316 76.4917C12.1294 76.3213 12.0414 76.181 11.9675 76.0708C11.8892 75.9594 11.8063 75.8567 11.7189 75.7624C11.6297 75.6653 11.5466 75.5974 11.4694 75.5589C11.3905 75.5174 11.306 75.4988 11.2158 75.5028C11.1257 75.5069 11.0324 75.5379 10.936 75.596C10.7348 75.7172 10.6377 75.8995 10.6447 76.1427C10.6523 76.3354 10.7462 76.7042 10.9265 77.2491C10.935 77.2826 10.9515 77.3326 10.9759 77.3991C11.0175 77.5326 11.0507 77.6363 11.0757 77.7101C11.3732 78.6175 11.4895 79.3131 11.4247 79.7968C11.3554 80.2794 11.0812 80.665 10.6022 80.9536C10.0552 81.2832 9.52781 81.3303 9.02 81.0948C8.5122 80.8594 8.04785 80.3909 7.62697 79.6894C7.41568 79.3372 7.23326 78.927 7.07971 78.4588C6.92446 77.9878 6.83135 77.5625 6.80039 77.1828L7.94825 76.4913C8.04683 77.0158 8.17602 77.5141 8.33581 77.9863C8.4956 78.4584 8.66069 78.8365 8.83109 79.1205C8.90777 79.2483 8.97535 79.3546 9.03384 79.4392C9.09234 79.5238 9.15876 79.6056 9.23313 79.6846C9.30466 79.7652 9.37362 79.8223 9.44001 79.8557C9.50356 79.8909 9.5739 79.9085 9.65104 79.9084C9.72817 79.9083 9.80641 79.8844 9.88577 79.8366C9.95379 79.7956 10.0079 79.7475 10.0481 79.6924C10.0855 79.6389 10.1093 79.5724 10.1194 79.4928C10.1296 79.4132 10.1306 79.3314 10.1226 79.2473C10.1146 79.1632 10.0944 79.0555 10.0619 78.9242C10.0266 78.7946 9.99022 78.6696 9.95268 78.5492C9.91514 78.4287 9.86538 78.275 9.8034 78.0881C9.80112 78.0779 9.79828 78.0699 9.79487 78.0642C9.70786 77.8034 9.63705 77.5793 9.58244 77.3918C9.52612 77.2014 9.47462 77.0062 9.42794 76.8062C9.37955 76.6034 9.34962 76.4281 9.33814 76.2803C9.32213 76.1314 9.31718 75.9816 9.32328 75.831C9.32485 75.6793 9.34713 75.546 9.39013 75.4311C9.43143 75.3134 9.48776 75.1983 9.55912 75.0857C9.62878 74.9703 9.71914 74.8636 9.83022 74.7658C9.93846 74.6696 10.0677 74.5763 10.2179 74.4858C10.6119 74.2484 11.002 74.1526 11.3882 74.1983C11.7717 74.2457 12.1254 74.4076 12.4495 74.6841C12.7719 74.9578 13.0762 75.3332 13.3625 75.8104C13.6249 76.2478 13.8389 76.7685 14.0045 77.3725C14.1672 77.9782 14.2235 78.4934 14.1734 78.918Z" fill="black"/>
<path d="M9.71482 70.8695L8.3839 71.3473C8.52352 70.8044 8.58214 70.2412 8.55977 69.6578C8.53629 69.0713 8.4448 68.555 8.28531 68.1088C8.21839 67.9216 8.15951 67.7668 8.10867 67.6442C8.05361 67.5196 7.99243 67.4025 7.92514 67.2929C7.85674 67.1802 7.78847 67.0973 7.72035 67.0443C7.65111 66.9882 7.57188 66.9533 7.48267 66.9396C7.39345 66.9258 7.29592 66.938 7.19006 66.976C6.96902 67.0553 6.83815 67.215 6.79746 67.4549C6.76716 67.6453 6.78711 68.0254 6.8573 68.5951C6.85911 68.6297 6.8655 68.6819 6.87647 68.7519C6.89106 68.891 6.9034 68.9992 6.91349 69.0766C7.02765 70.0248 7.00564 70.7297 6.84748 71.1913C6.6851 71.6509 6.34083 71.9752 5.81469 72.1641C5.21383 72.3798 4.68745 72.3223 4.23554 71.9917C3.78364 71.6611 3.41994 71.1105 3.14446 70.3399C3.00616 69.953 2.90752 69.515 2.84854 69.0257C2.78844 68.5333 2.78034 68.098 2.82424 67.7196L4.08511 67.2669C4.07918 67.8006 4.10838 68.3147 4.17271 68.8091C4.23703 69.3035 4.32496 69.7066 4.43649 70.0186C4.48668 70.159 4.53218 70.2765 4.57298 70.371C4.61378 70.4654 4.66292 70.5587 4.72041 70.6507C4.77478 70.7438 4.83124 70.8133 4.88979 70.8592C4.94522 70.9062 5.01077 70.9372 5.08641 70.9523C5.16206 70.9674 5.24347 70.9593 5.33065 70.928C5.40536 70.9011 5.46784 70.8646 5.51807 70.8184C5.56518 70.7734 5.6015 70.7128 5.627 70.6368C5.65251 70.5607 5.66956 70.4807 5.67816 70.3966C5.68675 70.3126 5.68798 70.203 5.68184 70.0679C5.67259 69.9339 5.66134 69.8042 5.64809 69.6787C5.63484 69.5532 5.61611 69.3927 5.5919 69.1972C5.59166 69.1868 5.59043 69.1784 5.5882 69.1722C5.5539 68.8993 5.52831 68.6656 5.51144 68.471C5.49345 68.2733 5.48113 68.0718 5.47448 67.8665C5.46671 67.6581 5.47165 67.4803 5.48931 67.3331C5.50273 67.184 5.52717 67.0361 5.56262 66.8896C5.59384 66.7411 5.64177 66.6148 5.7064 66.5106C5.76992 66.4033 5.84767 66.3015 5.93968 66.2051C6.03056 66.1056 6.14004 66.0188 6.2681 65.9446C6.39305 65.8716 6.53802 65.8055 6.70302 65.7462C7.13577 65.5909 7.53706 65.5735 7.9069 65.6942C8.27362 65.816 8.58884 66.0443 8.85255 66.3791C9.11515 66.7108 9.34013 67.1387 9.5275 67.6629C9.69926 68.1433 9.80725 68.696 9.85146 69.3208C9.89256 69.9467 9.84701 70.463 9.71482 70.8695Z" fill="black"/>
<path d="M7.86521 61.7883L1.08156 63.1065L0.829428 61.8035L7.61307 60.4853L7.86521 61.7883Z" fill="black"/>
<path d="M6.39341 52.0472C6.71635 52.5546 6.88817 53.1529 6.90887 53.8419C6.92958 54.5309 6.79398 55.1384 6.5021 55.6645C6.20691 56.1906 5.80546 56.5939 5.29776 56.8745C4.78676 57.1552 4.20731 57.3053 3.55943 57.3248C3.07683 57.3394 2.62329 57.2752 2.19881 57.1321C1.77433 56.9891 1.4025 56.7815 1.08332 56.5093C0.760738 56.2339 0.503777 55.8852 0.31244 55.4633C0.121004 55.0381 0.0175221 54.5671 0.00199576 54.0503C-0.0135306 53.5335 0.0615357 53.0588 0.227195 52.6261C0.392754 52.1901 0.628316 51.8266 0.93388 51.5355C1.23604 51.2413 1.59468 51.01 2.0098 50.8416C2.42493 50.6732 2.87379 50.5818 3.3564 50.5672C4.00428 50.5477 4.59168 50.6626 5.11861 50.9119C5.64223 51.1614 6.06717 51.5398 6.39341 52.0472ZM5.58997 53.8817C5.54877 52.5103 4.81748 51.846 3.39611 51.8889C1.97474 51.9318 1.28465 52.639 1.32586 54.0104C1.36696 55.3784 2.0982 56.041 3.51957 55.9981C4.94094 55.9553 5.63108 55.2498 5.58997 53.8817Z" fill="black"/>
<path d="M1.07475 41.513L1.31273 40.2073L8.11028 41.4516L7.8723 42.7573L3.05615 44.9178L3.02763 45.0743L7.30721 45.8576L7.06923 47.1633L0.271679 45.9191L0.509659 44.6134L5.3258 42.4528L5.35433 42.2964L1.07475 41.513Z" fill="black"/>
<path d="M10.8826 33.5296L9.51087 33.3989L8.50941 35.8618L9.58348 36.7245L9.04999 38.0365L3.44828 33.4623L4.21949 31.5656L11.4104 32.2314L10.8826 33.5296ZM7.43722 34.9946L8.13918 33.2682L5.20794 32.9946L5.14617 33.1465L7.43722 34.9946Z" fill="black"/>
<path d="M12.6196 27.5068L14.0348 25.2982L15.1451 26.0126L13.0143 29.3381L7.19976 25.5967L7.91537 24.4798L12.6196 27.5068Z" fill="black"/>
<path d="M20.979 10.1191L21.4065 14.2733L25.4044 15.4373L24.1891 16.4529L20.9643 15.5037L20.3014 16.0577L22.09 18.2071L21.0728 19.0572L16.6473 13.7389L17.6645 12.8889L19.4563 15.0421L20.1192 14.4882L19.7637 11.1347L20.979 10.1191Z" fill="black"/>
<path d="M32.0508 8.5269C32.4661 9.29273 32.5472 9.98027 32.2942 10.5895C32.0396 11.1959 31.5026 11.7221 30.6832 12.1683C29.8638 12.6146 29.131 12.7798 28.4848 12.6639C27.837 12.5452 27.3055 12.1029 26.8902 11.3371L24.8037 7.489L25.963 6.85766L27.9525 10.5267C28.1294 10.8528 28.3044 11.0819 28.4776 11.2139C28.6492 11.3429 28.8588 11.3929 29.1064 11.3636C29.354 11.3344 29.6696 11.2154 30.0532 11.0065C30.4367 10.7976 30.7066 10.5978 30.8629 10.4071C31.0221 10.2148 31.0944 10.0114 31.0797 9.79689C31.0634 9.57945 30.9668 9.30766 30.79 8.98153L28.8005 5.31252L29.9642 4.6788L32.0508 8.5269Z" fill="black"/>
<path d="M38.5896 5.8938L40.5674 5.26995L41.391 7.89214L40.1324 8.28913L39.4979 6.26915L36.8908 7.0915L37.5252 9.11148L36.2619 9.50997L34.1873 2.90471L36.5058 2.1734C37.0137 2.01321 37.4638 1.92856 37.8562 1.91945C38.2475 1.90718 38.575 1.96721 38.8384 2.09952C39.1008 2.22867 39.3145 2.40102 39.4792 2.61657C39.644 2.83212 39.7755 3.09638 39.8738 3.40933C40.0466 3.95938 40.0304 4.42658 39.8252 4.81093C39.619 5.19212 39.1908 5.50092 38.5404 5.73732L38.5896 5.8938ZM36.4946 5.83019L37.5498 5.49737C38.1176 5.31827 38.479 5.12784 38.6341 4.92606C38.7913 4.72013 38.8053 4.41169 38.6763 4.00074C38.5452 3.58347 38.3615 3.34087 38.1253 3.27295C37.888 3.20187 37.4807 3.25737 36.9035 3.43945L35.8483 3.77227L36.4946 5.83019Z" fill="black"/>
<path d="M44.3403 6.31782L44.1821 4.90995C44.6774 5.1709 45.2108 5.35751 45.7825 5.46976C46.3575 5.58165 46.88 5.61108 47.3499 5.55807C47.5471 5.53582 47.711 5.51399 47.8417 5.49257C47.9754 5.46749 48.1031 5.43473 48.225 5.3943C48.3503 5.35349 48.4464 5.30596 48.5135 5.2517C48.5839 5.19707 48.6361 5.12782 48.6699 5.04396C48.7037 4.96011 48.7144 4.86219 48.7018 4.75022C48.6755 4.5164 48.5506 4.35208 48.3269 4.25725C48.149 4.18394 47.7753 4.11605 47.2058 4.05356C47.1719 4.04739 47.1196 4.04161 47.0491 4.03622C46.9107 4.01849 46.8028 4.00566 46.7253 3.99772C45.7782 3.89113 45.0987 3.70767 44.6867 3.44732C44.2777 3.18332 44.0419 2.77304 43.9794 2.21648C43.908 1.58088 44.0848 1.0807 44.5097 0.715934C44.9346 0.351169 45.5529 0.122999 46.3646 0.0314231C46.7721 -0.0145502 47.2202 -0.0100779 47.709 0.0448402C48.201 0.0993875 48.6256 0.191545 48.983 0.321314L49.1328 1.65508C48.6159 1.52664 48.1099 1.43698 47.615 1.3861C47.1201 1.33521 46.7083 1.32831 46.3797 1.36539C46.2318 1.38207 46.1073 1.39945 46.0062 1.41753C45.9051 1.43561 45.8032 1.46211 45.7006 1.49703C45.5977 1.52865 45.5172 1.56774 45.4592 1.61431C45.4008 1.65758 45.3556 1.71437 45.3236 1.78468C45.2916 1.855 45.2807 1.93626 45.2911 2.02847C45.3 2.10751 45.3211 2.17683 45.3544 2.23644C45.3873 2.29275 45.4378 2.34208 45.5058 2.38444C45.5738 2.42679 45.6476 2.46182 45.7273 2.48952C45.8069 2.51721 45.913 2.54359 46.0457 2.56865C46.1779 2.59042 46.3065 2.60926 46.4314 2.62518C46.5563 2.64111 46.7165 2.65972 46.9119 2.68103C46.9221 2.68321 46.9305 2.68393 46.9371 2.68319C47.2099 2.71244 47.4428 2.74119 47.6357 2.76946C47.8318 2.79735 48.0303 2.83165 48.2313 2.87235C48.4355 2.91267 48.607 2.95835 48.7458 3.00939C48.8876 3.05676 49.0256 3.11457 49.1597 3.18281C49.2967 3.24739 49.4084 3.32317 49.4947 3.41014C49.5843 3.49675 49.6653 3.59599 49.7378 3.70788C49.8136 3.81939 49.8727 3.94612 49.9153 4.08805C49.9575 4.2267 49.9884 4.38329 50.008 4.55783C50.0594 5.01559 49.9841 5.41096 49.7818 5.74392C49.5793 6.0736 49.2851 6.32856 48.8994 6.50882C48.5169 6.6887 48.0496 6.80979 47.4975 6.87207C46.9914 6.92917 46.4299 6.90748 45.8129 6.807C45.1956 6.70323 44.7047 6.54017 44.3403 6.31782Z" fill="black"/>
<path d="M79.7808 15.0432C79.1812 15.0078 78.5969 14.7965 78.0278 14.4093C77.4587 14.0221 77.0471 13.5559 76.793 13.0105C76.5408 12.4624 76.4501 11.9 76.521 11.3233C76.5937 10.7439 76.8121 10.1855 77.1762 9.64811C77.4474 9.24779 77.7652 8.91727 78.1297 8.65653C78.4942 8.3958 78.88 8.21567 79.2872 8.11616C79.699 8.01576 80.1315 8.01159 80.5847 8.10365C81.0407 8.19757 81.4821 8.38973 81.909 8.68011C82.3358 8.9705 82.6755 9.30978 82.9282 9.69797C83.1836 10.088 83.3393 10.4924 83.3954 10.9111C83.4561 11.3289 83.4328 11.7557 83.3255 12.1914C83.2182 12.6271 83.029 13.0451 82.7578 13.4454C82.3937 13.9828 81.9564 14.3923 81.4459 14.6739C80.9372 14.9527 80.3822 15.0758 79.7808 15.0432ZM78.7689 13.3153C79.9016 14.0859 80.8674 13.8817 81.6661 12.7027C82.4648 11.5237 82.2978 10.5489 81.165 9.77824C80.035 9.00947 79.0707 9.2146 78.272 10.3936C77.4733 11.5726 77.6389 12.5465 78.7689 13.3153Z" fill="black"/>
<path d="M87.2704 16.1545L86.3079 15.2499L87.2106 14.2854L88.5147 13.6914L89.0429 14.1879L87.8763 14.9112L88.173 15.19L87.2704 16.1545Z" fill="black"/>
<path d="M95.424 21.811L94.6732 22.4064L88.7129 22.3406L91.0401 25.2876L90.0054 26.1082L86.4438 21.598L87.1945 21.0027L93.151 21.0715L90.8238 18.1245L91.8624 17.3009L95.424 21.811Z" fill="black"/>
<path d="M96.6089 30.3444C97.0414 31.3107 96.8047 32.0308 95.8989 32.5047C95.7054 32.606 95.5166 32.6804 95.3325 32.7281C95.1485 32.7758 94.9527 32.7903 94.7453 32.7717C94.5424 32.7545 94.3484 32.6972 94.1632 32.5996C93.9781 32.502 93.7898 32.3482 93.5983 32.1381C93.4083 31.9309 93.2314 31.6702 93.0677 31.3558L91.8258 28.9718L97.9514 25.7673L99.1933 28.1513C99.3662 28.4833 99.4759 28.7942 99.5224 29.0839C99.5733 29.375 99.5644 29.6301 99.4958 29.8492C99.43 30.0668 99.3276 30.2568 99.1884 30.4194C99.0522 30.5803 98.8829 30.7138 98.6807 30.8196C98.5165 30.9055 98.3511 30.9639 98.1845 30.995C98.0208 31.0246 97.8529 31.0245 97.6808 30.9949C97.5132 30.9667 97.3484 30.8903 97.1865 30.7657C97.0261 30.644 96.882 30.4783 96.7541 30.2685L96.6089 30.3444ZM97.3902 27.5581L96.2645 28.147L96.8705 29.3104C97.0143 29.5865 97.1572 29.7604 97.2989 29.8321C97.4436 29.9022 97.6215 29.882 97.8326 29.7716C98.0407 29.6627 98.156 29.5295 98.1784 29.372C98.2008 29.2145 98.1401 28.9976 97.9962 28.7215L97.3902 27.5581ZM94.3298 30.6956C94.5011 31.0246 94.6697 31.23 94.8353 31.3116C95.0024 31.3961 95.2223 31.367 95.4949 31.2244C95.7646 31.0833 95.9127 30.9199 95.939 30.7341C95.9654 30.5484 95.8936 30.2925 95.7237 29.9664L95.0947 28.7589L93.7008 29.4882L94.3298 30.6956Z" fill="black"/>
<path d="M102.043 39.0485L101.038 35.8634L99.6856 36.292L100.477 38.7993L99.2138 39.1995L98.4228 36.6921L96.9707 37.1522L97.9756 40.3373L96.7175 40.7359L95.3447 36.3848L101.933 34.2973L103.306 38.6484L102.043 39.0485Z" fill="black"/>
<path d="M105 48.633L101.284 46.7419L98.1417 49.4782L97.9485 47.9043L100.492 45.7026L100.387 44.8441L97.6149 45.1857L97.4532 43.8684L104.312 43.0231L104.473 44.3405L101.696 44.6827L101.802 45.5412L104.807 47.0591L105 48.633Z" fill="black"/>
<path d="M103.566 65.0229L102.267 64.7644L102.652 62.8237L97.1731 61.7336L97.4301 60.4366L102.909 61.5268L103.292 59.591L104.591 59.8495L103.566 65.0229Z" fill="black"/>
<path d="M95.7339 67.0171L102.239 69.3525L101.792 70.602L95.2873 68.2666L95.7339 67.0171Z" fill="black"/>
<path d="M94.5229 73.3509L93.3168 75.6808L92.1456 75.0719L93.9615 71.5638L100.095 74.7525L99.4854 75.9306L94.5229 73.3509Z" fill="black"/>
<path d="M90.2811 78.0016L95.9327 81.9859L95.1707 83.0714L89.519 79.0871L90.2811 78.0016Z" fill="black"/>
<path d="M90.7161 88.477C89.9324 89.2942 89.1556 89.6906 88.3856 89.6661C87.6157 89.6463 86.8111 89.2322 85.9718 88.4239C85.1348 87.6178 84.69 86.8286 84.6373 86.0562C84.5869 85.2861 84.9524 84.4936 85.7338 83.6788L87.4181 81.9225L92.4003 86.7208L90.7161 88.477ZM86.6852 84.595C86.4057 84.8866 86.2049 85.1437 86.0831 85.3664C85.9612 85.5892 85.9118 85.8128 85.935 86.0374C85.9605 86.2642 86.0491 86.4851 86.2007 86.7001C86.35 86.9174 86.5785 87.1742 86.8861 87.4705C87.1388 87.7139 87.3589 87.9029 87.5464 88.0374C87.7338 88.172 87.9182 88.2691 88.0994 88.3288C88.2808 88.3931 88.4564 88.4013 88.6262 88.3534C88.7983 88.3078 88.9744 88.2223 89.1544 88.0968C89.3343 87.9713 89.5366 87.7915 89.7611 87.5574L90.5276 86.7581L87.4517 83.7958L86.6852 84.595Z" fill="black"/>
<path d="M77.0475 90.9171L78.1231 91.7801L80.3082 90.2708L79.882 88.9592L81.046 88.1552L83.2276 95.0586L81.5449 96.2209L75.8957 91.7126L77.0475 90.9171ZM80.7302 91.5852L79.1986 92.6432L81.5001 94.4828L81.6349 94.3897L80.7302 91.5852Z" fill="black"/>
</g>
<circle cx="64" cy="4" r="2" fill="black"/>
<circle cx="65" cy="100" r="2" fill="black"/>
<defs>
<filter id="filter0_i" x="0" y="0" width="105" height="115" filterUnits="userSpaceOnUse" color-interpolation-filters="sRGB">
<feFlood flood-opacity="0" result="BackgroundImageFix"/>
<feBlend mode="normal" in="SourceGraphic" in2="BackgroundImageFix" result="shape"/>
<feColorMatrix in="SourceAlpha" type="matrix" values="0 0 0 0 0 0 0 0 0 0 0 0 0 0 0 0 0 0 127 0" result="hardAlpha"/>
<feOffset dy="10"/>
<feGaussianBlur stdDeviation="20"/>
<feComposite in2="hardAlpha" operator="arithmetic" k2="-1" k3="1"/>
<feColorMatrix type="matrix" values="0 0 0 0 0.737255 0 0 0 0 0.992157 0 0 0 0 0.180392 0 0 0 0.25 0"/>
<feBlend mode="normal" in2="shape" result="effect1_innerShadow"/>
</filter>
</defs>
</svg>
