<svg width="79" height="77" viewBox="0 0 79 77" fill="none" xmlns="http://www.w3.org/2000/svg">
<path d="M26.1642 75.9459C25.7601 75.7964 25.4342 75.617 25.1857 75.4075C24.9367 75.2005 24.7644 74.9593 24.6688 74.6836C24.5701 74.4093 24.536 74.1082 24.5665 73.7805C24.597 73.4529 24.6893 73.0811 24.8429 72.6654C24.996 72.2521 25.1675 71.9111 25.3578 71.6423C25.548 71.3736 25.7703 71.1662 26.0247 71.02C26.2757 70.8754 26.5636 70.8044 26.8885 70.8072C27.2124 70.8123 27.5762 70.8895 27.9801 71.039L29.6252 71.6477L27.809 76.5546L26.1642 75.9459ZM27.6921 71.8175C27.4031 71.7105 27.1603 71.6488 26.9636 71.6321C26.7647 71.6144 26.5837 71.6487 26.4208 71.7354C26.257 71.8244 26.1142 71.9652 25.9921 72.1575C25.8703 72.35 25.7467 72.6154 25.6216 72.9536C25.4929 73.3011 25.4119 73.5887 25.378 73.8167C25.3421 74.0436 25.359 74.2434 25.4285 74.4159C25.4983 74.5887 25.6137 74.7316 25.7747 74.8444C25.9334 74.9567 26.1583 75.0667 26.4495 75.1744L27.3126 75.4939L28.5549 72.137L27.6921 71.8175Z" fill="black"/>
<path d="M23.6438 69.1416L21.1469 73.7396L20.4141 73.3416L22.911 68.7437L23.6438 69.1416Z" fill="black"/>
<path d="M14.4248 69.3148L14.7528 68.875L19.4348 67.5583L17.0556 65.7853L17.5517 65.1196L20.9428 67.6471L20.6128 68.0899L15.9222 69.405L18.3074 71.1827L17.8158 71.8422L14.4248 69.3148Z" fill="black"/>
<path d="M13.4152 60.9202L12.8032 61.951L14.2175 63.5128L15.3111 63.0138L15.8937 63.6569L10.9211 65.9607L10.0488 64.9974L12.8278 60.2715L13.4152 60.9202ZM13.4388 63.8784L12.3699 62.6979L11.1078 64.8238L11.1911 64.9158L13.4388 63.8784Z" fill="black"/>
<path d="M5.16831 58.0855L4.67188 57.2532L8.36267 57.2819L10.1465 56.2178L10.5681 56.9242L8.78805 57.9947L7.05985 61.2562L6.56344 60.4239L7.78805 58.1365L7.76293 58.0944L5.16831 58.0855Z" fill="black"/>
<path d="M2.21246 51.2335L1.93164 50.4483L6.85808 48.686L7.13885 49.4712L4.58349 52.9663L4.62397 53.0794L7.99782 51.8724L8.27859 52.6576L3.35226 54.4199L3.07141 53.6348L5.6232 50.1409L5.58295 50.0278L2.21246 51.2335Z" fill="black"/>
<path d="M0.327584 37.8402L0.316406 37.0102L5.54815 36.9399L5.55917 37.7699L2.412 37.8123L2.41366 37.9361L5.15456 39.244L5.16943 40.352L2.46482 41.7369L2.46643 41.8571L5.61379 41.8148L5.62482 42.6484L0.393252 42.7189L0.382046 41.8851L4.30287 39.8715L4.30117 39.7476L0.327584 37.8402Z" fill="black"/>
<path d="M6.54324 31.1633L5.3499 31.2785L4.92529 33.3423L5.97401 33.93L5.79913 34.7797L1.00293 32.1287L1.2648 30.8559L6.71965 30.3062L6.54324 31.1633ZM4.17042 32.93L4.49134 31.37L2.03044 31.6077L2.00547 31.7292L4.17042 32.93Z" fill="black"/>
<path d="M9.34179 23.598L9.53102 24.4L8.52154 24.6428C8.57436 25.0885 8.50025 25.5434 8.29948 26.0077C8.09256 26.4857 7.80487 26.8577 7.43615 27.1239C7.06487 27.3887 6.66025 27.5357 6.22231 27.5646C5.78205 27.5923 5.33666 27.5087 4.88615 27.3139C4.55056 27.1687 4.26023 26.979 4.01508 26.7449C3.76992 26.5105 3.58159 26.249 3.45007 25.9603C3.31723 25.668 3.25289 25.3469 3.25702 24.9969C3.26218 24.6444 3.34228 24.289 3.49738 23.9303C3.65246 23.5718 3.85618 23.2713 4.10854 23.0285C4.36187 22.7834 4.63995 22.6103 4.94282 22.5095C5.24436 22.4052 5.56436 22.3623 5.90307 22.3805C6.24154 22.3987 6.57872 22.4805 6.9141 22.6257C7.54384 22.898 8.00128 23.3072 8.28615 23.8534L9.34179 23.598ZM7.53769 25.678C7.66872 25.3746 7.73846 25.091 7.74615 24.8269L6.58564 25.1067L6.39666 24.3046L7.49025 24.0372C7.29308 23.7744 6.99205 23.5554 6.58769 23.3805C5.48897 22.9054 4.71064 23.1975 4.25233 24.2569C3.797 25.3095 4.11861 26.0734 5.21718 26.5487C5.5182 26.6787 5.79307 26.7528 6.04205 26.7703C6.29179 26.7857 6.51 26.7477 6.69692 26.6567C6.88128 26.5646 7.04205 26.439 7.17897 26.28C7.31461 26.1177 7.4341 25.9172 7.53769 25.678Z" fill="black"/>
<path d="M12.3085 18.4386C12.2721 18.8919 12.1034 19.3309 11.8018 19.7555C11.5003 20.1801 11.1416 20.4845 10.7257 20.6681C10.3075 20.8504 9.88132 20.9101 9.44697 20.8476C9.0103 20.7832 8.59184 20.6091 8.19184 20.325C7.89363 20.1135 7.64902 19.8676 7.45773 19.5876C7.26671 19.3076 7.13671 19.0127 7.06799 18.7027C6.9985 18.3894 7.00235 18.0619 7.07902 17.7204C7.15722 17.3765 7.30927 17.0455 7.53543 16.7271C7.76158 16.4083 8.02312 16.1565 8.3203 15.9714C8.61902 15.7842 8.92697 15.6727 9.24415 15.6368C9.56081 15.5976 9.88286 15.6219 10.2103 15.7101C10.5377 15.7981 10.8506 15.9481 11.1485 16.1596C11.5488 16.4437 11.8511 16.7812 12.0557 17.1722C12.2585 17.5617 12.3426 17.9837 12.3085 18.4386ZM11.1249 19.275C11.7931 18.3337 11.6423 17.5189 10.6724 16.8304C9.69645 16.1376 8.8744 16.2619 8.2062 17.2032C7.54235 18.1383 7.6985 18.9522 8.6744 19.645C8.94184 19.835 9.19543 19.9642 9.43517 20.0332C9.67645 20.1001 9.89799 20.1083 10.0995 20.0578C10.299 20.006 10.4823 19.9165 10.6493 19.7896C10.8157 19.6589 10.9741 19.4873 11.1249 19.275Z" fill="black"/>
<path d="M14.6728 15.0259L16.1746 13.5587L16.7549 14.1523L14.6567 16.2026L11 12.46L11.5964 11.8774L14.6728 15.0259Z" fill="black"/>
<path d="M21.4305 10.6405L20.4938 9.89232L18.752 11.0782L19.0956 12.23L18.3784 12.7185L16.7812 7.47617L17.8556 6.74463L22.1538 10.148L21.4305 10.6405ZM18.4971 10.2564L19.8136 9.36027L17.8818 7.81745L17.7792 7.88719L18.4971 10.2564Z" fill="black"/>
<path d="M24.5443 8.01865L26.4599 7.15942L26.7997 7.9166L24.1232 9.11737L21.9814 4.34375L22.7422 4.00244L24.5443 8.01865Z" fill="black"/>
<path d="M32.4006 6.2318L31.7796 5.20649L29.7357 5.71906L29.6609 6.91893L28.8193 7.12995L29.1278 1.65839L30.3883 1.34229L33.2496 6.01893L32.4006 6.2318ZM29.7796 4.85998L31.3245 4.47259L30.0429 2.35826L29.9227 2.38841L29.7796 4.85998Z" fill="black"/>
<path d="M37.6694 3.50232L39.2145 3.41724L39.3286 5.49117L38.4999 5.53681L38.4071 3.85291L36.172 3.97599L36.2648 5.65988L35.4322 5.70573L35.1445 0.481523L36.8958 0.385087C37.2184 0.367318 37.5025 0.380524 37.7481 0.424678C37.9963 0.466191 38.1991 0.531498 38.3571 0.620601C38.5148 0.707216 38.6453 0.820422 38.7481 0.960191C38.8512 1.09999 38.9245 1.24891 38.9684 1.40699C39.0145 1.56245 39.0432 1.74017 39.0543 1.94019C39.0704 2.23273 39.0409 2.47383 38.9661 2.66352C38.8912 2.85073 38.7481 3.00532 38.5366 3.12729C38.325 3.24929 38.0338 3.33304 37.6627 3.37855L37.6694 3.50232ZM36.1263 3.14716L37.0453 3.09657C37.3027 3.08239 37.5081 3.05729 37.6617 3.02124C37.8153 2.98522 37.9374 2.92706 38.0284 2.84683C38.1191 2.76409 38.1776 2.66432 38.2038 2.54752C38.2322 2.43058 38.2415 2.27586 38.2307 2.08334C38.2163 1.82081 38.1704 1.62647 38.0932 1.50032C38.0186 1.37404 37.8938 1.28937 37.7181 1.24637C37.5453 1.20073 37.2861 1.1874 36.9412 1.2064L36.0222 1.25701L36.1263 3.14716Z" fill="black"/>
<path d="M41.667 5.62221L42.1078 0.408691L42.9385 0.478923L42.4978 5.69246L41.667 5.62221Z" fill="black"/>
<path d="M67.6073 20.2358C67.1886 20.0581 66.8255 19.7592 66.5178 19.3392C66.2101 18.9189 66.035 18.4822 65.9919 18.0297C65.9512 17.5753 66.0291 17.152 66.226 16.7597C66.425 16.3658 66.7222 16.0238 67.1184 15.734C67.4132 15.5179 67.7237 15.3635 68.0499 15.2707C68.376 15.1776 68.6971 15.1476 69.0127 15.1802C69.3317 15.2135 69.6412 15.3204 69.9412 15.5012C70.2427 15.684 70.5086 15.933 70.7394 16.2481C70.9702 16.5633 71.1266 16.8912 71.2081 17.2317C71.2914 17.5743 71.2999 17.9017 71.2337 18.214C71.1709 18.5266 71.0461 18.8245 70.8589 19.1074C70.6719 19.3902 70.4309 19.6397 70.1361 19.8556C69.7399 20.1456 69.3243 20.3258 68.8886 20.3963C68.455 20.4656 68.0281 20.412 67.6073 20.2358ZM67.1876 18.8486C67.8696 19.7802 68.6904 19.8945 69.6499 19.1917C70.6158 18.4848 70.7576 17.6656 70.0758 16.734C69.3984 15.8089 68.5766 15.6997 67.6109 16.4068C67.3463 16.6004 67.1432 16.8002 67.0022 17.0061C66.8627 17.2138 66.7848 17.4212 66.7689 17.6284C66.755 17.834 66.7819 18.0361 66.8499 18.2348C66.9212 18.434 67.0337 18.6386 67.1876 18.8486Z" fill="black"/>
<path d="M72.5229 22.2017L72.1357 21.4676L72.8698 21.0801L73.8614 20.9312L74.0909 21.3663L73.1381 21.5886L73.257 21.8145L72.5229 22.2017Z" fill="black"/>
<path d="M76.6413 27.9421L76.1254 28.128L71.4941 26.6431L72.5 29.4347L71.7193 29.7162L70.2852 25.7375L70.8046 25.55L75.4423 27.0408L74.4336 24.2421L75.2075 23.9634L76.6413 27.9421Z" fill="black"/>
<path d="M75.3886 33.9726C75.3994 34.1918 75.3812 34.3823 75.3342 34.5449C75.2871 34.7074 75.2135 34.8387 75.1132 34.939C75.013 35.039 74.8989 35.1174 74.7712 35.1738C74.6458 35.23 74.4981 35.2721 74.3276 35.3C74.1719 35.3254 74.0232 35.3321 73.8817 35.3197C73.7404 35.31 73.6001 35.2746 73.4609 35.2138C73.3214 35.1528 73.1955 35.0669 73.0835 34.9559C72.9742 34.8469 72.8765 34.6992 72.7901 34.5131C72.7063 34.3264 72.644 34.1095 72.6035 33.8623L72.2881 31.9387L77.4512 31.0918L77.7666 33.0154C77.8014 33.228 77.8083 33.4249 77.7873 33.6059C77.7663 33.7869 77.7242 33.941 77.6614 34.0679C77.5989 34.1974 77.5186 34.311 77.4204 34.4082C77.3222 34.5056 77.2153 34.5815 77.0999 34.6359C76.9871 34.69 76.865 34.7277 76.734 34.7492C76.104 34.8526 75.6963 34.5869 75.5109 33.9526L75.3886 33.9726ZM76.7742 32.0477L75.566 32.2459L75.7448 33.3356C75.7886 33.6026 75.8648 33.7815 75.9737 33.8728C76.083 33.9667 76.2463 33.9956 76.4637 33.96C76.6837 33.9238 76.8304 33.8441 76.904 33.7203C76.9804 33.5987 76.9968 33.4044 76.9532 33.1374L76.7742 32.0477ZM73.4376 33.7256C73.4907 34.0492 73.5807 34.2654 73.7076 34.3741C73.8345 34.4826 74.0399 34.5136 74.324 34.4669C74.6107 34.42 74.7955 34.3249 74.8786 34.1818C74.9648 34.041 74.9809 33.8074 74.9276 33.4813L74.7468 32.3803L73.2568 32.6246L73.4376 33.7256Z" fill="black"/>
<path d="M77.431 41.269L77.4564 38.6813L76.1456 38.6685L76.1261 40.6554L75.2958 40.6472L75.3153 38.6603L73.8769 38.6462L73.8515 41.2342L73.0215 41.226L73.0548 37.8306L78.2866 37.8818L78.2535 41.2772L77.431 41.269Z" fill="black"/>
<path d="M77.2348 48.4147L74.9902 46.1849L72.0928 47.448L72.2774 46.4662L74.7146 45.4147L74.8423 44.7354L72.6792 44.3288L72.8333 43.5093L77.9753 44.4759L77.8212 45.2954L75.6582 44.8888L75.5305 45.568L77.4194 47.4329L77.2348 48.4147Z" fill="black"/>
<path d="M72.8699 59.1518L72.1427 58.7671L72.8804 57.3728L68.9824 55.311L69.3706 54.5771L73.2686 56.6389L74.006 55.2446L74.7332 55.6292L72.8699 59.1518Z" fill="black"/>
<path d="M66.9318 58.6309L71.1723 61.696L70.6839 62.3719L66.4434 59.3068L66.9318 58.6309Z" fill="black"/>
<path d="M65.047 62.3414L63.615 63.8768L63.0078 63.3107L65.0086 61.1655L68.835 64.734L68.266 65.3437L65.047 62.3414Z" fill="black"/>
<path d="M61.2992 64.8506L64.652 68.8673L64.0117 69.4016L60.6592 65.3847L61.2992 64.8506Z" fill="black"/>
<path d="M60.0999 72.2242C59.7332 72.4504 59.3912 72.5965 59.0732 72.6632C58.7568 72.7319 58.4604 72.7188 58.1845 72.6242C57.9076 72.5332 57.6497 72.3745 57.4102 72.1486C57.1707 71.9224 56.9348 71.6209 56.7022 71.2437C56.4709 70.8686 56.3081 70.5232 56.2138 70.2078C56.1191 69.8924 56.0927 69.5896 56.1343 69.2991C56.175 69.0121 56.2966 68.7416 56.4989 68.4875C56.7025 68.2357 56.9874 67.9965 57.354 67.7706L58.8471 66.8501L61.593 71.3037L60.0999 72.2242ZM57.7897 68.4773C57.5276 68.6388 57.3291 68.7919 57.1948 68.9365C57.0584 69.0827 56.974 69.2462 56.9417 69.428C56.9109 69.6116 56.9338 69.8109 57.0102 70.0255C57.0866 70.2403 57.2197 70.5011 57.4089 70.808C57.6032 71.1234 57.7799 71.3645 57.9386 71.5314C58.0953 71.6996 58.263 71.8096 58.442 71.8609C58.6207 71.9124 58.8043 71.9096 58.9927 71.8524C59.1786 71.7965 59.404 71.687 59.6684 71.5239L60.4515 71.0411L58.573 67.9942L57.7897 68.4773Z" fill="black"/>
<path d="M49.8852 71.3241L50.6172 72.2731L52.5908 71.5347L52.5303 70.3339L53.3429 70.0298L53.6503 75.5013L52.4331 75.957L49.0654 71.6308L49.8852 71.3241ZM52.6434 72.3931L51.1518 72.9513L52.6624 74.9088L52.7785 74.8652L52.6434 72.3931Z" fill="black"/>
<path d="M57.3348 9.56752C58.0428 9.56752 58.6168 8.99353 58.6168 8.28547C58.6168 7.57741 58.0428 7.00342 57.3348 7.00342C56.6267 7.00342 56.0527 7.57741 56.0527 8.28547C56.0527 8.99353 56.6267 9.56752 57.3348 9.56752Z" fill="black"/>
<path d="M40.1561 76.2296C40.8641 76.2296 41.4381 75.6556 41.4381 74.9476C41.4381 74.2395 40.8641 73.6655 40.1561 73.6655C39.448 73.6655 38.874 74.2395 38.874 74.9476C38.874 75.6556 39.448 76.2296 40.1561 76.2296Z" fill="black"/>
</svg>
