<svg width="30" height="30" viewBox="0 0 30 30" fill="none" xmlns="http://www.w3.org/2000/svg">
<path d="M15 16.2499C15.6904 16.2499 16.25 15.6903 16.25 14.9999C16.25 14.3096 15.6904 13.7499 15 13.7499C14.3096 13.7499 13.75 14.3096 13.75 14.9999C13.75 15.6903 14.3096 16.2499 15 16.2499Z" stroke="black" stroke-width="2" stroke-linecap="round" stroke-linejoin="round"/>
<path d="M8.75 15.0001C8.75 16.2362 9.11656 17.4446 9.80331 18.4724C10.4901 19.5002 11.4662 20.3013 12.6082 20.7743C13.7503 21.2474 15.0069 21.3711 16.2193 21.13C17.4317 20.8888 18.5453 20.2936 19.4194 19.4195C20.2935 18.5454 20.8888 17.4318 21.1299 16.2194C21.3711 15.007 21.2473 13.7503 20.7742 12.6083C20.3012 11.4663 19.5001 10.4901 18.4723 9.80338C17.4445 9.11662 16.2361 8.75006 15 8.75006" stroke="black" stroke-width="2" stroke-linecap="round" stroke-linejoin="round"/>
<path d="M7.86249 23.6963C9.25649 24.8403 10.9051 25.6325 12.6693 26.006C14.4336 26.3796 16.2618 26.3235 17.9998 25.8425C19.7379 25.3616 21.3348 24.4699 22.6561 23.2425C23.9774 22.0152 24.9842 20.4882 25.5918 18.7903C26.1994 17.0924 26.3899 15.2733 26.1473 13.4863C25.9046 11.6993 25.2359 9.9969 24.1976 8.52246C23.1593 7.04803 21.7817 5.84481 20.181 5.01424C18.5803 4.18366 16.8033 3.75007 15 3.75" stroke="black" stroke-width="2" stroke-linecap="round" stroke-linejoin="round"/>
</svg>
