<svg width="30" height="30" viewBox="0 0 30 30" fill="none" xmlns="http://www.w3.org/2000/svg">
<path d="M3.75 23.75C7.91625 21.25 10 18.75 10 16.25C10 12.5 8.75 12.5 7.5 12.5C6.25 12.5 4.96 13.8563 5 16.25C5.0425 18.81 7.0725 19.8462 8.125 21.25C10 23.75 11.25 24.375 12.5 22.5C13.3337 21.25 13.9587 20.2087 14.375 19.375C15.625 22.2912 17.2912 23.75 19.375 23.75H22.5" stroke="black" stroke-width="2" stroke-linecap="round" stroke-linejoin="round"/>
<path d="M25 21.25V6.25C25 4.84875 23.9013 3.75 22.5 3.75C21.0987 3.75 20 4.84875 20 6.25V21.25L22.5 23.75L25 21.25Z" stroke="black" stroke-width="2" stroke-linecap="round" stroke-linejoin="round"/>
<path d="M20 8.75H25" stroke="black" stroke-width="2" stroke-linecap="round" stroke-linejoin="round"/>
</svg>
