<svg width="30" height="30" viewBox="0 0 30 30" fill="none" xmlns="http://www.w3.org/2000/svg">
<path d="M25 21.25V6.25C25 4.84875 23.9013 3.75 22.5 3.75C21.0987 3.75 20 4.84875 20 6.25V21.25L22.5 23.75L25 21.25Z" stroke="black" stroke-width="2" stroke-linecap="round" stroke-linejoin="round"/>
<path d="M20 8.75H25" stroke="black" stroke-width="2" stroke-linecap="round" stroke-linejoin="round"/>
<path d="M22.5 23.75H6.25C5.58696 23.75 4.95107 23.4866 4.48223 23.0178C4.01339 22.5489 3.75 21.913 3.75 21.25C3.75 20.587 4.01339 19.9511 4.48223 19.4822C4.95107 19.0134 5.58696 18.75 6.25 18.75H11.25C11.913 18.75 12.5489 18.4866 13.0178 18.0178C13.4866 17.5489 13.75 16.913 13.75 16.25C13.75 15.587 13.4866 14.9511 13.0178 14.4822C12.5489 14.0134 11.913 13.75 11.25 13.75H7.5" stroke="black" stroke-width="2" stroke-linecap="round" stroke-linejoin="round"/>
</svg>
