<svg width="387" height="379" viewBox="0 0 387 379" fill="none" xmlns="http://www.w3.org/2000/svg">
<path d="M144.505 161.372C163.095 129.175 185.42 103.253 206.451 87.3595C216.968 79.4114 227.121 74.0017 236.286 71.5443C245.446 69.0883 253.546 69.5971 260.074 73.3663C266.603 77.1356 271.093 83.8952 273.546 93.0562C276.001 102.222 276.392 113.72 274.767 126.802C271.518 152.962 260.232 185.257 241.643 217.455C223.054 249.653 200.728 275.574 179.697 291.468C169.18 299.416 159.027 304.826 149.862 307.283C140.702 309.739 132.603 309.23 126.074 305.461C119.546 301.692 115.055 294.932 112.602 285.771C110.148 276.605 109.756 265.108 111.381 252.026C114.63 225.866 125.916 193.57 144.505 161.372Z" stroke="#E9E9E9" stroke-width="2"/>
<path d="M207.625 135.178C243.495 144.777 274.27 159.618 295.031 175.814C305.413 183.913 313.251 192.32 317.985 200.541C322.717 208.756 324.313 216.717 322.357 224.009C320.401 231.3 315.032 237.397 306.821 242.15C298.606 246.905 287.609 250.272 274.562 252.102C248.474 255.761 214.392 253.247 178.522 243.649C142.652 234.05 111.877 219.209 91.1162 203.013C80.7339 194.914 72.8958 186.507 68.1617 178.287C63.4305 170.071 61.834 162.11 63.7903 154.818C65.7466 147.527 71.1152 141.43 79.3258 136.677C87.5412 131.922 98.5383 128.555 111.585 126.725C137.673 123.066 171.755 125.58 207.625 135.178Z" stroke="#E9E9E9" stroke-width="2"/>
</svg>
