<svg width="100" height="100" viewBox="0 0 100 100" fill="none" xmlns="http://www.w3.org/2000/svg">
<g filter="url(#filter0_d)">
<path d="M50 16C50 16 49.9353 21.861 52.5225 22.1315C55.1097 22.4019 56.2717 16.6556 56.2717 16.6556C56.2717 16.6556 54.9832 22.3752 57.4573 23.1746C59.9314 23.9741 62.2693 18.5936 62.2693 18.5936C62.2693 18.5936 59.8132 23.9218 62.0661 25.2154C64.319 26.509 67.7307 21.7295 67.7307 21.7295C67.7307 21.7295 64.2144 26.4334 66.1476 28.1645C68.0808 29.8957 72.4171 25.9261 72.4171 25.9261C72.4171 25.9261 67.9943 29.8001 69.5234 31.8932C71.0524 33.9862 76.1239 31 76.1239 31C76.1239 31 70.9878 33.8748 72.0459 36.2383C73.104 38.6018 78.6889 36.7295 78.6889 36.7295C78.6889 36.7295 73.064 38.4795 73.6049 41.0101C74.1457 43.5407 80 42.8641 80 42.8641C80 42.8641 74.1322 43.4128 74.1322 46C74.1322 48.5872 80 49.1359 80 49.1359C80 49.1359 74.1457 48.4593 73.6049 50.9899C73.064 53.5205 78.6889 55.2705 78.6889 55.2705C78.6889 55.2705 73.104 53.3982 72.0459 55.7617C70.9878 58.1252 76.1239 61 76.1239 61C76.1239 61 71.0524 58.0138 69.5234 60.1068C67.9943 62.1999 72.4171 66.0739 72.4171 66.0739C72.4171 66.0739 68.0808 62.1043 66.1476 63.8355C64.2144 65.5666 67.7307 70.2705 67.7307 70.2705C67.7307 70.2705 64.319 65.491 62.0661 66.7846C59.8132 68.0782 62.2693 73.4064 62.2693 73.4064C62.2693 73.4064 59.9314 68.0259 57.4573 68.8254C54.9832 69.6248 56.2717 75.3444 56.2717 75.3444C56.2717 75.3444 55.1097 69.5981 52.5225 69.8685C49.9353 70.139 50 76 50 76C50 76 50.0647 70.139 47.4775 69.8685C44.8903 69.5981 43.7283 75.3444 43.7283 75.3444C43.7283 75.3444 45.0168 69.6248 42.5427 68.8254C40.0687 68.0259 37.7307 73.4064 37.7307 73.4064C37.7307 73.4064 40.1868 68.0782 37.9339 66.7846C35.681 65.491 32.2693 70.2705 32.2693 70.2705C32.2693 70.2705 35.7856 65.5666 33.8524 63.8355C31.9192 62.1043 27.5829 66.0739 27.5829 66.0739C27.5829 66.0739 32.0057 62.1999 30.4766 60.1068C28.9476 58.0138 23.8761 61 23.8761 61C23.8761 61 29.0122 58.1252 27.9541 55.7617C26.8961 53.3982 21.3111 55.2705 21.3111 55.2705C21.3111 55.2705 26.936 53.5205 26.3951 50.9899C25.8543 48.4593 20 49.1359 20 49.1359C20 49.1359 25.8678 48.5872 25.8678 46C25.8678 43.4128 20 42.8641 20 42.8641C20 42.8641 25.8543 43.5407 26.3951 41.0101C26.936 38.4795 21.3111 36.7295 21.3111 36.7295C21.3111 36.7295 26.8961 38.6018 27.9541 36.2383C29.0122 33.8748 23.8761 31 23.8761 31C23.8761 31 28.9476 33.9862 30.4766 31.8932C32.0057 29.8001 27.5829 25.9261 27.5829 25.9261C27.5829 25.9261 31.9192 29.8957 33.8524 28.1645C35.7856 26.4334 32.2693 21.7295 32.2693 21.7295C32.2693 21.7295 35.681 26.509 37.9339 25.2154C40.1868 23.9218 37.7307 18.5936 37.7307 18.5936C37.7307 18.5936 40.0687 23.9741 42.5427 23.1746C45.0168 22.3752 43.7283 16.6556 43.7283 16.6556C43.7283 16.6556 44.8903 22.4019 47.4775 22.1315C50.0647 21.861 50 16 50 16Z" fill="#FFAB00"/>
</g>
<defs>
<filter id="filter0_d" x="0" y="0" width="100" height="100" filterUnits="userSpaceOnUse" color-interpolation-filters="sRGB">
<feFlood flood-opacity="0" result="BackgroundImageFix"/>
<feColorMatrix in="SourceAlpha" type="matrix" values="0 0 0 0 0 0 0 0 0 0 0 0 0 0 0 0 0 0 127 0" result="hardAlpha"/>
<feOffset dy="4"/>
<feGaussianBlur stdDeviation="10"/>
<feComposite in2="hardAlpha" operator="out"/>
<feColorMatrix type="matrix" values="0 0 0 0 1 0 0 0 0 0.671875 0 0 0 0 0 0 0 0 0.15 0"/>
<feBlend mode="normal" in2="BackgroundImageFix" result="effect1_dropShadow"/>
<feBlend mode="normal" in="SourceGraphic" in2="effect1_dropShadow" result="shape"/>
</filter>
</defs>
</svg>
