<svg width="348" height="449" viewBox="0 0 348 449" fill="none" xmlns="http://www.w3.org/2000/svg">
<g clip-path="url(#clip0)">
<path d="M332.602 60.3926L124.156 4.53947C116.111 2.3839 107.843 7.15426 105.689 15.1944L4.53752 392.695C2.38318 400.735 7.15824 409.001 15.2029 411.156L223.65 467.009C231.694 469.165 239.962 464.395 242.117 456.354L343.268 78.8535C345.422 70.8134 340.647 62.5482 332.602 60.3926Z" fill="white"/>
<path d="M183.418 58.6194L119.628 41.527C116.854 40.7837 114.003 42.4287 113.26 45.2011C112.517 47.9736 114.164 50.8236 116.938 51.5669L180.728 68.6593C183.502 69.4026 186.353 67.7577 187.096 64.9852C187.839 62.2128 186.192 59.3627 183.418 58.6194Z" fill="#EAEAEA"/>
<path d="M307.447 124.135L114.069 72.3198C109.908 71.2049 105.631 73.6723 104.517 77.831L78.6912 174.214C77.5769 178.373 80.0468 182.648 84.2078 183.763L277.586 235.578C281.747 236.693 286.024 234.226 287.138 230.067L312.964 133.684C314.078 129.525 311.608 125.25 307.447 124.135Z" fill="#EAEAEA"/>
<path d="M240.911 233.822L79.6791 190.62C76.905 189.876 74.054 191.521 73.3112 194.294C72.5683 197.066 74.2149 199.916 76.9889 200.66L238.221 243.862C240.995 244.605 243.846 242.96 244.589 240.188C245.332 237.415 243.685 234.565 240.911 233.822Z" fill="#EAEAEA"/>
<path d="M156.341 229.993L74.9711 208.19C72.197 207.446 69.346 209.091 68.6031 211.864C67.8603 214.636 69.5068 217.486 72.2809 218.23L153.65 240.032C156.424 240.776 159.275 239.131 160.018 236.358C160.761 233.586 159.115 230.736 156.341 229.993Z" fill="#EAEAEA"/>
<path d="M258.517 214.328C267.116 216.632 275.954 211.533 278.257 202.938C280.56 194.343 275.456 185.508 266.856 183.204C258.257 180.9 249.419 185.999 247.116 194.594C244.813 203.188 249.917 212.023 258.517 214.328Z" fill="#909090"/>
<path d="M254.902 201.701C255.959 201.418 257.074 201.418 258.131 201.702C259.189 201.985 260.154 202.542 260.929 203.316C261.987 203.033 263.101 203.033 264.159 203.317C265.217 203.6 266.182 204.157 266.956 204.931" stroke="#EAEAEA" stroke-width="2.66667" stroke-linecap="round" stroke-linejoin="round"/>
<path d="M257.233 192.999C258.291 192.716 259.405 192.717 260.463 193C261.521 193.284 262.486 193.84 263.26 194.614C264.318 194.331 265.432 194.332 266.49 194.615C267.548 194.899 268.513 195.455 269.288 196.229" stroke="#EAEAEA" stroke-width="2.66667" stroke-linecap="round" stroke-linejoin="round"/>
<path d="M257.233 193L254.901 201.701" stroke="#EAEAEA" stroke-width="2.66667" stroke-linecap="round" stroke-linejoin="round"/>
<path d="M263.26 194.615L260.929 203.316" stroke="#EAEAEA" stroke-width="2.66667" stroke-linecap="round" stroke-linejoin="round"/>
<path d="M269.288 196.23L266.956 204.931" stroke="#EAEAEA" stroke-width="2.66667" stroke-linecap="round" stroke-linejoin="round"/>
<path d="M260.1 300.838L66.7217 249.022C62.5607 247.907 58.2842 250.375 57.1699 254.533L31.3441 350.917C30.2297 355.075 32.6996 359.35 36.8606 360.465L230.239 412.281C234.4 413.396 238.677 410.928 239.791 406.77L265.617 310.387C266.731 306.228 264.261 301.953 260.1 300.838Z" fill="#EAEAEA"/>
<path d="M193.564 410.524L32.3314 367.322C29.5574 366.579 26.7064 368.224 25.9635 370.997C25.2206 373.769 26.8672 376.619 29.6412 377.362L190.874 420.564C193.648 421.308 196.499 419.663 197.241 416.89C197.984 414.118 196.338 411.268 193.564 410.524Z" fill="#EAEAEA"/>
<path d="M108.993 406.695L27.6239 384.892C24.8499 384.149 21.9989 385.794 21.256 388.566C20.5131 391.339 22.1597 394.189 24.9337 394.932L106.303 416.735C109.077 417.478 111.928 415.833 112.671 413.061C113.414 410.289 111.767 407.438 108.993 406.695Z" fill="#EAEAEA"/>
<path d="M211.169 391.03C219.769 393.334 228.607 388.235 230.91 379.64C233.213 371.046 228.108 362.211 219.509 359.906C210.909 357.602 202.071 362.701 199.768 371.296C197.465 379.891 202.57 388.726 211.169 391.03Z" fill="#909090"/>
<path d="M207.554 378.403C208.612 378.12 209.726 378.121 210.784 378.404C211.842 378.688 212.807 379.244 213.582 380.018C214.64 379.735 215.754 379.736 216.812 380.019C217.869 380.303 218.835 380.859 219.609 381.633" stroke="#EAEAEA" stroke-width="2.66667" stroke-linecap="round" stroke-linejoin="round"/>
<path d="M209.886 369.702C210.944 369.419 212.058 369.419 213.116 369.703C214.174 369.986 215.139 370.543 215.913 371.317C216.971 371.034 218.085 371.034 219.143 371.318C220.201 371.601 221.166 372.158 221.941 372.932" stroke="#EAEAEA" stroke-width="2.66667" stroke-linecap="round" stroke-linejoin="round"/>
<path d="M209.885 369.703L207.554 378.404" stroke="#EAEAEA" stroke-width="2.66667" stroke-linecap="round" stroke-linejoin="round"/>
<path d="M215.913 371.318L213.582 380.019" stroke="#EAEAEA" stroke-width="2.66667" stroke-linecap="round" stroke-linejoin="round"/>
<path d="M221.94 372.933L219.609 381.634" stroke="#EAEAEA" stroke-width="2.66667" stroke-linecap="round" stroke-linejoin="round"/>
<path d="M332.602 60.3926L124.156 4.53947C116.111 2.3839 107.843 7.15426 105.689 15.1944L4.53752 392.695C2.38318 400.735 7.15824 409.001 15.2029 411.156L223.65 467.009C231.694 469.165 239.962 464.395 242.117 456.354L343.268 78.8535C345.422 70.8134 340.647 62.5482 332.602 60.3926Z" stroke="#EAEAEA" stroke-width="2"/>
</g>
<defs>
<clipPath id="clip0">
<rect width="247" height="422" fill="white" transform="translate(109.222) rotate(15)"/>
</clipPath>
</defs>
</svg>
