<svg width="136" height="118" viewBox="0 0 136 118" fill="none" xmlns="http://www.w3.org/2000/svg">
<g clip-path="url(#clip0_67_1804)">
<path d="M39.135 99.7083C40.0071 100.829 40.3785 101.909 40.2488 102.947C40.1131 103.978 39.5441 104.883 38.5418 105.663L33.7593 109.384L32.6723 107.988L37.4075 104.303C38.0468 103.805 38.4168 103.239 38.5175 102.603C38.6121 101.959 38.4075 101.314 37.904 100.666C37.4003 100.019 36.828 99.6664 36.1868 99.6077C35.5457 99.5492 34.9055 99.7686 34.2662 100.266L29.531 103.951L28.444 102.554L33.2147 98.8414C34.2249 98.0554 35.2493 97.7271 36.2877 97.8567C37.3201 97.9784 38.2691 98.5956 39.135 99.7083Z" fill="black"/>
<path d="M34.2012 90.9566C34.904 92.5265 34.9739 93.9798 34.4109 95.3164L32.7804 94.9781C33.2687 93.8173 33.2575 92.6664 32.7468 91.5256C32.473 90.914 32.1455 90.5129 31.7643 90.3219C31.3788 90.1219 31.0174 90.0975 30.6796 90.2487C30.3328 90.404 30.1407 90.7091 30.1033 91.1641C30.0568 91.6231 30.0907 92.1393 30.205 92.7127C30.3192 93.286 30.4127 93.8742 30.4853 94.4771C30.5539 95.0709 30.4737 95.6382 30.2447 96.179C30.0156 96.7197 29.5908 97.129 28.9701 97.4068C28.2034 97.7501 27.4322 97.7283 26.6565 97.3415C25.8675 96.9496 25.2524 96.2609 24.8112 95.2751C24.1819 93.8695 24.0956 92.5386 24.5522 91.2824L26.154 91.6665C25.7708 92.6707 25.8182 93.7067 26.2963 94.7746C26.5088 95.2493 26.7833 95.5811 27.1199 95.7701C27.4432 95.9539 27.7783 95.9683 28.1252 95.813C28.3534 95.7109 28.5021 95.5293 28.5715 95.2681C28.6368 94.9979 28.6501 94.685 28.6116 94.3298C28.564 93.9786 28.502 93.5955 28.4258 93.1804C28.3455 92.7562 28.29 92.3264 28.2594 91.8909C28.2155 91.4503 28.22 91.0319 28.2728 90.6359C28.3255 90.2398 28.4779 89.8703 28.7297 89.5274C28.9776 89.1755 29.3343 88.8953 29.7997 88.6869C30.6212 88.3192 31.4293 88.3134 32.2243 88.6697C33.0192 89.026 33.6783 89.7883 34.2012 90.9566Z" fill="black"/>
<path d="M30.6939 78.4752L32.0326 85.1983L22.2202 87.152L20.8815 80.4289L22.3968 80.1273L23.3927 85.1291L25.9377 84.6223L24.9624 79.7235L26.4776 79.4218L27.4531 84.3206L30.1745 83.7788L29.1787 78.7769L30.6939 78.4752Z" fill="black"/>
<path d="M30.7539 73.9608L30.7051 75.7151L20.7039 75.4368L20.8946 68.5844L22.439 68.6274L22.2972 73.7254L24.8911 73.7976L25.0301 68.8046L26.5745 68.8475L26.4356 73.8406L30.7539 73.9608Z" fill="black"/>
<path d="M32.781 62.0995C32.4047 63.4686 31.7617 64.412 30.8521 64.9295C29.9451 65.4372 28.8793 65.5229 27.6546 65.1863L21.8114 63.5804L22.2803 61.8737L28.0658 63.4637C28.8469 63.6783 29.5224 63.6358 30.0921 63.3361C30.6645 63.0268 31.0594 62.4767 31.2768 61.686C31.494 60.8953 31.4344 60.2256 31.0978 59.6767C30.7612 59.128 30.2024 58.7462 29.4213 58.5316L23.6359 56.9415L24.1049 55.2349L29.9338 56.8368C31.168 57.176 32.0439 57.8004 32.5613 58.71C33.0814 59.6101 33.1546 60.7399 32.781 62.0995Z" fill="black"/>
<path d="M38.0104 50.3803L35.0517 55.789L26.2742 50.9873L27.1165 49.4476L34.5385 53.5078L36.655 49.6389L38.0104 50.3803Z" fill="black"/>
<path d="M47.683 40.4366L43.8221 43.6993L37.3642 36.0577L41.122 32.882C41.8018 32.3075 42.4908 32.046 43.189 32.0976C43.8883 32.135 44.4736 32.4325 44.9448 32.9901C45.3321 33.4483 45.5314 33.9476 45.5429 34.4879C45.5554 35.014 45.4068 35.4734 45.0971 35.866C45.5612 35.5787 46.0895 35.4988 46.6819 35.6266C47.2755 35.7403 47.7692 36.0301 48.1629 36.4961C48.6793 37.1071 48.9003 37.7714 48.8258 38.489C48.759 39.2 48.3781 39.8492 47.683 40.4366ZM43.5193 36.2764C43.8554 35.9925 44.0414 35.6781 44.0775 35.3335C44.1135 34.9888 44.0089 34.6713 43.7636 34.3811C43.5119 34.0832 43.213 33.9233 42.8672 33.9013C42.5213 33.8794 42.1804 34.0104 41.8443 34.2944L39.7019 36.105L41.3769 38.087L43.5193 36.2764ZM46.365 39.5276C46.7316 39.2178 46.9405 38.8841 46.9919 38.5265C47.0367 38.1613 46.9172 37.8106 46.6332 37.4746C46.3815 37.1767 46.0686 37.0156 45.6945 36.9913C45.314 36.9593 44.9404 37.0983 44.5738 37.4081L42.3741 39.2671L44.1653 41.3866L46.365 39.5276Z" fill="black"/>
<path d="M57.5784 34.6965L52.1023 37.5285L47.5064 28.6415L49.0653 27.8353L52.9515 35.35L56.8687 33.3242L57.5784 34.6965Z" fill="black"/>
<path d="M67.8724 30.6701C67.1669 31.8383 66.0899 32.5972 64.6416 32.9468C63.1931 33.2965 61.8886 33.1126 60.7277 32.395C59.5646 31.6676 58.8069 30.5748 58.4549 29.1168C58.1029 27.6587 58.2797 26.3455 58.9852 25.1773C59.6885 23.9994 60.7642 23.2356 62.2127 22.8859C63.661 22.5362 64.9669 22.7251 66.13 23.4524C67.2908 24.17 68.0472 25.2579 68.3993 26.7161C68.7513 28.1741 68.5757 29.4921 67.8724 30.6701ZM64.2755 31.4304C65.2379 31.1981 65.9357 30.6799 66.3691 29.8757C66.8001 29.0618 66.8936 28.1494 66.6495 27.1385C66.4031 26.1177 65.9036 25.3485 65.1511 24.8306C64.3985 24.3128 63.5411 24.17 62.5787 24.4024C61.6066 24.637 60.9039 25.1565 60.4705 25.9606C60.0469 26.7624 59.9582 27.6737 60.2047 28.6943C60.4511 29.715 60.9457 30.4855 61.6885 31.0057C62.4411 31.5235 63.3034 31.6651 64.2755 31.4304Z" fill="black"/>
<path d="M76.339 32.1185C74.8596 32.0778 73.6282 31.5638 72.645 30.5763C71.6618 29.5889 71.1915 28.3255 71.2339 26.786C71.2762 25.2466 71.8154 24.016 72.8511 23.0941C73.8872 22.1623 75.1449 21.7168 76.6243 21.7575C78.3437 21.8049 79.669 22.5367 80.6005 23.9528L79.1387 24.7229C78.8695 24.3253 78.5085 23.9952 78.0555 23.7327C77.6125 23.4703 77.1212 23.3318 76.5814 23.3169C75.5918 23.2897 74.7578 23.6068 74.0792 24.2684C73.4108 24.9303 73.0621 25.7859 73.0331 26.8355C73.0043 27.8852 73.3051 28.7638 73.9359 29.4714C74.577 30.1693 75.3923 30.532 76.382 30.5591C76.8517 30.5721 77.299 30.4944 77.7238 30.326C78.1587 30.1579 78.5093 29.9575 78.7758 29.7247L78.8188 28.1653L75.8349 28.0832L75.8775 26.5387L80.6156 26.6692L80.5124 30.4178C79.3895 31.5974 77.9983 32.1643 76.339 32.1185Z" fill="black"/>
<path d="M96.4588 36.7577C95.1789 37.2313 93.8637 37.1533 92.5133 36.5237C91.1627 35.8943 90.2574 34.9371 89.7971 33.6523C89.341 32.3585 89.4298 31.0318 90.0636 29.6723C90.6973 28.3127 91.6541 27.3962 92.9341 26.9226C94.2182 26.44 95.5355 26.5134 96.886 27.1428C98.2365 27.7724 99.1398 28.7341 99.5959 30.0279C100.056 31.3126 99.9694 32.6348 99.3357 33.9944C98.702 35.3539 97.743 36.2751 96.4588 36.7577ZM93.1723 35.1098C94.0696 35.5281 94.9384 35.5579 95.7785 35.1994C96.623 34.8317 97.2648 34.1765 97.7042 33.2339C98.1479 32.2822 98.2368 31.3693 97.9713 30.4953C97.7057 29.6212 97.1242 28.975 96.2269 28.5568C95.3205 28.1343 94.4473 28.1024 93.6071 28.461C92.776 28.8238 92.1386 29.481 91.695 30.4328C91.2514 31.3845 91.1579 32.2952 91.4143 33.165C91.68 34.0391 92.266 34.6874 93.1723 35.1098Z" fill="black"/>
<path d="M105.257 45.5132L103.961 44.4204L104.574 35.597L99.9705 41.0552L98.6289 39.9238L105.079 32.2756L106.455 33.4358L105.888 42.0426L110.365 36.7335L111.707 37.8649L105.257 45.5132Z" fill="black"/>
<path d="M110.282 52.5139L106.611 47.5609L114.649 41.6036L115.694 43.0135L108.897 48.0509L111.523 51.5939L110.282 52.5139Z" fill="black"/>
<path d="M112.283 56.7193L111.502 55.1479L120.46 50.6925L121.241 52.2638L112.283 56.7193Z" fill="black"/>
<path d="M116.163 68.9273L115.726 67.2897L121.275 60.4029L114.378 62.2468L113.924 60.5513L123.59 57.9676L124.055 59.7065L118.666 66.4415L125.375 64.6481L125.829 66.3435L116.163 68.9273Z" fill="black"/>
<path d="M116.256 78.1953L116.113 71.3418L126.116 71.1334L126.258 77.987L124.713 78.0194L124.608 72.9202L122.013 72.9744L122.117 77.9682L120.572 78.0004L120.469 73.0064L117.694 73.0643L117.8 78.1631L116.256 78.1953Z" fill="black"/>
</g>
<defs>
<clipPath id="clip0_67_1804">
<rect width="114" height="82" fill="white" transform="translate(0.414551 39.9678) rotate(-20)"/>
</clipPath>
</defs>
</svg>
