<svg width="140" height="118" viewBox="0 0 140 118" fill="none" xmlns="http://www.w3.org/2000/svg">
<g clip-path="url(#clip0_67_1446)">
<path d="M39.8525 102.574L41.2063 104.295L35.7951 113.599L34.5617 112.03L39.0364 104.618L30.8153 107.267L29.582 105.699L39.8525 102.574Z" fill="black"/>
<path d="M35.8938 95.848L36.7031 97.4053L27.8328 102.033L27.0235 100.476L35.8938 95.848Z" fill="black"/>
<path d="M33.1206 88.5152L34.1909 92.078L24.6089 94.9564L23.5387 91.3937C23.0927 89.9092 23.1756 88.5687 23.7872 87.3721C24.3988 86.1755 25.4133 85.3644 26.8308 84.9386C28.2386 84.5157 29.5274 84.6349 30.6972 85.2963C31.864 85.9482 32.6719 87.0211 33.1206 88.5152ZM31.641 88.9597C31.3389 87.9541 30.7826 87.2494 29.9722 86.8454C29.1617 86.4416 28.2872 86.3806 27.3486 86.6625C26.3813 86.953 25.6741 87.4839 25.2271 88.2551C24.7772 89.0168 24.7076 89.9148 25.0183 90.9491L25.5837 92.831L32.2063 90.8416L31.641 88.9597Z" fill="black"/>
<path d="M31.176 74.6001L31.639 81.4394L21.6546 82.0817L21.1916 75.2423L22.7334 75.1432L23.0779 80.2315L25.6676 80.065L25.3302 75.0813L26.872 74.9822L27.2094 79.9658L29.9787 79.7877L29.6342 74.6993L31.176 74.6001Z" fill="black"/>
<path d="M31.5254 63.5799C32.3239 64.6912 32.6009 65.9817 32.3564 67.4516C32.1119 68.9213 31.433 70.0476 30.3194 70.8303C29.1961 71.6112 27.8952 71.8747 26.4169 71.6207C24.9386 71.3665 23.8002 70.6839 23.0017 69.5726C22.1934 68.4596 21.9115 67.1682 22.156 65.6984C22.4004 64.2286 23.0843 63.1032 24.2077 62.3222C25.3212 61.5395 26.6171 61.2753 28.0954 61.5293C29.5738 61.7834 30.7171 62.467 31.5254 63.5799ZM30.8189 67.1873C30.9813 66.2108 30.7775 65.364 30.2074 64.647C29.6275 63.9284 28.8251 63.4811 27.8001 63.3048C26.7653 63.1271 25.8627 63.2814 25.0925 63.7679C24.3222 64.2545 23.8559 64.9861 23.6934 65.9626C23.5294 66.9491 23.7323 67.8008 24.3025 68.5177C24.8742 69.2247 25.6774 69.6671 26.7123 69.845C27.747 70.023 28.6488 69.8735 29.4174 69.3968C30.1877 68.9103 30.6549 68.1738 30.8189 67.1873Z" fill="black"/>
<path d="M39.0214 51.0978C38.2393 52.3777 37.1796 53.1917 35.842 53.5394C34.496 53.8819 33.1769 53.653 31.8848 52.8525C30.5925 52.052 29.7991 50.9724 29.5044 49.6135C29.2012 48.2495 29.4407 46.9274 30.2227 45.6475C31.13 44.1627 32.4663 43.4142 34.2316 43.402L34.0998 45.0848C33.6039 45.0717 33.1213 45.1903 32.6519 45.4407C32.1877 45.6825 31.8201 46.0252 31.549 46.4689C31.0328 47.3137 30.8916 48.1967 31.1256 49.1181C31.3648 50.0308 31.9307 50.7636 32.8232 51.3165C33.7159 51.8695 34.6207 52.0477 35.5376 51.8511C36.4599 51.646 37.179 51.1211 37.6952 50.2763C37.9716 49.8241 38.1123 49.3348 38.1174 48.8087C38.1225 48.2825 38.0075 47.7995 37.7723 47.3597L39.2048 46.4826C39.9793 48.0917 39.9182 49.6301 39.0214 51.0978Z" fill="black"/>
<path d="M47.5315 39.4042C47.5186 40.7721 46.9788 41.9763 45.9123 43.0168C44.8459 44.0574 43.632 44.5641 42.2707 44.5372C40.9025 44.503 39.6972 43.9466 38.6547 42.8681C37.6122 41.7895 37.0974 40.5663 37.1104 39.1985C37.1164 37.8234 37.6527 36.6156 38.7191 35.5751C39.7856 34.5345 41.003 34.0313 42.3712 34.0655C43.7324 34.0926 44.9344 34.6453 45.9768 35.7238C47.0194 36.8024 47.5376 38.0291 47.5315 39.4042ZM44.8281 41.8952C45.5367 41.2038 45.8731 40.4006 45.8371 39.4857C45.7941 38.5636 45.4113 37.7287 44.6884 36.9809C43.9587 36.2259 43.1392 35.817 42.2301 35.754C41.3208 35.6911 40.5119 36.0054 39.8033 36.6967C39.0876 37.3951 38.7477 38.2018 38.7837 39.1166C38.8269 40.0246 39.2133 40.856 39.9431 41.611C40.6728 42.366 41.4887 42.7784 42.3907 42.8483C43.2999 42.9112 44.1125 42.5936 44.8281 41.8952Z" fill="black"/>
<path d="M54.9906 36.5275C53.7608 37.2371 52.6411 37.4561 51.6317 37.1841C50.6309 36.9072 49.8143 36.218 49.182 35.1166L46.1646 29.8613L47.6977 28.9767L50.6852 34.18C51.0885 34.8825 51.5977 35.3275 52.2128 35.5153C52.8366 35.6979 53.5037 35.5844 54.2139 35.1746C54.9242 34.7648 55.3529 34.2462 55.5 33.6186C55.6471 32.9912 55.5189 32.3262 55.1156 31.6238L52.1281 26.4204L53.6612 25.5358L56.6711 30.7782C57.3085 31.8882 57.4908 32.949 57.2184 33.9606C56.9545 34.9672 56.212 35.8228 54.9906 36.5275Z" fill="black"/>
<path d="M68.2638 31.4408L66.3224 32.0169L63.1289 29.0686L61.4608 29.5635L62.526 33.1434L60.8435 33.6426L57.9902 24.0531L62.2036 22.8029C63.1432 22.5241 63.9832 22.5773 64.7238 22.9626C65.4645 23.3478 65.9674 23.9861 66.2326 24.8775C66.4722 25.6826 66.4442 26.395 66.1486 27.0147C65.8502 27.6247 65.4004 28.0763 64.799 28.3696L68.2638 31.4408ZM63.321 27.3999C63.8004 27.2577 64.1522 27.0021 64.3762 26.6331C64.6003 26.2641 64.6438 25.8496 64.5069 25.3895C64.3701 24.9294 64.1069 24.606 63.7174 24.419C63.328 24.2321 62.8935 24.2097 62.4142 24.352L60.1133 25.0347L61.0203 28.0826L63.321 27.3999Z" fill="black"/>
<path d="M74.1812 31.2493C72.4653 31.3675 71.0753 30.9321 70.0113 29.9428L70.8868 28.5294C71.8109 29.3878 72.8966 29.7741 74.1436 29.6882C74.8121 29.6421 75.3012 29.4731 75.6109 29.1812C75.9307 28.8885 76.0772 28.5576 76.0505 28.1886C76.0232 27.8096 75.8021 27.5241 75.3871 27.3322C74.9715 27.1303 74.4747 26.9841 73.8967 26.8937C73.3186 26.8031 72.7339 26.6881 72.1423 26.5484C71.5607 26.408 71.0548 26.1372 70.6248 25.7358C70.1948 25.3344 69.9552 24.7946 69.9063 24.1163C69.8457 23.2785 70.1299 22.5623 70.7586 21.9677C71.3967 21.3624 72.2545 21.0226 73.3319 20.9484C74.8682 20.8426 76.1488 21.2204 77.1735 22.082L76.2649 23.4527C75.452 22.7469 74.4619 22.4342 73.2946 22.5147C72.7759 22.5504 72.3702 22.6936 72.0775 22.9443C71.794 23.1844 71.6659 23.4939 71.6933 23.8729C71.7114 24.1223 71.8313 24.3245 72.053 24.4796C72.2847 24.6341 72.5741 24.7545 72.9213 24.8408C73.2676 24.9172 73.649 24.9911 74.0652 25.0627C74.4914 25.1336 74.9144 25.2297 75.3343 25.3511C75.7634 25.462 76.1551 25.6103 76.5095 25.7965C76.8638 25.9825 77.159 26.2528 77.3951 26.6075C77.6413 26.9614 77.7827 27.3927 77.8195 27.9014C77.8843 28.799 77.6133 29.5594 77.0067 30.1826C76.4 30.8058 75.4582 31.1614 74.1812 31.2493Z" fill="black"/>
<path d="M87.0198 32.164L80.2347 31.1871L81.6091 21.277L88.3941 22.2539L88.1818 23.7842L83.1339 23.0575L82.7774 25.6278L87.7214 26.3397L87.5092 27.8701L82.5652 27.1582L82.184 29.9069L87.232 30.6338L87.0198 32.164Z" fill="black"/>
<path d="M103.045 38.1601C101.738 38.5377 100.435 38.3612 99.1369 37.6306C97.8383 36.9 97.0058 35.8752 96.6394 34.5562C96.278 33.2284 96.4609 31.9086 97.1883 30.5968C97.9157 29.2849 98.9329 28.4401 100.24 28.0625C101.552 27.6762 102.857 27.8482 104.156 28.5789C105.455 29.3094 106.284 30.3389 106.646 31.6665C107.012 32.9855 106.832 34.3008 106.104 35.6129C105.377 36.9247 104.357 37.7737 103.045 38.1601ZM99.8933 36.2663C100.756 36.7517 101.618 36.8467 102.48 36.551C103.346 36.2467 104.031 35.6397 104.535 34.7302C105.045 33.8117 105.198 32.9058 104.996 32.012C104.795 31.1182 104.262 30.4288 103.4 29.9431C102.528 29.4529 101.661 29.3555 100.8 29.6511C99.9472 29.9517 99.2662 30.561 98.7571 31.4794C98.2479 32.3976 98.09 33.3012 98.2832 34.1901C98.485 35.0839 99.0218 35.7759 99.8933 36.2663Z" fill="black"/>
<path d="M111.186 47.394L109.958 46.2261L111.071 37.4302L106.176 42.6284L104.904 41.4189L111.763 34.1348L113.067 35.3754L112.013 43.9567L116.773 38.9006L118.045 40.1102L111.186 47.394Z" fill="black"/>
<path d="M115.825 54.5559L112.379 49.444L120.659 43.8272L121.64 45.2825L114.638 50.032L117.103 53.6886L115.825 54.5559Z" fill="black"/>
<path d="M117.656 58.7698L116.927 57.1733L126.024 53.008L126.753 54.6044L117.656 58.7698Z" fill="black"/>
<path d="M121.242 71.0344L120.837 69.3883L126.525 62.6225L119.589 64.3197L119.17 62.6155L128.888 60.2377L129.319 61.9854L123.795 68.6029L130.541 66.9521L130.96 68.6564L121.242 71.0344Z" fill="black"/>
<path d="M121.295 80.2287L121.181 73.3745L131.185 73.2468L131.3 80.1006L129.754 80.1205L129.669 75.0213L127.075 75.0542L127.158 80.0486L125.613 80.0685L125.53 75.0742L122.756 75.1095L122.84 80.2091L121.295 80.2287Z" fill="black"/>
</g>
<defs>
<clipPath id="clip0_67_1446">
<rect width="118" height="82" fill="white" transform="translate(0.534668 40.6523) rotate(-20)"/>
</clipPath>
</defs>
</svg>
